<?xml version="1.0" standalone="no"?>
<!DOCTYPE svg PUBLIC "-//W3C//DTD SVG 20010904//EN"
 "http://www.w3.org/TR/2001/REC-SVG-20010904/DTD/svg10.dtd">
<svg version="1.0" xmlns="http://www.w3.org/2000/svg"
 width="122.000000pt" height="122.000000pt" viewBox="0 0 122.000000 122.000000"
 preserveAspectRatio="xMidYMid meet">
<metadata>
Created by potrace 1.11, written by Peter Selinger 2001-2013
</metadata>
<g transform="translate(0.000000,122.000000) scale(0.100000,-0.100000)"
fill="#000000" stroke="none">
<path d="M90 1090 c0 -93 3 -129 13 -132 6 -2 132 -4 279 -3 267 1 268 1 254
-20 -13 -21 -191 -325 -210 -360 -13 -24 -130 -221 -232 -391 -40 -67 -80
-136 -88 -153 l-17 -31 521 1 521 0 -3 132 -3 132 -277 0 c-276 -1 -277 0
-264 20 11 16 357 607 416 710 9 17 32 55 50 85 18 30 43 74 56 96 l23 41
-519 1 -520 0 0 -128z"/>
</g>
</svg>
