<?xml version="1.0" encoding="UTF-8"?>
<svg width="106px" height="34px" viewBox="0 0 106 34" version="1.1" xmlns="http://www.w3.org/2000/svg" xmlns:xlink="http://www.w3.org/1999/xlink">
    <!-- Generator: Sketch 51.3 (57544) - http://www.bohemiancoding.com/sketch -->
    <title>logo_01</title>
    <desc>Created with Sketch.</desc>
    <defs></defs>
    <g id="Symbols" stroke="none" stroke-width="1" fill="none" fill-rule="evenodd">
        <g id="logos" transform="translate(0.000000, -1.000000)" fill-rule="nonzero">
            <g id="logo_01" transform="translate(0.000000, 1.000000)">
                <path d="M34.3235535,19.6363679 C34.3235535,19.8085192 34.1800016,19.9486423 34.0085369,19.9486423 L27.9394837,19.9486423 C28.0910106,21.4539652 29.2194877,22.827172 30.8065331,22.827172 C31.8911471,22.827172 32.6966325,22.4108061 33.3027403,21.5420426 C33.3904664,21.4219371 33.5220556,21.3458702 33.6895328,21.4179336 C33.7812465,21.4579688 33.8450473,21.5420426 33.8609975,21.6381271 C33.8769477,21.738215 33.8490348,21.7942643 33.821122,21.8503136 C33.2110266,22.919253 31.9948234,23.4437139 30.8025456,23.4437139 C28.7609193,23.4437139 27.305463,21.6101025 27.305463,19.6483785 C27.305463,17.6866545 28.7609193,15.8530431 30.8025456,15.8530431 C32.8441719,15.8490395 34.3195659,17.6786474 34.3235535,19.6363679 Z M33.6735826,19.3401075 C33.5419934,17.8347846 32.3935786,16.4615778 30.8065331,16.4615778 C29.2194877,16.4615778 28.0910106,17.8347846 27.9394837,19.3401075 L33.6735826,19.3401075 Z M41.6885609,16.0011732 C41.8640131,16.0011732 41.9916148,16.1533069 41.9916148,16.3054406 C41.9916148,16.4815954 41.8600256,16.609708 41.6885609,16.609708 L40.0616399,16.609708 L40.0616399,23.0193409 C40.0616399,23.1714746 39.9300507,23.3236083 39.758586,23.3236083 C39.5831337,23.3236083 39.4555321,23.1714746 39.4555321,23.0193409 L39.4555321,16.609708 L37.8924119,16.609708 C37.7169597,16.609708 37.589358,16.4775919 37.589358,16.3054406 C37.589358,16.1533069 37.7209472,16.0011732 37.8924119,16.0011732 L39.4555321,16.0011732 L39.4555321,13.6551115 C39.4555321,13.5069813 39.5552209,13.3708617 39.6987727,13.3468406 C39.9021378,13.3148124 40.0616399,13.4549356 40.0616399,13.6471044 L40.0616399,16.0011732 L41.6885609,16.0011732 Z M51.6135763,19.0998964 L51.6135763,22.9833093 C51.6135763,23.1594641 51.4620493,23.2875767 51.3105224,23.2875767 C51.1350701,23.2875767 51.0074685,23.1554606 51.0074685,22.9833093 L51.0074685,19.0998964 C51.0074685,17.7907459 50.2697715,16.4815954 48.8143152,16.4815954 C46.9481411,16.4815954 46.1426558,18.1190344 46.2503197,19.7965086 C46.2503197,19.8405473 46.2702574,20.0367197 46.2702574,20.0567373 L46.2702574,22.9712987 C46.2702574,23.1194289 46.1705686,23.2555485 46.0270168,23.2795696 C45.8236517,23.3115978 45.6641496,23.1714746 45.6641496,22.9793057 L45.6641496,10.2240962 C45.6641496,10.0719625 45.7957388,9.91982884 45.9672035,9.91982884 C46.1426558,9.91982884 46.2702574,10.0719625 46.2702574,10.2240962 L46.2702574,17.4424398 C46.7926266,16.5056165 47.7257137,15.8730606 48.8103276,15.8730606 C50.5927631,15.8730606 51.6135763,17.4424398 51.6135763,19.0998964 Z M62.495604,19.6363679 C62.495604,19.8085192 62.3520522,19.9486423 62.1805875,19.9486423 L56.1075467,19.9486423 C56.2590736,21.4539652 57.3875507,22.827172 58.9745961,22.827172 C60.0592101,22.827172 60.8646955,22.4108061 61.4708033,21.5420426 C61.5585294,21.4219371 61.6901186,21.3458702 61.8575958,21.4179336 C61.9493095,21.4579688 62.0131103,21.5420426 62.0290605,21.6381271 C62.0450107,21.738215 62.0170978,21.7942643 61.989185,21.8503136 C61.3790896,22.919253 60.1628865,23.4437139 58.9706086,23.4437139 C56.9289823,23.4437139 55.473526,21.6101025 55.473526,19.6483785 C55.473526,17.6866545 56.9289823,15.8530431 58.9706086,15.8530431 C61.0162224,15.8490395 62.4916165,17.6786474 62.495604,19.6363679 Z M61.8416456,19.3401075 C61.7100564,17.8347846 60.5616416,16.4615778 58.9745961,16.4615778 C57.3875507,16.4615778 56.2590736,17.8347846 56.1075467,19.3401075 L61.8416456,19.3401075 Z M69.94435,16.285423 C69.94435,16.4815954 69.8366861,16.5896904 69.6612339,16.6137115 C67.8787984,16.8739402 67.0773006,18.3352244 67.0773006,20.0367197 L67.0773006,22.9512811 C67.0773006,23.0994113 66.9776118,23.2355309 66.8340599,23.259552 C66.6306948,23.2915802 66.4711927,23.151457 66.4711927,22.9592882 L66.4711927,16.3174512 C66.4711927,16.169321 66.5708815,16.0332014 66.7144334,16.0091803 C66.9177985,15.9771521 67.0773006,16.1172753 67.0773006,16.3094441 L67.0773006,17.6626334 C67.5757445,16.8138875 68.5766199,16.0051768 69.6173708,16.0051768 C69.7688977,16.0011732 69.94435,16.1132717 69.94435,16.285423 Z M79.9132285,19.6363679 C79.9132285,19.8085192 79.7696766,19.9486423 79.5982119,19.9486423 L73.5291587,19.9486423 C73.6806857,21.4539652 74.8091627,22.827172 76.3962082,22.827172 C77.4808221,22.827172 78.2863075,22.4108061 78.8924153,21.5420426 C78.9801415,21.4219371 79.1117307,21.3458702 79.2792078,21.4179336 C79.3709215,21.4579688 79.4347223,21.5420426 79.4506725,21.6381271 C79.4666227,21.738215 79.4387099,21.7942643 79.410797,21.8503136 C78.8007016,22.919253 77.5844985,23.4437139 76.3922206,23.4437139 C74.3505943,23.4437139 72.895138,21.6101025 72.895138,19.6483785 C72.895138,17.6866545 74.3505943,15.8530431 76.3922206,15.8530431 C78.4338469,15.8490395 79.9092409,17.6786474 79.9132285,19.6363679 Z M79.2632576,19.3401075 C79.1316684,17.8347846 77.9832536,16.4615778 76.3962082,16.4615778 C74.8091627,16.4615778 73.6806857,17.8347846 73.5291587,19.3401075 L79.2632576,19.3401075 Z M89.7106422,16.3614899 L89.7106422,23.0193409 C89.7106422,23.1954957 89.5591153,23.3236083 89.4075883,23.3236083 C89.2321361,23.3236083 89.1045344,23.1914922 89.1045344,23.0193409 L89.1045344,21.7542291 C88.6060905,22.7591122 87.712879,23.475742 86.584402,23.475742 C84.7820287,23.475742 83.7811533,21.9063628 83.7811533,20.2489062 L83.7811533,16.3454758 C83.7811533,16.1933421 83.9127425,16.0412084 84.0842072,16.0412084 C84.2596595,16.0412084 84.3872611,16.1933421 84.3872611,16.3454758 L84.3872611,20.2489062 C84.3872611,21.5580567 85.1249581,22.8672072 86.5804144,22.8672072 C88.6220407,22.8672072 89.1005469,20.9495219 89.1005469,18.8316607 L89.1005469,16.3454758 C89.1005469,16.169321 89.2759991,15.9891627 89.4913269,16.053219 C89.6229161,16.0972577 89.7106422,16.2253703 89.7106422,16.3614899 Z M105.062715,19.0758753 L105.062715,22.9793057 C105.062715,23.1554606 104.911188,23.2835731 104.759661,23.2835731 C104.584209,23.2835731 104.456607,23.151457 104.456607,22.9793057 L104.456607,19.0758753 C104.456607,17.7667248 103.71891,16.4815954 102.263454,16.4815954 C100.437155,16.4815954 99.7433215,18.4433194 99.7433215,19.9686599 L99.7433215,22.9793057 C99.7433215,23.1554606 99.5917946,23.2835731 99.4402676,23.2835731 C99.2648154,23.2835731 99.1372137,23.151457 99.1372137,22.9793057 L99.1372137,19.0758753 C99.1372137,17.7667248 98.3995167,16.4815954 96.9440605,16.4815954 C95.0978242,16.4815954 94.3362019,17.9428796 94.4039902,19.884586 C94.4039902,19.9286247 94.423928,20.0167022 94.4039902,20.0367197 L94.4039902,22.9712987 C94.4039902,23.1194289 94.3043014,23.2555485 94.156762,23.2795696 C93.9533969,23.3115978 93.7938949,23.1714746 93.7938949,22.9793057 L93.7938949,16.3174512 C93.7938949,16.169321 93.8935836,16.0332014 94.0371355,16.0091803 C94.2405006,15.9771521 94.4000027,16.1172753 94.4000027,16.3094441 L94.4000027,17.4224223 C94.9223719,16.485599 95.8554589,15.8730606 96.9400729,15.8730606 C98.1762138,15.8730606 99.1332262,16.6577502 99.5240062,17.8147671 C100.02245,16.6817714 100.9994,15.8730606 102.259466,15.8730606 C104.041902,15.8730606 105.062715,17.4184187 105.062715,19.0758753 Z" id="Shape" fill="#3C3C3B"></path>
                <g id="Group-2" fill="#010101">
                    <g id="Group" opacity="0.6" transform="translate(0.007653, 12.250766)">
                        <polygon id="Shape" points="10.168256 0.0160140735 0.0239253083 4.64808482 10.168256 10.6653729 20.3085992 4.64808482"></polygon>
                    </g>
                    <g id="Group" opacity="0.45" transform="translate(0.007653, 0.000000)">
                        <polygon id="Shape" points="0.0239253083 16.898851 10.168256 22.9161391 10.168256 0"></polygon>
                    </g>
                    <g id="Group" opacity="0.8" transform="translate(10.175909, 0.000000)">
                        <polygon id="Shape" points="0 0 0 22.9161391 10.1403432 16.898851"></polygon>
                    </g>
                    <g id="Group" opacity="0.45" transform="translate(0.007653, 18.816536)">
                        <polygon id="Shape" points="0.0239253083 0.0120105551 10.168256 14.3606204 10.168256 6.02929866"></polygon>
                    </g>
                    <g id="Group" opacity="0.8" transform="translate(10.175909, 18.816536)">
                        <polygon id="Shape" points="0 6.02929866 0 14.3606204 10.1483183 0.0120105551"></polygon>
                    </g>
                </g>
            </g>
        </g>
    </g>
</svg>