<?xml version="1.0" encoding="UTF-8"?>
<svg width="77px" height="36px" viewBox="0 0 77 36" version="1.1" xmlns="http://www.w3.org/2000/svg" xmlns:xlink="http://www.w3.org/1999/xlink">
    <!-- Generator: Sketch 51.3 (57544) - http://www.bohemiancoding.com/sketch -->
    <title>logo_04</title>
    <desc>Created with Sketch.</desc>
    <defs></defs>
    <g id="Symbols" stroke="none" stroke-width="1" fill="none" fill-rule="evenodd">
        <g id="logos" transform="translate(-508.000000, 0.000000)" fill="#273B5A" fill-rule="nonzero">
            <path d="M568.794703,5.61544792 L568.794703,17.414198 L569.948501,17.414198 L569.948501,6.77218815 L575.906298,6.77218815 L575.906298,17.414198 L577.060097,17.414198 L577.060097,6.77218815 L583.017894,6.77218815 L583.017894,17.414198 L584.171693,17.414198 L584.171693,5.61544792 L568.794703,5.61544792 Z M532.103904,5.17378349 C530.425651,5.17378349 528.831311,5.82576427 527.635556,7.02456779 C526.439801,8.22337131 525.789478,9.80074424 525.789478,11.5043071 C525.789478,13.1868384 526.439801,14.785243 527.635556,15.9840465 C528.831311,17.18285 530.404673,17.8348308 532.103904,17.8348308 C533.782156,17.8348308 535.376496,17.18285 536.572252,15.9840465 C537.768006,14.785243 538.418329,13.20787 538.418329,11.5043071 C538.418329,9.82177588 537.768006,8.22337131 536.572252,7.02456779 C535.355518,5.84679591 533.782156,5.17378349 532.103904,5.17378349 Z M535.754103,15.1848442 C534.789108,16.1733312 533.488462,16.6991223 532.103904,16.6991223 C530.719345,16.6991223 529.4187,16.1522996 528.453704,15.1848442 C527.488709,14.1963571 526.943277,12.913427 526.943277,11.5253388 C526.943277,10.1372505 527.488709,8.8332888 528.453704,7.86583336 C529.4187,6.87734628 530.719345,6.35155528 532.103904,6.35155528 C533.488462,6.35155528 534.789108,6.89837793 535.754103,7.86583336 C536.719099,8.85432045 537.264531,10.1372505 537.264531,11.5253388 C537.264531,12.8923953 536.719099,14.1963571 535.754103,15.1848442 Z M561.787998,7.04559943 C560.592243,5.84679591 559.018881,5.19481513 557.31965,5.19481513 C555.641397,5.19481513 554.047057,5.84679591 552.851302,7.04559943 C551.655547,8.24440295 551.005224,9.82177588 551.005224,11.5253388 C551.005224,13.20787 551.655547,14.8062746 552.851302,16.0050781 C554.047057,17.2038816 555.620419,17.8558624 557.31965,17.8558624 C559.018881,17.8558624 560.592243,17.2038816 561.787998,16.0050781 L560.96985,15.1848442 C560.004854,16.1733312 558.704208,16.6991223 557.31965,16.6991223 C555.935092,16.6991223 554.634446,16.1522996 553.66945,15.1848442 C552.704455,14.1963571 552.159023,12.913427 552.159023,11.5253388 L563.634076,11.5253388 C563.634076,9.82177588 562.983753,8.22337131 561.787998,7.04559943 Z M553.690429,7.84480172 C554.655424,6.85631464 555.95607,6.33052363 557.340628,6.33052363 C558.725187,6.33052363 560.025832,6.87734628 560.990828,7.84480172 C561.683107,8.53884588 562.165605,9.42217474 562.375386,10.3475669 L552.30587,10.3475669 C552.515652,9.42217474 552.977171,8.55987752 553.690429,7.84480172 Z M522.01341,2.96546124 L518.342232,6.64599829 C517.209411,5.69957449 515.803875,5.17378349 514.314426,5.17378349 C512.636173,5.17378349 511.041833,5.82576427 509.846078,7.02456779 C508.650323,8.22337131 508,9.82177588 508,11.5043071 C508,13.1868384 508.650323,14.785243 509.846078,15.9840465 C510.894986,17.0356285 512.258566,17.6876093 513.727037,17.8137991 L513.727037,22.4828232 C512.258566,22.6090131 510.894986,23.2399623 509.846078,24.312576 C508.650323,25.5113794 508,27.1097841 508,28.7923153 C508,30.4748465 508.650323,32.0732511 509.846078,33.2720546 C511.041833,34.4708581 512.615195,35.1228389 514.314426,35.1228389 C515.992678,35.1228389 517.587018,34.4708581 518.782773,33.2720546 C519.978528,32.0732511 520.628851,30.4958781 520.628851,28.7923153 C520.628851,27.0887524 519.978528,25.5113794 518.782773,24.312576 C517.733865,23.260994 516.370285,22.6090131 514.901814,22.4828232 L514.901814,17.8137991 C516.370285,17.6876093 517.733865,17.0566601 518.782773,15.9840465 C519.978528,14.785243 520.628851,13.20787 520.628851,11.5043071 C520.628851,10.0110607 520.104397,8.58090916 519.16038,7.44520058 L522.831558,3.76466353 L522.01341,2.96546124 Z M517.964625,25.1328099 C518.92962,26.121297 519.475053,27.404227 519.475053,28.7923153 C519.475053,30.1804035 518.92962,31.4843652 517.964625,32.4518206 C516.99963,33.4403077 515.698984,33.9660987 514.314426,33.9660987 C512.929867,33.9660987 511.629221,33.4192761 510.664226,32.4518206 C509.699231,31.4633335 509.153799,30.1804035 509.153799,28.7923153 C509.153799,27.404227 509.699231,26.1002653 510.664226,25.1328099 C511.629221,24.1443228 512.929867,23.6185318 514.314426,23.6185318 C515.698984,23.6185318 516.99963,24.1443228 517.964625,25.1328099 Z M519.475053,11.5253388 C519.475053,12.913427 518.92962,14.2173887 517.964625,15.1848442 C516.99963,16.1733312 515.698984,16.6991223 514.314426,16.6991223 C512.929867,16.6991223 511.629221,16.1522996 510.664226,15.1848442 C509.699231,14.1963571 509.153799,12.913427 509.153799,11.5253388 C509.153799,10.1372505 509.699231,8.8332888 510.664226,7.86583336 C511.629221,6.87734628 512.929867,6.35155528 514.314426,6.35155528 C515.698984,6.35155528 516.99963,6.89837793 517.964625,7.86583336 C518.950599,8.8332888 519.475053,10.1372505 519.475053,11.5253388 Z M544.145367,17.2669765 L545.299165,17.2669765 L545.299165,0 L544.145367,0 L544.145367,17.2669765 Z" id="logo_04"></path>
        </g>
    </g>
</svg>