<?xml version="1.0" encoding="UTF-8"?>
<svg width="100px" height="36px" viewBox="0 0 100 36" version="1.1" xmlns="http://www.w3.org/2000/svg" xmlns:xlink="http://www.w3.org/1999/xlink">
    <!-- Generator: Sketch 51.3 (57544) - http://www.bohemiancoding.com/sketch -->
    <title>logo_05</title>
    <desc>Created with Sketch.</desc>
    <defs></defs>
    <g id="Symbols" stroke="none" stroke-width="1" fill="none" fill-rule="evenodd">
        <g id="logos" transform="translate(-661.000000, 0.000000)" fill-rule="nonzero">
            <g id="logo_05" transform="translate(661.000000, 0.000000)">
                <g id="Group" fill="#2E374D">
                    <path d="M6.98899237,20.1504745 C3.0386053,20.1504745 0.0200171627,17.6597634 0.0200171627,13.1901313 C0.0200171627,8.72049916 3.1797263,6.14147927 7.15913825,6.14147927 C11.1395511,6.14147927 14.1010903,8.68838685 14.1010903,13.1018224 C14.1010903,17.515258 10.9113554,20.151478 6.98899237,20.151478 L6.98899237,20.1504745 Z M7.04604128,9.45506824 C5.23949234,9.45506824 4.33671831,10.8981152 4.33671831,13.162033 C4.33671831,15.4259509 5.26751637,16.8117977 7.07406531,16.8117977 C8.88061425,16.8117977 9.78238743,15.4018666 9.78238743,13.1339347 C9.78238743,10.8961082 8.85158936,9.45607175 7.04403956,9.45607175 L7.04604128,9.45506824 Z M32.1615754,11.9738776 C32.1615754,10.3893358 31.4839944,9.85245808 30.3830504,9.85245808 C29.5083004,9.85245808 28.8016946,10.2488444 28.2672363,10.7014273 L28.2672363,19.7259899 L23.9205095,19.7259899 L23.9205095,11.9738776 C23.9205095,10.3893358 23.2149045,9.85245808 22.1139605,9.85245808 C21.3372946,9.85245808 20.5856502,10.1314338 19.9981464,10.6392097 L19.9981464,19.7209723 L15.6514195,19.7209723 L15.6514195,6.40941635 L19.9981464,6.40138828 L19.9981464,8.09531262 C21.1551384,6.87805538 22.4522506,6.14248278 24.1747274,6.14248278 C25.8361519,6.14248278 27.2223405,6.93525543 27.8718974,8.49069544 C29.0849374,7.04764851 30.6092444,6.14248278 32.4157933,6.14248278 C34.9839953,6.14248278 36.5063005,7.86851943 36.5063005,10.6984167 L36.5063005,19.7239828 L32.1595736,19.7239828 L32.1615754,11.9738776 Z M40.8800506,4.70144287 C39.2996956,4.70144287 38.3128495,3.88157546 38.3128495,2.38132848 C38.3128495,0.82588847 39.2996956,0.0331158196 40.8800506,0.0331158196 C42.4884296,0.0331158196 43.4482526,0.82588847 43.4482526,2.38132848 C43.4482526,3.88157546 42.4884296,4.70144287 40.8800506,4.70144287 Z M38.7071876,6.41343039 L43.0539145,6.40540231 L43.0539145,19.7259899 L38.7071876,19.7259899 L38.7071876,6.41343039 Z M50.0729326,20.1504745 C48.2663836,20.1504745 45.8953507,19.7550916 44.5141665,18.9904173 L45.3598916,15.849432 C46.9112217,16.6422046 48.6056745,17.0947875 50.1570047,17.0947875 C51.3420207,17.0947875 51.9355296,16.7264994 51.9355296,16.0190251 C51.9355296,15.2503367 51.2008997,15.0004628 49.7056176,14.66228 C46.6580046,14.0391005 44.7113355,12.9362433 44.7113355,10.3612375 C44.7113355,7.89962823 46.8541728,6.14549331 50.4962956,6.14549331 C52.2447947,6.14549331 54.5297539,6.65728324 55.8298686,7.27745223 L54.9551186,10.3833147 C53.4588356,9.61362277 51.6803107,9.19515924 50.4392466,9.19515924 C49.3663267,9.19515924 48.8308676,9.53434551 48.8308676,10.1856233 C48.8308676,10.8930976 49.6495696,11.1760874 51.0888036,11.4871754 C54.1644406,12.1665514 56.0280385,13.1831067 56.0280385,15.8153126 C56.0260368,18.2026622 53.9382467,20.1504745 50.0729326,20.1504745 Z M64.5483438,16.9542961 C65.9885787,16.9542961 67.5118847,16.4415027 68.8380218,15.6808423 L69.2613848,19.0486208 C67.9352477,19.7279969 66.0726507,20.1233797 64.1469997,20.1233797 C59.7172016,20.1233797 56.8107095,17.662774 56.8107095,13.2483348 C56.8107095,8.94729234 59.7502299,6.14649682 63.9208057,6.14649682 C67.6459997,6.14649682 69.6737383,8.38231639 69.6737383,11.6587755 C69.6737383,12.3662498 69.5896662,13.4119069 69.3914963,13.9788899 L61.0663583,14.1193813 L61.0663583,14.1755778 C61.2194896,15.9628285 62.4045057,16.9542961 64.5493447,16.9542961 L64.5483438,16.9542961 Z M65.6492877,11.6658001 C65.6492877,10.0802548 64.9997308,9.14699077 63.6455698,9.14699077 C62.1502877,9.14699077 61.2475137,10.4475393 61.1053918,11.9467828 L65.6492877,11.921695 L65.6492877,11.6647966 L65.6492877,11.6658001 Z" id="Shape"></path>
                </g>
                <g id="Group" transform="translate(70.060070, 6.021058)" fill="#1A53F0">
                    <path d="M7.7246231,15.0727155 C3.86443282,15.0727155 0.735130301,18.2103084 0.735130301,22.0807253 C0.735130301,25.9511423 3.86443282,29.0887352 7.7246231,29.0887352 C11.5848134,29.0887352 14.7141159,25.9511423 14.7141159,22.0807253 C14.7141159,18.2103084 11.5848134,15.0727155 7.7246231,15.0727155 Z M7.7246231,26.9683193 C5.03185916,26.9683193 2.84894269,24.7796196 2.84894269,22.0797218 C2.84894269,19.379824 5.03185916,17.1911244 7.7246231,17.1911244 C10.4179398,17.1911244 12.6013044,19.3802733 12.6013044,22.0807253 C12.6013044,24.7811774 10.4179398,26.9703263 7.7246231,26.9703263 L7.7246231,26.9683193 Z M22.6534231,0.124435201 C18.7932328,0.124435201 15.6639303,3.2620281 15.6639303,7.13244508 C15.6639303,11.0028621 18.7932328,14.140455 22.6534231,14.140455 C26.5136133,14.140455 29.6429159,11.0028621 29.6429159,7.13244508 C29.6429159,3.2620281 26.5136133,0.124435201 22.6534231,0.124435201 Z M22.6534231,12.020039 C19.9614883,12.020039 17.7792439,9.83201331 17.7792439,7.13294683 C17.7792439,4.43388036 19.9614883,2.24585467 22.6534231,2.24585467 C25.3453579,2.24585467 27.5276022,4.43388036 27.5276022,7.13294683 C27.5237435,9.83040912 25.3437579,12.0161701 22.6534231,12.020039 Z" id="Shape"></path>
                    <path d="M7.7246231,0.124435201 C4.39676222,0.12334741 1.52914024,2.47381197 0.868519206,5.74408427 C0.207898171,9.01435657 1.93730771,12.298385 5.00330809,13.5957608 C8.06930847,14.8931366 11.6224431,13.8444128 13.4983817,11.0884013 C15.3743204,8.33238974 15.0533213,4.63266253 12.7309155,2.24284414 L14.7136155,2.24284414 L14.7136155,0.124435201 L7.7246231,0.124435201 Z M12.6008039,7.13194333 C12.5996985,9.83074826 10.416965,12.0177671 7.72529088,12.0170283 C5.03361681,12.0162895 2.85207783,9.82807271 2.85244615,7.12926757 C2.85281446,4.43046244 5.03495064,2.24284437 7.72662481,2.24284414 C10.41774,2.24671555 12.5980477,4.43369728 12.6008039,7.13194333 Z" id="Shape"></path>
                </g>
            </g>
        </g>
    </g>
</svg>