<?xml version="1.0" encoding="UTF-8"?>
<svg width="105px" height="41px" viewBox="0 0 105 41" version="1.1" xmlns="http://www.w3.org/2000/svg" xmlns:xlink="http://www.w3.org/1999/xlink">
    <!-- Generator: Sketch 51.3 (57544) - http://www.bohemiancoding.com/sketch -->
    <title>logo_09</title>
    <desc>Created with Sketch.</desc>
    <defs></defs>
    <g id="Symbols" stroke="none" stroke-width="1" fill="none" fill-rule="evenodd">
        <g id="logos" transform="translate(-324.000000, -79.000000)" fill="#4360DF" fill-rule="nonzero">
            <g id="logo_09" transform="translate(324.000000, 79.000000)">
                <path d="M47.0576635,23.1644492 L50.185791,23.1644492 C50.185791,23.6170219 50.3351953,23.9417955 50.6340038,24.1387701 C51.2831451,24.4955131 52.0600314,24.5331331 52.740487,24.2407748 C52.9816643,24.1229138 53.1284554,23.8713274 53.1126324,23.6029522 C53.1187397,23.4442481 53.0619468,23.2895654 52.9546461,23.1726565 C52.8163196,23.04033 52.6516026,22.9388366 52.4713253,22.8748497 C52.2536553,22.7873054 51.9759116,22.6907722 51.6380941,22.5852501 L50.4128231,22.2006806 C49.9845049,22.0638927 49.5819325,21.922024 49.2051061,21.7750747 C48.8504167,21.6388976 48.5170175,21.452538 48.215059,21.2216698 C47.9344996,21.0095319 47.7059573,20.7360488 47.5468357,20.4220467 C47.3776873,20.0551635 47.2974892,19.6534195 47.312782,19.2495788 C47.3004417,18.7691385 47.4091099,18.2933258 47.6287545,17.8660666 C47.8394429,17.475987 48.143934,17.1447293 48.5146477,16.9022979 C48.9325645,16.6329989 49.3950232,16.4404419 49.880351,16.333651 C50.4560701,16.2018524 51.0452225,16.1381044 51.6357536,16.1437112 C52.3137285,16.133166 52.9894538,16.2244596 53.6404234,16.4145513 C54.1463444,16.56172 54.6175538,16.8093306 55.0260212,17.1426539 C55.375909,17.4354572 55.6504383,17.808216 55.8264848,18.2295316 C56.0025628,18.6577646 56.0909131,19.1170926 56.0862844,19.5802147 L52.9370921,19.5802147 C52.9370921,19.1628161 52.8305977,18.839215 52.6164385,18.6058939 C52.4022794,18.3725727 52.0781151,18.2541535 51.6427752,18.2541535 C51.3426302,18.2458003 51.0461901,18.3221826 50.787309,18.4745774 C50.5547753,18.6112792 50.417257,18.8660533 50.4303771,19.1358494 C50.4232148,19.3082358 50.483705,19.47658 50.5988958,19.6048365 C50.7406753,19.7456166 50.9089338,19.8568041 51.0939193,19.9319551 C51.3115892,20.0273158 51.5803609,20.1258031 51.9002343,20.227417 L53.0002866,20.5791574 C53.4473291,20.6956226 53.8647249,20.8242032 54.2524738,20.9648994 C54.6139711,21.0938359 54.9579656,21.267535 55.2764587,21.4819577 C55.5659649,21.6789225 55.8062426,21.9401137 55.9786197,22.2452344 C56.164566,22.6037863 56.2544851,23.0045368 56.2395896,23.4083226 C56.255883,23.9596506 56.129279,24.5057983 55.8721253,24.9934992 C55.6338843,25.4218334 55.2968305,25.7868573 54.8890998,26.0581001 C54.4523183,26.3413355 53.9664854,26.5401696 53.4566913,26.6443341 C52.8941437,26.7659791 52.3200849,26.8261268 51.7445886,26.8237217 C50.2567873,26.8237217 49.1036828,26.5110636 48.2852751,25.8857473 C47.4668674,25.2604311 47.0576635,24.3533317 47.0576635,23.1644492" id="Shape"></path>
                <path d="M56.4490676,18.8181106 L56.4490676,16.4297933 L58.0183976,16.4297933 L58.0183976,13.4259305 L61.2050385,13.4259305 L61.2050385,16.4297933 L63.4882322,16.4297933 L63.4882322,18.8181106 L61.2050385,18.8181106 L61.2050385,22.4152422 C61.1964122,22.7160702 61.2310964,23.0165739 61.3080221,23.3074903 C61.360632,23.5019132 61.4603218,23.6803227 61.5982487,23.8268936 C61.7234772,23.9524112 61.8831803,24.0377191 62.0569939,24.0719394 C62.256655,24.1109769 62.4597794,24.1294418 62.6631929,24.1270454 C62.7989441,24.1270454 62.9721438,24.1270454 63.1827921,24.1118033 C63.3671664,24.1051301 63.550904,24.0863302 63.7328183,24.0555249 L63.7328183,26.5446743 C63.4987646,26.5857107 63.1980056,26.6244021 62.8410737,26.6619211 C62.4841419,26.6994401 62.0651858,26.7135097 61.5830352,26.7135097 C61.1865532,26.7120033 60.7905772,26.6849809 60.3975533,26.6326094 C59.9847382,26.5788893 59.5896503,26.4313051 59.2424983,26.2011412 C58.8569288,25.9320081 58.5528407,25.5616296 58.3636268,25.130678 C58.1295731,24.6484028 58.0125462,23.9871309 58.0125462,23.1468622 L58.0125462,18.8181106 L56.4490676,18.8181106 Z" id="Shape"></path>
                <path d="M64.0370881,21.4831302 C64.0302711,20.7635093 64.1531694,20.0485652 64.3998713,19.3726879 C64.6256031,18.7520286 64.9716187,18.1822215 65.4180048,17.6960587 C65.8482074,17.2297272 66.3649429,16.8518014 66.9393538,16.5833866 C67.5282757,16.3078681 68.171202,16.1676646 68.8211454,16.1730229 C69.5049943,16.1557199 70.1810033,16.3221048 70.7790045,16.6549072 C71.2963761,16.9417426 71.7266365,17.3634934 72.0241701,17.8754463 L72.0241701,16.4297933 L75.2143218,16.4297933 L75.2143218,26.5458468 L72.0159782,26.5458468 L72.0159782,25.1212982 C71.7285476,25.6227763 71.3080906,26.0346895 70.8012396,26.3113532 C70.1942282,26.651318 69.506958,26.8210282 68.8117832,26.8026173 C68.1650396,26.8061504 67.5255562,26.6660005 66.9393538,26.3922535 C66.3637209,26.123843 65.8467018,25.7441158 65.4180048,25.2748915 C64.9744979,24.7862996 64.6306198,24.2155441 64.4057226,23.594745 C64.1590207,22.9188677 64.0361225,22.2039236 64.0429394,21.4843027 M67.2319209,21.4843027 C67.2308205,21.8252871 67.2910775,22.1636782 67.4098017,22.4832454 C67.5194638,22.7851532 67.6850305,23.0636052 67.8978036,23.3039729 C68.1088508,23.5353266 68.3628447,23.7232929 68.6456051,23.8573778 C68.9509887,24.0001538 69.2846429,24.0719 69.621609,24.0672496 C69.9604215,24.0715375 70.2958996,23.999829 70.6034642,23.8573778 C70.8881634,23.7242612 71.1438684,23.5362058 71.3559468,23.3039729 C71.5687068,23.065804 71.7343162,22.7892695 71.8439487,22.4891077 C71.9635937,22.1677576 72.0238692,21.8272757 72.0218295,21.4843027 C72.0244206,20.8220388 71.7879221,20.1811683 71.3559468,19.6798745 C71.1479496,19.4387874 70.8910151,19.244925 70.6022939,19.1112275 C70.292443,18.971309 69.9555818,18.9016483 69.6157576,18.9072181 C69.2793948,18.9023552 68.946115,18.9720191 68.6397538,19.1112275 C68.3535729,19.2442636 68.098725,19.436458 67.8919523,19.6751846 C67.683348,19.918581 67.5182558,20.1962351 67.4039503,20.4959122 C67.2843494,20.8099424 67.224032,21.1435042 67.2260695,21.4796128" id="Shape"></path>
                <path d="M76.3120336,18.8181106 L76.3120336,16.4297933 L77.8813635,16.4297933 L77.8813635,13.4259305 L81.0715152,13.4259305 L81.0715152,16.4297933 L83.3547089,16.4297933 L83.3547089,18.8181106 L81.0715152,18.8181106 L81.0715152,22.4152422 C81.0625887,22.7160102 81.0968774,23.0165014 81.1733286,23.3074903 C81.2263842,23.5017306 81.3260166,23.6800374 81.4635552,23.8268936 C81.588911,23.952239 81.7485586,24.0375172 81.9223004,24.0719394 C82.1219765,24.1108717 82.3250901,24.1293356 82.5284994,24.1270454 C82.6642506,24.1270454 82.8374503,24.1270454 83.0480986,24.1118033 C83.2328606,24.1051275 83.4169872,24.0863277 83.599295,24.0555249 L83.599295,26.5446743 C83.3652413,26.5857107 83.0633121,26.6244021 82.7075505,26.6619211 C82.3517889,26.6994401 81.9304923,26.7135097 81.4483417,26.7135097 C81.0522471,26.7120405 80.656658,26.6850178 80.26403,26.6326094 C79.8512149,26.5788893 79.4561271,26.4313051 79.1089751,26.2011412 C78.7231149,25.9323236 78.4189523,25.5618544 78.2301035,25.130678 C77.9960498,24.6484028 77.879023,23.9871309 77.879023,23.1468622 L77.879023,18.8181106 L76.3120336,18.8181106 Z" id="Shape"></path>
                <path d="M84.5624259,22.4363466 L84.5624259,16.4297933 L87.7525777,16.4297933 L87.7525777,21.6156191 C87.7525777,22.3402043 87.8813072,22.9299556 88.1387662,23.3848732 C88.3962253,23.8397908 88.8584813,24.0668587 89.5255343,24.0660771 C90.1886864,24.0660771 90.6782487,23.8354917 90.9942212,23.374321 C91.3101937,22.9131503 91.4662294,22.287834 91.4623286,21.4983723 L91.4623286,16.4297933 L94.65131,16.4297933 L94.65131,26.5458468 L91.4623286,26.5458468 L91.4623286,25.1013663 C91.1780541,25.6397545 90.7339859,26.076464 90.191417,26.3512171 C89.6226666,26.6521506 88.9419605,26.8026173 88.1492986,26.8026173 C87.4471376,26.8026173 86.8807277,26.6935778 86.4325149,26.4743262 C86.0142176,26.2783972 85.6423971,25.9954104 85.3418247,25.6442189 C85.0201493,25.2542856 84.8030495,24.7886009 84.71105,24.2911909 C84.6039455,23.6788979 84.5541878,23.0579166 84.5624259,22.4363466" id="Shape"></path>
                <path d="M95.8040244,23.1644492 L98.9321519,23.1644492 C98.9321519,23.6170219 99.0815562,23.9417955 99.3803647,24.1387701 C100.029506,24.4955131 100.806392,24.5331331 101.486848,24.2407748 C101.728025,24.1229138 101.874816,23.8713274 101.858993,23.6029522 C101.865101,23.4442481 101.808308,23.2895654 101.701007,23.1726565 C101.56268,23.04033 101.397963,22.9388366 101.217686,22.8748497 C101.000016,22.7873054 100.722663,22.6907722 100.385625,22.5852501 L99.159184,22.2006806 C98.7308657,22.0638927 98.3282934,21.922024 97.951467,21.7750747 C97.5959617,21.6403495 97.2614175,21.4555898 96.9579091,21.2263597 C96.6773497,21.0142217 96.4488073,20.7407387 96.2896858,20.4267366 C96.1205373,20.0598534 96.0403393,19.6581094 96.0556321,19.2542686 C96.0432918,18.7738283 96.1519599,18.2980157 96.3716046,17.8707565 C96.582293,17.4806769 96.8867841,17.1494191 97.2574978,16.9069878 C97.6754146,16.6376888 98.1378733,16.4451318 98.623201,16.3383408 C99.1989202,16.2065423 99.7880726,16.1427942 100.378604,16.148401 C101.057517,16.1359805 101.734447,16.2256961 102.386784,16.4145513 C102.892705,16.56172 103.363915,16.8093306 103.772382,17.1426539 C104.12227,17.4354572 104.396799,17.808216 104.572846,18.2295316 C104.748924,18.6577646 104.837274,19.1170926 104.832645,19.5802147 L101.683453,19.5802147 C101.683453,19.1628161 101.576959,18.839215 101.362799,18.6058939 C101.14864,18.3725727 100.824476,18.2541535 100.389136,18.2541535 C100.088991,18.2458003 99.792551,18.3221826 99.5336699,18.4745774 C99.3033851,18.6127994 99.1682778,18.8672785 99.1825893,19.1358494 C99.175427,19.3082358 99.2359172,19.47658 99.351108,19.6048365 C99.4934093,19.7435126 99.6616321,19.8526844 99.8461315,19.9260928 C100.063801,20.0214535 100.332573,20.1199408 100.652446,20.2215547 L101.752499,20.5732951 C102.201102,20.6897602 102.618497,20.8183409 103.004686,20.959037 C103.366183,21.0879736 103.710178,21.2616727 104.028671,21.4760954 C104.31782,21.6734747 104.558013,21.934574 104.730832,22.239372 C104.916373,22.5980333 105.005888,22.998778 104.990632,23.4024602 C105.007176,23.9550754 104.880149,24.5025186 104.621997,24.9911543 C104.383756,25.4194885 104.046702,25.7845123 103.638971,26.0557552 C103.202293,26.3391877 102.716422,26.5380376 102.206563,26.6419892 C101.644398,26.7635499 101.070736,26.8236971 100.495631,26.8213768 C99.0070491,26.8213768 97.8535545,26.5087186 97.0351468,25.8834024 C96.2167391,25.2580862 95.8075352,24.3509868 95.8075352,23.1621043" id="Shape"></path>
                <path d="M20.0829764,0 C8.99856434,-6.80000153e-16 0.0128729526,9.00258003 0.0128729526,20.1078253 C0.0128729526,31.2130706 8.99856434,40.2156506 20.0829764,40.2156506 C31.1673885,40.2156506 40.1530798,31.2130706 40.1530798,20.1078253 C40.1530798,14.7748985 38.0385572,9.66039441 34.2746826,5.88944567 C30.5108081,2.11849694 25.4058988,3.26547589e-16 20.0829764,0 Z M17.0086813,29.0396861 C14.4914339,29.1815547 11.976527,27.6608638 11.8384354,25.1916463 C11.7050248,22.7646377 13.593838,21.1407696 16.7172844,20.9648994 C19.0215429,20.8347554 20.4621434,21.3600211 22.7699127,21.2298771 C23.3414838,21.1982953 23.9092423,21.1170905 24.4668019,20.9871763 C24.1262538,25.1588172 21.1104721,28.8087099 17.0086813,29.0396861 Z M23.4673927,19.9214029 C21.0624911,20.0609266 19.5551853,19.4993144 17.1479432,19.6388381 C16.5511912,19.6719871 15.9586107,19.7587064 15.3773271,19.8979535 C15.7284076,15.4425753 18.8811107,11.540602 23.1631229,11.2932113 C25.7903755,11.1407904 28.4164578,12.7670035 28.5592306,15.4050564 C28.6996628,17.9985555 26.7265902,19.733808 23.4673927,19.9214029 Z" id="Shape"></path>
            </g>
        </g>
    </g>
</svg>