<?xml version="1.0" encoding="UTF-8"?>
<svg width="127px" height="87px" viewBox="0 0 127 87" version="1.1" xmlns="http://www.w3.org/2000/svg" xmlns:xlink="http://www.w3.org/1999/xlink">
    <!-- Generator: Sketch 49.3 (51167) - http://www.bohemiancoding.com/sketch -->
    <title>eth</title>
    <desc>Created with Sketch.</desc>
    <defs></defs>
    <g id="Page-1" stroke="none" stroke-width="1" fill="none" fill-rule="evenodd">
        <g id="eth" transform="translate(-44.000000, 0.000000)">
            <rect id="Rectangle-9-Copy-2" fill="#D8D8D8" opacity="0" x="0" y="0" width="215" height="87"></rect>
            <g id="ethereum" transform="translate(44.000000, 0.000000)" fill="#273B5A" fill-rule="nonzero">
                <path d="M11.5024664,80.7513453 C11.5024664,81.0309417 11.2683857,81.2585202 10.9887892,81.2585202 L1.09237668,81.2585202 C1.33946188,83.7033632 3.17959641,85.9336323 5.76748879,85.9336323 C7.53609865,85.9336323 8.84955157,85.2573991 9.83789238,83.8464126 C9.9809417,83.6513453 10.1955157,83.5278027 10.4686099,83.644843 C10.6181614,83.7098655 10.7221973,83.8464126 10.7482063,84.0024664 C10.7742152,84.1650224 10.7286996,84.2560538 10.6831839,84.3470852 C9.68834081,86.0831839 7.70515695,86.9349776 5.76098655,86.9349776 C2.43183857,86.9349776 0.0585201794,83.9569507 0.0585201794,80.770852 C0.0585201794,77.5847534 2.43183857,74.6067265 5.76098655,74.6067265 C9.09013453,74.6002242 11.4959641,77.5717489 11.5024664,80.7513453 Z M10.4426009,80.2701794 C10.2280269,77.8253363 8.35538117,75.5950673 5.76748879,75.5950673 C3.17959641,75.5950673 1.33946188,77.8253363 1.09237668,80.2701794 L10.4426009,80.2701794 Z M23.5121076,74.8473094 C23.7982063,74.8473094 24.006278,75.0943946 24.006278,75.3414798 C24.006278,75.6275785 23.791704,75.8356502 23.5121076,75.8356502 L20.8591928,75.8356502 L20.8591928,86.2457399 C20.8591928,86.4928251 20.6446188,86.7399103 20.3650224,86.7399103 C20.0789238,86.7399103 19.870852,86.4928251 19.870852,86.2457399 L19.870852,75.8356502 L17.3219731,75.8356502 C17.0358744,75.8356502 16.8278027,75.6210762 16.8278027,75.3414798 C16.8278027,75.0943946 17.0423767,74.8473094 17.3219731,74.8473094 L19.870852,74.8473094 L19.870852,71.0369955 C19.870852,70.7964126 20.0334081,70.5753363 20.2674888,70.5363229 C20.5991031,70.4843049 20.8591928,70.7118834 20.8591928,71.023991 L20.8591928,74.8473094 L23.5121076,74.8473094 Z M39.6961883,79.8800448 L39.6961883,86.1872197 C39.6961883,86.4733184 39.4491031,86.6813901 39.2020179,86.6813901 C38.9159193,86.6813901 38.7078475,86.4668161 38.7078475,86.1872197 L38.7078475,79.8800448 C38.7078475,77.7538117 37.5049327,75.6275785 35.1316143,75.6275785 C32.088565,75.6275785 30.7751121,78.2869955 30.9506726,81.011435 C30.9506726,81.0829596 30.9831839,81.4015695 30.9831839,81.4340807 L30.9831839,86.167713 C30.9831839,86.408296 30.8206278,86.6293722 30.5865471,86.6683857 C30.2549327,86.7204036 29.994843,86.4928251 29.994843,86.1807175 L29.994843,65.464574 C29.994843,65.2174888 30.209417,64.9704036 30.4890135,64.9704036 C30.7751121,64.9704036 30.9831839,65.2174888 30.9831839,65.464574 L30.9831839,77.1881166 C31.8349776,75.6665919 33.3565022,74.6392377 35.1251121,74.6392377 C38.0316143,74.6392377 39.6961883,77.1881166 39.6961883,79.8800448 Z M57.4408072,80.7513453 C57.4408072,81.0309417 57.2067265,81.2585202 56.92713,81.2585202 L47.0242152,81.2585202 C47.2713004,83.7033632 49.111435,85.9336323 51.6993274,85.9336323 C53.4679372,85.9336323 54.7813901,85.2573991 55.7697309,83.8464126 C55.9127803,83.6513453 56.1273543,83.5278027 56.4004484,83.644843 C56.55,83.7098655 56.6540359,83.8464126 56.6800448,84.0024664 C56.7060538,84.1650224 56.6605381,84.2560538 56.6150224,84.3470852 C55.6201794,86.0831839 53.6369955,86.9349776 51.6928251,86.9349776 C48.3636771,86.9349776 45.9903587,83.9569507 45.9903587,80.770852 C45.9903587,77.5847534 48.3636771,74.6067265 51.6928251,74.6067265 C55.0284753,74.6002242 57.4343049,77.5717489 57.4408072,80.7513453 Z M56.3744395,80.2701794 C56.1598655,77.8253363 54.2872197,75.5950673 51.6993274,75.5950673 C49.111435,75.5950673 47.2713004,77.8253363 47.0242152,80.2701794 L56.3744395,80.2701794 Z M69.5869955,75.3089686 C69.5869955,75.6275785 69.411435,75.803139 69.1253363,75.8421525 C66.2188341,76.2647982 64.9118834,78.6381166 64.9118834,81.4015695 L64.9118834,86.1352018 C64.9118834,86.3757848 64.7493274,86.596861 64.5152466,86.6358744 C64.1836323,86.6878924 63.9235426,86.4603139 63.9235426,86.1482063 L63.9235426,75.3609865 C63.9235426,75.1204036 64.0860987,74.8993274 64.3201794,74.8603139 C64.6517937,74.808296 64.9118834,75.0358744 64.9118834,75.3479821 L64.9118834,77.5457399 C65.7246637,76.1672646 67.3567265,74.8538117 69.0538117,74.8538117 C69.3008969,74.8473094 69.5869955,75.0293722 69.5869955,75.3089686 Z M85.8426009,80.7513453 C85.8426009,81.0309417 85.6085202,81.2585202 85.3289238,81.2585202 L75.4325112,81.2585202 C75.6795964,83.7033632 77.5197309,85.9336323 80.1076233,85.9336323 C81.8762332,85.9336323 83.1896861,85.2573991 84.1780269,83.8464126 C84.3210762,83.6513453 84.5356502,83.5278027 84.8087444,83.644843 C84.958296,83.7098655 85.0623318,83.8464126 85.0883408,84.0024664 C85.1143498,84.1650224 85.0688341,84.2560538 85.0233184,84.3470852 C84.0284753,86.0831839 82.0452915,86.9349776 80.1011211,86.9349776 C76.7719731,86.9349776 74.3986547,83.9569507 74.3986547,80.770852 C74.3986547,77.5847534 76.7719731,74.6067265 80.1011211,74.6067265 C83.4302691,74.6002242 85.8360987,77.5717489 85.8426009,80.7513453 Z M84.7827354,80.2701794 C84.5681614,77.8253363 82.6955157,75.5950673 80.1076233,75.5950673 C77.5197309,75.5950673 75.6795964,77.8253363 75.4325112,80.2701794 L84.7827354,80.2701794 Z M101.81861,75.4325112 L101.81861,86.2457399 C101.81861,86.5318386 101.571525,86.7399103 101.324439,86.7399103 C101.038341,86.7399103 100.830269,86.5253363 100.830269,86.2457399 L100.830269,84.1910314 C100.017489,85.8230942 98.5609865,86.9869955 96.720852,86.9869955 C93.7818386,86.9869955 92.1497758,84.4381166 92.1497758,81.7461883 L92.1497758,75.4065022 C92.1497758,75.159417 92.3643498,74.9123318 92.6439462,74.9123318 C92.9300448,74.9123318 93.1381166,75.159417 93.1381166,75.4065022 L93.1381166,81.7461883 C93.1381166,83.8724215 94.3410314,85.9986547 96.7143498,85.9986547 C100.043498,85.9986547 100.823767,82.8840807 100.823767,79.4443946 L100.823767,75.4065022 C100.823767,75.1204036 101.109865,74.8278027 101.460987,74.9318386 C101.675561,75.0033632 101.81861,75.211435 101.81861,75.4325112 Z M126.852242,79.8410314 L126.852242,86.1807175 C126.852242,86.4668161 126.605157,86.6748879 126.358072,86.6748879 C126.071973,86.6748879 125.863901,86.4603139 125.863901,86.1807175 L125.863901,79.8410314 C125.863901,77.7147982 124.660987,75.6275785 122.287668,75.6275785 C119.309641,75.6275785 118.178251,78.8136771 118.178251,81.2910314 L118.178251,86.1807175 C118.178251,86.4668161 117.931166,86.6748879 117.684081,86.6748879 C117.397982,86.6748879 117.18991,86.4603139 117.18991,86.1807175 L117.18991,79.8410314 C117.18991,77.7147982 115.986996,75.6275785 113.613677,75.6275785 C110.603139,75.6275785 109.361211,78.0008969 109.471749,81.1544843 C109.471749,81.226009 109.50426,81.3690583 109.471749,81.4015695 L109.471749,86.167713 C109.471749,86.408296 109.309193,86.6293722 109.06861,86.6683857 C108.736996,86.7204036 108.476906,86.4928251 108.476906,86.1807175 L108.476906,75.3609865 C108.476906,75.1204036 108.639462,74.8993274 108.873543,74.8603139 C109.205157,74.808296 109.465247,75.0358744 109.465247,75.3479821 L109.465247,77.1556054 C110.31704,75.6340807 111.838565,74.6392377 113.607175,74.6392377 C115.62287,74.6392377 117.183408,75.9136771 117.820628,77.7928251 C118.633408,75.9526906 120.226457,74.6392377 122.281166,74.6392377 C125.187668,74.6392377 126.852242,77.1491031 126.852242,79.8410314 Z" id="Shape"></path>
                <polygon id="Shape" opacity="0.6" points="63.4618834 19.92287 46.9201794 27.4459641 63.4618834 37.2188341 79.9970852 27.4459641"></polygon>
                <polygon id="Shape" opacity="0.45" points="46.9201794 27.4459641 63.4618834 37.2188341 63.4618834 0"></polygon>
                <polygon id="Shape" opacity="0.8" points="63.4618834 0 63.4618834 37.2188341 79.9970852 27.4459641"></polygon>
                <polygon id="Shape" opacity="0.45" points="46.9201794 30.5800448 63.4618834 53.8840807 63.4618834 40.3529148"></polygon>
                <polygon id="Shape" opacity="0.8" points="63.4618834 40.3529148 63.4618834 53.8840807 80.0100897 30.5800448"></polygon>
            </g>
        </g>
    </g>
</svg>