<?xml version="1.0" standalone="no"?>
<!DOCTYPE svg PUBLIC "-//W3C//DTD SVG 20010904//EN"
 "http://www.w3.org/TR/2001/REC-SVG-20010904/DTD/svg10.dtd">
<svg version="1.0" xmlns="http://www.w3.org/2000/svg"
 width="400.000000pt" height="400.000000pt" viewBox="0 0 400.000000 400.000000"
 preserveAspectRatio="xMidYMid meet">
<metadata>
Created by potrace 1.11, written by Peter Selinger 2001-2013
</metadata>
<g transform="translate(0.000000,400.000000) scale(0.100000,-0.100000)"
fill="#000000" stroke="none">
<path d="M450 3500 l0 -390 1362 2 1362 3 114 195 c63 107 165 282 228 388
l113 192 -1590 0 -1589 0 0 -390z"/>
<path d="M2405 2716 l-600 -172 -612 -1039 c-337 -572 -660 -1120 -717 -1217
l-105 -178 519 0 518 0 812 1383 c447 760 815 1385 817 1390 2 4 -4 6 -14 6
-10 -1 -288 -79 -618 -173z"/>
<path d="M2125 509 c-275 -209 -504 -385 -510 -390 -5 -5 384 -9 1003 -9
l1012 0 0 390 0 390 -502 0 -503 0 -500 -381z"/>
</g>
</svg>
