<?xml version="1.0" encoding="UTF-8"?>
<svg width="1440px" height="460px" viewBox="0 0 1440 460" version="1.1" xmlns="http://www.w3.org/2000/svg" xmlns:xlink="http://www.w3.org/1999/xlink">
    <!-- Generator: Sketch 55.2 (78181) - https://sketchapp.com -->
    <title>bg_home_full</title>
    <desc>Created with Sketch.</desc>
    <defs>
        <linearGradient x1="100%" y1="18.4470259%" x2="0%" y2="40.8756487%" id="linearGradient-1">
            <stop stop-color="#8697F3" offset="0%"></stop>
            <stop stop-color="#4E5EE4" offset="100%"></stop>
        </linearGradient>
        <linearGradient x1="100%" y1="18.4271365%" x2="0%" y2="81.5728635%" id="linearGradient-2">
            <stop stop-color="#A134D1" offset="0%"></stop>
            <stop stop-color="#6746D6" offset="100%"></stop>
        </linearGradient>
        <linearGradient x1="100%" y1="17.7571166%" x2="50%" y2="82.2428834%" id="linearGradient-3">
            <stop stop-color="#8697F3" offset="0%"></stop>
            <stop stop-color="#4E5EE4" offset="100%"></stop>
        </linearGradient>
        <linearGradient x1="-1.11022302e-14%" y1="17.7571166%" x2="100%" y2="82.2428834%" id="linearGradient-4">
            <stop stop-color="#3677FF" offset="0%"></stop>
            <stop stop-color="#1ECFF7" offset="100%"></stop>
        </linearGradient>
        <linearGradient x1="100%" y1="49.4307158%" x2="-9.81285548%" y2="50.5692842%" id="linearGradient-5">
            <stop stop-color="#8697F3" offset="0%"></stop>
            <stop stop-color="#4E5EE4" offset="100%"></stop>
        </linearGradient>
        <linearGradient x1="100%" y1="49.1268292%" x2="0%" y2="50.8731708%" id="linearGradient-6">
            <stop stop-color="#A134D1" offset="0%"></stop>
            <stop stop-color="#6746D6" offset="100%"></stop>
        </linearGradient>
        <linearGradient x1="-36.9725676%" y1="49.8352845%" x2="100%" y2="50.7469136%" id="linearGradient-7">
            <stop stop-color="#00F1D9" offset="0%"></stop>
            <stop stop-color="#00D4F6" offset="100%"></stop>
        </linearGradient>
        <linearGradient x1="45.7652794%" y1="50.1457565%" x2="100%" y2="49.8542435%" id="linearGradient-8">
            <stop stop-color="#00F1D9" offset="0%"></stop>
            <stop stop-color="#00D4F6" offset="100%"></stop>
        </linearGradient>
        <linearGradient x1="0%" y1="100%" x2="90.3104483%" y2="100%" id="linearGradient-9">
            <stop stop-color="#00F1D9" offset="0%"></stop>
            <stop stop-color="#00D4F6" offset="100%"></stop>
        </linearGradient>
        <linearGradient x1="100%" y1="49.8023335%" x2="0%" y2="50.1976665%" id="linearGradient-10">
            <stop stop-color="#A134D1" offset="0%"></stop>
            <stop stop-color="#6746D6" offset="100%"></stop>
        </linearGradient>
        <linearGradient x1="100%" y1="49.8023335%" x2="50%" y2="50.1976665%" id="linearGradient-11">
            <stop stop-color="#8697F3" offset="0%"></stop>
            <stop stop-color="#4E5EE4" offset="100%"></stop>
        </linearGradient>
        <path d="M-100.125873,215.601023 L-101.258819,220.06175 L107.157994,219.819724 C109.928555,219.816507 112.336653,217.916714 112.984624,215.222991 L113.486554,213.136382 C114.185276,210.231678 112.396974,207.310525 109.492271,206.611803 C109.077103,206.511935 108.65157,206.461576 108.224559,206.461779 L-88.5008309,206.555026 C-93.9883754,206.557627 -98.7750213,210.282344 -100.125873,215.601023 Z" id="path-12"></path>
        <linearGradient x1="127.64727%" y1="89.1663562%" x2="0%" y2="60.6908076%" id="linearGradient-13">
            <stop stop-color="#4E5EE4" offset="0%"></stop>
            <stop stop-color="#8697F3" offset="100%"></stop>
        </linearGradient>
    </defs>
    <g id="OZ-desktop" stroke="none" stroke-width="1" fill="none" fill-rule="evenodd">
        <g id="Group-5-Copy" transform="translate(0.000000, 287.458523)">
            <path d="M0,169.789955 L128.139442,170 L154.782409,162.832615 C189.719172,153.434066 214,121.758054 214,85.5791914 L214,15.6907738 C214,9.06335675 208.627417,3.69077375 202,3.69077375 C200.938411,3.69077375 199.881517,3.83164233 198.856988,4.10969116 L0.0894661157,58.0535904 L0,169.789955 Z" id="Fill-1-Copy-19" fill="url(#linearGradient-1)" opacity="0.4"></path>
            <polygon id="Fill-1-Copy-31" fill="#FFFFFF" transform="translate(210.000000, 117.500000) scale(-1, 1) rotate(180.000000) translate(-210.000000, -117.500000) " points="0 62 0 173 420 62.2053571"></polygon>
            <path d="M186,112.866149 L186,145.212674 C186,148.526383 188.686292,151.212674 192,151.212674 C192.516381,151.212674 193.030602,151.146013 193.529914,151.014343 L288.199429,126.049761 C305.762267,121.418397 318,105.535195 318,87.3719679 L318,54.8048774 C318,51.4911689 315.313708,48.8048774 312,48.8048774 C311.479248,48.8048774 310.960712,48.8726718 310.457463,49.0065517 L215.716422,74.2106449 C198.194992,78.8718955 186,94.7352987 186,112.866149 Z" id="Fill-1-Copy-30" transform="translate(252.000000, 100.000000) rotate(180.000000) translate(-252.000000, -100.000000) "></path>
        </g>
        <g id="Group-5-Copy-2" transform="translate(1230.000000, 376.458523) scale(-1, 1) translate(-1230.000000, -376.458523) translate(1020.000000, 287.458523)">
            <path d="M0,177.780071 L134.127267,178 L164.788516,169.749033 C199.722266,160.348333 224,128.673765 224,92.4972528 L224,15.6920689 C224,9.06465187 218.627417,3.69206886 212,3.69206886 C210.938091,3.69206886 209.880881,3.83302238 208.856065,4.11123666 L0.0936467753,60.7855241 L0,177.780071 Z" id="Fill-1-Copy-19" stroke="url(#linearGradient-2)" stroke-width="2"></path>
            <polygon id="Fill-1-Copy-31" fill="#FFFFFF" transform="translate(210.000000, 117.500000) scale(-1, 1) rotate(180.000000) translate(-210.000000, -117.500000) " points="0 62 0 173 420 62.2053571"></polygon>
            <path d="M186,112.866149 L186,145.212674 C186,148.526383 188.686292,151.212674 192,151.212674 C192.516381,151.212674 193.030602,151.146013 193.529914,151.014343 L288.199429,126.049761 C305.762267,121.418397 318,105.535195 318,87.3719679 L318,54.8048774 C318,51.4911689 315.313708,48.8048774 312,48.8048774 C311.479248,48.8048774 310.960712,48.8726718 310.457463,49.0065517 L215.716422,74.2106449 C198.194992,78.8718955 186,94.7352987 186,112.866149 Z" id="Fill-1-Copy-30" fill="url(#linearGradient-3)" opacity="0.1" transform="translate(252.000000, 100.000000) rotate(180.000000) translate(-252.000000, -100.000000) "></path>
        </g>
        <path d="M158,400.324672 L158,432.671197 C158,435.984906 160.686292,438.671197 164,438.671197 C164.516381,438.671197 165.030602,438.604536 165.529914,438.472866 L260.199429,413.508284 C277.762267,408.87692 290,392.993718 290,374.830491 L290,342.2634 C290,338.949692 287.313708,336.2634 284,336.2634 C283.479248,336.2634 282.960712,336.331195 282.457463,336.465075 L187.716422,361.669168 C170.194992,366.330418 158,382.193822 158,400.324672 Z" id="Fill-1-Copy-34" stroke="url(#linearGradient-4)" stroke-width="2" transform="translate(224.000000, 387.458523) rotate(180.000000) translate(-224.000000, -387.458523) "></path>
        <path d="M1082.97793,89.2697502 L1180.0973,89.0562216 C1182.80242,89.0502741 1185.16903,87.2349017 1185.87574,84.6237206 L1186.2469,83.2523358 C1186.9081,80.8092857 1185.46363,78.2927916 1183.02058,77.6315888 C1182.62684,77.5250245 1182.22064,77.4715065 1181.81273,77.4724532 L1084.63018,77.6979981 C1081.90095,77.7043322 1079.51985,79.551807 1078.83569,82.1938988 L1078.49856,83.495822 C1077.8594,85.9641086 1079.3422,88.4831917 1081.81048,89.1223515 C1082.19175,89.2210809 1082.58409,89.2706161 1082.97793,89.2697502 Z" id="Fill-1-Copy-37" fill="url(#linearGradient-5)" transform="translate(1132.407487, 83.370708) scale(-1, 1) rotate(-15.000000) translate(-1132.407487, -83.370708) "></path>
        <path d="M70.0239406,74.7488207 L126.856426,74.5905737 C128.785938,74.585201 130.345761,73.0166673 130.340389,71.0871555 C130.339502,70.7689192 130.29514,70.4522961 130.208531,70.1460705 L130.194043,70.0948427 C129.461585,67.5050592 127.094238,65.7198607 124.402879,65.7277712 L67.591862,65.8947518 C65.654609,65.9004459 64.0887711,67.4755156 64.0944652,69.4127686 C64.0953811,69.7243914 64.1378187,70.0345026 64.2206576,70.3349146 L64.2231136,70.3438209 C64.9423537,72.9521164 67.3183066,74.7563544 70.0239406,74.7488207 Z" id="Fill-1-Copy-38" fill="url(#linearGradient-6)" transform="translate(97.230962, 70.237986) scale(-1, 1) rotate(15.000000) translate(-97.230962, -70.237986) "></path>
        <path d="M1334.5409,235.445724 L1411.43684,235.231094 C1413.80961,235.224471 1415.72776,233.295586 1415.72114,230.922808 C1415.72012,230.556286 1415.6722,230.191401 1415.57854,229.837044 L1415.34123,228.939085 C1414.64372,226.299851 1412.25255,224.464134 1409.52271,224.472177 L1332.57111,224.698902 C1330.2192,224.705832 1328.31822,226.61805 1328.32515,228.969961 C1328.32626,229.347394 1328.37755,229.723004 1328.47765,230.08692 L1328.73905,231.037149 C1329.45705,233.647231 1331.83387,235.45328 1334.5409,235.445724 Z" id="Fill-1-Copy-39" fill="url(#linearGradient-7)" transform="translate(1372.000000, 229.958523) rotate(15.000000) translate(-1372.000000, -229.958523) "></path>
        <path d="M1331.10583,251.540497 L1328,263.131606 L1433.61606,263.008324 L1536.76192,262.887926 C1539.54229,262.88468 1541.9562,260.971688 1542.59461,258.2656 L1542.85297,257.170456 C1543.44181,254.674451 1541.89575,252.173687 1539.39975,251.584843 C1539.04976,251.502275 1538.69136,251.460642 1538.33177,251.460781 L1390.90283,251.517494 L1331.10583,251.540497 Z" id="Fill-1-Copy-40" fill="url(#linearGradient-8)" opacity="0" transform="translate(1436.100249, 257.295065) scale(-1, 1) rotate(-15.000000) translate(-1436.100249, -257.295065) "></path>
        <path d="M196.070049,-39.5414771 L171.056833,53.7246159 C169.340081,60.1258204 173.13758,66.7067242 179.538785,68.4234758 C180.557062,68.6965696 181.606888,68.8342837 182.66115,68.8330616 L397.315558,68.5842298 C419.010329,68.5590808 437.991355,53.9850632 443.61766,33.0325352 L463,-39.1478842 L196.070049,-39.5414771 Z" id="Fill-1-Copy-41" stroke="url(#linearGradient-9)" stroke-width="2" transform="translate(315.000000, 14.654870) rotate(-15.000000) translate(-315.000000, -14.654870) "></path>
        <g id="Fill-1-Copy-25" transform="translate(6.917042, 213.260136) rotate(-15.000000) translate(-6.917042, -213.260136) ">
            <use fill="url(#linearGradient-10)" xlink:href="#path-12"></use>
            <use fill="url(#linearGradient-11)" xlink:href="#path-12"></use>
        </g>
        <path d="M1439.96036,-62.4917462 L1440,128.458523 L1260.29031,80.07238 C1225.32599,70.6583728 1201.02106,38.9131907 1201.01353,2.64973899 L1201,-62.5414771 L1439.96036,-62.4917462 Z" id="Fill-1-Copy-42" fill="url(#linearGradient-13)" opacity="0.4"></path>
    </g>
</svg>