<?xml version="1.0" encoding="UTF-8"?>
<svg width="1440px" height="500px" viewBox="0 0 1440 500" version="1.1" xmlns="http://www.w3.org/2000/svg" xmlns:xlink="http://www.w3.org/1999/xlink">
    <!-- Generator: Sketch 55.2 (78181) - https://sketchapp.com -->
    <title>bg_starterkits_full</title>
    <desc>Created with Sketch.</desc>
    <defs>
        <linearGradient x1="100%" y1="10.8277654%" x2="16.2214949%" y2="76.4635905%" id="linearGradient-1">
            <stop stop-color="#00D4F6" stop-opacity="0.3" offset="0%"></stop>
            <stop stop-color="#00EBDF" stop-opacity="0" offset="100%"></stop>
        </linearGradient>
        <linearGradient x1="0%" y1="8.25394369%" x2="100%" y2="91.7460563%" id="linearGradient-2">
            <stop stop-color="#00D4F6" offset="0%"></stop>
            <stop stop-color="#00F1D9" offset="100%"></stop>
        </linearGradient>
        <linearGradient x1="100%" y1="1.11728317%" x2="0%" y2="98.8827168%" id="linearGradient-3">
            <stop stop-color="#00D4F6" offset="0%"></stop>
            <stop stop-color="#00F1D9" offset="100%"></stop>
        </linearGradient>
        <linearGradient x1="100%" y1="0%" x2="0%" y2="100%" id="linearGradient-4">
            <stop stop-color="#00EBDF" stop-opacity="0.5" offset="0%"></stop>
            <stop stop-color="#00D8F2" stop-opacity="0" offset="100%"></stop>
        </linearGradient>
        <linearGradient x1="100%" y1="0%" x2="0%" y2="100%" id="linearGradient-5">
            <stop stop-color="#00D4F6" offset="0%"></stop>
            <stop stop-color="#00F1D9" offset="100%"></stop>
        </linearGradient>
        <linearGradient x1="-36.9725676%" y1="42.2167693%" x2="100%" y2="85.2935944%" id="linearGradient-6">
            <stop stop-color="#00F1D9" offset="0%"></stop>
            <stop stop-color="#00D4F6" offset="100%"></stop>
        </linearGradient>
        <linearGradient x1="0%" y1="29.0657439%" x2="100%" y2="70.9342561%" id="linearGradient-7">
            <stop stop-color="#00D4F6" offset="0%"></stop>
            <stop stop-color="#00F1D9" offset="100%"></stop>
        </linearGradient>
        <linearGradient x1="0%" y1="49.1199456%" x2="95.0808759%" y2="50.8800544%" id="linearGradient-8">
            <stop stop-color="#00F1D9" offset="0%"></stop>
            <stop stop-color="#00D4F6" offset="100%"></stop>
        </linearGradient>
        <linearGradient x1="95.9201389%" y1="0%" x2="50%" y2="100%" id="linearGradient-9">
            <stop stop-color="#8697F3" offset="0%"></stop>
            <stop stop-color="#4E5EE4" offset="100%"></stop>
        </linearGradient>
        <linearGradient x1="100%" y1="24.5149171%" x2="0%" y2="75.4850829%" id="linearGradient-10">
            <stop stop-color="#8697F3" offset="0%"></stop>
            <stop stop-color="#F8F8FA" offset="100%"></stop>
        </linearGradient>
    </defs>
    <g id="OZ-desktop" stroke="none" stroke-width="1" fill="none" fill-rule="evenodd">
        <polygon id="Rectangle" fill="#F8F8FA" points="-1 366.911765 495 499.911765 -1 499.911765"></polygon>
        <polygon id="Rectangle" fill="#F8F8FA" transform="translate(1191.000000, 433.411765) scale(-1, 1) translate(-1191.000000, -433.411765) " points="943 366.911765 1439 499.911765 943 499.911765"></polygon>
        <path d="M918.000435,227.611442 L918.002862,329.928759 C918.002941,333.242468 920.689296,335.928695 924.003005,335.928617 C924.537176,335.928604 925.068954,335.857258 925.584239,335.71647 L1119.16275,282.826307 C1124.38085,281.400602 1128,276.659955 1128,271.2506 L1128,159.771027 C1128,156.457319 1125.31371,153.771027 1122,153.771027 C1121.46578,153.771027 1120.93395,153.842373 1120.41862,153.983174 L935.674929,204.459458 C925.23854,207.310923 918.000178,216.792521 918.000435,227.611442 Z" id="Fill-1-Copy-10" fill-opacity="0.5" fill="url(#linearGradient-1)"></path>
        <path d="M996.957719,334.932092 L996.689335,423.368974 L853.47626,385.815058 C845.54161,383.734402 840.017276,376.552317 840.042013,368.34944 L840.285332,287.663734 C840.295325,284.35004 842.989705,281.671862 846.303399,281.681855 C846.810945,281.683385 847.316246,281.74931 847.807196,281.878049 L983.523475,317.46613 C991.458248,319.546819 996.982614,326.729087 996.957719,334.932092 Z" id="Fill-1-Copy-9" stroke="url(#linearGradient-2)" transform="translate(918.500000, 351.640369) scale(-1, 1) translate(-918.500000, -351.640369) "></path>
        <path d="M1143.00019,398.45673 L1143.00113,445.442443 C1143.0012,448.756151 1145.68755,451.442389 1149.00126,451.442322 C1149.52854,451.442311 1150.05353,451.372794 1150.56265,451.235566 L1223.12303,431.677612 C1228.36075,430.265835 1232,425.515773 1232,420.091124 L1232,373.105034 C1232,369.791326 1229.31371,367.105034 1226,367.105034 C1225.47267,367.105034 1224.94764,367.174552 1224.43849,367.31179 L1151.87716,386.87 C1146.63935,388.2818 1143.00008,393.031991 1143.00019,398.45673 Z" id="Fill-1-Copy-10" fill-opacity="0.5" fill="url(#linearGradient-3)"></path>
        <path d="M247.028218,305.503628 L247.400624,427.411765 L412.616638,383.143655 C420.50563,381.029873 425.982736,373.869554 425.957949,365.702324 L425.649283,264.00123 C425.629169,257.373843 420.240305,252.017591 413.612918,252.037705 C412.576451,252.040851 411.544758,252.178265 410.543601,252.446516 L255.922424,293.875836 C250.663011,295.285047 247.011584,300.058719 247.028218,305.503628 Z" id="Fill-1-Copy-23" fill-opacity="0.6" fill="url(#linearGradient-4)"></path>
        <path d="M178.028218,393.715933 L178.331242,492.911765 L312.616638,456.93123 C320.50563,454.817447 325.982736,447.657129 325.957949,439.489898 L325.718216,360.50123 C325.698102,353.873843 320.309238,348.517591 313.681851,348.537705 C312.645384,348.540851 311.613691,348.678265 310.612534,348.946516 L186.922424,382.088141 C181.663011,383.497353 178.011584,388.271025 178.028218,393.715933 Z" id="Fill-1-Copy-22" stroke="url(#linearGradient-5)" fill-opacity="0.4" fill="#FFFFFF" transform="translate(252.000000, 418.911765) scale(-1, 1) translate(-252.000000, -418.911765) "></path>
        <path d="M-1,160.755895 L118.79226,128.911765 L118.958131,183.913325 C118.982801,192.093634 113.488302,199.261886 105.582518,201.363464 L-1,229.696076 L-1,160.755895 Z" id="Combined-Shape" fill="url(#linearGradient-6)" opacity="0.6"></path>
        <path d="M1407.95759,132.734475 L1407.89022,154.823529 L1327.43962,133.545726 C1319.52296,131.451907 1314.01732,124.278342 1314.04214,116.089513 L1314.10909,94 L1394.56012,115.277915 C1402.4769,117.371768 1407.98257,124.545518 1407.95759,132.734475 Z" id="Fill-1-Copy-9" stroke="url(#linearGradient-7)" transform="translate(1361.000000, 124.411765) scale(-1, 1) translate(-1361.000000, -124.411765) "></path>
        <path d="M285.268662,156.522049 L285.22939,156.668612 C284.709069,158.610477 285.861458,160.606473 287.803323,161.126794 C288.112067,161.209522 288.430362,161.251224 288.749996,161.250825 L346.756016,161.178351 C349.485927,161.17494 351.869415,159.329122 352.555782,156.686902 L352.58192,156.58628 C353.090185,154.629677 351.916074,152.631507 349.959471,152.123242 C349.657518,152.044804 349.346776,152.005291 349.034801,152.005664 L291.057045,152.074968 C288.344078,152.07821 285.97083,153.901523 285.268662,156.522049 Z" id="Fill-1-Copy-20" fill="url(#linearGradient-8)" opacity="0.4" transform="translate(318.886646, 156.628380) rotate(-15.000000) translate(-318.886646, -156.628380) "></path>
        <path d="M312,134.764174 L312,180.052502 C312,183.366211 314.686292,186.052502 318,186.052502 C318.534219,186.052502 319.066046,185.981156 319.581377,185.840356 L380.998998,169.05963 L380.999852,123.771181 C380.999914,120.457472 378.313673,117.77113 374.999965,117.771068 C374.465708,117.771057 373.933842,117.842404 373.418475,117.983214 L312,134.764174 Z" id="Fill-1-Copy-12" fill-opacity="0.05" fill="url(#linearGradient-9)"></path>
        <path d="M1093.88202,203.393669 L1093.84274,203.540232 C1093.32242,205.482097 1094.47481,207.478094 1096.41668,207.998415 C1096.72542,208.081142 1097.04372,208.122844 1097.36335,208.122445 L1155.36937,208.049971 C1158.09928,208.04656 1160.48277,206.200742 1161.16914,203.558522 L1161.19527,203.457901 C1161.70354,201.501297 1160.52943,199.503127 1158.57282,198.994863 C1158.27087,198.916425 1157.96013,198.876912 1157.64815,198.877284 L1099.6704,198.946588 C1096.95743,198.949831 1094.58418,200.773143 1093.88202,203.393669 Z" id="Fill-1-Copy-20" fill="url(#linearGradient-8)" transform="translate(1127.500000, 203.500000) rotate(-15.000000) translate(-1127.500000, -203.500000) "></path>
        <path d="M1198,420.96351 L1198,488.109952 C1198,491.423661 1200.68629,494.109952 1204,494.109952 C1204.53862,494.109952 1205.07478,494.037426 1205.59405,493.894329 L1381.18809,445.504514 C1386.39364,444.06998 1390,439.335358 1390,433.93576 L1390,366.78891 C1390,363.475201 1387.31371,360.78891 1384,360.78891 C1383.46138,360.78891 1382.92521,360.861437 1382.40594,361.004536 L1206.81188,409.394763 C1201.60634,410.829306 1198,415.563922 1198,420.96351 Z" id="Fill-1-Copy-14" fill-opacity="0.11" fill="url(#linearGradient-10)"></path>
        <path d="M51.2686618,391.522049 L51.2293905,391.668612 C50.7090693,393.610477 51.8614583,395.606473 53.8033234,396.126794 C54.1120669,396.209522 54.4303618,396.251224 54.7499963,396.250825 L112.756016,396.178351 C115.485927,396.17494 117.869415,394.329122 118.555782,391.686902 L118.58192,391.58628 C119.090185,389.629677 117.916074,387.631507 115.959471,387.123242 C115.657518,387.044804 115.346776,387.005291 115.034801,387.005664 L57.0570447,387.074968 C54.3440785,387.07821 51.9708297,388.901523 51.2686618,391.522049 Z" id="Fill-1-Copy-20" fill="url(#linearGradient-8)" transform="translate(84.886646, 391.628380) rotate(-15.000000) translate(-84.886646, -391.628380) "></path>
    </g>
</svg>