<?xml version="1.0" encoding="UTF-8"?>
<svg width="1440px" height="500px" viewBox="0 0 1440 500" version="1.1" xmlns="http://www.w3.org/2000/svg" xmlns:xlink="http://www.w3.org/1999/xlink">
    <!-- Generator: Sketch 55.2 (78181) - https://sketchapp.com -->
    <title>bg_sdk_full</title>
    <desc>Created with Sketch.</desc>
    <defs>
        <linearGradient x1="27.9490467%" y1="1.72254642e-14%" x2="72.0509533%" y2="100%" id="linearGradient-1">
            <stop stop-color="#3677FF" offset="0%"></stop>
            <stop stop-color="#1ECFF7" offset="100%"></stop>
        </linearGradient>
        <linearGradient x1="101.027768%" y1="105.122854%" x2="20.532002%" y2="0%" id="linearGradient-2">
            <stop stop-color="#3677FF" offset="0%"></stop>
            <stop stop-color="#1ECFF7" offset="100%"></stop>
        </linearGradient>
        <path d="M154,200.60269 L9.31858813,161.281661 C4.0767857,159.857061 0.445634925,155.088988 0.465748798,149.657085 L0.997815993,6.58730431 C1.01013743,3.27361872 3.70639886,0.597334287 7.02008445,0.609613351 C7.53652006,0.609613351 8.05054673,0.680164013 8.54941796,0.813718924 L153.972042,39.7454195 L154,200.60269 Z" id="path-3"></path>
        <filter x="-5.6%" y="-16.8%" width="111.2%" height="133.7%" filterUnits="objectBoundingBox" id="filter-5">
            <feGaussianBlur stdDeviation="3" in="SourceGraphic"></feGaussianBlur>
        </filter>
        <linearGradient x1="104.123992%" y1="5.95886917%" x2="0%" y2="89.2244898%" id="linearGradient-6">
            <stop stop-color="#3677FF" offset="0%"></stop>
            <stop stop-color="#1ECFF7" offset="100%"></stop>
        </linearGradient>
        <linearGradient x1="3.31397551%" y1="1.72254642e-14%" x2="96.6860245%" y2="100%" id="linearGradient-7">
            <stop stop-color="#3677FF" offset="0%"></stop>
            <stop stop-color="#1ECFF7" offset="100%"></stop>
        </linearGradient>
        <linearGradient x1="-1.11022302e-14%" y1="37.7526671%" x2="100%" y2="62.2473329%" id="linearGradient-8">
            <stop stop-color="#3677FF" offset="0%"></stop>
            <stop stop-color="#1ECFF7" offset="100%"></stop>
        </linearGradient>
        <linearGradient x1="-32.1585362%" y1="-19.5314456%" x2="81.9353642%" y2="87.5086459%" id="linearGradient-9">
            <stop stop-color="#3677FF" offset="0%"></stop>
            <stop stop-color="#1ECFF7" offset="100%"></stop>
        </linearGradient>
        <linearGradient x1="-32.1585362%" y1="6.81283793%" x2="81.9353642%" y2="73.2972571%" id="linearGradient-10">
            <stop stop-color="#3677FF" offset="0%"></stop>
            <stop stop-color="#1ECFF7" offset="100%"></stop>
        </linearGradient>
        <linearGradient x1="100%" y1="45.231227%" x2="0%" y2="50%" id="linearGradient-11">
            <stop stop-color="#F8F8FA" offset="0%"></stop>
            <stop stop-color="#F8F8FA" offset="100%"></stop>
        </linearGradient>
        <linearGradient x1="-1.11022302e-14%" y1="20.7911111%" x2="100%" y2="79.2088889%" id="linearGradient-12">
            <stop stop-color="#3677FF" offset="0%"></stop>
            <stop stop-color="#1ECFF7" offset="100%"></stop>
        </linearGradient>
        <linearGradient x1="-1.11022302e-14%" y1="16.8567688%" x2="100%" y2="83.1432312%" id="linearGradient-13">
            <stop stop-color="#1ECFF7" offset="0%"></stop>
            <stop stop-color="#3677FF" offset="100%"></stop>
        </linearGradient>
        <linearGradient x1="94.0323044%" y1="0%" x2="5.96769556%" y2="100%" id="linearGradient-14">
            <stop stop-color="#3677FF" offset="0%"></stop>
            <stop stop-color="#1ECFF7" offset="100%"></stop>
        </linearGradient>
    </defs>
    <g id="OZ-desktop" stroke="none" stroke-width="1" fill="none" fill-rule="evenodd">
        <path d="M80,336.646438 L80,425.64191 C80,428.955618 82.6862915,431.64191 86,431.64191 C86.5339303,431.64191 87.0654717,431.570641 87.5805437,431.429991 L157.159947,412.430035 C162.378812,411.004926 165.998796,406.263958 165.998859,400.854014 L165.999907,311.858186 C165.999946,308.544478 163.313687,305.858154 159.999978,305.858115 C159.466024,305.858109 158.934459,305.929378 158.419364,306.070034 L88.8389127,325.070276 C83.6199965,326.495399 80,331.236442 80,336.646438 Z" id="Fill-1-Copy-16" fill-opacity="0.2" fill="url(#linearGradient-1)" opacity="0.6"></path>
        <g id="Group-10-Copy" transform="translate(-1.000000, 367.000000)" fill="#F8F8FA">
            <polygon id="Rectangle" points="0 0 496 133 0 133"></polygon>
            <polygon id="Rectangle" transform="translate(1192.000000, 66.500000) scale(-1, 1) translate(-1192.000000, -66.500000) " points="944 0 1440 133 944 133"></polygon>
        </g>
        <g id="Group-11-Copy" transform="translate(1285.000000, 245.397310)">
            <mask id="mask-4" fill="white">
                <use xlink:href="#path-3"></use>
            </mask>
            <use id="Mask" fill="url(#linearGradient-2)" xlink:href="#path-3"></use>
            <path d="M-51.4176275,70.999401 L-62,110.974828 L71.44238,111.004088 C79.6107925,111.005879 86.7563599,105.507122 88.8468644,97.6107456 L99.4301366,57.6349886 L-34.0130557,57.6057286 C-42.1815953,57.6039375 -49.3272405,63.1028623 -51.4176275,70.999401 Z" id="Fill-1-Copy-13" fill-opacity="0.5" fill="#2264ED" style="mix-blend-mode: multiply;" opacity="0.6" filter="url(#filter-5)" mask="url(#mask-4)" transform="translate(18.715068, 84.304908) scale(-1, 1) rotate(-15.000000) translate(-18.715068, -84.304908) "></path>
        </g>
        <path d="M370.000434,309.326431 L370.001962,373.768121 C370.002041,377.08183 372.688396,379.768057 376.002105,379.767979 C376.536617,379.767966 377.068731,379.696529 377.58432,379.555564 L509.164715,343.580761 C514.381837,342.154372 518,337.41419 518,332.005591 L518,258.403501 C518,255.089792 515.313708,252.403501 512,252.403501 C511.46544,252.403501 510.933278,252.474938 510.417642,252.615915 L387.671004,286.175521 C377.236556,289.028356 370.000178,298.509021 370.000434,309.326431 Z" id="Fill-1-Copy-18" fill-opacity="0.5" fill="url(#linearGradient-6)" opacity="0.866001674"></path>
        <path d="M111,368.688477 L111,406.14191 C111,409.455618 113.686292,412.14191 117,412.14191 C117.53393,412.14191 118.065472,412.070641 118.580544,411.929991 L173.665842,396.887921 C178.884676,395.462821 182.504651,390.721899 182.504754,385.311988 L182.505468,347.858245 C182.505531,344.544537 179.819291,341.858194 176.505583,341.858131 C175.971614,341.858121 175.440033,341.92939 174.924925,342.07005 L119.838913,357.112315 C114.619996,358.537437 111,363.27848 111,368.688477 Z" id="Fill-1-Copy-19" fill="url(#linearGradient-7)"></path>
        <path d="M409.028218,341.804169 L409.331242,441 L557,401.433516 L556.718216,308.589465 C556.698102,301.962079 551.309238,296.605826 544.681851,296.625941 C543.645384,296.629086 542.613691,296.7665 541.612534,297.034751 L417.922424,330.176377 C412.663011,331.585588 409.011584,336.35926 409.028218,341.804169 Z" id="Fill-1-Copy-25" fill-opacity="0.5" fill="#FFFFFF" transform="translate(483.000000, 367.000000) scale(-1, 1) translate(-483.000000, -367.000000) "></path>
        <path d="M1104.52786,177.096126 L1320.85912,119.301872 C1331.516,116.454818 1338.86002,106.710215 1338.6607,95.6813825 L1338.0339,61 L1122.26575,118.643818 C1111.74835,121.453608 1104.43941,130.990432 1104.4603,141.876671 L1104.52786,177.096126 Z" id="Fill-1-Copy-20" stroke="url(#linearGradient-8)" opacity="0.8"></path>
        <path d="M166.966364,37.4117254 L167.185305,80.0776037 C167.219314,86.7049334 172.619395,92.0498765 179.246725,92.0158681 C180.284948,92.0105404 181.31809,91.8704975 182.320267,91.5992478 L254.966364,71.9368256 L254.748803,29.2709624 C254.715009,22.6436316 249.3151,17.2985138 242.68777,17.3323078 C241.649416,17.3376026 240.616142,17.4776465 239.613839,17.7489301 L166.966364,37.4117254 Z" id="Fill-1-Copy-21" fill-opacity="0.4" fill="url(#linearGradient-9)"></path>
        <path d="M1275,27.2338655 L1275.10382,41.4458403 C1275.15223,48.0730805 1280.56391,53.4062754 1287.19115,53.3578646 C1288.21888,53.3503573 1289.24138,53.2108525 1290.23355,52.9427758 L1339,39.7665043 L1338.89684,25.5549059 C1338.84874,18.9276634 1333.4373,13.5942192 1326.81006,13.6423246 C1325.78215,13.649786 1324.75945,13.7892925 1323.7671,14.0574175 L1275,27.2338655 Z" id="Fill-1-Copy-26" fill-opacity="0.4" fill="url(#linearGradient-10)"></path>
        <path d="M208.966364,59.2241663 L209.185725,102.109464 C209.219625,108.736795 214.619618,114.081827 221.246948,114.047927 C222.27723,114.042658 223.302543,113.904725 224.297588,113.637534 L296.966364,94.1243807 L296.748386,51.2390986 C296.7147,44.6117672 291.314879,39.2665611 284.687548,39.3002466 C283.657137,39.305484 282.631691,39.4434174 281.636521,39.7106425 L208.966364,59.2241663 Z" id="Fill-1-Copy-27" fill-opacity="0.5" fill="#F8F8FA"></path>
        <path d="M1347.95786,350.833692 L1347.83299,391.980741 L1218.41748,357.578482 C1210.5117,355.476904 1205.0172,348.308652 1205.04187,340.128343 L1205.16596,298.980741 L1334.58225,333.383209 C1342.48816,335.48482 1347.98269,342.653256 1347.95786,350.833692 Z" id="Fill-1-Copy-28" fill-opacity="0.5" fill="url(#linearGradient-11)"></path>
        <path d="M110.912331,180.725101 L111,217.5 L-0.864838198,187.525907 L-0.715581611,153.071782 L-0.624297844,132 L93.1277001,157.120772 C103.771909,159.972879 111.106144,169.707109 110.912331,180.725101 Z" id="Fill-1-Copy-29" stroke="url(#linearGradient-12)" opacity="0.5"></path>
        <path d="M1348,285.5 L1439,261.01733 L1438.66471,150.543003 C1438.64459,143.915617 1433.25573,138.559364 1426.62834,138.579478 C1425.60347,138.582589 1424.58322,138.716981 1423.5925,138.979372 L1348,159 L1348,285.5 Z" id="Fill-1-Copy-30" fill-opacity="0.6" fill="#FFFFFF" transform="translate(1393.500000, 210.250000) scale(-1, 1) translate(-1393.500000, -210.250000) "></path>
        <path d="M839.109487,332.578015 L839.411229,383.776359 C839.450288,390.403661 844.854441,395.744487 851.481743,395.705428 C852.496444,395.699448 853.50629,395.564789 854.487104,395.304676 L994.101969,358.278592 L993.692863,288.502724 C993.654006,281.875421 988.250016,276.53443 981.622713,276.573287 C980.607889,276.579237 979.597918,276.713897 978.616986,276.974042 L856.956902,309.238493 C846.384322,312.042359 839.045024,321.640146 839.109487,332.578015 Z" id="Fill-1-Copy-31" fill-opacity="0.2" fill="url(#linearGradient-13)" transform="translate(916.550984, 336.139296) scale(-1, -1) translate(-916.550984, -336.139296) "></path>
        <path d="M886.074986,373.54272 L886.43978,463.746565 C886.466582,470.373928 891.860848,475.72474 898.488211,475.697938 C899.510349,475.693804 900.527772,475.559093 901.515765,475.297075 L1041.10197,438.278592 L1040.66446,329.532365 C1040.6378,322.905001 1035.24364,317.554077 1028.61628,317.58074 C1027.59405,317.584853 1026.57655,317.719565 1025.58847,317.981604 L903.922622,350.247585 C893.36601,353.047215 886.030818,362.621273 886.074986,373.54272 Z" id="Fill-1-Copy-32" stroke="url(#linearGradient-14)" stroke-width="2" fill-opacity="0.4" fill="#FFFFFF" transform="translate(963.550984, 396.639296) scale(-1, -1) translate(-963.550984, -396.639296) "></path>
    </g>
</svg>