<?xml version="1.0" encoding="UTF-8"?>
<svg width="180px" height="70px" viewBox="0 0 180 70" version="1.1" xmlns="http://www.w3.org/2000/svg" xmlns:xlink="http://www.w3.org/1999/xlink">
    <!-- Generator: Sketch 55.2 (78181) - https://sketchapp.com -->
    <title>augur</title>
    <desc>Created with Sketch.</desc>
    <g id="Zeppelin-Desktop" stroke="none" stroke-width="1" fill="none" fill-rule="evenodd">
        <rect id="Rectangle-Copy-14" fill="#F8F8FA" opacity="0" x="0" y="0" width="180" height="70"></rect>
        <g id="augur" transform="translate(36.000000, 14.000000)" fill="#5F2652">
            <path d="M25.8746932,21.790527 C25.4035818,20.4523166 24.5959623,19.2702307 23.5415702,18.3557868 L23.1377604,18.0212342 L23.1153265,17.9989307 C22.9807233,17.8874132 22.84612,17.7981992 22.7115168,17.7089851 L22.6890829,17.6866816 C22.5544797,17.5974676 22.4198764,17.5082536 22.2628393,17.4190395 C22.2404054,17.4190395 22.2404054,17.396736 22.2179715,17.396736 C22.0833683,17.307522 21.9263312,17.2406115 21.7917279,17.1737009 C21.769294,17.1737009 21.769294,17.1513974 21.7468602,17.1513974 C21.6122569,17.0844869 21.4552198,17.0175764 21.2981827,16.9506659 C21.2757488,16.9506659 21.2757488,16.9283624 21.2533149,16.9283624 C21.1187117,16.8837553 20.9841084,16.8168448 20.8495052,16.7722378 C20.4905632,16.6384168 20.1091873,16.5268992 19.7278114,16.4599887 C19.436171,17.0175764 19.0323613,17.5082536 18.5836838,17.9320202 C19.2791339,17.9766272 19.9521501,18.1550553 20.5578648,18.4003939 C20.9168068,18.5565184 21.2757488,18.7349465 21.589823,18.935678 C21.6122569,18.935678 21.6346908,18.9579816 21.6346908,18.9579816 C21.7244263,19.0025886 21.7917279,19.0694991 21.8814634,19.1364096 C21.9263312,19.1587131 21.948765,19.1810166 21.9936328,19.2256236 C22.0609344,19.2702307 22.1506699,19.3371412 22.2179715,19.4040517 C22.2628393,19.4486587 22.307707,19.4709622 22.3525748,19.5155692 C22.4198764,19.5824798 22.487178,19.6270868 22.5544797,19.6939973 L22.6890829,19.8278184 L22.8685539,20.0062464 L23.0031572,20.1400675 C23.0480249,20.206978 23.1153265,20.2738885 23.1601943,20.3184955 C23.205062,20.3631025 23.2499298,20.4300131 23.2947975,20.4746201 L23.4294008,20.6753517 C23.4742685,20.7422622 23.5191363,20.7868692 23.5415702,20.8537797 L23.6761734,21.0545113 C23.7210412,21.1214218 23.743475,21.1883323 23.7883428,21.2329393 C23.8332105,21.2998499 23.8556444,21.3667604 23.9005122,21.4336709 C23.9453799,21.5005814 23.9678138,21.567492 24.0126815,21.6344025 C24.0351154,21.701313 24.0799832,21.7682235 24.102417,21.8351341 C24.1472848,21.9243481 24.1697187,22.0135621 24.2145864,22.0804726 C24.3940574,22.5265428 24.5286607,22.9949165 24.5959623,23.5078971 L24.7978672,24.2885199 C24.8876027,24.6230725 25.6952222,27.4779215 27.5796677,28.4369723 C29.7333197,29.5521477 32.5824219,30.9349652 33.7041156,31.4702494 L18.9201919,40.2578314 L18.9201919,34.2358843 C18.9201919,33.2768335 20.8270713,32.1616581 21.7019924,31.7824985 L21.7468602,31.760195 C21.9263312,31.670981 22.1058022,31.5817669 22.2852732,31.4702494 L22.3525748,31.4256424 C22.7339507,31.2026073 23.0928927,30.9349652 23.4294008,30.6450196 C23.4518347,30.6227161 23.4967024,30.6004126 23.5191363,30.5558056 C23.564004,30.5335021 23.5864379,30.488895 23.6313057,30.4665915 C23.743475,30.3773775 23.8332105,30.26586 23.9453799,30.1766459 L23.9902477,30.1320389 C24.102417,30.0205214 24.2145864,29.9090038 24.3043219,29.7751828 C24.3267558,29.7305758 24.3716236,29.7082723 24.3940574,29.6636653 C24.4837929,29.5744512 24.5510946,29.4629337 24.6408301,29.3514162 C24.6632639,29.3291126 24.6856978,29.2845056 24.7081317,29.2622021 L24.9773382,28.860739 C24.9773382,28.8384355 24.9997721,28.8384355 24.9997721,28.816132 C25.1119414,28.6377039 25.2241108,28.4369723 25.3362802,28.2585443 C24.8876027,27.7232601 24.5510946,27.1433689 24.2818881,26.6080847 C24.1697187,26.9426373 24.0126815,27.2771899 23.8556444,27.5671355 C23.7883428,27.7009566 23.6986073,27.8347776 23.6313057,27.9685987 C23.6088718,27.9909022 23.6088718,28.0132057 23.5864379,28.0132057 C23.5191363,28.1247232 23.4294008,28.2362408 23.3620992,28.3254548 C23.3396653,28.3477583 23.3172314,28.3923653 23.2947975,28.4146688 C23.2274959,28.5261864 23.1377604,28.6154004 23.0480249,28.7046144 C23.025591,28.7269179 23.025591,28.7492214 23.0031572,28.7492214 C22.4647442,29.3514162 21.8141618,29.8643968 21.0738439,30.221253 L20.9392407,30.2881635 C20.5578648,30.444288 17.2600851,31.938623 17.2600851,34.1912773 L17.2600851,40.2132244 L2.45372753,31.4479459 C3.41838416,30.8680547 6.20018468,29.2175951 8.48843994,28.5038829 C9.38579495,28.2139373 11.2926743,29.4183267 12.3695003,30.2881635 L12.436802,30.355074 C12.5714052,30.488895 12.7284423,30.6227161 12.8854795,30.7342336 L12.9303472,30.7788406 C13.2668554,31.0464827 13.6257974,31.3141248 14.0296071,31.5148564 L14.2988136,31.6486774 C14.3212475,31.6486774 14.3436814,31.670981 14.3436814,31.670981 C14.590454,31.804802 14.8372266,31.9163195 15.1064331,32.0278371 C15.1513009,32.0501406 15.1737347,32.0501406 15.2186025,32.0724441 C15.2410364,32.0724441 15.2634702,32.0947476 15.308338,32.0947476 C15.6897139,32.2285686 16.0710897,32.3400862 16.4524656,32.4293002 C16.744106,31.8717125 17.1703496,31.3810354 17.6190271,30.9572687 C16.9684448,30.9126617 16.3627301,30.7788406 15.7794494,30.5558056 C15.7570155,30.5335021 15.7121477,30.5335021 15.6897139,30.5111986 C15.6224122,30.488895 15.5551106,30.4665915 15.487809,30.4219845 C15.4653751,30.399681 15.4205074,30.399681 15.3980735,30.3773775 C15.3307719,30.355074 15.2634702,30.310467 15.2186025,30.2881635 C14.769925,30.0651284 14.3661152,29.8197898 13.9847394,29.5075407 L13.4014586,28.9722565 C13.3790247,28.949953 12.6611407,28.3031513 11.6516163,27.7232601 C10.1934145,26.8980303 8.95955132,26.6303882 8.01732857,26.9203338 C6.06558143,27.544832 3.84462779,28.7269179 2.49859528,29.5075407 L17.282519,3.10018757 L17.282519,14.6757081 C17.282519,15.0771712 16.6768044,16.1477396 14.6353217,17.0621834 L14.5007185,17.1290939 C14.2988136,17.218308 14.1193426,17.3298255 13.9174377,17.441343 L13.87257,17.4636465 C13.4911941,17.6866816 13.1322521,17.9543237 12.7733101,18.2442693 C12.5489713,18.4226974 12.3470665,18.6234289 12.1675955,18.8241605 L12.1451616,18.846464 C11.9432567,19.0471956 11.7637857,19.2479272 11.6067486,19.4709622 L11.5843147,19.4932657 C11.4945792,19.6047833 11.4272776,19.7163008 11.3375421,19.8278184 C11.3375421,19.8501219 11.3151082,19.8501219 11.3151082,19.8724254 C11.2478066,19.9839429 11.180505,20.0731569 11.1132033,20.1846745 C11.1132033,20.206978 11.0907695,20.206978 11.0907695,20.2292815 L10.8888646,20.5638341 C10.8664307,20.5861376 10.8664307,20.6084411 10.8439968,20.6530481 C10.7766952,20.7645657 10.7318275,20.8760832 10.6869597,20.9652973 C10.6869597,20.9876008 10.6645258,21.0099043 10.6645258,21.0099043 C10.6196581,21.1214218 10.5747903,21.2106358 10.5299226,21.3221534 C10.5074887,21.3667604 10.5074887,21.3890639 10.4850548,21.4336709 L10.3504516,21.7682235 C10.3280177,21.8128305 10.3280177,21.8351341 10.3055838,21.8797411 C10.28315,21.9689551 10.2607161,22.0358656 10.2158483,22.1250797 C10.1934145,22.1696867 10.1934145,22.2142937 10.1709806,22.2589007 C10.1485467,22.3704182 10.103679,22.4819358 10.0812451,22.5711498 C10.0588112,22.6157568 10.0588112,22.6826673 10.0363773,22.7272744 C10.0139435,22.7941849 10.0139435,22.8833989 9.99150958,22.9503094 C9.9690757,23.01722 9.9690757,23.0841305 9.94664183,23.151041 C9.92420795,23.240255 9.92420795,23.3294691 9.90177408,23.4186831 C9.90177408,23.4855936 9.8793402,23.5302006 9.8793402,23.5971112 C9.8793402,23.6863252 9.85690633,23.7532357 9.85690633,23.8424497 C9.85690633,23.9316638 9.85690633,23.9985743 9.83447245,24.0877883 L9.83447245,24.4223409 C9.83447245,24.8238041 9.85690633,25.2475707 9.92420795,25.6267304 C10.5074887,25.7605514 11.1132033,26.00589 11.7637857,26.3181391 C11.5843147,25.7382479 11.4945792,25.1360532 11.4721453,24.511555 L11.4721453,24.4000374 C11.4721453,24.2439129 11.4721453,24.1100918 11.4945792,23.9539673 L11.4945792,23.8424497 C11.4945792,23.7086287 11.5170131,23.5971112 11.539447,23.4632901 L11.539447,23.4186831 C11.5618808,23.2848621 11.5843147,23.151041 11.6067486,22.9949165 C11.6067486,22.9503094 11.6291825,22.9280059 11.6291825,22.8833989 C11.6516163,22.7718814 11.6964841,22.6603638 11.718918,22.5488463 C11.718918,22.5265428 11.7413518,22.5042393 11.7413518,22.4819358 L11.8759551,22.0804726 C11.898389,22.0581691 11.898389,22.0135621 11.9208228,21.9912586 C11.9656906,21.8797411 12.0105583,21.7682235 12.0554261,21.6790095 C12.07786,21.656706 12.07786,21.6344025 12.1002938,21.5897955 C12.1675955,21.4559744 12.2124632,21.3444569 12.3021987,21.2329393 C12.3246326,21.2106358 12.3246326,21.1883323 12.3470665,21.1660288 C12.4143681,21.0545113 12.4592358,20.9652973 12.5265375,20.8537797 C12.5489713,20.8314762 12.5489713,20.8091727 12.5714052,20.7868692 C12.6387068,20.6753517 12.7284423,20.5638341 12.8181778,20.4523166 C12.8181778,20.4523166 12.8181778,20.4300131 12.8406117,20.4300131 C12.9303472,20.3184955 12.9976488,20.2292815 13.0873844,20.117764 C13.1098182,20.0954604 13.1098182,20.0731569 13.1322521,20.0508534 C13.5360619,19.6047833 13.9847394,19.2256236 14.5007185,18.891071 L15.1961686,18.5565184 C15.5775445,18.4003939 18.8528903,16.8614518 18.8528903,14.6087976 L18.8528903,3.10018757 L33.7714172,29.7305758 C32.4478186,29.0837741 30.0922617,27.9239917 28.2751178,26.9872443 C27.2207257,26.4519601 26.5252756,24.556162 26.3233707,23.8647533 L26.1214658,23.061827 C26.1214658,22.6380603 26.0092964,22.2142937 25.8746932,21.790527 L25.8746932,21.790527 Z M35.969937,30.1766459 L19.5259065,0.847533293 C19.2342661,0.312249108 18.6958531,0 18.0901385,0 C17.4844239,0 16.9460109,0.312249108 16.6543705,0.847533293 L0.210340013,30.1766459 C-0.215903614,30.9349652 0.0308690122,31.9163195 0.793620767,32.3623897 L17.2600851,42.1536296 C17.5292916,42.3097541 17.820932,42.3766647 18.1125724,42.3766647 C18.4042128,42.3766647 18.6958531,42.3097541 18.9650596,42.1536296 L35.4090901,32.3846932 C36.149408,31.9163195 36.4186145,30.9349652 35.969937,30.1766459 Z M43.4628513,18.4003939 C43.4628513,18.846464 43.7320578,19.1810166 44.4499418,19.1810166 C45.1453919,19.1810166 45.4370323,18.846464 45.4370323,18.4003939 L45.4370323,18.2442693 C45.4370323,16.5492027 46.8503665,15.0548677 48.8021136,15.0548677 C50.7314269,15.0548677 52.1671949,16.4599887 52.1671949,18.3557868 L52.1671949,19.1141061 C52.1671949,19.5155692 51.7185174,19.7832113 51.1576705,19.8947289 L47.4112133,20.7422622 C44.7191483,21.3444569 43.5077191,22.7718814 43.5077191,24.9799286 C43.5077191,27.500225 45.7735404,29.6413618 48.8245475,29.6413618 C51.8082529,29.6413618 54.1413759,27.6340461 54.1413759,24.3554304 L54.1413759,18.3557868 C54.1413759,15.4340273 51.8531206,13.3821046 48.8245475,13.3821046 C45.7959743,13.3821046 43.5077191,15.5009379 43.5077191,18.1996623 L43.5077191,18.4003939 L43.4628513,18.4003939 L43.4628513,18.4003939 Z M48.7796797,27.9909022 C46.7381971,27.9909022 45.4145984,26.4965672 45.4145984,25.0245357 C45.4145984,23.5302006 46.2895196,22.7272744 47.8150231,22.3481147 L51.0230672,21.612099 C51.5614802,21.5005814 51.9428561,21.3444569 52.1223271,21.1214218 L52.1223271,24.3108234 C52.1223271,26.8757268 50.4173526,27.9909022 48.7796797,27.9909022 Z M65.7172555,24.3331269 C65.7172555,26.7196022 64.1917519,28.0132057 62.3073064,28.0132057 C60.4228609,28.0132057 58.8973574,26.7419057 58.8973574,24.3331269 L58.8973574,14.2742449 C58.8973574,13.8281748 58.6281509,13.4936222 57.9102669,13.4936222 C57.2148168,13.4936222 56.9231764,13.8281748 56.9231764,14.2742449 L56.9231764,24.466948 C56.9231764,27.8570811 59.4582043,29.6859688 62.2848726,29.6859688 C65.1115408,29.6859688 67.6465687,27.8570811 67.6465687,24.466948 L67.6465687,14.2742449 C67.6465687,13.8281748 67.3773622,13.4936222 66.6594782,13.4936222 C65.9415942,13.4936222 65.6723877,13.8281748 65.6723877,14.2742449 L65.6723877,24.3331269 L65.7172555,24.3331269 L65.7172555,24.3331269 Z M79.2897499,24.3331269 C79.2897499,26.7196022 77.7642464,28.0132057 75.8798009,28.0132057 C73.9953554,28.0132057 72.4698519,26.7419057 72.4698519,24.3331269 L72.4698519,18.7349465 C72.4698519,16.3484712 73.9953554,15.0548677 75.8798009,15.0548677 C77.7642464,15.0548677 79.2897499,16.3261676 79.2897499,18.7349465 L79.2897499,24.3331269 Z M75.5432928,34.4143124 C74.5562023,34.4143124 73.5691118,34.0797598 72.7614923,33.4329581 C72.3128148,33.0761019 71.8192695,33.165316 71.4827614,33.5890826 C71.1462532,34.0128493 71.1462532,34.5035264 71.6397985,34.8603826 C72.6717568,35.6856123 74.1972603,36.109379 75.5432928,36.109379 C78.7737708,36.109379 81.2414971,34.1689738 81.2414971,30.6227161 L81.2414971,18.5788219 C81.2414971,15.1886888 78.7064692,13.3598011 75.8798009,13.3598011 C73.0531326,13.3598011 70.5181047,15.1886888 70.5181047,18.5788219 L70.5181047,24.466948 C70.5181047,27.8570811 72.985831,29.6859688 75.6105944,29.6859688 C77.2033995,29.6859688 78.5718659,28.99456 79.3121838,28.0132057 L79.3121838,30.5111986 C79.2897499,32.9645844 77.8539819,34.4143124 75.5432928,34.4143124 L75.5432928,34.4143124 Z M93.1763186,24.3331269 C93.1763186,26.7196022 91.6508151,28.0132057 89.7663696,28.0132057 C87.8819241,28.0132057 86.3564206,26.7419057 86.3564206,24.3331269 L86.3564206,14.2742449 C86.3564206,13.8281748 86.0872141,13.4936222 85.3693301,13.4936222 C84.67388,13.4936222 84.3822396,13.8281748 84.3822396,14.2742449 L84.3822396,24.466948 C84.3822396,27.8570811 86.9172675,29.6859688 89.7439357,29.6859688 C92.570604,29.6859688 95.1280658,27.8793846 95.1280658,24.466948 L95.1280658,14.2742449 C95.1280658,13.8281748 94.8588593,13.4936222 94.1409753,13.4936222 C93.4455251,13.4936222 93.1538848,13.8281748 93.1538848,14.2742449 L93.1538848,24.3331269 L93.1763186,24.3331269 L93.1763186,24.3331269 Z M107.825639,15.3671168 C106.90585,14.0066028 105.11114,13.3598011 103.518335,13.3598011 C100.646799,13.3598011 98.2688083,15.3225098 98.2688083,18.3111798 L98.2688083,28.7715249 C98.2688083,29.2175951 98.5380148,29.5521477 99.2558988,29.5521477 C99.9737828,29.5521477 100.242989,29.2175951 100.242989,28.7715249 L100.242989,18.4003939 C100.242989,16.2815606 101.835794,15.0548677 103.540769,15.0548677 C104.752198,15.0548677 105.604685,15.5678484 106.232834,16.3038641 C106.546908,16.6607203 106.928284,16.8391483 107.444263,16.5268992 C107.960242,16.1923466 108.072412,15.76858 107.825639,15.3671168 L107.825639,15.3671168 Z" id="Shape"></path>
        </g>
    </g>
</svg>