<?xml version="1.0" encoding="UTF-8"?>
<svg width="180px" height="70px" viewBox="0 0 180 70" version="1.1" xmlns="http://www.w3.org/2000/svg" xmlns:xlink="http://www.w3.org/1999/xlink">
    <!-- Generator: Sketch 55.2 (78181) - https://sketchapp.com -->
    <title>brave</title>
    <desc>Created with Sketch.</desc>
    <defs>
        <linearGradient x1="-0.00324219751%" y1="50.0013616%" x2="99.9986705%" y2="50.0013616%" id="linearGradient-1">
            <stop stop-color="#FF5500" offset="0%"></stop>
            <stop stop-color="#FF5500" offset="40.99%"></stop>
            <stop stop-color="#FF2000" offset="58.2%"></stop>
            <stop stop-color="#FF2000" offset="100%"></stop>
        </linearGradient>
        <linearGradient x1="2.19453236%" y1="50.0007042%" x2="100.074692%" y2="50.0007042%" id="linearGradient-2">
            <stop stop-color="#FF452A" offset="0%"></stop>
            <stop stop-color="#FF2000" offset="100%"></stop>
        </linearGradient>
    </defs>
    <g id="Zeppelin-Desktop" stroke="none" stroke-width="1" fill="none" fill-rule="evenodd">
        <rect id="Rectangle-Copy-13" fill="#F8F8FA" opacity="0" x="0" y="0" width="180" height="70"></rect>
        <g id="brave-logotype-dark" transform="translate(27.000000, 16.000000)" fill-rule="nonzero">
            <g id="Group-4" transform="translate(41.883628, 7.643385)" fill="#434351">
                <path d="M0.0585785,13.3759239 L0.0585785,0.0587952698 L1.31801625,0.0587952698 C2.37242925,0.0587952698 3.2218175,0.911326681 3.2218175,1.9402439 L3.2218175,7.87856615 C5.272065,6.05591279 7.00013076,5.32097191 9.31398151,5.29157428 C13.7366583,5.20338137 17.57355,8.49591648 17.9543103,12.9349593 C18.393649,18.2265336 14.5567573,22.1952143 9.54829551,22.1952143 C4.0419165,22.1658167 0.0585785,18.7556911 0.0585785,13.3759239 Z M3.163239,14.4342387 C3.48542075,17.1976164 6.092164,19.4612343 8.87464276,19.5200296 C12.4772205,19.5788248 14.9375175,17.227014 14.9375175,13.7286955 C14.9375175,10.2303769 12.5065098,7.93736142 9.02108901,7.93736142 C5.272065,7.93736142 2.72390025,10.6419438 3.163239,14.4342387 Z" id="Shape"></path>
                <path d="M23.1677968,5.58555063 L23.1677968,7.96675905 C25.1594658,5.76193644 26.3310358,5.17398374 28.6448865,5.17398374 C29.3185393,5.17398374 29.992192,5.23277901 30.6658448,5.35036955 L30.6658448,8.49591648 C29.9629028,8.29013304 29.2306715,8.20194013 28.4984403,8.20194013 C26.828953,8.20194013 25.423069,8.7604952 24.368656,9.78941242 C23.4606893,10.7007391 23.197086,11.4062823 23.197086,12.8467664 L23.197086,21.6366593 L19.91669,21.6366593 L19.91669,5.58555063 L23.1677968,5.58555063 Z" id="Shape_1_"></path>
                <path d="M31.4273653,10.9065225 C31.6031008,9.34844789 31.8959933,8.49591648 32.569646,7.70218034 C33.9169515,6.05591279 36.31867,5.20338137 39.7455123,5.20338137 C42.4694125,5.20338137 44.4317923,5.61494826 45.808387,6.52627494 C46.9506678,7.26121582 47.4192958,8.37832594 47.4192958,10.3185698 L47.4192958,17.4327975 C47.4192958,18.9908721 47.8293453,19.5494272 48.9423368,19.5200296 C49.1766508,19.5200296 49.440254,19.4906319 49.674568,19.4612343 L49.674568,21.6072616 C49.1180723,21.7836475 48.5322873,21.8718404 47.9757915,21.8718404 C45.925544,21.8718404 44.988288,21.25449 44.3439245,19.4612343 C42.3229663,21.3132853 40.2434295,22.1070214 37.255926,22.1070214 C33.272588,22.1070214 30.812291,20.2843681 30.812291,17.3152069 C30.7830018,15.6395418 31.7788363,14.0814671 33.3311665,13.4053215 C34.5320258,12.8761641 35.264257,12.7291759 38.7203885,12.3764043 C41.6786028,12.0824279 42.17652,12.0236327 43.0259083,11.759054 C43.933875,11.4650776 44.3439245,10.9653178 44.3439245,10.1715817 C44.3439245,8.43712121 42.9087513,7.67278271 39.8919585,7.67278271 C37.0509013,7.67278271 35.5571495,8.23133777 34.9713645,9.70121951 C34.678472,10.4361604 33.97553,10.9359202 33.1847203,10.9359202 L31.4273653,10.9065225 Z M44.3439245,13.6405026 C42.2643878,14.2578529 40.1555618,14.6400222 37.9881573,14.816408 C35.0592323,15.1103843 34.1512655,15.6689394 34.1512655,17.1094235 C34.1512655,18.7262934 35.498571,19.5788248 38.1346035,19.5788248 C40.302008,19.5788248 41.9714953,19.0202698 43.1430653,17.9619549 C44.0803213,17.0800259 44.3146353,16.4626755 44.3146353,14.9339985 L44.3439245,13.6405026 L44.3439245,13.6405026 Z" id="Shape_2_"></path>
                <path d="M57.5533763,21.6072616 L56.703988,21.6072616 C55.9717568,21.6072616 55.298104,21.1956948 54.9759223,20.5195492 L47.9465023,5.58555063 L49.908882,5.58555063 C51.0511628,5.58555063 52.0762865,6.2322986 52.5449145,7.29061345 L57.2311945,18.0207502 L62.09321,7.26121582 C62.561838,6.2322986 63.5869618,5.58555063 64.7292426,5.58555063 L66.5158868,5.58555063 L59.3107313,20.5489468 C58.9592603,21.2250924 58.2856075,21.6366593 57.5533763,21.6072616 Z" id="Shape_3_"></path>
                <path d="M68.7125806,14.5518293 C69.0347623,17.6385809 71.4657701,19.5494272 75.0390586,19.5494272 C77.0893061,19.5494272 78.6123471,18.9320769 79.5496031,17.7267738 C80.1060988,17.0212306 80.9554871,16.6390613 81.8341646,16.6390613 L83.7379658,16.6390613 C82.0684786,20.2549704 79.1395536,22.0482262 74.7461661,22.0482262 C69.2690763,22.0482262 65.5493416,18.6968958 65.5493416,13.6992979 C65.5493416,8.70169993 69.3276548,5.17398374 74.8047446,5.17398374 C78.7587933,5.17398374 81.9513216,6.96723947 83.2400486,9.96579823 C83.7965443,11.3474871 84.0308583,12.5527901 84.0308583,14.5518293 L68.7125806,14.5518293 Z M80.7211731,12.0530303 C79.9889418,9.23085735 77.7922481,7.64338507 74.7754553,7.64338507 C71.7586626,7.64338507 69.5619688,9.23085735 68.8004483,12.0530303 L80.7211731,12.0530303 Z" id="Shape_4_"></path>
            </g>
            <g id="build-icons_x2F_Stable">
                <g id="Logo" transform="translate(0.111829, 0.000000)">
                    <path d="M31.749547,9.28965262 L32.6575138,7.05543237 C32.6575138,7.05543237 31.515233,5.82073171 30.109349,4.40964523 C28.703465,2.99855876 25.7452508,3.82169254 25.7452508,3.82169254 L22.376987,0 L16.4605585,0 L10.5148408,0 L7.14657701,3.85109017 C7.14657701,3.85109017 4.18836275,3.02795639 2.78247875,4.43904287 C1.37659475,5.85012934 0.234314,7.08483001 0.234314,7.08483001 L1.14228075,9.31905026 L0,12.6115854 C0,12.6115854 3.397553,25.4877494 3.77831325,27.0752217 C4.569123,30.1619734 5.0963295,31.3672764 7.32231251,32.9547487 C9.54829551,34.542221 13.5609228,37.2468034 14.2345755,37.6583703 C14.878939,38.0699372 15.7283273,38.7754804 16.4605585,38.7754804 C17.1927898,38.7754804 18.0128888,38.0699372 18.6865415,37.6583703 C19.330905,37.2468034 23.3728215,34.5128234 25.5988045,32.9547487 C27.8247875,31.3966741 28.351994,30.191371 29.1428038,27.0752217 C29.5528533,25.4877494 32.921117,12.6115854 32.921117,12.6115854 L31.749547,9.28965262 Z" id="Head" fill="url(#linearGradient-1)"></path>
                    <path d="M24.8079948,6.29109387 C24.8079948,6.29109387 29.1428038,11.5532705 29.1428038,12.6997783 C29.1428038,13.846286 28.586308,14.1108647 28.0298123,14.6988174 C27.4733165,15.2867701 25.071598,17.8443644 24.7787055,18.1677384 C24.4565238,18.4911123 23.8414495,18.9908721 24.1929205,19.9021988 C24.5736808,20.7841279 25.1301765,21.9306356 24.5151023,23.106541 C23.900028,24.2530488 22.845615,25.0467849 22.1719623,24.8997967 C21.4983095,24.7822062 19.8874008,23.9296748 19.3016158,23.5475055 C18.7158308,23.1653363 16.870608,21.6366593 16.870608,21.0487066 C16.870608,20.4607539 18.8036985,19.402439 19.1551695,19.1672579 C19.5066405,18.9320769 21.1175493,17.9913525 21.1468385,17.6385809 C21.1761278,17.2858093 21.1761278,17.1682188 20.6782105,16.2568921 C20.2095825,15.3455654 19.330905,14.1402624 19.4773513,13.3465262 C19.6237975,12.5527901 21.0003923,12.1412232 21.9962268,11.759054 C22.9920613,11.3768847 24.8958625,10.6713415 25.1301765,10.5537509 C25.3644905,10.4361604 25.305912,10.3479675 24.5736808,10.2597746 C23.8414495,10.2009793 21.8204913,9.90700296 20.8832353,10.1715817 C19.9459793,10.4361604 18.393649,10.8183296 18.2472028,11.0241131 C18.1300458,11.2298965 18.0128888,11.2298965 18.1300458,11.9648374 C18.2472028,12.6703806 18.9501448,16.1393016 19.0087233,16.7566519 C19.0673018,17.3740022 19.213748,17.7855691 18.5400953,17.9325573 C17.8957318,18.0795455 16.7827403,18.3441242 16.40198,18.3441242 C16.0212198,18.3441242 14.9082283,18.0795455 14.2638648,17.9325573 C13.6195013,17.7855691 13.7366583,17.3740022 13.7952368,16.7566519 C13.8538153,16.1393016 14.527468,12.6997783 14.6739143,11.9648374 C14.7910713,11.2592942 14.7032035,11.2298965 14.5567573,11.0241131 C14.4396003,10.8183296 12.8579808,10.4361604 11.9207248,10.1715817 C10.9834688,9.90700296 8.96251051,10.1715817 8.23027926,10.2597746 C7.49804801,10.3185698 7.43946951,10.4361604 7.67378351,10.5537509 C7.90809751,10.6713415 9.81189876,11.3768847 10.8077333,11.759054 C11.8035678,12.1412232 13.1801625,12.5527901 13.3266088,13.3465262 C13.473055,14.1402624 12.6236668,15.3455654 12.1257495,16.2568921 C11.6571215,17.1682188 11.6278323,17.2564117 11.6571215,17.6385809 C11.6864108,17.9913525 13.2973195,18.9320769 13.6487905,19.1672579 C14.0002615,19.402439 15.933352,20.4607539 15.933352,21.0487066 C15.933352,21.6366593 14.0881293,23.1653363 13.5023443,23.5475055 C12.9165593,23.9296748 11.3349398,24.7528086 10.6319978,24.8997967 C9.95834501,25.0173873 8.90393201,24.2530488 8.28885776,23.106541 C7.67378351,21.9600333 8.23027926,20.8135255 8.61103951,19.9021988 C8.99179976,19.0202698 8.34743626,18.52051 8.02525451,18.1677384 C7.79094051,17.8149667 5.41851125,15.2573725 4.8620155,14.6988174 C4.30551975,14.1108647 3.77831325,13.8168884 3.77831325,12.6997783 C3.77831325,11.5826681 8.11312226,6.29109387 8.11312226,6.29109387 C8.11312226,6.29109387 11.7742785,6.9966371 12.2721958,6.9966371 C12.770113,6.9966371 13.824526,6.58507021 14.8203605,6.26169623 C15.816195,5.93832225 16.4605585,5.93832225 16.4605585,5.93832225 C16.4605585,5.93832225 17.104922,5.93832225 18.1007565,6.26169623 C19.096591,6.58507021 20.151004,6.9966371 20.6489213,6.9966371 C21.1468385,6.9966371 24.8079948,6.29109387 24.8079948,6.29109387 Z M21.556888,26.4284738 C21.8204913,26.6048596 21.674045,26.9282336 21.4104418,27.0752217 C21.1761278,27.2516075 17.8664425,29.8092018 17.57355,30.1031781 C17.2513683,30.3971545 16.7827403,30.838119 16.4605585,30.838119 C16.1383768,30.838119 15.6697488,30.3677568 15.347567,30.1031781 C15.0253853,29.8092018 11.7449893,27.2516075 11.5106753,27.0752217 C11.2763613,26.8988359 11.1006258,26.5754619 11.364229,26.4284738 C11.6278323,26.252088 12.4772205,25.8405211 13.6195013,25.2231707 C14.7910713,24.6058204 16.2262445,24.1060606 16.4605585,24.1060606 C16.6948725,24.1060606 18.1300458,24.6058204 19.3016158,25.2231707 C20.4438965,25.8405211 21.2639955,26.2814856 21.556888,26.4284738 Z" id="Face" fill="#FFFFFF"></path>
                    <g id="Top-Head" transform="translate(2.636033, 0.000000)" fill="url(#linearGradient-2)">
                        <path d="M23.1092183,3.85109017 L19.7409545,0 L13.824526,0 L7.87880826,0 L4.5105445,3.85109017 C4.5105445,3.85109017 1.55233025,3.02795639 0.14644625,4.43904287 C0.14644625,4.43904287 4.100495,4.08627125 5.4478005,6.29109387 C5.4478005,6.29109387 9.10895676,6.9966371 9.60687401,6.9966371 C10.1047913,6.9966371 11.1592043,6.58507021 12.1550388,6.26169623 C13.1508733,5.93832225 13.7952368,5.93832225 13.7952368,5.93832225 C13.7952368,5.93832225 14.4396003,5.93832225 15.4354348,6.26169623 C16.4312693,6.58507021 17.4856823,6.9966371 17.9835995,6.9966371 C18.4815168,6.9966371 22.142673,6.29109387 22.142673,6.29109387 C23.4899785,4.08627125 27.4440273,4.43904287 27.4440273,4.43904287 C26.0674325,3.02795639 23.1092183,3.85109017 23.1092183,3.85109017" id="path-3_1_"></path>
                    </g>
                </g>
            </g>
        </g>
    </g>
</svg>