<?xml version="1.0" encoding="UTF-8"?>
<svg width="180px" height="70px" viewBox="0 0 180 70" version="1.1" xmlns="http://www.w3.org/2000/svg" xmlns:xlink="http://www.w3.org/1999/xlink">
    <!-- Generator: Sketch 55.2 (78181) - https://sketchapp.com -->
    <title>centrifuge</title>
    <desc>Created with Sketch.</desc>
    <defs>
        <polygon id="path-1" points="0 0 35.4961719 0 35.4961719 28.5954609 0 28.5954609"></polygon>
    </defs>
    <g id="Zeppelin-Desktop" stroke="none" stroke-width="1" fill="none" fill-rule="evenodd">
        <rect id="Rectangle-Copy-23" fill="#F8F8FA" opacity="0" x="0" y="0" width="180" height="70"></rect>
        <g id="centrifuge-copy" transform="translate(30.000000, 15.000000)">
            <polygon id="Fill-1" points="0 40 120 40 120 0 0 0"></polygon>
            <g id="Group-22">
                <g id="Group-4">
                    <g id="Fill-2-Clipped">
                        <mask id="mask-2" fill="white">
                            <use xlink:href="#path-1"></use>
                        </mask>
                        <g id="path-1"></g>
                        <path d="M4.15636719,27.5334296 C3.1015625,25.2753046 2.51238281,22.7560469 2.51238281,20.0991719 C2.51238281,10.3862422 10.38625,2.51241406 20.0991796,2.51241406 C25.5075,2.51241406 30.3454298,4.95382031 33.5715625,8.79448438 L35.4961719,7.1795625 C31.8092188,2.7901875 26.2801172,-7.8125e-06 20.0991796,-7.8125e-06 C8.99871094,-7.8125e-06 0,8.99870313 0,20.0991719 C0,23.1355781 0.673320312,26.0147577 1.87882813,28.5954609 L4.15636719,27.5334296 Z" id="Fill-2" fill="#000000" fill-rule="nonzero" mask="url(#mask-2)"></path>
                    </g>
                </g>
                <path d="M20.0991758,32.0330586 C13.5082774,32.0330586 8.1653086,26.6900899 8.1653086,20.0991914 C8.1653086,13.508293 13.5082774,8.16528515 20.0991758,8.16528515 C23.7690976,8.16528515 27.0515195,9.82239454 29.2406601,12.4285664 L31.1657774,10.8132148 C28.5157774,7.6583711 24.5417149,5.65290234 20.0991758,5.65290234 C12.1206992,5.65290234 5.65288673,12.1207149 5.65288673,20.0991914 C5.65288673,28.0776289 12.1206992,34.5454414 20.0991758,34.5454414 L20.0991758,32.0330586 Z" id="Fill-5" fill="#000000" fill-rule="nonzero"></path>
                <path d="M24.4293555,23.7326328 C23.3924024,24.967125 21.8375586,25.7520469 20.0991601,25.7520469 C16.977168,25.7520469 14.4462695,23.2211875 14.4462695,20.0991563 C14.4462695,16.977164 16.977168,14.4462656 20.0991601,14.4462656 C21.8375586,14.4462656 23.3924024,15.2312265 24.4293555,16.4657188 L26.5944336,14.649 C25.0390039,12.7972421 22.7067774,11.6198203 20.0991601,11.6198203 C15.4161524,11.6198203 11.6198242,15.4161484 11.6198242,20.0991563 C11.6198242,24.782164 15.4161524,28.5785313 20.0991601,28.5785313 C22.4888867,28.5785313 24.6468945,27.5891563 26.1881055,25.9986094 L24.4293555,23.7326328 Z" id="Fill-7" fill="#000000" fill-rule="nonzero"></path>
                <path d="M39.7137539,17.3476211 L42.2968789,17.3476211 L42.2968789,19.0923476 L42.3422305,19.0923476 C42.5837149,18.5485195 43.0028555,18.0691055 43.5997695,17.6534414 C44.196332,17.238207 44.9026992,17.0303164 45.7184414,17.0303164 C46.4283243,17.0303164 47.0361757,17.1549649 47.5424649,17.4043008 C48.0485195,17.6534414 48.4637539,17.9820743 48.7887149,18.3898868 C49.1134414,18.7978164 49.3514101,19.2662149 49.5025039,19.7947695 C49.6533242,20.3237149 49.7291445,20.867543 49.7291445,21.426293 L49.7291445,28.2241055 L47.0100039,28.2241055 L47.0100039,22.1967226 C47.0100039,21.879457 46.9873476,21.5473086 46.9420351,21.1996524 C46.8966836,20.8524258 46.7983633,20.5390274 46.647543,20.2593789 C46.496293,19.9800039 46.2884024,19.749457 46.0242617,19.5682851 C45.7598476,19.386957 45.4085586,19.296293 44.970668,19.296293 C44.5323868,19.296293 44.1549258,19.3834414 43.8377774,19.556957 C43.5204726,19.730707 43.2598476,19.9534024 43.0559805,20.2253945 C42.8520351,20.4972305 42.6969961,20.8110195 42.5913711,21.165668 C42.4856289,21.5208633 42.4328555,21.879457 42.4328555,22.2420743 L42.4328555,28.2241055 L39.7137539,28.2241055 L39.7137539,17.3476211 Z" id="Fill-9" fill="#000000" fill-rule="nonzero"></path>
                <path d="M50.8844531,19.5229414 L50.8844531,17.3476289 L52.7878125,17.3476289 L52.7878125,14.1979024 L55.4616016,14.1979024 L55.4616016,17.3476289 L58.1807031,17.3476289 L58.1807031,19.5229414 L55.4616016,19.5229414 L55.4616016,24.5759101 C55.4616016,25.059543 55.5483594,25.4596601 55.7222266,25.7769258 C55.8957031,26.0941132 56.2847656,26.2527461 56.8891406,26.2527461 C57.0704687,26.2527461 57.2666016,26.2339961 57.4782812,26.1961055 C57.6896875,26.1585664 57.8783985,26.1019257 58.0448829,26.0261055 L58.1353906,28.1561055 C57.8936328,28.2467695 57.6064454,28.3182539 57.2744141,28.371418 C56.941914,28.4241524 56.6247266,28.4507149 56.3226954,28.4507149 C55.5975781,28.4507149 55.0084375,28.3487618 54.5553125,28.1447774 C54.1020312,27.940793 53.7430469,27.6615351 53.4789062,27.3063399 C53.2144922,26.9516914 53.0332031,26.5437226 52.9351172,26.0827851 C52.8366406,25.6221993 52.7878125,25.1275118 52.7878125,24.5985664 L52.7878125,19.5229414 L50.8844531,19.5229414 Z" id="Fill-11" fill="#000000" fill-rule="nonzero"></path>
                <path d="M59.8125586,17.3476211 L62.4183399,17.3476211 L62.4183399,19.1603164 L62.4636914,19.1603164 C62.7656055,18.5258633 63.1888086,18.012543 63.7325976,17.619457 C64.2763868,17.2268789 64.9108399,17.0303164 65.635957,17.0303164 C65.7414257,17.0303164 65.8547461,17.0342226 65.975918,17.0416445 C66.0966211,17.0494961 66.2024024,17.0682461 66.2930664,17.0983243 L66.2930664,19.5909414 C66.1117383,19.5455899 65.9567383,19.5155118 65.8285743,19.5002774 C65.7000195,19.4853164 65.5753711,19.4776211 65.4546289,19.4776211 C64.8351368,19.4776211 64.336543,19.5909414 63.9592382,19.8174258 C63.5813476,20.0440664 63.2868555,20.3159024 63.0754882,20.633207 C62.8636914,20.9505118 62.7204101,21.2754726 62.6449805,21.6076211 C62.5691601,21.9400039 62.5316601,22.204418 62.5316601,22.4005899 L62.5316601,28.2241055 L59.8125586,28.2241055 L59.8125586,17.3476211 Z" id="Fill-13" fill="#000000" fill-rule="nonzero"></path>
                <path d="M67.5389844,28.2241015 L70.2580859,28.2241015 L70.2580859,17.3476171 L67.5389844,17.3476171 L67.5389844,28.2241015 Z M67.1537109,13.6541015 C67.1537109,13.216211 67.3158594,12.8348047 67.6408203,12.5098437 C67.9655469,12.1851172 68.3772656,12.0226953 68.8758984,12.0226953 C69.3743359,12.0226953 69.7935156,12.1776953 70.1334375,12.4871875 C70.4732812,12.796914 70.6432423,13.1860937 70.6432423,13.6541015 C70.6432423,14.1224609 70.4732812,14.5116797 70.1334375,14.8210156 C69.7935156,15.1308984 69.3743359,15.285625 68.8758984,15.285625 C68.3772656,15.285625 67.9655469,15.1234765 67.6408203,14.7983594 C67.3158594,14.47375 67.1537109,14.0923828 67.1537109,13.6541015 Z" id="Fill-15" fill="#000000" fill-rule="nonzero"></path>
                <path d="M73.7706836,19.5229414 L71.7086914,19.5229414 L71.7086914,17.3476289 L73.7706836,17.3476289 L73.7706836,16.5342305 C73.7706836,15.8849336 73.842168,15.2618086 73.9859961,14.6648555 C74.1293945,14.068293 74.3711524,13.5431367 74.7111132,13.0899726 C75.050918,12.6368476 75.500293,12.2781367 76.0593164,12.0137227 C76.6179492,11.749582 77.3204101,11.6171211 78.1666601,11.6171211 C78.4685742,11.6171211 78.7217774,11.6284492 78.9257617,11.6511055 C79.1295899,11.6737617 79.3370899,11.7155977 79.5488867,11.7757539 L79.3675586,14.087043 C79.2163476,14.0417305 79.0539257,14.0042305 78.8804492,13.9737226 C78.706543,13.9436445 78.5213086,13.9284101 78.3251757,13.9284101 C77.932207,13.9284101 77.6150195,14.0042305 77.3735742,14.1550508 C77.1316601,14.3061445 76.946582,14.502707 76.818418,14.7441914 C76.6898632,14.9859101 76.6031055,15.2504805 76.557793,15.5372774 C76.5124805,15.8243476 76.4897851,16.1037226 76.4897851,16.3755586 L76.4897851,17.3476289 L79.0049414,17.3476289 L79.0049414,19.5229414 L76.4897851,19.5229414 L76.4897851,28.2241133 L73.7706836,28.2241133 L73.7706836,19.5229414 Z" id="Fill-17" fill="#000000" fill-rule="nonzero"></path>
                <path d="M90.3803906,28.2240938 L87.7972656,28.2240938 L87.7972656,26.4793673 L87.751914,26.4793673 C87.5101563,27.0231954 87.0908984,27.5028829 86.494375,27.9181173 C85.8974219,28.3335079 85.1914453,28.5413985 84.3757031,28.5413985 C83.6654298,28.5413985 83.057539,28.41675 82.5516406,28.1674141 C82.0453515,27.9181173 81.63,27.5896406 81.3052734,27.1818281 C80.9803125,26.7738594 80.7423438,26.3058906 80.5915235,25.7769454 C80.4404296,25.2482344 80.365,24.7044454 80.365,24.1454219 L80.365,17.3476094 L83.0841406,17.3476094 L83.0841406,23.3749923 C83.0841406,23.6922577 83.1067969,24.0246796 83.1521094,24.3720625 C83.1974219,24.7197187 83.2955077,25.0330781 83.4466015,25.312336 C83.5974219,25.5921406 83.8053125,25.8221406 84.0697265,26.0034297 C84.3338671,26.1847577 84.6851563,26.2754219 85.1234766,26.2754219 C85.5461327,26.2754219 85.9200781,26.1886641 86.245039,26.0147579 C86.5697656,25.8412812 86.8341796,25.6183125 87.038164,25.3463204 C87.2421094,25.0744844 87.396875,24.761125 87.5026171,24.4060469 C87.6082421,24.0512422 87.661289,23.6922577 87.661289,23.3296406 L87.661289,17.3476094 L90.3803906,17.3476094 L90.3803906,28.2240938 Z" id="Fill-18" fill="#000000" fill-rule="nonzero"></path>
                <path d="M30.6401875,19.8061055 C31.2066719,19.3154805 31.8977656,19.0696601 32.7135079,19.0696601 C33.1515548,19.0696601 33.5327656,19.1415742 33.8579219,19.2849726 C34.1824922,19.4287617 34.4505391,19.6213007 34.6621797,19.8627461 C34.873586,20.1046211 35.0283125,20.3838789 35.1268281,20.7011836 C35.224875,21.0183711 35.2741329,21.3508711 35.2741329,21.6981367 L29.6999141,21.6981367 C29.7600704,20.9278242 30.0737422,20.2971601 30.6401875,19.8061055 Z M35.6819454,24.9158711 C35.3796016,25.3541524 34.9943281,25.6976289 34.5263594,25.9467695 C34.0578438,26.1961055 33.4839375,26.3207149 32.8041719,26.3207149 C32.4112031,26.3207149 32.0337423,26.2527461 31.6712422,26.1167695 C31.308625,25.980793 30.9836641,25.7959492 30.6968281,25.5616133 C30.4097579,25.3275899 30.179211,25.0481758 30.0057344,24.7232149 C29.8319844,24.3984882 29.7299923,24.0399336 29.6999141,23.6469649 L37.9705781,23.6469649 C37.9854219,23.5262226 37.9932344,23.4054805 37.9932344,23.2843476 L37.9932344,22.9218476 C37.9932344,21.9400118 37.8607735,21.0828243 37.5966329,20.3498945 C37.3322188,19.6173945 36.9656954,19.0055976 36.4976875,18.514543 C36.0292891,18.0238789 35.4740548,17.6534493 34.8321798,17.4042695 C34.1899141,17.1549726 33.4913594,17.0303242 32.7362031,17.0303242 C31.9204219,17.0303242 31.1613204,17.1702461 30.4590156,17.4496211 C29.7565547,17.7292695 29.1482735,18.1219649 28.634836,18.6278633 C28.121125,19.1341524 27.7171016,19.7459492 27.4226094,20.4632149 C27.127961,21.1809101 26.9807735,21.9779414 26.9807735,22.8538399 C26.9807735,23.7452851 27.127961,24.5418868 27.4226094,25.2443476 C27.7171016,25.9467695 28.1250313,26.5398164 28.6461641,27.0231758 C29.1672969,27.5068086 29.7827266,27.8806368 30.4928438,28.1447774 C31.2028829,28.408918 31.9807344,28.5413789 32.8268281,28.5413789 C34.6528829,28.5413789 36.0908516,27.959543 37.1418673,26.7968476 L35.6819454,24.9158711 Z" id="Fill-19" fill="#000000" fill-rule="nonzero"></path>
                <path d="M109.010562,19.8061055 C109.577008,19.3154805 110.268141,19.0696601 111.083883,19.0696601 C111.52193,19.0696601 111.90318,19.1415742 112.228336,19.2849726 C112.552906,19.4287617 112.820914,19.6213007 113.032594,19.8627461 C113.244,20.1046211 113.398726,20.3838789 113.497203,20.7011836 C113.59525,21.0183711 113.644508,21.3508711 113.644508,21.6981367 L108.070289,21.6981367 C108.130445,20.9278242 108.444117,20.2971601 109.010562,19.8061055 Z M114.05232,24.9158711 C113.750016,25.3541524 113.364742,25.6976289 112.896773,25.9467695 C112.428219,26.1961055 111.854351,26.3207149 111.174547,26.3207149 C110.781578,26.3207149 110.404156,26.2527461 110.041617,26.1167695 C109.679039,25.980793 109.354039,25.7959492 109.067242,25.5616133 C108.780172,25.3275899 108.549625,25.0481758 108.376109,24.7232149 C108.202359,24.3984882 108.100367,24.0399336 108.070289,23.6469649 L116.340992,23.6469649 C116.355797,23.5262226 116.363648,23.4054805 116.363648,23.2843476 L116.363648,22.9218476 C116.363648,21.9400118 116.231187,21.0828243 115.967008,20.3498945 C115.702633,19.6173945 115.33607,19.0055976 114.868101,18.514543 C114.399703,18.0238789 113.84443,17.6534493 113.202555,17.4042695 C112.560328,17.1549726 111.861773,17.0303242 111.106578,17.0303242 C110.290797,17.0303242 109.531734,17.1702461 108.82943,17.4496211 C108.12693,17.7292695 107.518687,18.1219649 107.00525,18.6278633 C106.4915,19.1341524 106.087476,19.7459492 105.792984,20.4632149 C105.498336,21.1809101 105.351187,21.9779414 105.351187,22.8538399 C105.351187,23.7452851 105.498336,24.5418868 105.792984,25.2443476 C106.087476,25.9467695 106.495445,26.5398164 107.016539,27.0231758 C107.537672,27.5068086 108.153141,27.8806368 108.863258,28.1447774 C109.573258,28.408918 110.351109,28.5413789 111.197242,28.5413789 C113.023297,28.5413789 114.461266,27.959543 115.512281,26.7968476 L114.05232,24.9158711 Z" id="Fill-20" fill="#000000" fill-rule="nonzero"></path>
                <path d="M100.869867,24.0052579 C100.718656,24.4193985 100.503305,24.7844766 100.224086,25.1006875 C99.9442813,25.4167422 99.6044766,25.6688906 99.2043594,25.857211 C98.8039688,26.0456485 98.3545937,26.1394375 97.8560781,26.1394375 C97.3724844,26.1394375 96.9383438,26.0417812 96.5532266,25.8458829 C96.167914,25.6501406 95.8429531,25.3902969 95.5788125,25.0666641 C95.3143985,24.7430313 95.110414,24.3777187 94.9670156,23.9712344 C94.8233438,23.5647891 94.7518594,23.1435 94.7518594,22.7065079 C94.7518594,22.2250625 94.8233438,21.7732656 94.9670156,21.351586 C95.110414,20.9298672 95.3143985,20.5648281 95.5788125,20.2561562 C95.8429531,19.9473671 96.167914,19.7027579 96.5532266,19.5221328 C96.9383438,19.341625 97.3802969,19.251 97.8787735,19.251 C98.377211,19.251 98.8226797,19.341625 99.2156485,19.5221328 C99.6083829,19.7027579 99.9442813,19.9512734 100.224086,20.2674844 C100.503305,20.5836954 100.718656,20.9525235 100.869867,21.3738125 C101.020688,21.7955312 101.096352,22.2399062 101.096352,22.7065079 C101.096352,23.1583047 101.020688,23.5913906 100.869867,24.0052579 Z M101.096352,17.3476406 L101.096352,18.9790078 L101.051039,18.9790078 C100.658031,18.3144766 100.129477,17.8234219 99.4649844,17.5062734 C98.8000235,17.1889688 98.0827577,17.030336 97.3123281,17.030336 C96.4965469,17.030336 95.7601015,17.1815469 95.1029921,17.4836173 C94.4458827,17.7859219 93.8868594,18.1937344 93.4261171,18.7071719 C92.9651796,19.2208827 92.6105313,19.8252577 92.3611952,20.5198672 C92.1118984,21.2149062 91.9874062,21.9552578 91.9874062,22.7405313 C91.9874062,23.5109609 92.1155702,24.2399844 92.3725625,24.9271719 C92.6292813,25.6147891 92.987875,26.2152577 93.4488125,26.728539 C93.9094765,27.2422891 94.4720546,27.6502188 95.1369765,27.9521329 C95.8015077,28.2541641 96.5418594,28.405414 97.3576406,28.405414 C98.112836,28.405414 98.7965469,28.264164 99.4083047,27.9819375 C100.020102,27.6997109 100.522094,27.2915078 100.915219,26.757289 L100.960492,26.757289 L100.960492,27.5532265 C100.960492,28.0991641 100.903852,28.5993985 100.790531,29.0542812 C100.677211,29.5089296 100.488109,29.9033827 100.224086,30.2368594 C99.9595548,30.5703359 99.6044766,30.8316641 99.1590079,31.0214687 C98.7133048,31.2108438 98.1656094,31.3058438 97.5163125,31.3058438 C96.8365078,31.3058438 96.164164,31.1733438 95.4995156,30.9092031 C94.8521327,30.6517422 94.2696327,30.2830703 93.7514688,29.8036954 L92.1458829,31.8722891 C92.4933046,32.159086 92.886,32.4160781 93.3242812,32.6427188 C93.7621719,32.8692422 94.2192422,33.0579531 94.6951796,33.2091641 C95.171,33.3600234 95.6542031,33.4733437 96.145414,33.5490079 C96.636039,33.6244375 97.1005313,33.6623281 97.5388515,33.6623281 C98.5960781,33.6623281 99.5102969,33.5111172 100.280727,33.2091641 C101.051039,32.9067423 101.689125,32.4801797 102.195453,31.9289296 C102.701313,31.3773281 103.075297,30.7052188 103.317016,29.912289 C103.5585,29.1191641 103.679633,28.2315077 103.679633,27.2496719 L103.679633,17.3476406 L101.096352,17.3476406 Z" id="Fill-21" fill="#000000" fill-rule="nonzero"></path>
            </g>
        </g>
    </g>
</svg>