<?xml version="1.0" encoding="UTF-8"?>
<svg width="180px" height="70px" viewBox="0 0 180 70" version="1.1" xmlns="http://www.w3.org/2000/svg" xmlns:xlink="http://www.w3.org/1999/xlink">
    <!-- Generator: Sketch 55.2 (78181) - https://sketchapp.com -->
    <title>coinbase</title>
    <desc>Created with Sketch.</desc>
    <g id="Zeppelin-Desktop" stroke="none" stroke-width="1" fill="none" fill-rule="evenodd">
        <rect id="Rectangle-Copy-16" fill="#F8F8FA" opacity="0" x="0" y="0" width="180" height="70"></rect>
        <path d="M39.5492833,44.9246575 C40.0154972,45.9626943 40.6170967,46.9002184 41.3351981,47.721956 C39.7518459,48.5889375 38.0924425,48.9756098 36.2835164,48.9756098 C30.9039475,48.9756098 27,45.3680158 27,39.6101839 C27,33.8114121 31.1031564,30.2038181 36.2835164,30.2038181 C38.1269597,30.2038181 39.5807564,30.6111703 41.0454913,31.4078716 C40.3624746,32.2613639 39.7990555,33.2296979 39.3709705,34.2957628 C38.4872487,33.9355965 37.5777808,33.7716794 36.6410708,33.7716794 C33.4537285,33.7716794 30.9833008,35.8396701 30.9833008,39.6101839 C30.9833008,43.1780452 33.3744267,45.4487409 36.8012222,45.4487409 C37.7830264,45.4487409 38.6894501,45.2679229 39.5492833,44.9246575 Z M50.3683231,30.2038181 C55.6667329,30.2038181 59.4916881,34.0153769 59.4916881,39.6101839 C59.4916881,45.1653107 55.6667329,48.9756098 50.3683231,48.9756098 C45.1101576,48.9756098 41.2855119,45.1653107 41.2855119,39.6101839 C41.2855119,34.0153769 45.1101576,30.2038181 50.3683231,30.2038181 Z M50.3683231,33.6499619 C47.4204339,33.6499619 45.2688127,35.96165 45.2688127,39.6101839 C45.2688127,43.2193 47.4204339,45.529466 50.3683231,45.529466 C53.3970104,45.529466 55.5084389,43.2193 55.5084389,39.6101839 C55.5084389,35.96165 53.3970104,33.6499619 50.3683231,33.6499619 Z M62.0022568,48.5703046 L62.0022568,30.6088609 L65.9452618,30.6088609 L65.9452618,48.5703046 L62.0022568,48.5703046 Z M61.4833128,25.0947265 C61.4833128,23.7166259 62.6398182,22.621903 63.953792,22.621903 C65.2689009,22.621903 66.4242196,23.7166259 66.4242196,25.0947265 C66.4242196,26.5141869 65.2689009,27.6501646 63.953792,27.6501646 C62.6398182,27.6501646 61.4833128,26.5141869 61.4833128,25.0947265 Z M69.3860912,31.7449436 C71.8565188,30.7719382 74.8852576,30.2038181 77.4737866,30.2038181 C81.9762379,30.2038181 84.8448253,31.9473337 84.8448253,37.015328 L84.8448253,48.5704096 L80.9408779,48.5704096 L80.9408779,37.380743 C80.9408779,34.7858871 79.3472067,33.852352 77.1552897,33.852352 C75.7605179,33.852352 74.3675518,34.0551096 73.330644,34.3795322 L73.330644,48.5704096 L69.3860912,48.5704096 L69.3860912,31.7449436 Z M88.1476376,21 L92.0906426,21 L92.0906426,31.0962034 C92.9271549,30.6500632 94.5610703,30.2039756 96.1141876,30.2039756 C101.214008,30.2039756 105.038653,33.5280869 105.038653,39.2859188 C105.038653,45.0831684 101.254303,48.9753998 94.7212216,48.9753998 C92.1714922,48.9753998 89.9405177,48.4485871 88.1476376,47.8000043 L88.1476376,21 Z M92.0906426,45.1654157 C92.8478531,45.407591 93.8444652,45.5293086 94.8393229,45.5293086 C98.4650693,45.5293086 101.055404,43.5025727 101.055404,39.3666439 C101.055404,35.8791928 98.6252207,33.8115171 95.6370872,33.8115171 C94.0836603,33.8115171 92.8880973,34.2179245 92.0906426,34.6640646 L92.0906426,45.1654157 Z M116.431792,36.528143 C116.431792,34.5818699 114.996725,33.6911642 113.045499,33.6911642 C111.013476,33.6911642 109.419804,34.2987546 107.945989,35.1500424 L107.945989,31.6625914 C109.499106,30.7718857 111.490886,30.2037132 113.683112,30.2037132 C117.546506,30.2037132 120.295444,31.8256162 120.295444,36.3254379 L120.295444,48.2049421 C118.622471,48.6510822 116.232893,48.9357721 114.241062,48.9357721 C109.659257,48.9357721 106.312073,47.5166266 106.312073,43.4614229 C106.312073,39.8128365 109.379509,38.0295357 114.479019,38.0295357 L116.431792,38.0295357 L116.431792,36.528143 Z M116.431792,40.7051167 L114.758768,40.7051167 C112.008591,40.7051167 110.216021,41.5150972 110.216021,43.3397053 C110.216021,45.2049385 111.890232,45.9345613 114.28012,45.9345613 C114.878675,45.9345613 115.715187,45.8538361 116.431792,45.7318037 L116.431792,40.7051167 Z M123.16398,43.7050679 C124.797895,44.9615034 126.749121,45.7320661 128.541691,45.7320661 C130.295566,45.7320661 131.450833,45.1241608 131.450833,43.7050679 C131.450833,42.2446676 130.415112,41.7178023 128.143893,41.110212 C124.479089,40.2589241 122.924475,38.7590535 122.924475,35.63707 C122.924475,31.9869615 125.634408,30.2039756 129.219549,30.2039756 C131.21138,30.2039756 132.805051,30.6501157 134.278815,31.5821287 L134.278815,35.271655 C132.725697,34.1371994 131.21138,33.4473618 129.339456,33.4473618 C127.626187,33.4473618 126.710373,34.2986496 126.710373,35.4744125 C126.710373,36.649808 127.466036,37.2589205 129.498111,37.8255185 C133.523152,38.7177987 135.275478,40.2589241 135.275478,43.5026252 C135.275478,47.2728766 132.447187,48.9754523 128.622541,48.9754523 C126.550222,48.9754523 124.479089,48.4088543 123.16398,47.5165741 L123.16398,43.7050679 Z M140.673622,40.5025691 L140.673622,40.5832942 C140.913075,43.785688 143.621511,45.5292561 146.370191,45.5292561 C148.800323,45.5292561 150.553887,44.9614509 152.306162,43.785688 L152.306162,47.314079 C150.712491,48.4485346 148.36197,48.9753998 146.091938,48.9753998 C140.59432,48.9753998 136.848976,45.4075386 136.848976,39.7320064 C136.848976,34.0154819 140.51347,30.2039231 145.375024,30.2039231 C150.513592,30.2039231 152.943775,33.5693417 152.943775,38.4743112 L152.943775,40.5025691 L140.673622,40.5025691 Z M149.238727,37.9077132 C149.159374,35.108945 147.805207,33.5693417 145.255426,33.5693417 C142.983898,33.5693417 141.311234,35.1911923 140.793219,37.9077132 L149.238727,37.9077132 Z" id="Clip-2" fill="#006CD0"></path>
    </g>
</svg>