<svg xmlns="http://www.w3.org/2000/svg" xmlns:xlink="http://www.w3.org/1999/xlink" viewBox="0 0 2451 543"><defs><style>.cls-1,.cls-2{fill:none;}.cls-2{clip-path:url(#clip-path);}.cls-3{clip-path:url(#clip-path-2);}.cls-4{fill:#0066cf;}</style><clipPath id="clip-path"><rect class="cls-1" width="2600" height="909"/></clipPath><clipPath id="clip-path-2" transform="translate(-75 -183)"><path class="cls-2" d="M323.23,643.82a213.54,213.54,0,0,0,34.61,53.29C327.15,713.63,295,721,259.93,721,155.67,721,80,652.27,80,542.57c0-110.48,79.53-179.21,179.93-179.21,35.73,0,63.91,7.76,92.29,22.94a216.6,216.6,0,0,0-32.45,55,140.68,140.68,0,0,0-52.91-10c-61.78,0-109.66,39.4-109.66,111.24,0,68,46.34,111.24,112.76,111.24a143.88,143.88,0,0,0,53.26-10ZM532.92,363.35c102.69,0,176.83,72.62,176.83,179.21C709.74,648.4,635.61,721,532.92,721c-101.91,0-176-72.6-176-178.43,0-106.59,74.13-179.21,176-179.21Zm0,65.66c-57.13,0-98.84,44-98.84,113.56,0,68.76,41.7,112.78,98.84,112.78,58.7,0,99.62-44,99.62-112.78,0-69.51-40.92-113.56-99.62-113.56ZM758.4,713.28V371.07h76.42V713.28ZM748.34,266c0-26.26,22.41-47.11,47.88-47.11s47.88,20.86,47.88,47.11c0,27-22.39,48.69-47.88,48.69S748.34,293.06,748.34,266Zm153.17,126.7c47.88-18.54,106.58-29.36,156.75-29.36,87.27,0,142.86,33.22,142.86,129.78V713.28h-75.67V500.09c0-49.44-30.89-67.22-73.37-67.22-27,0-54,3.86-74.13,10V713.28H901.51V392.72ZM1265.14,188h76.42V380.36c16.21-8.5,47.88-17,78-17,98.84,0,173,63.33,173,173,0,110.45-73.35,184.61-200,184.61a380.07,380.07,0,0,1-127.41-22.39V188Zm76.42,460.41c14.68,4.61,34,6.93,53.27,6.93,70.27,0,120.48-38.61,120.48-117.41,0-66.44-47.1-105.84-105-105.84-30.11,0-53.28,7.74-68.74,16.24V648.41Zm471.77-164.56c0-37.08-27.81-54.05-65.63-54.05-39.38,0-70.27,11.58-98.84,27.79V391.15c30.1-17,68.71-27.79,111.19-27.79,74.88,0,128.16,30.9,128.16,116.63V706.32c-32.43,8.5-78.74,13.92-117.34,13.92-88.8,0-153.68-27-153.68-104.3,0-69.51,59.45-103.49,158.29-103.49h37.85v-28.6Zm0,79.58h-32.43c-53.3,0-88,15.43-88,50.2,0,35.54,32.45,49.44,78.77,49.44a277.78,277.78,0,0,0,41.7-3.86V563.43Zm130.48,57.16c31.67,23.94,69.49,38.62,104.23,38.62,34,0,56.38-11.58,56.38-38.62,0-27.82-20.07-37.86-64.09-49.44-71-16.22-101.16-44.79-101.16-104.28,0-69.54,52.52-103.51,122-103.51,38.6,0,69.49,8.5,98.06,26.26v70.29c-30.1-21.61-59.45-34.76-95.73-34.76-33.21,0-51,16.22-51,38.62s14.65,34,54,44.79c78,17,112,46.36,112,108.16,0,71.83-54.82,104.27-128.94,104.27-40.16,0-80.31-10.8-105.8-27.79V620.58Zm339.37-61v1.54c4.64,61,57.13,94.23,110.41,94.23,47.1,0,81.09-10.82,115-33.22v67.22C2477.75,711,2432.2,721,2388.2,721c-106.55,0-179.14-68-179.14-176.11,0-108.91,71-181.53,165.25-181.53,99.59,0,146.69,64.12,146.69,157.57v38.64Zm166-49.44c-1.54-53.32-27.78-82.66-77.2-82.66-44,0-76.45,30.9-86.49,82.66Z"/></clipPath></defs><title>Asset 1</title><g id="Layer_2" data-name="Layer 2"><g id="Layer_1-2" data-name="Layer 1"><g class="cls-3"><rect class="cls-4" width="2451" height="543"/></g></g></g></svg>