<?xml version="1.0" encoding="UTF-8"?>
<svg width="180px" height="70px" viewBox="0 0 180 70" version="1.1" xmlns="http://www.w3.org/2000/svg" xmlns:xlink="http://www.w3.org/1999/xlink">
    <!-- Generator: Sketch 55.2 (78181) - https://sketchapp.com -->
    <title>cosmos</title>
    <desc>Created with Sketch.</desc>
    <g id="Zeppelin-Desktop" stroke="none" stroke-width="1" fill="none" fill-rule="evenodd">
        <rect id="Rectangle-Copy-18" fill="#F8F8FA" opacity="0" x="0" y="0" width="180" height="70"></rect>
        <g id="Group-32" transform="translate(18.000000, 23.000000)" fill="#000000" fill-rule="nonzero">
            <path d="M133.383714,8.70520275 C133.382637,8.13122172 133.656964,7.59080715 134.122942,7.24895115 C134.719157,6.81198457 135.452299,6.59765299 136.192782,6.64384203 C136.996365,6.6471682 137.79209,6.80057786 138.538153,7.09601148 C139.374208,7.43823918 140.162433,7.88519139 140.883523,8.42592162 L142.509826,6.14512574 C141.65313,5.46305724 140.691017,4.92194947 139.660436,4.54258401 C138.561766,4.16154499 137.403916,3.97472683 136.239824,3.9906713 C135.439643,3.98366414 134.643428,4.1026254 133.881013,4.34309749 C133.200614,4.5570057 132.570085,4.90286038 132.026221,5.36047875 C130.95522,6.26310645 130.348713,7.59265438 130.373037,8.98448388 C130.352032,9.68205108 130.482662,10.3759479 130.756091,11.0192464 C131.008437,11.5708144 131.388264,12.055977 131.864935,12.4356007 C132.409933,12.8579695 133.020404,13.190308 133.672685,13.4197342 C134.478721,13.7066177 135.302524,13.9420517 136.13902,14.1245866 C136.938731,14.3240731 137.597317,14.5102606 138.101335,14.6897983 C138.52193,14.8297688 138.92191,15.0243009 139.290822,15.2683093 C139.545322,15.4327061 139.749765,15.6625841 139.882205,15.9332643 C139.992934,16.1964741 140.047831,16.4793875 140.043491,16.7644582 C140.062069,17.4013237 139.75024,18.0033673 139.216899,18.3603504 C138.553866,18.782664 137.773161,18.9874204 136.985773,18.9455108 C135.982846,18.9624083 134.988033,18.7650856 134.06918,18.3669999 C133.146133,17.9420207 132.29043,17.3865148 131.528922,16.7179113 L129.701011,18.8723658 C130.677424,19.7675501 131.817991,20.4695185 133.061141,20.940376 C134.286958,21.3889937 135.584743,21.6142794 136.891689,21.6053311 C137.732863,21.6138683 138.570711,21.4995963 139.378185,21.266204 C140.086432,21.0621959 140.746616,20.7208847 141.32034,20.2621219 C141.85658,19.8237457 142.286111,19.2714574 142.577029,18.6462811 C142.890751,17.9617329 143.046838,17.2167644 143.034006,16.4652284 C143.048893,15.8217719 142.925188,15.1825501 142.671112,14.5900551 C142.427552,14.0571152 142.069844,13.5829194 141.622751,13.200299 C141.102821,12.7639548 140.512072,12.417732 139.875484,12.1762682 C139.090255,11.8761187 138.286717,11.6251564 137.469632,11.424869 C136.643039,11.2253825 135.964294,11.0391951 135.453554,10.8596572 C135.006745,10.7212479 134.581542,10.5220731 134.190145,10.2678472 C133.925786,10.1030385 133.708346,9.87415406 133.55844,9.6028921 C133.439097,9.32573137 133.381782,9.02629845 133.390434,8.72515141" id="Shape"></path>
            <path d="M120.279504,12.1950846 C120.28392,11.016768 120.055633,9.84894204 119.607414,8.75726694 C118.752194,6.61531088 117.054369,4.9089499 114.903232,4.02943639 C112.551528,3.08988834 109.923133,3.08988834 107.571429,4.02943639 C106.497651,4.48214284 105.523056,5.13708118 104.701878,5.95780609 C103.890184,6.76856613 103.250432,7.73166298 102.820205,8.79051469 C101.92386,10.9965885 101.92386,13.4600763 102.820205,15.6661501 C103.678257,17.8047424 105.375442,19.5080602 107.524387,20.3873311 C109.876904,21.3227257 112.503673,21.3227257 114.85619,20.3873311 C115.928974,19.9298505 116.903096,19.2729723 117.725741,18.4523119 C118.538143,17.6421203 119.177997,16.6788731 119.607414,15.6196033 C120.054746,14.5323154 120.283033,13.3690094 120.279504,12.1950846 Z M117.080596,12.2416316 C117.086603,13.0502556 116.940765,13.8529495 116.6505,14.6088716 C116.377195,15.3255264 115.969006,15.9843911 115.447573,16.5505404 C114.930704,17.1121712 114.30436,17.5645459 113.606222,17.8804505 C112.85959,18.1992533 112.053839,18.3600667 111.240691,18.3525686 C110.421619,18.3622273 109.610109,18.1966429 108.861719,17.8671514 C108.155532,17.5516334 107.520312,17.0994486 106.993487,16.5372413 C106.463281,15.9726727 106.050037,15.3107586 105.77712,14.5889229 C105.203712,13.0594698 105.203712,11.3772463 105.77712,9.84779326 C106.049556,9.13270656 106.457887,8.47586779 106.980046,7.912774 C107.495013,7.34904956 108.121824,6.89633778 108.821397,6.58286386 C110.335267,5.93565178 112.052031,5.93565178 113.565901,6.58286386 C114.271008,6.90022823 114.905882,7.3521666 115.434133,7.912774 C115.963293,8.48065241 116.376348,9.14452102 116.6505,9.86774191 C116.94406,10.6320083 117.089954,11.4440279 117.080596,12.2615802 L117.080596,12.2416316 Z" id="Shape"></path>
            <polyline id="Shape" points="89.2584887 8.81730424 89.2584887 21.0657766 92.269165 21.0657766 92.269165 3.98973042 89.03672 3.98973042 83.7680365 12.062285 78.5060732 3.98973042 75.2669081 3.98973042 75.2669081 21.0657766 78.2843046 21.0657766 78.2843046 8.87050064 83.6941137 16.8699101 83.7949176 16.8699101 89.2584887 8.81730424"></polyline>
            <path d="M37.2369587,20.793145 C38.3091269,20.3405 39.2833302,19.6880823 40.1065095,18.8714249 C40.917318,18.0625077 41.5570091,17.101764 41.9881823,16.0453659 C43.163464,13.1976444 42.7964369,9.95420219 41.0137446,7.43419769 L46.3899523,2.11455712 L44.25963,0 L38.8834223,5.31964057 C38.3864428,4.98728756 37.857445,4.70441166 37.3041613,4.47514763 C34.9548409,3.5353017 32.3283986,3.5353017 29.9790783,4.47514763 C28.9072983,4.92551902 27.9330809,5.57568876 27.1095274,6.39021823 C26.3022964,7.20200336 25.6631028,8.16199966 25.2278547,9.21627728 C24.3407665,11.4149217 24.3407665,13.8666701 25.2278547,16.0653145 C25.487557,16.6891086 25.8166364,17.2823558 26.2090127,17.834095 L20.8328049,23.1537356 L22.9698475,25.2616431 L28.3460552,19.9420026 C28.8397997,20.2776024 29.3666771,20.5627763 29.9185959,20.793145 C32.2696719,21.724017 34.892603,21.724017 37.243679,20.793145 L37.2369587,20.793145 Z M35.9869904,18.2596662 C34.4753881,18.9065479 32.7608097,18.9065479 31.2492073,18.2596662 C30.9841947,18.1431008 30.7281431,18.0075324 30.4830977,17.8540436 L38.7422969,9.68839538 C38.850308,9.90489357 38.9467644,10.1268504 39.0312681,10.3533505 C39.6044716,11.8759751 39.6044716,13.5519068 39.0312681,15.0745314 C38.7580679,15.787259 38.349774,16.4417808 37.8283416,17.0029011 C37.3061396,17.5399946 36.6798849,17.9674279 35.9869904,18.2596662 Z M36.7127784,7.46079589 L28.4535794,15.6197946 C28.3527755,15.4203081 28.2519716,15.2008729 28.1646082,14.9548395 C27.5912675,13.434528 27.5912675,11.7606196 28.1646082,10.2403081 C28.4370447,9.52522138 28.8453759,8.86838263 29.3675347,8.30528883 C29.8871941,7.7552201 30.5134075,7.31424651 31.2088858,7.00862644 C31.9553392,6.6892575 32.7612118,6.5284197 33.5744172,6.53650834 C34.3913718,6.52633547 35.2008017,6.6919634 35.9466688,7.02192554 C36.2127493,7.14909368 36.4688348,7.29579374 36.7127784,7.46079589 Z" id="Shape"></path>
            <path d="M15.9037017,18.0808203 L13.9481062,16.1192028 C13.2698728,16.7566646 12.5108586,17.3042893 11.6900989,17.7483428 C10.8437961,18.1656779 9.90693231,18.3711718 8.9616735,18.3468023 C7.39190236,18.3670451 5.88991768,17.714871 4.84215433,16.5580732 C4.32151711,15.988738 3.91754728,15.3247973 3.65266838,14.6031052 C3.0879586,13.0606926 3.0879586,11.3711406 3.65266838,9.82872788 C3.91786356,9.11712088 4.3220434,8.46413254 4.84215433,7.90700772 C5.35237671,7.34672735 5.97186135,6.89435349 6.6633447,6.57709757 C7.38531791,6.25453172 8.16954581,6.09116829 8.9616735,6.09832993 C9.88149875,6.08374526 10.7915542,6.28663828 11.616176,6.69013994 C12.4210914,7.10114608 13.1631932,7.62276323 13.8204212,8.23948526 L15.782737,5.99858666 C15.3599373,5.6097553 14.9108824,5.24984789 14.4386852,4.92135945 C13.9659454,4.58824285 13.4591443,4.30519164 12.9266267,4.07686651 C12.3490378,3.82681458 11.7449146,3.64168532 11.1255971,3.5249538 C10.410708,3.38613884 9.68345115,3.31930248 8.95495323,3.32546728 C7.71195505,3.3101964 6.47904641,3.54784632 5.33273329,4.0236701 C3.18993888,4.91800294 1.50485578,6.63333735 0.66215283,8.77809885 C-0.22071761,11.0096955 -0.22071761,13.4886332 0.66215283,15.7202298 C1.09071714,16.766131 1.71807804,17.7209727 2.51022423,18.5329898 C4.17788087,20.1987281 6.45784036,21.1227159 8.8272683,21.0930668 C9.57171561,21.1005073 10.314931,21.0314246 11.044954,20.8869307 C11.6837051,20.7576798 12.3042587,20.5522608 12.8930254,20.275172 C13.4492753,20.0068697 13.9781342,19.6862127 14.4722864,19.3176367 C14.9717434,18.9343079 15.4391921,18.5118042 15.8701005,18.0542221" id="Shape"></path>
            <path d="M55.4219813,8.70520841 C55.4209047,8.13122738 55.6952322,7.59081281 56.1612099,7.24895681 C56.7574237,6.81199023 57.4905676,6.59765866 58.2310499,6.64384769 C59.0346328,6.64717386 59.8303576,6.80058352 60.5764205,7.09601714 C61.4124755,7.43824484 62.2007006,7.88519706 62.9217911,8.42592729 L64.5480939,6.14513139 C63.6923311,5.46170646 62.729985,4.92046792 61.6987038,4.54258968 C60.6023673,4.1615128 59.4467142,3.97468216 58.284812,3.99067696 C57.4823961,3.98318973 56.683892,4.102154 55.9192805,4.34310315 C55.2388808,4.55701136 54.6083518,4.90286604 54.0644889,5.36048441 C52.9934881,6.26311211 52.3869803,7.59266005 52.411305,8.98448955 C52.3902998,9.68205674 52.5209295,10.3759536 52.7943598,11.0192521 C53.0470873,11.5724353 53.4295247,12.0579898 53.9099229,12.4356064 C54.4524803,12.8579377 55.0607367,13.1903062 55.7109524,13.4197399 C56.5169891,13.7066233 57.3407919,13.9420574 58.1772878,14.1245922 C58.9837189,14.3240787 59.6355841,14.5102662 60.1396036,14.6898041 C60.5607844,14.8283592 60.9609511,15.0229817 61.3290895,15.268315 C61.5835896,15.4327117 61.7880332,15.6625898 61.9204724,15.9332701 C62.0312019,16.1964798 62.0860989,16.4793932 62.0817586,16.7644639 C62.1003364,17.4013294 61.7885081,18.003373 61.2551666,18.3603561 C60.5921334,18.7826697 59.8114293,18.987426 59.0240405,18.9455165 C58.0232184,18.9631344 57.0304412,18.7657607 56.1141681,18.3670056 C55.1881019,17.9437592 54.3299374,17.3881246 53.5671896,16.7179171 L51.7459993,18.8723714 C52.7213946,19.7688736 53.862234,20.4710095 55.1061291,20.9403817 C56.3295983,21.3890618 57.6251918,21.6143626 58.9299568,21.6053368 C59.7733064,21.6133698 60.6132966,21.4991144 61.4231732,21.2662098 C62.1293877,21.0622161 62.7873745,20.7208598 63.358608,20.2621275 C63.8954792,19.8227354 64.3270082,19.2708301 64.6220167,18.6462867 C64.9302782,17.9602127 65.0839205,17.2159675 65.0722742,16.4652341 C65.0856834,15.8225466 64.9644114,15.1840774 64.7161004,14.5900608 C64.4700301,14.0568134 64.1100728,13.5826765 63.6610196,13.2003047 C63.1439541,12.7634476 62.555318,12.4171304 61.9204724,12.1762739 C61.1395427,11.8805302 60.3404738,11.6340038 59.52806,11.4381738 C58.701468,11.2386872 58.0227218,11.0524998 57.5119821,10.8729619 C57.0651735,10.7345527 56.6399707,10.5353779 56.2485732,10.2811519 C55.9842144,10.1163433 55.7667752,9.88745883 55.6168688,9.61619686 C55.4975252,9.33903614 55.4402113,9.03960322 55.4488624,8.73845617" id="Shape"></path>
        </g>
    </g>
</svg>