<?xml version="1.0" encoding="UTF-8"?>
<svg width="180px" height="70px" viewBox="0 0 180 70" version="1.1" xmlns="http://www.w3.org/2000/svg" xmlns:xlink="http://www.w3.org/1999/xlink">
    <!-- Generator: Sketch 55.2 (78181) - https://sketchapp.com -->
    <title>counterfactual</title>
    <desc>Created with Sketch.</desc>
    <g id="Zeppelin-Desktop" stroke="none" stroke-width="1" fill="none" fill-rule="evenodd">
        <rect id="Rectangle-Copy-30" fill="#F8F8FA" opacity="0" x="0" y="0" width="180" height="70"></rect>
        <g id="counterfactual-copy" transform="translate(60.000000, 5.000000)">
            <rect id="Rectangle" fill="#0B0B0B" fill-rule="nonzero" x="0" y="0" width="60" height="60" rx="2.66666667"></rect>
            <path d="M32.6674667,22.1070133 L32.6674667,38.0544 C32.6674667,38.0810667 32.6408,38.1077333 32.6141333,38.1077333 L17.3866667,38.1077333 C17.36,38.1077333 17.3333333,38.0810667 17.3333333,38.0544 L17.3333333,22.1070133 C17.3333333,22.0803467 17.36,22.05368 17.3866667,22.05368 L32.6141333,22.05368 C32.6674667,22.05368 32.6674667,22.05368 32.6674667,22.1070133 Z" id="Path" stroke="#FFFFFF" stroke-width="3.46666667" stroke-linecap="round"></path>
            <path d="M41.1477333,29.4138667 C41.4410667,29.7872 41.4410667,30.3205333 41.1477333,30.7208 L36.1074667,38.3477333 C36.0274667,38.4810667 36.0541333,38.6144 36.0808,38.6677333 C36.1341333,38.8010667 36.2408,38.8810667 36.3741333,38.9344 L38.9077333,39.7877333 C39.1744,39.8944 39.4677333,39.7877333 39.6277333,39.5744 L45.708,30.2138667 C45.7850667,30.1114667 45.788,29.9842667 45.7168,29.8797333 C45.7112,29.8712 45.7045333,29.8637333 45.6973333,29.8565333 L45.6973333,29.8565333 C45.6866667,29.8458667 45.6773333,29.8344 45.6690667,29.8218667 L39.6277333,20.50688 C39.4944,20.3202133 39.1744,20.2135467 38.9077333,20.2935467 L36.4274667,21.1735733 C36.2674667,21.2269067 36.1341333,21.3602667 36.1074667,21.4936 C36.1069333,21.4966667 36.1061333,21.4997067 36.1053333,21.50272 C36.0624,21.6826667 36.2117333,21.8384 36.3128,21.9933867 L41.1477333,29.4138667 Z" id="Path" fill="#FFFFFF" fill-rule="nonzero"></path>
        </g>
    </g>
</svg>