<?xml version="1.0" encoding="UTF-8"?>
<svg width="180px" height="70px" viewBox="0 0 180 70" version="1.1" xmlns="http://www.w3.org/2000/svg" xmlns:xlink="http://www.w3.org/1999/xlink">
    <!-- Generator: Sketch 55.2 (78181) - https://sketchapp.com -->
    <title>decentraland</title>
    <desc>Created with Sketch.</desc>
    <defs>
        <linearGradient x1="85.35535%" y1="14.7264687%" x2="14.644675%" y2="85.2735563%" id="linearGradient-1">
            <stop stop-color="#FF2D55" offset="0%"></stop>
            <stop stop-color="#FFBC5B" offset="100%"></stop>
        </linearGradient>
        <linearGradient x1="49.9664%" y1="6.66666667e-05%" x2="49.9664%" y2="100.000067%" id="linearGradient-2">
            <stop stop-color="#A524B3" offset="0%"></stop>
            <stop stop-color="#FF2D55" offset="100%"></stop>
        </linearGradient>
        <linearGradient x1="49.9664%" y1="6.66666667e-05%" x2="49.9664%" y2="100.000067%" id="linearGradient-3">
            <stop stop-color="#A524B3" offset="0%"></stop>
            <stop stop-color="#FF2D55" offset="100%"></stop>
        </linearGradient>
    </defs>
    <g id="Zeppelin-Desktop" stroke="none" stroke-width="1" fill="none" fill-rule="evenodd">
        <rect id="Rectangle-Copy-23" fill="#F8F8FA" opacity="0" x="0" y="0" width="180" height="70"></rect>
        <g id="decentraland-copy" transform="translate(0.000000, 20.000000)" fill-rule="nonzero">
            <g id="144">
                <ellipse id="world" fill="url(#linearGradient-1)" cx="15.0173812" cy="15" rx="15.0173812" ry="15"></ellipse>
                <g id="big-pyramid" transform="translate(1.201390, 9.750000)">
                    <polygon id="shadow" fill="url(#linearGradient-2)" points="9.4384241 0 9.4384241 11.25 18.8242874 11.25"></polygon>
                    <polygon id="light" fill="#FFFFFF" points="0.0525608343 11.25 9.4384241 11.25 9.4384241 0"></polygon>
                </g>
                <path d="M6.00695249,27 C8.51485516,28.8825 11.6384705,30 15.0173812,30 C18.396292,30 21.5199073,28.8825 24.02781,27 L6.00695249,27 Z" id="end" fill="#FF2D55"></path>
                <path d="M3.00347625,24 C3.85946698,25.1325 4.87314021,26.145 6.00695249,27 L24.02781,27 C25.1616222,26.145 26.1752955,25.1325 27.0312862,24 L3.00347625,24 Z" id="horizon" fill="#FC9965"></path>
                <path d="M20.1458169,21 L1.25395133,21 C1.71949015,22.0725 2.31267671,23.0775 3.00347625,24 L20.1533256,24 L20.1533256,21 L20.1458169,21 Z" id="ground" fill="#FFBC5B"></path>
                <g id="small-pyramid" transform="translate(13.215295, 15.750000)">
                    <polygon id="shadow" fill="url(#linearGradient-3)" points="6.93052144 0 6.93052144 8.25 13.8159907 8.25"></polygon>
                    <polygon id="light" fill="#FFFFFF" points="0.0525608343 8.25 6.93052144 8.25 6.93052144 0"></polygon>
                </g>
                <ellipse id="big-moon" fill="#FFC95B" cx="20.1458169" cy="9.75" rx="3.75434531" ry="3.75"></ellipse>
                <ellipse id="small-moon" fill="#FFC95B" cx="10.6398146" cy="5.625" rx="1.87717265" ry="1.875"></ellipse>
            </g>
            <path d="M40.4634994,7.00920162 L46.5491326,7.00920162 C51.460945,7.00920162 54.3670056,9.9666885 54.3670056,15.1451234 C54.3670056,20.3235583 51.4723413,23.3603648 46.5491326,23.3603648 L40.4634994,23.3603648 L40.4634994,7.00920162 Z M43.4037492,9.47943971 L43.4037492,20.8901267 L46.2414318,20.8901267 C49.5463637,20.8901267 51.3697745,18.8844747 51.3697745,15.1564548 C51.3697745,11.4964231 49.523571,9.47943971 46.2414318,9.47943971 L43.4037492,9.47943971 Z M61.7860078,13.003495 C60.1221456,13.003495 58.914136,14.2046199 58.7887765,15.9723132 L64.6920686,15.9723132 C64.635087,14.1819572 63.4726627,13.003495 61.7860078,13.003495 Z M64.7034649,19.6776704 L67.3702029,19.6776704 C67.0055208,21.9666067 64.7946355,23.5416667 61.8885747,23.5416667 C58.2075644,23.5416667 55.928301,21.116754 55.928301,17.2187636 C55.928301,13.3207733 58.2189608,10.8052097 61.7860078,10.8052097 C65.2732807,10.8052097 67.484166,13.1734655 67.484166,16.9241481 L67.484166,17.8533202 L58.7659839,17.8533202 L58.7659839,18.0232907 C58.7659839,20.0176114 60.0423714,21.3433815 61.9455562,21.3433815 C63.3131143,21.3433815 64.3729716,20.6974934 64.7034649,19.6776704 Z M80.293626,15.3604194 L77.6154915,15.3604194 C77.4103578,14.0573121 76.4302747,13.1054773 74.8347904,13.1054773 C72.9657945,13.1054773 71.7463886,14.669206 71.7463886,17.1621068 C71.7463886,19.7343272 72.9771908,21.2413992 74.8461867,21.2413992 C76.3618968,21.2413992 77.3647726,20.4595347 77.6268878,19.0544452 L80.3050223,19.0544452 C80.0656997,21.7626421 77.9345885,23.5416667 74.8233941,23.5416667 C71.2107617,23.5416667 68.8631204,21.116754 68.8631204,17.1621068 C68.8631204,13.2867792 71.1993654,10.8052097 74.8006014,10.8052097 C78.059948,10.8052097 80.0998886,12.8108617 80.293626,15.3604194 Z M87.3935312,13.003495 C85.7296689,13.003495 84.5216595,14.2046199 84.3962999,15.9723132 L90.299592,15.9723132 C90.2426104,14.1819572 89.080186,13.003495 87.3935312,13.003495 Z M90.3109883,19.6776704 L92.9777264,19.6776704 C92.6130441,21.9666067 90.4021588,23.5416667 87.496098,23.5416667 C83.8150878,23.5416667 81.5358245,21.116754 81.5358245,17.2187636 C81.5358245,13.3207733 83.8264841,10.8052097 87.3935312,10.8052097 C90.880804,10.8052097 93.0916896,13.1734655 93.0916896,16.9241481 L93.0916896,17.8533202 L84.3735072,17.8533202 L84.3735072,18.0232907 C84.3735072,20.0176114 85.6498947,21.3433815 87.5530796,21.3433815 C88.9206376,21.3433815 89.9804951,20.6974934 90.3109883,19.6776704 Z M94.9948744,23.3603648 L94.9948744,10.9751802 L97.718594,10.9751802 L97.718594,13.12814 L97.7755758,13.12814 C98.5163362,11.6210681 99.7699311,10.8278724 101.684512,10.8278724 C104.442421,10.8278724 106.015112,12.5615716 106.015112,15.4284076 L106.015112,23.3603648 L103.17743,23.3603648 L103.17743,15.9836446 C103.17743,14.2159513 102.334102,13.218791 100.624655,13.218791 C98.8810183,13.218791 97.8325573,14.4425786 97.8325573,16.2555974 L97.8325573,23.3603648 L94.9948744,23.3603648 Z M109.171892,8.21032656 L112.009575,8.21032656 L112.009575,10.9751802 L114.368613,10.9751802 L114.368613,13.1621341 L112.009575,13.1621341 L112.009575,19.6890017 C112.009575,20.7088248 112.48822,21.1960735 113.513889,21.1960735 C113.7874,21.1960735 114.174875,21.1620796 114.357216,21.1394169 L114.357216,23.3037079 C114.049516,23.3716962 113.468304,23.4170217 112.864299,23.4170217 C110.220353,23.4170217 109.171892,22.4651867 109.171892,20.0742682 L109.171892,13.1621341 L107.473841,13.1621341 L107.473841,10.9751802 L109.171892,10.9751802 L109.171892,8.21032656 Z M116.374364,23.3603648 L116.374364,10.9751802 L119.098084,10.9751802 L119.098084,13.12814 L119.155066,13.12814 C119.553937,11.677725 120.670776,10.8392038 122.140901,10.8392038 C122.516979,10.8392038 122.836076,10.8845293 123.052606,10.9525175 L123.052606,13.5134065 C122.813283,13.4227556 122.368827,13.3547674 121.878785,13.3547674 C120.214923,13.3547674 119.212047,14.4312473 119.212047,16.1762779 L119.212047,23.3603648 L116.374364,23.3603648 Z M128.807746,21.33205 C130.52859,21.33205 131.839166,20.2669015 131.839166,18.7598296 L131.839166,17.8193261 L128.990087,18.000628 C127.440188,18.1026103 126.619653,18.6918414 126.619653,19.7003331 C126.619653,20.6974934 127.485773,21.33205 128.807746,21.33205 Z M127.975815,23.4963413 C125.525607,23.4963413 123.770574,22.0119321 123.770574,19.8136468 C123.770574,17.6040301 125.468625,16.3462484 128.602612,16.1536151 L131.839166,15.9609819 L131.839166,15.0544725 C131.839166,13.7400339 130.950253,13.0261577 129.423147,13.0261577 C128.135363,13.0261577 127.212261,13.6947084 127.018524,14.6918687 L124.397371,14.6918687 C124.465749,12.4255952 126.585464,10.8052097 129.514317,10.8052097 C132.625512,10.8052097 134.64266,12.4142639 134.64266,14.8731706 L134.64266,23.3603648 L131.91894,23.3603648 L131.91894,21.3660442 L131.850562,21.3660442 C131.166783,22.6918142 129.628281,23.4963413 127.975815,23.4963413 Z M137.115661,23.3603648 L137.115661,6.25 L139.953343,6.25 L139.953343,23.3603648 L137.115661,23.3603648 Z M146.973474,21.33205 C148.694318,21.33205 150.004895,20.2669015 150.004895,18.7598296 L150.004895,17.8193261 L147.155815,18.000628 C145.605916,18.1026103 144.785382,18.6918414 144.785382,19.7003331 C144.785382,20.6974934 145.651502,21.33205 146.973474,21.33205 Z M146.141543,23.4963413 C143.691335,23.4963413 141.936303,22.0119321 141.936303,19.8136468 C141.936303,17.6040301 143.634354,16.3462484 146.768341,16.1536151 L150.004895,15.9609819 L150.004895,15.0544725 C150.004895,13.7400339 149.115982,13.0261577 147.588875,13.0261577 C146.301092,13.0261577 145.37799,13.6947084 145.184253,14.6918687 L142.5631,14.6918687 C142.631478,12.4255952 144.751193,10.8052097 147.680046,10.8052097 C150.79124,10.8052097 152.808389,12.4142639 152.808389,14.8731706 L152.808389,23.3603648 L150.084669,23.3603648 L150.084669,21.3660442 L150.016291,21.3660442 C149.332512,22.6918142 147.794009,23.4963413 146.141543,23.4963413 Z M155.190219,23.3603648 L155.190219,10.9751802 L157.913938,10.9751802 L157.913938,13.12814 L157.97092,13.12814 C158.711681,11.6210681 159.965275,10.8278724 161.879857,10.8278724 C164.637765,10.8278724 166.210457,12.5615716 166.210457,15.4284076 L166.210457,23.3603648 L163.372774,23.3603648 L163.372774,15.9836446 C163.372774,14.2159513 162.529447,13.218791 160.819999,13.218791 C159.076363,13.218791 158.027902,14.4425786 158.027902,16.2555974 L158.027902,23.3603648 L155.190219,23.3603648 Z M173.230588,23.4963412 C170.119393,23.4963412 168.045264,21.0147717 168.045264,17.1621068 C168.045264,13.3207733 170.13079,10.8392038 173.219192,10.8392038 C175.01981,10.8392038 176.421557,11.6890564 177.093939,13.0601518 L177.162317,13.0601518 L177.162317,6.25 L180,6.25 L180,23.3603648 L177.219299,23.3603648 L177.219299,21.2527304 L177.162317,21.2527304 C176.489935,22.6351573 175.053999,23.4963412 173.230588,23.4963412 Z M174.062519,13.1847969 C172.182127,13.1847969 170.951325,14.7485256 170.951325,17.1734382 C170.951325,19.6096822 172.182127,21.1507481 174.062519,21.1507481 C175.942911,21.1507481 177.173713,19.5756881 177.173713,17.1734382 C177.173713,14.7825197 175.931515,13.1847969 174.062519,13.1847969 Z" id="Decentraland" fill="#16141A"></path>
        </g>
    </g>
</svg>