<?xml version="1.0" encoding="UTF-8"?>
<svg width="180px" height="70px" viewBox="0 0 180 70" version="1.1" xmlns="http://www.w3.org/2000/svg" xmlns:xlink="http://www.w3.org/1999/xlink">
    <!-- Generator: Sketch 55.2 (78181) - https://sketchapp.com -->
    <title>dfinity</title>
    <desc>Created with Sketch.</desc>
    <defs>
        <linearGradient x1="26.03118%" y1="22.0169152%" x2="93.1757444%" y2="79.2606352%" id="linearGradient-1">
            <stop stop-color="#F15A24" offset="21%"></stop>
            <stop stop-color="#FBB03B" offset="68.41%"></stop>
        </linearGradient>
        <linearGradient x1="73.9141365%" y1="77.9532025%" x2="6.76879582%" y2="20.7089365%" id="linearGradient-2">
            <stop stop-color="#ED1E79" offset="21%"></stop>
            <stop stop-color="#522785" offset="89.29%"></stop>
        </linearGradient>
    </defs>
    <g id="Zeppelin-Desktop" stroke="none" stroke-width="1" fill="none" fill-rule="evenodd">
        <rect id="Rectangle-Copy-19" fill="#F8F8FA" opacity="0" x="0" y="0" width="180" height="70"></rect>
        <g id="Copy-of-Dfinity" transform="translate(43.000000, 13.000000)" fill-rule="nonzero">
            <rect id="Rectangle" fill-opacity="0" fill="#000000" x="0" y="0" width="94.4578313" height="45.1219512"></rect>
            <rect id="Rectangle" fill-opacity="0" fill="#000000" x="0" y="0" width="94.4578313" height="44.842017"></rect>
            <rect id="Rectangle" fill-opacity="0" fill="#000000" x="0" y="35.5028418" width="94.4578313" height="9.33911585"></rect>
            <path d="M3.07095988,35.5292619 L0.670963494,35.5292619 C0.258064108,35.5292619 0,35.7900786 0,36.2074567 L0,44.1637035 C0,44.5810815 0.258064108,44.8419576 0.670963494,44.8419576 L3.09676458,44.8419576 C5.88385506,44.8419576 7.81933735,42.9376926 7.81933735,40.198612 C7.79353855,37.4595908 5.85805036,35.5292619 3.07095988,35.5292619 Z M6.01289036,40.1725481 C6.01289036,41.9985623 4.79998687,43.2767603 3.04515518,43.2767603 L1.75483169,43.2767603 L1.75483169,37.0422128 L3.04515518,37.0422128 C4.79998687,37.068336 6.01289036,38.346534 6.01289036,40.1725481 Z" id="Shape" fill="#000000"></path>
            <path d="M21.2645241,35.528965 L16.5677855,35.528965 C16.1548867,35.528965 15.8967807,35.7898411 15.8967807,36.2072192 L15.8967807,44.1634066 C15.8967807,44.5807847 16.1548867,44.8416608 16.5677855,44.8416608 L16.9806843,44.8416608 C17.3935831,44.8416608 17.6516301,44.5807847 17.6516301,44.1634066 L17.6516301,41.0330712 L20.7226313,41.0330712 C21.1355301,41.0330712 21.3935771,40.7461313 21.3935771,40.3548764 L21.3935771,40.1722513 C21.3935771,39.7548732 21.1355301,39.4939971 20.7226313,39.4939971 L17.6516301,39.4939971 L17.6516301,37.0419159 L21.2645241,37.0419159 C21.6774229,37.0419159 21.9355289,36.7810992 21.9355289,36.3637211 L21.9355289,36.181096 C21.9355289,35.7898411 21.6774229,35.528965 21.2645241,35.528965 Z" id="Path" fill="#000000"></path>
            <path d="M32.9547434,35.528965 L32.5418446,35.528965 C32.1289458,35.528965 31.8708988,35.7898411 31.8708988,36.2072192 L31.8708988,44.1634066 C31.8708988,44.5807847 32.1289458,44.8416608 32.5418446,44.8416608 L32.9547434,44.8416608 C33.3676422,44.8416608 33.6256892,44.5807847 33.6256892,44.1634066 L33.6256892,36.2072192 C33.6256892,35.7898411 33.3676422,35.528965 32.9547434,35.528965 Z" id="Path" fill="#000000"></path>
            <path d="M50.2192735,35.528965 L49.8063747,35.528965 C49.3934759,35.528965 49.1354289,35.7898411 49.1354289,36.2072192 L49.1354289,41.5026364 L45.0321807,35.894156 C44.8515301,35.6332798 44.6192819,35.528965 44.3096373,35.528965 L44.1289867,35.528965 C43.716088,35.528965 43.4579819,35.7898411 43.4579819,36.2072192 L43.4579819,44.1634066 C43.4579819,44.5807847 43.716088,44.8416608 44.1289867,44.8416608 L44.5418855,44.8416608 C44.9547843,44.8416608 45.2128313,44.5807847 45.2128313,44.1634066 L45.2128313,38.8418662 L49.3160795,44.4764698 C49.4967301,44.7372866 49.7289783,44.8416608 50.0386229,44.8416608 L50.2192735,44.8416608 C50.6321723,44.8416608 50.8902783,44.5807847 50.8902783,44.1634066 L50.8902783,36.2072192 C50.8902783,35.7898411 50.6321723,35.528965 50.2192735,35.528965 Z" id="Path" fill="#000000"></path>
            <path d="M61.8061205,35.528965 L61.3934578,35.528965 C60.9807952,35.528965 60.7222169,35.7898411 60.7222169,36.2072192 L60.7222169,44.1634066 C60.7222169,44.5807847 60.9807952,44.8416608 61.3934578,44.8416608 L61.8061205,44.8416608 C62.2193735,44.8416608 62.4773614,44.5807847 62.4773614,44.1634066 L62.4773614,36.2072192 C62.4773614,35.7898411 62.1933976,35.528965 61.8061205,35.528965 Z" id="Path" fill="#000000"></path>
            <path d="M78.5033133,35.528965 L72.309241,35.528965 C71.9225542,35.528965 71.6385904,35.7898411 71.6385904,36.2072192 L71.6385904,36.389785 C71.6385904,36.7810992 71.8965783,37.0680392 72.309241,37.0680392 L74.529,37.0680392 L74.529,44.1634066 C74.529,44.5807847 74.786988,44.8416608 75.1996506,44.8416608 L75.6129036,44.8416608 C76.0255663,44.8416608 76.2835542,44.5807847 76.2835542,44.1634066 L76.2835542,37.0680392 L78.5033133,37.0680392 C78.9159759,37.0680392 79.1739639,36.807163 79.1739639,36.389785 L79.1739639,36.2072192 C79.1739639,35.7898411 78.9159759,35.528965 78.5033133,35.528965 Z" id="Path" fill="#000000"></path>
            <path d="M94.3999759,35.815905 C94.2966627,35.6332798 94.116012,35.528965 93.8580241,35.528965 L93.3160723,35.528965 C92.9801566,35.528965 92.7481446,35.6594031 92.5934699,35.9202198 L90.4256627,39.3896823 L88.2838313,35.9202198 C88.1285663,35.6332798 87.8965542,35.5028418 87.5612289,35.5028418 L87.0192771,35.5028418 C86.7612892,35.5028418 86.5546627,35.607216 86.4773253,35.7897818 C86.4253735,35.894156 86.374012,36.102845 86.5546627,36.4158488 L89.5737711,41.0070074 L89.5737711,44.1373427 C89.5737711,44.5547208 89.8323494,44.8155375 90.245012,44.8155375 L90.6576747,44.8155375 C91.0709277,44.8155375 91.3289157,44.5547208 91.3289157,44.1373427 L91.3289157,41.0070074 L94.3226386,36.4158488 C94.5286747,36.1289089 94.4513373,35.9202198 94.3999759,35.815905 Z" id="Path" fill="#000000"></path>
            <rect id="Rectangle" fill-opacity="0" fill="#000000" x="15.4580831" y="0" width="60.9807952" height="30.077224"></rect>
            <rect id="Rectangle" fill-opacity="0" fill="#000000" x="41.9355578" y="0" width="34.5031434" height="30.050982"></rect>
            <rect id="Rectangle" fill-opacity="0" fill="#000000" x="41.9355578" y="0" width="34.5031434" height="30.050982"></rect>
            <path d="M61.6260602,0 C58.2193205,0 54.5032313,1.82602006 50.5806337,5.42587901 C48.7225892,7.12149069 47.0967928,8.94750481 45.909694,10.408328 C45.909694,10.408328 47.8193361,12.5734098 49.909694,14.8951123 C51.0451301,13.4864169 52.6709855,11.5821518 54.5548289,9.86051187 C58.0386699,6.65192555 60.3095542,5.99979461 61.6260602,5.99979461 C66.529012,5.99979461 70.5033253,10.0430777 70.5033253,15.0516142 C70.5033253,20.0079637 66.529012,24.0512468 61.6260602,24.1034339 C61.3934578,24.1034339 61.109494,24.07737 60.7741687,23.9991191 C62.1933976,24.65125 63.7419157,25.1208151 65.1871205,25.1208151 C74.1676988,25.1208151 75.922253,19.0166463 76.0255663,18.5732044 C76.2835542,17.4515083 76.4388193,16.2776252 76.4388193,15.0776781 C76.4128434,6.75624037 69.7807229,0 61.6260602,0 Z" id="Path" fill="url(#linearGradient-1)"></path>
            <path d="M65.1611446,24.9120074 C60.5675422,24.7815693 55.7935843,20.999103 54.8129349,20.0599727 C52.2838855,17.6340148 49.909747,14.8688703 49.909747,14.8688703 C47.8193952,12.5472272 45.909753,10.382086 45.909753,10.382086 C45.2387482,11.1907782 41.9355578,15.0253723 41.9355578,15.0253723 C41.9355578,15.0253723 44.1549036,17.4253257 44.3355542,17.6340148 C48.6709916,22.9555552 55.2000349,30.0509227 61.6514458,30.0509227 C68.6194819,30.0247994 74.4776386,25.0945732 76.0255663,18.4948347 C75.8968675,18.9643999 73.5743855,25.1467603 65.1611446,24.9120074 Z" id="Path" fill="#29ABE2"></path>
            <rect id="Rectangle" fill-opacity="0" fill="#000000" x="15.4580831" y="0" width="34.5030843" height="30.077224"></rect>
            <rect id="Rectangle" fill-opacity="0" fill="#000000" x="15.4580831" y="0" width="34.5031434" height="30.077224"></rect>
            <path d="M30.2709602,30.0771646 C33.6774048,30.0771646 37.393494,28.2511505 41.3160916,24.6513094 C43.1741361,22.9556739 44.7999325,21.1296598 45.9870313,19.6688366 C45.9870313,19.6688366 44.0773301,17.5037548 41.9870373,15.1820523 C40.8515361,16.5907478 39.2257398,18.4950128 37.3418964,20.2166528 C33.8580554,23.3991752 31.5612542,24.07737 30.2709602,24.07737 C25.3677133,24.07737 21.3935181,20.034087 21.3935181,15.0255504 C21.3935181,10.0692009 25.3677133,6.02591784 30.2709602,5.97373074 C30.5032084,5.97373074 30.7870542,5.99979461 31.1225566,6.07804557 C29.7032096,5.42592057 28.1548096,4.95637323 26.7096639,4.95637323 C17.7290265,4.95637323 15.9741771,11.0605183 15.8709819,11.5039602 C15.6129349,12.6256563 15.4580831,13.7995395 15.4580831,14.9994865 C15.4580831,23.3209243 22.0903217,30.0771646 30.2709602,30.0771646 Z" id="Path" fill="url(#linearGradient-2)"></path>
            <path d="M26.7096639,5.0867638 C31.3032072,5.21719592 36.1032,9.05181964 37.0838494,9.99094994 C39.6128988,12.4169079 41.9870373,15.1820523 41.9870373,15.1820523 C44.0773892,17.5036954 45.9870313,19.6688366 45.9870313,19.6688366 C46.6580361,18.8601444 49.9612265,15.025491 49.9612265,15.025491 C49.9612265,15.025491 47.7418807,12.6255969 47.5612301,12.4169079 C43.2515916,7.09536746 36.7225482,0 30.2709602,0 C23.3032193,0.0260859499 17.4451807,4.95633168 15.8967807,11.5560879 C15.9742361,11.112646 18.2709783,4.87807478 26.7096639,5.0867638 Z" id="Path" fill="#29ABE2"></path>
        </g>
    </g>
</svg>