<?xml version="1.0" encoding="UTF-8"?>
<svg width="180px" height="70px" viewBox="0 0 180 70" version="1.1" xmlns="http://www.w3.org/2000/svg" xmlns:xlink="http://www.w3.org/1999/xlink">
    <!-- Generator: Sketch 55.2 (78181) - https://sketchapp.com -->
    <title>dyxy</title>
    <desc>Created with Sketch.</desc>
    <g id="Zeppelin-Desktop" stroke="none" stroke-width="1" fill="none" fill-rule="evenodd">
        <rect id="Rectangle-Copy-25" fill="#F8F8FA" opacity="0" x="0" y="0" width="180" height="70"></rect>
        <g id="dydxclean_black-copy" transform="translate(39.000000, 10.000000)" fill="#231F20">
            <path d="M63.1904193,0.00721300373 L39.4642436,49.9898747 L37.7070255,49.9898747 L61.4332011,0.00721300373 L63.1904193,0.00721300373 Z M66.2670425,16.5511683 C66.2670425,15.1511006 66.7948895,14.0125635 67.8485779,13.1371317 C68.9325382,12.2620894 70.3236544,11.824382 72.0227082,11.824382 C73.1365496,11.824382 74.2057904,11.9410599 75.2303966,12.1743989 C76.2852918,12.4077379 77.5150538,12.8597528 78.9212975,13.531595 L78.1309292,15.0193532 C76.842204,14.3772604 75.7434901,13.9252624 74.8356034,13.6625466 C73.9269178,13.4292076 73.0042946,13.3125296 72.0673258,13.3125296 C70.8076827,13.3125296 69.8256884,13.6046055 69.1229575,14.1879614 C68.3911445,14.7713173 68.0246516,15.544768 68.0246516,16.5075008 C68.0246516,17.4412631 68.3170538,18.2436844 68.9034561,18.9147477 C69.5185496,19.5568405 70.8805666,20.4902133 72.989949,21.715662 C74.8941586,22.8248391 76.2705382,23.772892 77.1202606,24.5606163 C77.9990652,25.3777176 78.6432408,26.2531493 79.0535524,27.1869116 C79.4335921,28.1206739 79.6244193,29.2441416 79.6244193,30.5572977 C79.6244193,33.154233 78.9069518,35.2110735 77.472017,36.728598 C76.0362833,38.2167626 74.0289008,38.960447 71.4522323,38.960447 C68.9624193,38.960447 66.9697564,38.2457332 65.4758754,36.8167118 C64.0110595,35.4154589 63.2788555,33.5340332 63.2788555,31.1692516 C63.2788555,28.9516932 63.9086856,27.143295 65.1687365,25.7428378 C66.3985156,24.3130207 68.3756261,23.2478835 71.100085,22.5474602 C69.2843116,21.52638 68.0246516,20.5632408 67.3219377,19.658449 C66.618,18.7250593 66.2670425,17.689299 66.2670425,16.5511683 Z M85.8637054,13.618896 L92.6304306,24.2983237 L99.4852011,13.618896 L101.375082,13.618896 L93.5976884,25.567423 L101.989377,38.6100406 L100.012266,38.6100406 L92.5866289,26.9682696 L85.0287365,38.6100406 L83.0962436,38.6100406 L91.5321586,25.567423 L83.8866119,13.618896 L85.8637054,13.618896 Z M68.772,24.7360312 C67.8931955,25.1737555 67.1896657,25.6991703 66.6626176,26.3114968 C66.1347705,26.8952591 65.7391955,27.5960718 65.4758754,28.4123772 C65.1830652,29.2294785 65.0364646,30.1485608 65.0364646,31.1692347 C65.0364646,33.0669319 65.6224759,34.5836607 66.7940737,35.7221978 C67.9652805,36.8591432 69.5332691,37.428615 71.4956431,37.428615 C73.5165722,37.428615 75.0845609,36.8456485 76.1968215,35.6777514 C77.3106629,34.4808669 77.8667932,32.7601592 77.8667932,30.5136471 C77.8667932,28.9961226 77.4564646,27.6833728 76.6362323,26.5745852 C75.845864,25.4658144 74.48383,24.4296478 72.5505382,23.4665086 C70.8805836,23.8752794 69.6217224,24.2983237 68.772,24.7360312 Z M11.957898,12.1743989 C13.0123853,12.4077379 14.2421643,12.8597528 15.6487989,13.531595 L14.8576317,15.0193532 C13.5684986,14.3772604 12.4701926,13.9252624 11.5623059,13.6625466 C10.6544193,13.4292076 9.7313881,13.3125296 8.79402833,13.3125296 C7.5347762,13.3125296 6.5531898,13.6046055 5.85045892,14.1879614 C5.11745609,14.7713173 4.75215297,15.544768 4.75215297,16.5075008 C4.75215297,17.4412631 5.04455524,18.2436844 5.63095751,18.9147477 C6.24564306,19.5568405 7.60806799,20.4902133 9.71704249,21.715662 C11.6208612,22.8248391 12.9976317,23.772892 13.8465552,24.5606163 C14.7257677,25.3777176 15.3703173,26.2531493 15.780255,27.1869116 C16.1610935,28.1206739 16.3515127,29.2441416 16.3515127,30.5572977 C16.3515127,33.154233 15.6336544,35.2110735 14.1987195,36.728598 C12.7633938,38.2167626 10.7564023,38.960447 8.17893484,38.960447 C5.68912181,38.960447 3.69725779,38.2457332 2.20335977,36.8167118 C0.738543909,35.4154589 0.00633994334,33.5340332 0.00633994334,31.1692516 C0.00633994334,28.9516932 0.636169972,27.143295 1.89581303,25.7428378 C3.125983,24.3130207 5.10309348,23.2478835 7.82755241,22.5474602 C6.0113711,21.52638 4.75211898,20.5632408 4.04860623,19.658449 C3.34548442,18.7250762 2.99411898,17.6893159 2.99411898,16.5511683 C2.99411898,15.1511006 3.52155807,14.0125635 4.57604533,13.1371317 C5.66000567,12.2620894 7.05112181,11.824382 8.75017564,11.824382 C9.86326912,11.824382 10.9324929,11.941043 11.957898,12.1743989 Z M5.49871955,24.7360312 C4.61991501,25.1737555 3.91718414,25.6991703 3.38933711,26.3114968 C2.86228895,26.8952591 2.46671388,27.5960718 2.20339377,28.4123772 C1.91019263,29.2294785 1.763983,30.1485608 1.763983,31.1692347 C1.763983,33.0669319 2.3495864,34.5836607 3.52159207,35.7221978 C4.69279887,36.8591432 6.2603966,37.428615 8.22316147,37.428615 C10.2440907,37.428615 11.8112975,36.8456485 12.9243399,35.6777514 C14.0373824,34.4808669 14.5943116,32.7601592 14.5943116,30.5136471 C14.5943116,28.9961226 14.183983,27.6833728 13.3637507,26.5745852 C12.5729915,25.4658144 11.2105496,24.4296478 9.27766572,23.4665086 C7.60808499,23.8752794 6.34805099,24.2983237 5.49871955,24.7360312 Z M38.5408045,13.618896 L30.1929348,28.9381984 L30.1929348,38.6100406 L28.3907082,38.6100406 L28.3907082,29.0687606 L19.9990198,13.618896 L22.019949,13.618896 L29.3141303,27.274636 L36.6513314,13.618896 L38.5408045,13.618896 Z" id="Shape"></path>
        </g>
    </g>
</svg>