<?xml version="1.0" encoding="UTF-8"?>
<svg width="180px" height="70px" viewBox="0 0 180 70" version="1.1" xmlns="http://www.w3.org/2000/svg" xmlns:xlink="http://www.w3.org/1999/xlink">
    <!-- Generator: Sketch 55.2 (78181) - https://sketchapp.com -->
    <title>ganache</title>
    <desc>Created with Sketch.</desc>
    <g id="Zeppelin-Desktop" stroke="none" stroke-width="1" fill="none" fill-rule="evenodd">
        <rect id="Rectangle-Copy-24" fill="#F8F8FA" opacity="0" x="0" y="0" width="180" height="70"></rect>
        <g id="ganache-logo-dark-copy" transform="translate(67.000000, 0.000000)" fill-rule="nonzero">
            <path d="M6.3342,63.4232026 C6.00333027,63.8809594 5.58524249,64.269586 5.1037,64.5669935 C4.65815473,64.8363115 4.14616621,64.9772787 3.6248,64.974183 C3.12081416,64.9828759 2.623167,64.8615003 2.1804,64.6218954 C1.74988798,64.3795367 1.38457139,64.037381 1.1155,63.6245098 C0.809135039,63.1495845 0.587387397,62.6256806 0.46,62.075817 C0.302168105,61.4133395 0.22494789,60.7343985 0.23,60.0535948 C0.231912597,59.5104386 0.292052584,58.9690337 0.4094,58.4385621 C0.529117684,57.8881942 0.705619182,57.351583 0.9361,56.8372549 C1.16535168,56.3174264 1.44741706,55.8222614 1.7779,55.3594771 C2.09797251,54.9095497 2.47698467,54.5041191 2.9049,54.1539216 C3.32501653,53.8133424 3.79505576,53.5387046 4.2987,53.3395425 C4.81861837,53.1359797 5.37296306,53.0334749 5.9317,53.037463 C6.23068778,53.0356046 6.52807178,53.0811683 6.8126,53.172549 C7.07174217,53.2550266 7.31177653,53.3880047 7.5187,53.5637255 C7.71426536,53.7348986 7.87105649,53.9454238 7.9787,54.1813725 C8.09686234,54.4381542 8.15580025,54.7179655 8.1512,55.0003268 C8.15129814,55.2865079 8.09585039,55.5700172 7.9879,55.8352941 C7.8776172,56.1067981 7.72975613,56.3616555 7.5486,56.5924837 C7.35953304,56.8356224 7.14177163,57.0552802 6.9,57.246732 C6.66076728,57.439944 6.40353345,57.6099967 6.1318,57.7545752 C5.87063069,57.8924676 5.59536,58.0021348 5.3107,58.0816993 C5.04896362,58.1568823 4.77812415,58.1961344 4.5057,58.198366 C4.3088143,58.2023891 4.11674149,58.1376312 3.9629,58.0153595 C3.79901307,57.8710781 3.71366839,57.6580195 3.7329,57.4411765 C3.73357904,57.379258 3.73741731,57.3174138 3.7444,57.2558824 C3.75270982,57.1932242 3.76578056,57.1312822 3.7835,57.0705882 C3.79713758,57.0201974 3.81723585,56.9717607 3.8433,56.9264706 C3.8582838,56.8927459 3.89135019,56.8705244 3.9284,56.869281 C3.95781143,56.869874 3.98647831,56.8785861 4.0112,56.8944444 C4.04298272,56.9160971 4.07688916,56.9344917 4.1124,56.9493464 C4.1692103,56.9719522 4.22763966,56.990304 4.2872,57.0042484 C4.38854198,57.0250765 4.49194971,57.0342869 4.5954,57.0316993 C4.84237831,57.0258696 5.08564719,56.9706321 5.3107,56.869281 C5.56516681,56.7589545 5.8022273,56.6125549 6.0145,56.4346405 C6.23166774,56.2612984 6.41755992,56.0524286 6.5642,55.8169935 C6.70235467,55.5982698 6.77643039,55.345554 6.7781,55.0872549 C6.77659615,54.9872374 6.75792774,54.8882101 6.7229,54.7944444 C6.6839262,54.6876689 6.62280245,54.5902431 6.5435,54.5084967 C6.4509991,54.4103882 6.33899419,54.332486 6.2146,54.2797386 C6.05461605,54.2160003 5.88317156,54.185634 5.7109,54.1905229 C5.34473353,54.1871428 4.98244761,54.2653054 4.6506,54.419281 C4.29739685,54.5860142 3.97415376,54.8093624 3.6938,55.0803922 C3.38421891,55.3771515 3.10952536,55.7079203 2.875,56.0663399 C2.6236044,56.4494079 2.41096686,56.8562952 2.2402,57.2810458 C2.06439034,57.722906 1.93040982,58.1801158 1.84,58.646732 C1.74462341,59.1042957 1.69607579,59.5702891 1.6951,60.0375817 C1.68845473,60.555175 1.73702643,61.0720094 1.84,61.5794118 C1.92061315,61.9854212 2.06006776,62.3776386 2.254,62.7437908 C2.40547369,63.0334484 2.61997818,63.2858691 2.8819,63.4826797 C3.10909188,63.6495128 3.38379751,63.7400528 3.6662,63.7411765 C3.94798405,63.7442278 4.22716409,63.6872893 4.485,63.574183 C4.73098715,63.4665909 4.95719475,63.3189195 5.1543,63.1372549 C5.35689487,62.9475784 5.53254551,62.731317 5.6764,62.4944444 C5.82203672,62.2562407 5.94670064,62.0059629 6.049,61.7464052 C6.14752642,61.4963919 6.22447099,61.2384887 6.279,60.9754902 C6.3273003,60.7428769 6.35272017,60.5061397 6.3549,60.2686275 C6.35463645,60.1746165 6.34926194,60.0806886 6.3388,59.9872549 C6.32918875,59.9059956 6.32381489,59.8242958 6.3227,59.7424837 C6.3181661,59.6803377 6.33433177,59.6184359 6.3687,59.5663399 C6.40102988,59.5246999 6.44388754,59.4923355 6.4929,59.472549 C6.55020793,59.450074 6.6107863,59.4369423 6.6723,59.4336601 C6.7413,59.4336601 6.8126,59.4336601 6.8862,59.4336601 C6.97913025,59.43616 7.07125382,59.4515593 7.1599,59.4794118 C7.26267086,59.5106816 7.36146058,59.5536687 7.4543,59.6075163 C7.54056066,59.6583372 7.61818816,59.7224201 7.6843,59.7973856 C7.74509381,59.8585038 7.78042006,59.9402143 7.7832,60.0261438 C7.7372,60.4539216 7.7096,60.8611111 7.6981,61.2454248 C7.6866,61.6297386 7.6797,62.0186275 7.6797,62.4166667 C7.6797,62.8147059 7.6797,63.1738562 7.6797,63.5764706 C7.6797,63.979085 7.6797,64.4205882 7.6797,64.9055556 C7.8453,64.8781046 8.0063,64.8620915 8.1627,64.8506536 L8.6112,64.820915 C8.8159,64.820915 8.9493,64.8666667 9.0091,64.9947712 C9.07003481,65.1294427 9.0790398,65.2817009 9.0344,65.422549 C8.98878592,65.5865819 8.90530448,65.7377605 8.7906,65.8640523 C8.69009883,65.9881805 8.54121794,66.0638828 8.3812,66.0722222 C8.25086667,66.0722222 8.12666667,66.0722222 8.0086,66.0722222 C7.8913,66.0722222 7.7786,66.0859477 7.6452,66.0973856 C7.6291,66.3947712 7.6015,66.696732 7.5693,67.0009804 C7.53507529,67.29975 7.47895938,67.595635 7.4014,67.8862745 C7.32819424,68.1629464 7.22805431,68.4318643 7.1024,68.6892157 C6.98595541,68.9307837 6.8305711,69.1517836 6.6424,69.3434641 C6.45487701,69.5321553 6.23119619,69.6815079 5.9846,69.7826797 C5.69904102,69.8970248 5.39304795,69.9522888 5.0853,69.945098 C4.80959078,69.9491817 4.53561835,69.901049 4.278,69.803268 C4.05484413,69.7130647 3.85166751,69.5801585 3.68,69.4120915 C3.5083201,69.2444237 3.37428052,69.0425009 3.2867,68.8196078 C3.19292972,68.5837533 3.14606359,68.3320426 3.1487,68.0784314 C3.14190067,67.7036307 3.23642595,67.3338913 3.4224,67.0078431 C3.60827128,66.6901404 3.8533881,66.4106321 4.1446,66.1843137 C4.45911884,65.9377204 4.80572746,65.7345717 5.175,65.5803922 C5.56176744,65.4158506 5.95899027,65.2767709 6.3641,65.1640523 L6.3641,65.0084967 C6.3641,64.6676471 6.3641,64.3679739 6.3457,64.104902 C6.3273,63.8418301 6.3342,63.6153595 6.3342,63.4232026 Z M5.1451,68.7281046 C5.33131016,68.7306782 5.5111882,68.660921 5.6465,68.5336601 C5.79953277,68.3860806 5.91741421,68.206305 5.9915,68.0075163 C6.09119355,67.7651416 6.16444633,67.5128254 6.21,67.254902 C6.26462504,66.9522097 6.30225002,66.6467253 6.3227,66.3398693 C5.82823193,66.4601737 5.36948646,66.6953637 4.9841,67.0261438 C4.69033189,67.2874762 4.5229281,67.6612685 4.5241,68.053268 C4.4965255,68.2321422 4.55200645,68.4138023 4.67495243,68.5472011 C4.79789842,68.6805998 4.97504016,68.7513397 5.1566,68.7395425 L5.1451,68.7281046 Z" id="Shape" fill="#5E464D"></path>
            <path d="M14.1818,63.7411765 C14.3511847,63.7449048 14.5156482,63.6843819 14.6418,63.5718954 C14.7763756,63.4469169 14.8883999,63.2999051 14.973,63.1372549 C15.0690184,62.9612773 15.1461113,62.7757197 15.203,62.5836601 C15.2628,62.3846405 15.3111,62.1993464 15.3525,62.0232026 C15.3757344,61.8895457 15.436309,61.765087 15.5273,61.6640523 C15.5925215,61.5936393 15.6840476,61.5530887 15.7803,61.5519608 C15.8537921,61.5532136 15.9257793,61.5728835 15.9896,61.6091503 C16.1388158,61.69372 16.2578049,61.8224619 16.33,61.977451 C16.365668,62.0486362 16.385291,62.1267043 16.3875,62.2062092 L16.3875,62.245098 C16.3849964,62.2687871 16.3787883,62.291942 16.3691,62.3137255 C16.2888896,62.5951427 16.1881902,62.8703797 16.0678,63.1372549 C15.9406234,63.4234998 15.7750517,63.6912935 15.5756,63.9333333 C15.3748604,64.1770797 15.129881,64.3811616 14.8534,64.5349673 C14.5515249,64.7001061 14.2111338,64.7829687 13.8667,64.7751634 C13.5877717,64.7816678 13.3114562,64.7204214 13.0617,64.596732 C12.8447578,64.4879778 12.659462,64.3257349 12.5235,64.1254902 C12.3378341,64.311757 12.1225857,64.4663319 11.8864,64.5830065 C11.6168248,64.7144468 11.3194503,64.7795631 11.0193,64.7728758 C10.7085922,64.7792082 10.4004382,64.7158774 10.1177,64.5875817 C9.86489462,64.4694431 9.64174901,64.2967356 9.4645,64.0820261 C9.28190401,63.8580315 9.1465758,63.5997287 9.0666,63.322549 C8.97536774,63.0182762 8.9304037,62.7021431 8.9332,62.3846405 C8.92492882,61.7787003 9.04482129,61.1777984 9.2851,60.620915 C9.50244888,60.1160012 9.81916398,59.6594383 10.2166,59.2781046 C10.5999329,58.9123623 11.0515636,58.6248171 11.546,58.4316993 C12.0395539,58.2377714 12.5655281,58.1384224 13.0962,58.1388889 C13.3052009,58.1286719 13.5111655,58.191828 13.6781,58.3173203 C13.8296629,58.4320241 13.9154961,58.6130079 13.9081,58.8022876 C13.9153942,58.8993389 13.8988167,58.996697 13.8598,59.0859477 C13.8216934,59.1436543 13.75386,59.1747247 13.685,59.1660131 C13.6020141,59.1658151 13.5190973,59.1612335 13.4366,59.1522876 C13.348895,59.1410479 13.2605282,59.1356981 13.1721,59.1362745 C12.8269609,59.1393604 12.4853884,59.206065 12.1647,59.3330065 C11.8190463,59.4683025 11.505669,59.6740148 11.2447,59.9369281 C10.9479362,60.2299496 10.713305,60.5792182 10.5547,60.9640523 C10.3642549,61.4363952 10.2719336,61.9421988 10.2833,62.4509804 C10.2612422,62.7926673 10.3551984,63.1318224 10.5501,63.4140523 C10.7233571,63.6317096 10.9911496,63.7533952 11.27,63.7411765 C11.4949689,63.7463028 11.7118254,63.6575399 11.868,63.4964052 C12.0302828,63.3300019 12.1604737,63.1353822 12.2521,62.9222222 L12.2521,60.479085 C12.2563135,60.4143379 12.2563135,60.3493876 12.2521,60.2846405 C12.2429,60.2343137 12.2337,60.1908497 12.2245,60.1542484 C12.2245,60.1176471 12.2084,60.0856209 12.2038,60.0581699 C12.201786,60.0307555 12.201786,60.0032314 12.2038,59.975817 C12.2079207,59.8906348 12.2593398,59.8148043 12.3372,59.779085 C12.4337788,59.7293396 12.5412521,59.7041883 12.65,59.7058824 C12.8965408,59.694103 13.139804,59.7658815 13.34,59.9094771 C13.4949123,60.0227413 13.5883401,60.200985 13.593,60.3921569 L13.593,63.0045752 C13.5928602,63.0918853 13.6044631,63.1788217 13.6275,63.2630719 C13.6498246,63.3438293 13.6839197,63.4208998 13.7287,63.4918301 C13.8319397,63.6420733 14.0059091,63.7285884 14.1887,63.7205882 L14.1818,63.7411765 Z" id="Path" fill="#5E464D"></path>
            <path d="M15.4307,59.0722222 C15.4370459,58.9624967 15.4238082,58.8525204 15.3916,58.7473856 C15.3680978,58.6883631 15.3556267,58.625569 15.3548,58.5620915 C15.36182,58.4789188 15.4138277,58.4061504 15.4905,58.3722222 C15.590983,58.3218899 15.7023163,58.2967592 15.8148,58.2990196 C16.061564,58.2853725 16.305441,58.357332 16.5048,58.5026144 C16.6613928,58.6182977 16.7542353,58.8004386 16.7555,58.9944444 L16.7555,59.7058824 C16.8715949,59.4911774 17.0014286,59.2841067 17.1442,59.0859477 C17.2792666,58.9046129 17.4334802,58.7381946 17.6042,58.5895425 C17.7600412,58.4523189 17.9361217,58.3396804 18.1263,58.2555556 C18.3167605,58.1749673 18.521932,58.1344661 18.7289,58.1366013 C18.9765073,58.1266852 19.2228139,58.1769368 19.4465,58.2830065 C19.6242284,58.3713737 19.7774412,58.5017654 19.8927,58.6627451 C20.0034723,58.8179787 20.0816926,58.9938022 20.1227,59.1797386 C20.1650112,59.3620524 20.1866131,59.5485139 20.1871,59.7356209 L20.1871,63.0137255 C20.1871,63.0503268 20.1871,63.1075163 20.1871,63.1875817 C20.1930759,63.2710296 20.2100892,63.3533294 20.2377,63.4323529 C20.2662338,63.5126751 20.3117188,63.5859942 20.3711,63.6473856 C20.4407993,63.7133179 20.5350089,63.7473156 20.631,63.7411765 C20.8003073,63.7444471 20.9646075,63.6839843 21.091,63.5718954 C21.2247546,63.4467326 21.3359927,63.2997318 21.4199,63.1372549 C21.5149633,62.9608264 21.5920148,62.7753686 21.6499,62.5836601 C21.7074,62.3846405 21.758,62.1993464 21.7994,62.0232026 C21.8172103,61.8887976 21.8767033,61.7632574 21.9696,61.6640523 C22.034186,61.5954145 22.1235339,61.5550959 22.218,61.5519608 C22.2929191,61.5534115 22.3663476,61.5730438 22.4319,61.6091503 C22.5062359,61.6485922 22.5737819,61.6995573 22.632,61.7601307 C22.6910049,61.8215111 22.7399058,61.8917644 22.7769,61.9683007 C22.8118419,62.0396411 22.8306816,62.1177162 22.8321,62.1970588 L22.8321,62.2359477 C22.8305643,62.2595485 22.8251246,62.2827356 22.816,62.3045752 C22.7362155,62.5891028 22.6355108,62.8674125 22.5147,63.1372549 C22.3867607,63.4241088 22.2195794,63.6920021 22.0179,63.9333333 C21.8156244,64.1755635 21.5709496,64.3793916 21.2957,64.5349673 C20.9955845,64.7003459 20.656603,64.783252 20.3136,64.7751634 C20.1004636,64.7797286 19.8887859,64.7391812 19.6926,64.6562092 C19.5194852,64.579733 19.3631851,64.4701364 19.2326,64.3336601 C19.1037185,64.1986254 19.0049636,64.0380407 18.9428,63.8624183 C18.8770718,63.6788461 18.8436164,63.4853878 18.8439,63.2905229 L18.8439,60.0879085 C18.8439,59.9620915 18.8439,59.8477124 18.8439,59.7379085 C18.8388927,59.6410642 18.8226858,59.5451159 18.7956,59.4519608 C18.775,59.3786064 18.7371594,59.3111747 18.6852,59.2552288 C18.630626,59.2043434 18.5574897,59.177892 18.4828,59.1820261 C18.3081323,59.2052025 18.1462423,59.2857104 18.0228,59.4107843 C17.8170002,59.5885351 17.6346208,59.7914512 17.48,60.0147059 C17.296638,60.2755895 17.1423949,60.5555633 17.02,60.8496732 C16.8897037,61.148217 16.8044506,61.4642626 16.767,61.7875817 L16.767,64.1003268 C16.767,64.175817 16.767,64.2558824 16.767,64.329085 C16.7644242,64.4036184 16.7464156,64.4768217 16.7141,64.5441176 C16.6821783,64.6107726 16.6319427,64.6670816 16.5692,64.7065359 C16.481824,64.7558127 16.3819649,64.7788549 16.2817,64.7728758 C16.1890498,64.772135 16.096663,64.7629462 16.0057,64.7454248 C15.9089251,64.7292511 15.8160755,64.6951056 15.732,64.6447712 C15.6469162,64.5940276 15.576416,64.5223323 15.5273,64.4366013 C15.4672985,64.3266301 15.4386664,64.2024366 15.4445,64.077451 L15.4307,59.0722222 Z" id="Path" fill="#5E464D"></path>
            <path d="M26.6984,63.7411765 C26.8677847,63.7449048 27.0322482,63.6843819 27.1584,63.5718954 C27.2929616,63.449846 27.4057284,63.3059744 27.4919,63.1464052 C27.5879184,62.9704276 27.6650113,62.78487 27.7219,62.5928105 C27.7817,62.3937908 27.83,62.2084967 27.8714,62.0323529 C27.8946344,61.898696 27.955209,61.7742373 28.0462,61.6732026 C28.1114215,61.6027896 28.2029476,61.562239 28.2992,61.5611111 C28.3726921,61.5623639 28.4446793,61.5820339 28.5085,61.6183007 C28.6563087,61.7004701 28.7751438,61.825851 28.8489,61.977451 C28.8855279,62.0482803 28.9052063,62.1265691 28.9064,62.2062092 L28.9064,62.245098 C28.9038964,62.2687871 28.8976883,62.291942 28.888,62.3137255 C28.8072546,62.5967596 28.7057834,62.8735342 28.5844,63.1418301 C28.4572234,63.428075 28.2916517,63.6958686 28.0922,63.9379085 C27.8914604,64.1816549 27.646481,64.3857368 27.37,64.5395425 C27.0682452,64.7049882 26.7277697,64.7878714 26.3833,64.7797386 C26.1043717,64.7862429 25.8280562,64.7249965 25.5783,64.6013072 C25.3613578,64.492553 25.176062,64.3303101 25.0401,64.1300654 C24.8544341,64.3163322 24.6391857,64.4709071 24.403,64.5875817 C24.1334248,64.719022 23.8360503,64.7841382 23.5359,64.777451 C23.2251922,64.7837834 22.9170382,64.7204525 22.6343,64.5921569 C22.3814946,64.4740182 22.158349,64.3013108 21.9811,64.0866013 C21.798504,63.8626067 21.6631758,63.6043039 21.5832,63.3271242 C21.4919677,63.0228514 21.4470037,62.7067183 21.4498,62.3892157 C21.4408819,61.781738 21.5607876,61.1792107 21.8017,60.620915 C22.0156429,60.1169747 22.3283984,59.6604842 22.7217,59.2781046 C23.1050329,58.9123623 23.5566636,58.6248171 24.0511,58.4316993 C24.5446539,58.2377714 25.0706281,58.1384224 25.6013,58.1388889 C25.8102515,58.1290619 26.0160855,58.192178 26.1832,58.3173203 C26.3347629,58.4320241 26.4205961,58.6130079 26.4132,58.8022876 C26.4204942,58.8993389 26.4039167,58.996697 26.3649,59.0859477 C26.3267934,59.1436543 26.25896,59.1747247 26.1901,59.1660131 C26.1071141,59.1658151 26.0241973,59.1612335 25.9417,59.1522876 C25.853995,59.1410479 25.7656282,59.1356981 25.6772,59.1362745 C25.3320609,59.1393604 24.9904884,59.206065 24.6698,59.3330065 C24.3241463,59.4683025 24.010769,59.6740148 23.7498,59.9369281 C23.4571676,60.2309861 23.2264944,60.580183 23.0713,60.9640523 C22.8808549,61.4363952 22.7885336,61.9421988 22.7999,62.4509804 C22.7778422,62.7926673 22.8717984,63.1318224 23.0667,63.4140523 C23.2394585,63.6371663 23.5106322,63.7626324 23.7935,63.7503268 C24.0184689,63.7554532 24.2353254,63.6666902 24.3915,63.5055556 C24.5537828,63.3391523 24.6839737,63.1445325 24.7756,62.9313725 L24.7756,60.479085 C24.7798135,60.4143379 24.7798135,60.3493876 24.7756,60.2846405 C24.7664,60.2343137 24.7572,60.1908497 24.748,60.1542484 C24.7388,60.1176471 24.7319,60.0856209 24.7273,60.0581699 C24.725286,60.0307555 24.725286,60.0032314 24.7273,59.975817 C24.7314207,59.8906348 24.7828398,59.8148043 24.8607,59.779085 C24.9593405,59.7282212 25.0693277,59.7030371 25.1804,59.7058824 C25.427052,59.6931803 25.6706167,59.7650477 25.8704,59.9094771 C26.0301711,60.0232169 26.1258527,60.2058997 26.128,60.4013072 L26.128,63.0137255 C26.1278602,63.1010356 26.1394631,63.187972 26.1625,63.2722222 C26.1848246,63.3529797 26.2189197,63.4300501 26.2637,63.5009804 C26.3669397,63.6512236 26.5409091,63.7377387 26.7237,63.7297386 L26.6984,63.7411765 Z" id="Path" fill="#5E464D"></path>
            <path d="M30.7441,64.7843137 C30.3593978,64.7848502 29.9774442,64.7198586 29.6148,64.5921569 C29.2563342,64.4663555 28.9264584,64.2712091 28.6442,64.0179739 C28.3557728,63.7572151 28.1254315,63.4392836 27.968,63.0846405 C27.7933147,62.6763426 27.7078607,62.2357844 27.7173,61.7921569 C27.717372,61.3384124 27.789563,60.8875316 27.9312,60.4562092 C28.0636139,60.0371446 28.2623767,59.6417652 28.52,59.2849673 C28.7619601,58.9506163 29.0684565,58.6675491 29.4216,58.4522876 C29.768118,58.2431086 30.1662618,58.1338143 30.5716,58.1366013 C30.8383806,58.1278787 31.1031559,58.1852645 31.3421,58.3035948 C31.5375642,58.4026719 31.7117701,58.5386424 31.855,58.7039216 C31.9812814,58.8538917 32.0780344,59.0261755 32.1402,59.2117647 C32.1954185,59.3653891 32.2256974,59.5267766 32.2299,59.6898693 C32.231568,59.7901622 32.2000512,59.8882211 32.1402,59.9689542 C32.0811381,60.0505665 32.0079272,60.1210583 31.924,60.1771242 C31.8368425,60.2339652 31.7414325,60.2771694 31.6411,60.3052288 C31.5522683,60.3310054 31.4598844,60.3425875 31.3674,60.3395425 C31.2956622,60.3377077 31.2270239,60.3100756 31.1742,60.2617647 C31.1225046,60.2055682 31.1049601,60.1261717 31.1282,60.0535948 C31.1017224,59.9726151 31.0802161,59.8901101 31.0638,59.8065359 C31.0427617,59.7076467 31.0079244,59.612169 30.9603,59.5228758 C30.9109621,59.4331664 30.842702,59.3551301 30.7602,59.2941176 C30.6573522,59.2249587 30.534558,59.1912119 30.4106,59.1980392 C30.2369567,59.2058541 30.0726764,59.2785641 29.9506,59.401634 C29.7826422,59.5620046 29.6461526,59.7520582 29.5481,59.9620915 C29.4236731,60.2268005 29.3295492,60.5045783 29.2675,60.7901961 C29.1941267,61.1199213 29.1578703,61.4567433 29.1594,61.7944444 C29.1539303,62.0784191 29.1990951,62.3611113 29.2928,62.6294118 C29.3712466,62.8573558 29.498355,63.0657181 29.6654,63.2401961 C29.8243721,63.4056987 30.0184478,63.5338629 30.2335,63.6153595 C30.4610654,63.7018735 30.7028841,63.745321 30.9465,63.7434641 C31.2531572,63.7509634 31.5577493,63.6916231 31.8389,63.5696078 C32.0826583,63.4611554 32.3023393,63.305643 32.4852,63.1120915 C32.6614446,62.921954 32.8058797,62.7049264 32.913,62.469281 C33.0162764,62.2390962 33.0934198,61.9981736 33.143,61.7509804 C33.164672,61.6021967 33.2548077,61.4719518 33.3868,61.3986928 C33.5033371,61.3398748 33.6374103,61.3252389 33.764,61.3575163 C33.8924614,61.3884091 34.0086415,61.4569438 34.0975,61.5542484 C34.1896541,61.6498108 34.2321194,61.7824318 34.2125,61.9133987 C34.1838004,62.0990201 34.1423025,62.2824593 34.0883,62.4624183 C34.0234745,62.6800001 33.9355808,62.8901128 33.8261,63.0892157 C33.7050556,63.3110426 33.5608964,63.5195965 33.396,63.7114379 C33.2117191,63.9231041 32.9970396,64.106562 32.7589,64.2558824 C32.4866127,64.425245 32.1915838,64.5554043 31.8826,64.6424837 C31.5118882,64.7437484 31.128471,64.7915131 30.7441,64.7843137 Z" id="Path" fill="#5E464D"></path>
            <path d="M33.1453,54.5885621 C33.1484552,54.4976213 33.1383845,54.406704 33.1154,54.3186275 C33.1015105,54.2632065 33.0814534,54.209498 33.0556,54.1584967 C33.0394087,54.1257318 33.0193326,54.0950123 32.9958,54.0669935 C32.9768532,54.0472515 32.966164,54.0210818 32.9659,53.9937908 C32.9673505,53.9606609 32.9867093,53.9309043 33.0165,53.9160131 C33.0598956,53.8918044 33.1062894,53.8733471 33.1545,53.8611111 C33.2147281,53.8444361 33.2762893,53.8329557 33.3385,53.8267974 C33.4026496,53.8195694 33.4671413,53.8157513 33.5317,53.8153595 C33.7784866,53.8015206 34.0224272,53.873499 34.2217,54.0189542 C34.3782928,54.1346376 34.4711353,54.3167785 34.4724,54.5107843 L34.4724,59.7058824 C34.5884949,59.4911774 34.7183286,59.2841067 34.8611,59.0859477 C34.9955758,58.9041277 35.1498459,58.7376485 35.3211,58.5895425 C35.4757681,58.4518992 35.651161,58.3392041 35.8409,58.2555556 C36.0313605,58.1749673 36.236532,58.1344661 36.4435,58.1366013 C36.6918255,58.1269539 36.9388132,58.1771835 37.1634,58.2830065 C37.340033,58.3720674 37.4923436,58.502363 37.6073,58.6627451 C37.7180723,58.8179787 37.7962926,58.9938022 37.8373,59.1797386 C37.8796112,59.3620524 37.9012131,59.5485139 37.9017,59.7356209 L37.9017,63.0137255 C37.9017,63.0503268 37.9017,63.1075163 37.9017,63.1875817 C37.9076759,63.2710296 37.9246892,63.3533294 37.9523,63.4323529 C37.9808338,63.5126751 38.0263188,63.5859942 38.0857,63.6473856 C38.1553993,63.7133179 38.2496089,63.7473156 38.3456,63.7411765 C38.5149073,63.7444471 38.6792075,63.6839843 38.8056,63.5718954 C38.9401616,63.449846 39.0529284,63.3059744 39.1391,63.1464052 C39.2341633,62.9699767 39.3112148,62.7845189 39.3691,62.5928105 C39.4266,62.3937908 39.4772,62.2084967 39.5186,62.0323529 C39.5366995,61.9040922 39.5909218,61.7835439 39.675,61.6846405 C39.7343562,61.6182145 39.8162371,61.5758663 39.905,61.5656863 C39.9925084,61.5584184 40.0801227,61.5784049 40.1557,61.6228758 C40.2436396,61.6673772 40.3218183,61.7288049 40.3857,61.8035948 C40.4477948,61.878064 40.4953755,61.963402 40.526,62.0552288 C40.5577018,62.1394191 40.5625209,62.2312862 40.5398,62.3183007 C40.4526504,62.6004354 40.3481877,62.8769892 40.227,63.1464052 C40.1006962,63.4331053 39.935054,63.7010131 39.7348,63.9424837 C39.5354201,64.1857871 39.2920331,64.3898421 39.0172,64.5441176 C38.7170845,64.7094962 38.378103,64.7924023 38.0351,64.7843137 C37.8219636,64.788879 37.6102859,64.7483315 37.4141,64.6653595 C37.2409852,64.5888833 37.0846851,64.4792867 36.9541,64.3428105 C36.8260257,64.2071619 36.7273807,64.046756 36.6643,63.8715686 C36.5985718,63.6879964 36.5651164,63.4945381 36.5654,63.2996732 L36.5654,60.0970588 C36.5654,59.9712418 36.5654,59.8568627 36.5654,59.7470588 C36.5603927,59.6502145 36.5441858,59.5542662 36.5171,59.4611111 C36.4965,59.3877567 36.4586594,59.320325 36.4067,59.2643791 C36.3528325,59.2138512 36.2805473,59.1874071 36.2066,59.1911765 C36.0318798,59.2141826 35.8699369,59.2947168 35.7466,59.4199346 C35.5424188,59.5979697 35.3615958,59.8008736 35.2084,60.0238562 C35.0247448,60.2861828 34.870494,60.5677049 34.7484,60.8633987 C34.6181037,61.1619424 34.5328506,61.4779881 34.4954,61.8013072 L34.4954,64.1140523 C34.4954,64.1895425 34.4954,64.2696078 34.4954,64.3428105 C34.4947485,64.4173301 34.4774658,64.4907758 34.4448,64.5578431 C34.4128783,64.624498 34.3626427,64.6808071 34.2999,64.7202614 C34.212524,64.7695382 34.1126649,64.7925804 34.0124,64.7866013 C33.9197498,64.7858605 33.827363,64.7766717 33.7364,64.7591503 C33.6396251,64.7429766 33.5467755,64.7088311 33.4627,64.6584967 C33.3776162,64.6077531 33.307116,64.5360578 33.258,64.4503268 C33.1979985,64.3403556 33.1693664,64.2161621 33.1752,64.0911765 L33.1453,54.5885621 Z" id="Path" fill="#5E464D"></path>
            <path d="M43.6195,59.7356209 C43.6183779,60.0481071 43.5615306,60.3579177 43.4516,60.6506536 C43.3363775,60.9677824 43.1692969,61.263812 42.9571,61.5267974 C42.724997,61.813259 42.4513741,62.0638179 42.1452,62.2702614 C41.8041055,62.4975161 41.4270132,62.666098 41.0297,62.7689542 C41.0888766,62.9059371 41.1662308,63.0344211 41.2597,63.1509804 C41.3544858,63.2730646 41.4686902,63.3789254 41.5978,63.4643791 C41.7394154,63.5569603 41.8945857,63.6271816 42.0578,63.672549 C42.2537262,63.7278167 42.4567802,63.7540249 42.6604,63.7503268 C42.9633919,63.7584051 43.2643665,63.6990041 43.5413,63.5764706 C43.7764739,63.4670733 43.9869372,63.3114399 44.16,63.1189542 C44.3282987,62.9269069 44.465631,62.7100594 44.5671,62.4761438 C44.6675452,62.2448957 44.7445919,62.0042754 44.7971,61.7578431 C44.8180868,61.6087934 44.9084133,61.478273 45.0409,61.4055556 C45.1574371,61.3467375 45.2915103,61.3321016 45.4181,61.3643791 C45.5465614,61.3952718 45.6627415,61.4638066 45.7516,61.5611111 C45.8425501,61.6573815 45.8848255,61.7894095 45.8666,61.9202614 C45.8380728,62.105165 45.7996853,62.28843 45.7516,62.469281 C45.6924201,62.6860612 45.6107131,62.8961256 45.5078,63.0960784 C45.3917602,63.3176698 45.252198,63.5262662 45.0915,63.7183007 C44.9138963,63.9296255 44.7053272,64.1131624 44.4728,64.2627451 C44.2048507,64.4325354 43.9135494,64.5627591 43.608,64.6493464 C43.2384093,64.752693 42.8556678,64.8020112 42.4718,64.7957516 C42.0786513,64.7949544 41.6889438,64.7228602 41.3218,64.5830065 C40.9548672,64.4448771 40.618254,64.2374746 40.3305,63.9722222 C40.035973,63.6950174 39.8012141,63.3611247 39.6405,62.9908497 C39.4603489,62.5718881 39.3717594,62.1196359 39.3806,61.6640523 C39.3762968,61.1892381 39.4540966,60.7172222 39.6106,60.2686275 C39.7501689,59.8659528 39.9553003,59.4888178 40.2178,59.1522876 C40.4518178,58.8528469 40.7424771,58.601836 41.0734,58.4133987 C41.3722216,58.2420478 41.7105821,58.1506241 42.0555,58.1480392 C42.2817663,58.1444794 42.506622,58.1840826 42.7179,58.2647059 C42.9071203,58.3358767 43.0782942,58.4475543 43.2193,58.5918301 C43.3568831,58.7371442 43.4626166,58.9092994 43.5298,59.0973856 C43.5959149,59.3035227 43.6262486,59.5193536 43.6195,59.7356209 L43.6195,59.7356209 Z M40.7974,61.6068627 C40.7939748,61.6533145 40.7939748,61.6999534 40.7974,61.7464052 C40.7974,61.7921569 40.7974,61.8424837 40.7974,61.8928105 C41.0145966,61.8035367 41.217587,61.6833248 41.4,61.5359477 C41.5779905,61.3948882 41.7331337,61.2274666 41.86,61.0395425 C42.1190886,60.6588477 42.2562048,60.2090465 42.2533,59.7493464 C42.2616459,59.606141 42.2272371,59.4636779 42.1544,59.3398693 C42.0979032,59.2462745 41.9950137,59.1902969 41.8853,59.1934641 C41.7474096,59.1917495 41.6132239,59.2378543 41.5058,59.3238562 C41.3874759,59.4197201 41.2883793,59.5369074 41.2137,59.669281 C41.1274297,59.8203988 41.0587534,59.9808016 41.009,60.1473856 C40.9552969,60.3240191 40.9115291,60.5034911 40.8779,60.6849673 C40.8448141,60.8550486 40.8217747,61.0269116 40.8089,61.1996732 C40.7974698,61.3350855 40.7936305,61.4710258 40.7974,61.6068627 L40.7974,61.6068627 Z" id="Shape" fill="#5E464D"></path>
            <path d="M38.9252,36.6722222 C39.4381,36.6722222 39.6152,36.553268 39.859,36.1392157 C40.1028,35.7251634 39.9855,35.0526144 39.9763,34.8696078 C39.9533,34.4669935 39.8176,34.0186275 39.7992,33.7944444 C39.7992,33.6571895 39.7992,32.7810458 39.8199,32.4218954 C40.1281,26.7395425 42.5799,25.3875817 43.2883,25.2343137 C43.7401068,25.1018619 44.2246268,25.1343133 44.6545,25.325817 L44.6545,16.6330065 L44.6545,16.6330065 L44.6545,16.5094771 L44.6545,14.2035948 C44.6545,12.9477124 43.7575,11.4035948 42.6627,10.7722222 L24.7549,0.478104575 C23.6509,-0.157843137 21.85,-0.157843137 20.7644,0.47124183 L2.875,10.751634 C1.7825,11.380719 0.8855,12.9248366 0.8878,14.1830065 L0.8878,16.4294118 C0.88688495,16.4423463 0.88688495,16.4553661 0.8878,16.4683007 L0.8878,19.7486928 C0.9913,19.8058824 1.0948,19.8653595 1.1983,19.9294118 C1.5456,20.1581699 1.8883,20.2839869 2.2379,20.524183 C3.23410602,21.1279631 4.15978405,21.8399557 4.9979,22.6470588 C5.1612,22.8026144 5.7063,23.4843137 5.8351,23.6444444 C6.23096539,24.1870197 6.67595693,24.6923981 7.1645,25.1542484 C7.43440334,25.3990183 7.73148904,25.612379 8.05,25.7901961 C8.5767,26.0624183 9.4461,26.0006536 9.89,25.8062092 C13.2986,24.3375817 15.4376,25.074183 16.4243,25.6643791 C18.8646,27.1215686 19.6788,29.1598039 19.9387,31.6349673 C19.9728253,31.9555605 19.9835868,32.278189 19.9709,32.6003268 C19.9709,33.1882353 19.9502,34.1330065 20.5735,34.2908497 C21.4682,34.5196078 21.6844,33.5679739 21.8178,32.9366013 C22.1191,31.5068627 24.0327,30.5689542 25.4334,31.2895425 C26.3994,31.7859477 26.795,32.0673203 27.7495,31.6486928 C28.9432,31.1248366 29.5596,29.7911765 29.9759,29.0820261 C30.3871785,28.3915423 30.9826415,27.8277982 31.6963,27.453268 C33.5593,26.2980392 38.2421,26.5977124 38.4123,31.7310458 C38.4123,32.0101307 38.4123,32.7238562 38.4123,33.1584967 C38.4123,33.6480392 38.4284,34.1261438 38.3962,34.6316993 C38.3755,34.9679739 38.3157,35.3179739 38.2835,35.6633987 C38.2743,35.6633987 38.0995,36.6676471 38.9252,36.6722222 Z" id="Path" fill="#E4A663"></path>
            <path d="M44.6499,25.3349673 C44.5234,25.2960784 44.1554,25.0558824 43.2883,25.2434641 C42.5776,25.396732 40.1281,26.7486928 39.8199,32.4310458 C39.8015,32.7810458 39.79,33.6571895 39.7992,33.8035948 C39.8176,34.0323529 39.9533,34.4761438 39.9763,34.8787582 C39.9763,35.0617647 40.1166,35.7251634 39.859,36.148366 C39.6014,36.5715686 39.4381,36.6836601 38.9252,36.6813725 C38.0995,36.6813725 38.2743,35.672549 38.2743,35.672549 C38.3065,35.3316993 38.3663,34.9862745 38.387,34.6408497 C38.4192,34.1352941 38.4031,33.6571895 38.4031,33.1676471 C38.4031,32.7330065 38.4031,32.0238562 38.4031,31.7401961 C38.2329,26.6068627 33.5501,26.3071895 31.6871,27.4624183 C30.9734415,27.8369485 30.3779785,28.4006926 29.9667,29.0911765 C29.5504,29.8003268 28.934,31.1339869 27.7403,31.6578431 C26.7858,32.0764706 26.3902,31.795098 25.4242,31.2986928 C24.0235,30.5781046 22.1099,31.5160131 21.8086,32.9457516 C21.6752,33.5771242 21.459,34.5264706 20.5643,34.3 C19.941,34.1421569 19.9617,33.1973856 19.9617,32.6094771 C19.9743868,32.2873394 19.9636253,31.9647108 19.9295,31.6441176 C19.6696,29.1689542 18.8554,27.130719 16.4151,25.6735294 C15.4284,25.0833333 13.2894,24.346732 9.8808,25.8153595 C9.4208,26.0098039 8.5606,26.0715686 8.0408,25.7993464 C7.72228904,25.6215294 7.42520334,25.4081686 7.1553,25.1633987 C6.66675693,24.7015484 6.22176539,24.19617 5.8259,23.6535948 C5.6971,23.4934641 5.152,22.8117647 4.9887,22.6562092 C4.15058405,21.849106 3.22490602,21.1371134 2.2287,20.5333333 C1.8791,20.3045752 1.5387,20.1581699 1.1891,19.9385621 C1.0856,19.8745098 0.9821,19.8150327 0.8786,19.7578431 L0.8786,34.7575163 C0.8786,36.0156863 1.7756,37.5598039 2.8704,38.1888889 L20.7782,48.4830065 C21.873,49.1143791 23.6647,49.1143791 24.7595,48.4830065 L42.6696,38.2026144 C43.7644,37.5735294 44.6591,36.0294118 44.6568044,34.7712418 L44.6499,25.3349673 Z" id="Path" fill="#5E464D"></path>
            <path d="M25.0424,22.8140523 C23.805,23.5254902 21.7787,23.5254902 20.5413,22.8140523 L2.2287,13.2062092 C2.4357,13.4098039 20.7989,24.0196078 20.7989,24.0196078 C21.8937,24.6509804 23.6854,24.6509804 24.7802,24.0196078 C24.7802,24.0196078 43.1181,13.4418301 43.3251,13.2382353 L25.0424,22.8140523 Z" id="Path" fill="#FFFFFF"></path>
            <path d="M20.5114,1.84836601 C21.7511,1.14379085 23.7751,1.14379085 25.0148,1.85065359 L27.2343,2.76568627 C27.0273,2.5620915 24.7549,1.09803922 24.7549,1.09803922 C23.6601,0.468954248 21.8707,0.466666667 20.7759,1.09803922 C20.7759,1.09803922 17.1465,3.21862745 16.9418,3.41993464 L20.5114,1.84836601 Z" id="Path" fill="#FFFFFF"></path>
        </g>
    </g>
</svg>