<?xml version="1.0" encoding="UTF-8"?>
<svg width="180px" height="70px" viewBox="0 0 180 70" version="1.1" xmlns="http://www.w3.org/2000/svg" xmlns:xlink="http://www.w3.org/1999/xlink">
    <!-- Generator: Sketch 55.2 (78181) - https://sketchapp.com -->
    <title>gnosis</title>
    <desc>Created with Sketch.</desc>
    <g id="Zeppelin-Desktop" stroke="none" stroke-width="1" fill="none" fill-rule="evenodd">
        <rect id="Rectangle-Copy-27" fill="#F8F8FA" opacity="0" x="0" y="0" width="180" height="70"></rect>
        <g id="gnosis-copy" transform="translate(10.000000, 21.000000)" fill="#00A6C4" fill-rule="nonzero">
            <g id="Group" transform="translate(78.624642, 7.466667)">
                <path d="M12.974212,7.53666667 L12.974212,12.81 C11.5530086,13.9066667 9.44412607,14.6766667 7.51862464,14.6766667 C3.36962751,14.6766667 0.137535817,11.5033333 0.137535817,7.42 C0.137535817,3.33666667 3.41547278,0.21 7.67908309,0.21 C9.69627507,0.21 11.6905444,0.98 13.0888252,2.21666667 L11.7363897,3.99 C10.6590258,2.96333333 9.14613181,2.35666667 7.67908309,2.35666667 C4.81375358,2.35666667 2.56733524,4.57333333 2.56733524,7.42 C2.56733524,10.29 4.83667622,12.5066667 7.70200573,12.5066667 C8.75644699,12.5066667 9.92550143,12.1333333 10.9340974,11.5266667 L10.9340974,7.53666667 L12.974212,7.53666667 Z" id="Path"></path>
                <polygon id="Path" points="27.0945559 14.56 19.5988539 4.29333333 19.5988539 14.56 17.2378223 14.56 17.2378223 0.256666667 19.5759312 0.256666667 27.1174785 10.5466667 27.1174785 0.256666667 29.4555874 0.256666667 29.4555874 14.56"></polygon>
                <path d="M47.7707736,7.39666667 C47.7707736,11.48 44.5157593,14.6533333 40.3209169,14.6533333 C36.1260745,14.6533333 32.8710602,11.48 32.8710602,7.39666667 C32.8710602,3.29 36.1260745,0.186666667 40.3209169,0.186666667 C44.5386819,0.186666667 47.7707736,3.31333333 47.7707736,7.39666667 Z M35.277937,7.39666667 C35.277937,10.2433333 37.5931232,12.4833333 40.3438395,12.4833333 C43.0945559,12.4833333 45.3409742,10.2433333 45.3409742,7.39666667 C45.3409742,4.55 43.0945559,2.35666667 40.3438395,2.35666667 C37.5702006,2.35666667 35.277937,4.57333333 35.277937,7.39666667 Z" id="Shape"></path>
                <path d="M60.7679083,1.61 L59.782235,3.73333333 C58.2464183,2.8 56.7335244,2.40333333 55.6561605,2.40333333 C54.2808023,2.40333333 53.3638968,2.94 53.3638968,3.89666667 C53.3638968,7.02333333 60.9512894,5.34333333 60.9284186,10.5 C60.9284186,13.0666667 58.7277937,14.63 55.6332378,14.63 C53.4326648,14.63 51.3467049,13.72 49.8796562,12.3666667 L50.9111748,10.29 C52.3553009,11.6433333 54.1661891,12.3666667 55.6790831,12.3666667 C57.3295129,12.3666667 58.3151862,11.7366667 58.3151862,10.64 C58.3151862,7.44333333 50.7277937,9.24 50.7277937,4.13 C50.7277937,1.68 52.7908309,0.14 55.8395415,0.14 C57.6733524,0.14 59.4613181,0.746666667 60.7679083,1.61 Z" id="Path"></path>
                <polygon id="Path" points="64.6189112 14.56 64.6189112 0.256666667 66.9799427 0.256666667 66.9799427 14.56"></polygon>
                <path d="M81.1232092,1.61 L80.1375358,3.73333333 C78.6017192,2.8 77.0888252,2.40333333 76.0114613,2.40333333 C74.6361032,2.40333333 73.7191977,2.94 73.7191977,3.89666667 C73.7191977,7.02333333 81.3065903,5.34333333 81.2837195,10.5 C81.2837195,13.0666667 79.0830946,14.63 75.9885387,14.63 C73.7879656,14.63 71.7020057,13.72 70.234957,12.3666667 L71.2664756,10.29 C72.7106017,11.6433333 74.52149,12.3666667 76.034384,12.3666667 C77.6848138,12.3666667 78.6704871,11.7366667 78.6704871,10.64 C78.6704871,7.44333333 71.0830946,9.24 71.0830946,4.13 C71.0830946,1.68 73.1461318,0.14 76.1948424,0.14 C78.0286533,0.14 79.8166189,0.746666667 81.1232092,1.61 Z" id="Path"></path>
            </g>
            <g id="Group">
                <path d="M46.0057307,6.97666667 L44.9971347,8.00333333 C45.7994269,9.28666667 46.0515759,10.8966667 45.5014327,12.4366667 C44.5845272,15.05 41.7421203,16.4266667 39.1518625,15.4933333 C38.7851003,15.3533333 38.4412607,15.19 38.1432665,14.98 L34.9111748,18.27 L32.0916905,15.3766667 C30.7851003,16.2633333 29.1117479,16.52 27.530086,15.96 C24.8710602,14.98 23.495702,12.0166667 24.4584527,9.33333333 C24.5959885,8.91333333 24.8022923,8.54 25.0315186,8.19 L23.8166189,6.95333333 L23.5873926,7.35 C22.3266476,9.45 21.6389026,11.8766667 21.6389026,14.3733333 C21.6160458,21.8166667 27.5759312,27.9066667 34.8882521,27.9066667 L34.9111748,27.9066667 C42.2234957,27.9066667 48.1604585,21.8633333 48.1833811,14.42 C48.1833811,11.9466667 47.5186246,9.52 46.2578797,7.39666667 L46.0057307,6.97666667 Z" id="Path"></path>
                <path d="M26.52149,9.70666667 C26.1776504,10.1733333 25.9713467,10.7566667 25.9713467,11.3866667 C25.9713467,12.9033333 27.1862464,14.14 28.6762178,14.14 C29.2951289,14.14 29.8681948,13.93 30.3266476,13.5566667 L26.52149,9.70666667 Z" id="Path"></path>
                <path d="M39.7936963,13.3233333 C40.2292264,13.6266667 40.7335244,13.79 41.3065903,13.79 C42.7965616,13.79 44.0114613,12.5533333 44.0114613,11.0366667 C44.0114613,10.4766667 43.8510029,9.94 43.5530086,9.49666667 L39.7936963,13.3233333 Z" id="Path"></path>
                <path d="M34.9570201,16.2166667 L24,5.01666667 L24.4355301,4.55 C27.1404011,1.63333333 30.8309456,0 34.7965616,0 L34.8194842,0 C38.8309456,0 42.6819484,1.75 45.3638968,4.78333333 L45.7765043,5.25 L34.9570201,16.2166667 Z M25.7879656,5.01666667 L34.9570201,14.3733333 L44.0114613,5.20333333 C41.5816619,2.73 38.2808023,1.30666667 34.8424069,1.30666667 L34.8194842,1.30666667 C31.4040115,1.30666667 28.217765,2.61333333 25.7879656,5.01666667 Z" id="Shape"></path>
                <g transform="translate(0.000000, 10.733333)" id="Path">
                    <path d="M22.8767908,12.6933333 L21.5931232,12.6 C16.1375358,12.25 8.61891117,10.8733333 3.75931232,6.41666667 C0.756446991,3.68666667 0.183381089,1.09666667 0.160458453,0.98 L0,0.186666667 L19.8510029,0.186666667 L19.7363897,0.933333333 C19.6446991,1.61 19.5988539,2.31 19.5988539,2.98666667 C19.5988539,6.06666667 20.469914,9.05333333 22.1432665,11.5966667 L22.8767908,12.6933333 Z"></path>
                    <path d="M46.8997135,12.6933333 L47.6103152,11.5966667 C49.2836676,9.05333333 50.1547278,6.09 50.1547278,3.03333333 C50.1547278,2.33333333 50.1088825,1.61 50.017192,0.933333333 L49.9255014,0.186666667 L69.7765043,0.186666667 L69.6160458,0.98 C69.5931232,1.09666667 69.0200573,3.68666667 66.0401146,6.41666667 C61.1805158,10.8733333 53.6389685,12.25 48.1833811,12.6 L46.8997135,12.6933333 Z"></path>
                </g>
            </g>
        </g>
    </g>
</svg>