<?xml version="1.0" encoding="UTF-8"?>
<svg width="180px" height="70px" viewBox="0 0 180 70" version="1.1" xmlns="http://www.w3.org/2000/svg" xmlns:xlink="http://www.w3.org/1999/xlink">
    <!-- Generator: Sketch 55.2 (78181) - https://sketchapp.com -->
    <title>golem</title>
    <desc>Created with Sketch.</desc>
    <g id="Zeppelin-Desktop" stroke="none" stroke-width="1" fill="none" fill-rule="evenodd">
        <rect id="Rectangle-Copy-28" fill="#F8F8FA" opacity="0" x="0" y="0" width="180" height="70"></rect>
        <g id="golem" transform="translate(36.000000, 16.000000)" fill="#273B5A" fill-rule="nonzero">
            <path d="M85.2704925,7.79923322 L85.2704925,24.1863861 L86.8888066,24.1863861 L86.8888066,9.40581688 L95.2451972,9.40581688 L95.2451972,24.1863861 L96.8635127,24.1863861 L96.8635127,9.40581688 L105.219903,9.40581688 L105.219903,24.1863861 L106.838219,24.1863861 L106.838219,7.79923322 L85.2704925,7.79923322 Z M33.8080731,7.1858104 C31.4541598,7.1858104 29.2179427,8.09133926 27.5407798,9.75634415 C25.863617,11.421349 24.9514756,13.6121448 24.9514756,15.9782043 C24.9514756,18.3150533 25.863617,20.5350597 27.5407798,22.2000646 C29.2179427,23.8650694 31.4247362,24.7705983 33.8080731,24.7705983 C36.161985,24.7705983 38.3982022,23.8650694 40.0753664,22.2000646 C41.7525279,20.5350597 42.6646692,18.3442639 42.6646692,15.9782043 C42.6646692,13.6413554 41.7525279,11.421349 40.0753664,9.75634415 C38.3687785,8.12054988 36.161985,7.1858104 33.8080731,7.1858104 Z M38.9278328,21.0900614 C37.5743333,22.46296 35.7500506,23.1932254 33.8080731,23.1932254 C31.8660943,23.1932254 30.041813,22.4337494 28.6883121,21.0900614 C27.3348126,19.7171626 26.5697911,17.9353153 26.5697911,16.007415 C26.5697911,14.0795146 27.3348126,12.2684567 28.6883121,10.9247686 C30.041813,9.55186983 31.8660943,8.82160456 33.8080731,8.82160456 C35.7500506,8.82160456 37.5743333,9.58108046 38.9278328,10.9247686 C40.2813337,12.2976673 41.0463552,14.0795146 41.0463552,16.007415 C41.0463552,17.9061046 40.2813337,19.7171626 38.9278328,21.0900614 Z M75.4429063,9.78555476 C73.7657434,8.12054987 71.55895,7.21502101 69.175613,7.21502101 C66.8216997,7.21502101 64.5854825,8.12054987 62.9083197,9.78555476 C61.2311568,11.4505597 60.3190155,13.6413554 60.3190155,16.007415 C60.3190155,18.3442639 61.2311568,20.5642703 62.9083197,22.2292751 C64.5854825,23.89428 66.792276,24.7998089 69.175613,24.7998089 C71.55895,24.7998089 73.7657434,23.89428 75.4429063,22.2292751 L74.295374,21.0900614 C72.9418731,22.46296 71.1175904,23.1932254 69.175613,23.1932254 C67.2336355,23.1932254 65.4093528,22.4337494 64.0558519,21.0900614 C62.7023525,19.7171626 61.937331,17.9353153 61.937331,16.007415 L78.0322105,16.007415 C78.0322105,13.6413554 77.1200691,11.421349 75.4429063,9.78555476 Z M64.085277,10.8955579 C65.4387765,9.52265922 67.2630592,8.79239393 69.2050367,8.79239393 C71.1470155,8.79239393 72.9712968,9.55186983 74.3247977,10.8955579 C75.2957864,11.8595082 75.9725369,13.0863538 76.2667752,14.3716207 L62.1432982,14.3716207 C62.4375379,13.0863538 63.0848632,11.8887188 64.085277,10.8955579 Z M19.6551725,4.11869617 L14.5059877,9.23055318 C12.9170959,7.91607568 10.9456948,7.1858104 8.85659751,7.1858104 C6.50268421,7.1858104 4.26646706,8.09133926 2.58930421,9.75634415 C0.912141351,11.421349 0,13.6413554 0,15.9782043 C0,18.3150533 0.912141351,20.5350597 2.58930421,22.2000646 C4.06049984,23.6605951 5.97305361,24.566124 8.03272722,24.7413876 L8.03272722,31.2261433 C5.97305361,31.4014071 4.06049984,32.2777254 2.58930421,33.7674667 C0.912141351,35.4324714 0,37.6524779 0,39.9893268 C0,42.3261757 0.912141351,44.5461821 2.58930421,46.2111869 C4.26646706,47.8761918 6.47326052,48.7817207 8.85659751,48.7817207 C11.2105094,48.7817207 13.4467265,47.8761918 15.1238894,46.2111869 C16.8010523,44.5461821 17.7131936,42.3553863 17.7131936,39.9893268 C17.7131936,37.6232672 16.8010523,35.4324714 15.1238894,33.7674667 C13.6526938,32.3069361 11.74014,31.4014071 9.68046639,31.2261433 L9.68046639,24.7413876 C11.74014,24.566124 13.6526938,23.6898057 15.1238894,22.2000646 C16.8010523,20.5350597 17.7131936,18.3442639 17.7131936,15.9782043 C17.7131936,13.904251 16.9775958,11.9179294 15.65352,10.3405564 L20.8027047,5.22869935 L19.6551725,4.11869617 Z M13.9763571,34.9066804 C15.3298566,36.2795792 16.0948795,38.0614264 16.0948795,39.9893268 C16.0948795,41.9172271 15.3298566,43.728285 13.9763571,45.0719731 C12.6228577,46.4448718 10.798575,47.1751371 8.85659751,47.1751371 C6.91461865,47.1751371 5.09033595,46.4156612 3.73683647,45.0719731 C2.38333699,43.6990743 1.61831548,41.9172271 1.61831548,39.9893268 C1.61831548,38.0614264 2.38333699,36.2503685 3.73683647,34.9066804 C5.09033595,33.5337817 6.91461865,32.8035164 8.85659751,32.8035164 C10.798575,32.8035164 12.6228577,33.5337817 13.9763571,34.9066804 Z M16.0948795,16.007415 C16.0948795,17.9353153 15.3298566,19.7463732 13.9763571,21.0900614 C12.6228577,22.46296 10.798575,23.1932254 8.85659751,23.1932254 C6.91461865,23.1932254 5.09033595,22.4337494 3.73683647,21.0900614 C2.38333699,19.7171626 1.61831548,17.9353153 1.61831548,16.007415 C1.61831548,14.0795146 2.38333699,12.2684567 3.73683647,10.9247686 C5.09033595,9.55186983 6.91461865,8.82160456 8.85659751,8.82160456 C10.798575,8.82160456 12.6228577,9.58108046 13.9763571,10.9247686 C15.3592817,12.2684567 16.0948795,14.0795146 16.0948795,16.007415 Z M50.6973979,23.9819118 L52.3157119,23.9819118 L52.3157119,0 L50.6973979,0 L50.6973979,23.9819118 Z" id="logo_04"></path>
        </g>
    </g>
</svg>