<?xml version="1.0" encoding="UTF-8"?>
<svg width="180px" height="70px" viewBox="0 0 180 70" version="1.1" xmlns="http://www.w3.org/2000/svg" xmlns:xlink="http://www.w3.org/1999/xlink">
    <!-- Generator: Sketch 55.2 (78181) - https://sketchapp.com -->
    <title>infura</title>
    <desc>Created with Sketch.</desc>
    <g id="Zeppelin-Desktop" stroke="none" stroke-width="1" fill="none" fill-rule="evenodd">
        <rect id="Rectangle-Copy-23" fill="#F8F8FA" opacity="0" x="0" y="0" width="180" height="70"></rect>
        <g id="infura_lockup_red-copy" transform="translate(40.000000, 12.000000)" fill="#FF6B4A" fill-rule="nonzero">
            <polygon id="Path" points="41.158042 0.066125 41.158042 2.42947414 46.8474525 1.84793103 48.9476523 1.84793103 48.9476523 5.67356466 45.4113886 6.74693103 40.6202797 7.89375862 41.3315684 10.2043664 45.9230769 8.45359052 48.9476523 7.53656466 48.9476523 13.8162586 46.8474525 13.8162586 41.158042 13.2344181 41.158042 15.5977672 58.5327672 15.5977672 58.5327672 13.2344181 52.8431568 13.8162586 50.7430569 13.8162586 50.7430569 7.53656466 53.7524476 8.4488319 58.3594406 10.2043664 59.0703297 7.89375862 54.2923077 6.75030172 50.7430569 5.67356466 50.7430569 1.84793103 52.8431568 1.84793103 58.5327672 2.42947414 58.5327672 0.066125"></polygon>
            <polygon id="Path" points="35.9745255 30.2402414 35.9745255 45.7716853 38.0576424 45.7716853 38.0576424 38.4185259 47.0804196 38.4185259 47.0804196 36.3761853 38.0576424 36.3761853 38.0576424 32.3071681 48.2167832 32.3071681 48.2167832 30.2402414"></polygon>
            <path d="M62.3934066,39.8722845 C62.3934066,40.0390345 62.3474525,43.9537931 58.3685315,43.9537931 C54.6653347,43.9537931 54.3517483,40.8286681 54.3437562,39.8722845 L54.3437562,30.2402414 L52.2606394,30.2402414 L52.2606394,39.8722845 C52.2606394,42.6826466 53.8604396,45.9643103 58.3685315,45.9643103 C62.8764236,45.9643103 64.4763237,42.6824483 64.4763237,39.8722845 L64.4763237,30.2402414 L62.3934066,30.2402414 L62.3934066,39.8722845 Z" id="Path"></path>
            <path d="M82.3555445,35.1499483 C82.3555445,32.7065948 80.6431568,30.2405388 76.8180819,30.2405388 L70.1135864,30.2405388 L70.1135864,45.7716853 L72.1962038,45.7716853 L72.1962038,40.0589612 L76.2020979,40.0589612 L79.7181818,45.7716853 L82.2294705,45.7716853 L78.563037,39.8474009 C79.5503497,39.6170043 82.3555445,38.6530862 82.3555445,35.1499483 Z M72.1961039,37.9925302 L72.1961039,32.2882328 L76.8182817,32.2882328 C78.1091908,32.2882328 80.2743257,32.6600991 80.2743257,35.1499483 C80.2743257,37.4992198 78.395005,37.9925302 76.8182817,37.9925302 L72.1961039,37.9925302 Z" id="Shape"></path>
            <polygon id="Path" points="27.3938062 30.2402414 27.3938062 42.5834095 26.9390609 42.5834095 19.5886114 30.2402414 16.8935065 30.2402414 16.8935065 45.7716853 18.9762238 45.7716853 18.9762238 33.8190216 19.4307692 33.8190216 26.4483516 45.7716853 29.4762238 45.7716853 29.4762238 30.2402414"></polygon>
            <polygon id="Path" points="0.0665334665 30.2402414 0.0665334665 32.1574698 4.69170829 32.1574698 4.69170829 43.8548534 0.0665334665 43.8548534 0.0665334665 45.7716853 11.3994006 45.7716853 11.3994006 43.8548534 6.77442557 43.8548534 6.77442557 32.1574698 11.3994006 32.1574698 11.3994006 30.2402414"></polygon>
            <path d="M94.2808192,30.2272543 L91.7854146,30.2272543 L86.0993007,45.7716853 L88.2885115,45.7716853 L90.0021978,41.0647155 L96.061039,41.0647155 L97.7771229,45.7716853 L99.9666334,45.7716853 L94.2808192,30.2272543 Z M90.7342657,39.0538017 L92.7814186,33.4309957 L93.2784216,33.4309957 L95.3283716,39.0538017 L90.7342657,39.0538017 Z" id="Shape"></path>
        </g>
    </g>
</svg>