<?xml version="1.0" encoding="UTF-8"?>
<svg width="180px" height="70px" viewBox="0 0 180 70" version="1.1" xmlns="http://www.w3.org/2000/svg" xmlns:xlink="http://www.w3.org/1999/xlink">
    <!-- Generator: Sketch 55.2 (78181) - https://sketchapp.com -->
    <title>numerai</title>
    <desc>Created with Sketch.</desc>
    <g id="Zeppelin-Desktop" stroke="none" stroke-width="1" fill="none" fill-rule="evenodd">
        <rect id="Rectangle-Copy-26" fill="#F8F8FA" opacity="0" x="0" y="0" width="180" height="70"></rect>
        <g id="numerai-copy" transform="translate(64.000000, 5.000000)" fill-rule="nonzero">
            <path d="M51.997927,40.1141415 C51.9998779,33.3663102 51.9998779,26.6185788 51.997927,19.8709475 C52.0248766,19.1810465 51.6828239,18.4944451 51.1361319,18.0877035 C43.1973514,12.2125469 35.2584721,6.33649038 27.319494,0.459534033 C26.8337168,0.0748028328 26.207393,-0.0783224247 25.601827,0.0395943162 C25.2319363,0.113083767 24.898472,0.299956941 24.601434,0.526124474 C16.7191193,6.36168677 8.83640968,12.1967491 0.953305199,18.0313116 C0.35523329,18.4525317 0.000148074744,19.144838 0.00355379385,19.8826458 C-0.000987164957,26.6288774 -0.000987164957,33.374609 0.00355379385,40.1198407 C-0.0068114382,40.8505358 0.367817663,41.559634 0.960708936,41.971175 C8.84302369,47.8037377 16.723759,53.6374002 24.6029148,59.4721627 C25.3572075,60.1254689 26.5397324,60.1770615 27.3180133,59.5402529 C35.2315225,53.687893 43.1421688,47.8325335 51.0499524,41.9741745 C51.6455091,41.5677329 52.0307995,40.8460365 51.997927,40.1141415" id="Path" fill="#050708"></path>
            <g id="Group" transform="translate(1.806512, 4.289384)" fill="#FFFFFF">
                <path d="M21.4483305,0.579816766 C21.657412,0.339851214 21.869455,-0.0341950912 22.2369765,0.0155977609 C23.4870235,0.0230966844 24.740032,-0.00419939717 25.9897828,0.0290958232 C26.2062681,0.165276274 26.3721118,0.369546951 26.5572053,0.545021761 C26.5526643,1.85183417 26.5526643,3.15874656 26.5572053,4.46575893 C26.1852415,4.47025829 25.8120932,4.48705587 25.4401294,4.46125958 C25.417622,4.36887284 25.3729035,4.18739889 25.3512845,4.09531211 C25.3512845,3.11955218 25.4347987,2.14259243 25.354246,1.16833228 C24.4357878,1.16993205 23.5177244,1.16993205 22.6000558,1.16833228 C22.5956136,1.49648518 22.5941328,1.82643781 22.5911713,2.1545907 C22.2044001,2.1545907 21.8161481,2.1545907 21.4278961,2.15159113 C21.4305615,1.6293661 21.3737008,1.09844232 21.4483305,0.579816766 M18.3316533,2.17408791 C18.7542586,2.15759027 19.1768639,2.15759027 19.60095,2.16808877 C19.6068729,3.97562929 19.6142767,5.78167003 19.5965077,7.58771077 C19.1931521,7.59670948 18.7900927,7.59670948 18.3882178,7.59370991 C18.2540621,5.79366831 18.3612682,3.98012864 18.3316533,2.17408791 M29.0818796,4.1163091 C30.2072477,4.10131125 31.3308388,4.1058106 32.4556146,4.11330953 C32.4615376,4.53084959 32.4615376,4.94688986 32.4570953,5.36412997 C31.3317273,5.37612825 30.2063592,5.3806276 29.0809912,5.3611304 C29.0768451,4.94658991 29.0768451,4.5293498 29.0818796,4.1163091 M22.2580032,4.73182074 C22.7120003,4.72132224 23.1659975,4.72282203 23.6202908,4.72282203 C24.0547421,5.57889914 24.5999533,6.37768447 24.9529635,7.27455572 C24.5362812,7.29435288 24.1181181,7.29435288 23.7014358,7.29585267 C23.2062738,6.44907422 22.7282885,5.5923972 22.2580032,4.73182074 M26.8933349,6.23700467 C27.2860291,6.22800596 27.6787234,6.22950574 28.0731945,6.23550488 C29.1425903,7.91526375 30.1817788,9.61481977 31.2585784,11.2906792 C31.2570976,11.800606 31.2600591,12.3105328 31.2496939,12.8204596 C31.1333071,12.7991627 30.903199,12.7583685 30.788293,12.7388713 C29.8743757,11.3590694 29.0336073,9.93007452 28.1300552,8.54427345 C28.1152477,10.1040495 28.1344974,11.6638256 28.11969,13.2236017 C27.7104114,13.2312006 27.3002443,13.2312006 26.8891888,13.2236017 C26.8844504,10.8956359 26.8770467,8.56617031 26.8933349,6.23700467 M31.7738785,7.18216899 C32.1920416,7.17317028 32.6116854,7.17317028 33.0298485,7.18516855 C33.0328099,7.58441124 33.0328099,7.98545367 33.0298485,8.38499632 C32.6116854,8.39549481 32.1920416,8.39549481 31.7753592,8.38799589 C31.7723977,7.98705344 31.7719041,7.58511114 31.7738785,7.18216899 M11.1005712,7.57691232 C11.4304818,7.57091318 11.7606884,7.57241296 12.090599,7.57541253 C12.9716437,7.51542115 13.8512077,7.53311861 14.7325485,7.58441124 C14.73551,7.97165565 14.7340293,8.36039985 14.729587,8.74764426 C13.4265293,9.5401305 12.1744093,10.4190043 10.8526941,11.1772955 C10.4629614,11.027317 10.1656273,10.7114623 9.84756275,10.4481002 C10.7123192,9.9141768 11.5590106,9.35145758 12.4326516,8.83253207 C11.9905004,8.80973534 11.5471647,8.81273491 11.1050135,8.80823556 C11.097511,8.39689461 11.0960303,7.98645353 11.1005712,7.57691232 M21.524737,8.03674631 C21.9295734,8.02474803 22.3355943,8.02624782 22.7389499,8.03674631 C22.7493152,8.44828723 22.7493152,8.85802841 22.7404307,9.26956933 C22.335693,9.28176758 21.9309554,9.28226751 21.5262178,9.27106912 C21.516741,8.85972817 21.5162474,8.44828723 21.524737,8.03674631 M15.5836822,9.24077347 C16.2319534,10.2360306 16.8606788,11.2450857 17.5175383,12.2343437 C18.1732133,11.2330875 18.8063809,10.2165334 19.4679788,9.21977648 C19.4679788,9.87968175 19.5112167,10.546486 19.4546521,11.2057914 C18.8543571,12.2478418 18.1598866,13.2326004 17.5130961,14.2461549 C16.876967,13.249398 16.2032269,12.2736381 15.5999704,11.257384 C15.5315599,10.58848 15.5807207,9.91237706 15.5836822,9.24077347 M33.5300449,9.40874936 C35.4759445,9.39975065 37.4218441,9.40025058 39.3677436,9.41024914 C39.3692244,9.80949183 39.3692244,10.2105343 39.3662629,10.6100769 C37.4217453,10.6146762 35.4763394,10.6151762 33.5300449,10.6115767 C33.5285642,10.2105343 33.5270834,9.80859196 33.5300449,9.40874936 M23.2299658,10.9697253 C23.6211792,10.9622264 24.0138735,10.9622264 24.4068638,10.9667257 C24.4264097,12.7151747 24.4053831,14.4654235 24.4172291,16.2159722 C24.2350971,16.391447 24.0544459,16.5699214 23.8767563,16.7483957 C22.5280915,16.7633936 21.1797229,16.7498955 19.8325389,16.7558947 C19.6548492,16.5834194 19.4727172,16.4184431 19.3127965,16.2324698 C19.2440898,15.6970467 19.2947314,15.1508251 19.2932506,14.6127023 C19.6695579,14.6097027 20.0458652,14.6097027 20.4221725,14.6127023 C20.4325377,14.921358 20.431057,15.2297137 20.4266147,15.5383694 C21.3541549,15.6442542 22.2888027,15.5683651 23.2207851,15.5911619 C23.2255235,14.050883 23.2107161,12.5082044 23.2299658,10.9697253 M42.0425658,16.1376834 C42.0305224,14.8178729 42.0305224,13.4973624 42.0425658,12.1761521 C42.4503636,12.1671534 42.8578653,12.1656536 43.2671439,12.1761521 C43.2805694,13.4959626 43.2800758,14.816973 43.2656632,16.1391832 C42.8578653,16.1460822 42.4503636,16.1445824 42.0425658,16.1376834 M36.2318167,13.1738089 C37.0018054,13.1663099 37.7759401,13.0451273 38.5417827,13.1708093 C39.0434599,14.8271715 39.4737651,16.5090301 39.9724809,18.1683919 C39.5783059,18.1713915 39.182354,18.1713915 38.7878829,18.1713915 C38.4114769,16.8842762 38.0904509,15.5818632 37.7021989,14.2974476 C37.4857136,14.3004471 37.2692284,14.3034467 37.0524469,14.3049465 C36.7299401,15.6013604 36.3416882,16.8779771 36.00852,18.1695917 C35.6112848,18.1711915 35.2140496,18.1706916 34.8168145,18.1680919 C35.3057573,16.5090301 35.7641967,14.8391698 36.2318167,13.1738089 M3.31243201,13.8061181 C5.08666359,13.7956196 6.86237592,13.7911203 8.63631134,13.8076179 C8.64667658,14.2206586 8.64667658,14.6318996 8.63779209,15.0449403 C6.86089517,15.0614379 5.08636744,15.0569385 3.31065512,15.0464401 C3.30502828,14.6333993 3.30502828,14.217959 3.31243201,13.8061181 M9.47293365,13.8076179 C9.87628925,13.8046183 10.2793487,13.8031185 10.684185,13.8061181 C10.6930695,14.2206586 10.6930695,14.6363989 10.684185,15.0509394 C10.2793487,15.0554388 9.87628925,15.053939 9.47293365,15.0494396 C9.46819525,14.6348991 9.46819525,14.2218584 9.47293365,13.8076179 M13.9320565,13.8580107 C14.3277122,13.8550111 14.7251448,13.8565109 15.1208005,13.8610102 C15.1326465,14.8208724 15.1267235,15.7834343 15.1267235,16.7441963 C14.7248487,16.7471959 14.3232699,16.7486957 13.923172,16.7456961 C13.9190259,15.7843341 13.9065876,14.8208724 13.9320565,13.8580107 M44.9457192,14.7209868 C45.4011971,14.7119881 45.8581558,14.7134878 46.3136337,14.7119881 C46.7646694,15.5590665 47.3128421,16.3617512 47.6486756,17.2667213 C47.2340663,17.2817192 46.8167917,17.283219 46.4015901,17.2850187 C45.9105742,16.4334409 45.4429542,15.5677652 44.9457192,14.7209868 M26.9889912,15.7477394 C27.3838572,15.7447398 27.7787232,15.7452397 28.1735892,15.7492392 C28.1824736,17.0651503 28.1765507,18.3810614 28.1765507,19.6972724 C27.7794142,19.700272 27.3834623,19.7017718 26.9863259,19.7017718 C26.9875105,18.3846608 26.984549,17.0657502 26.9889912,15.7477394 M31.154926,17.3486096 C31.1503851,16.9372686 31.1508787,16.5248278 31.1564068,16.1112872 C31.555024,16.1052881 31.9560104,16.1052881 32.3555161,16.1157865 C32.3569968,16.5273275 32.3584776,16.9385684 32.3525546,17.3501094 C31.9545297,17.3516091 31.5544317,17.3501094 31.154926,17.3486096 M8.61558088,19.1726477 C9.57273602,18.4647493 10.5944518,17.8492377 11.5770758,17.1806337 C12.2268277,17.1881326 12.8748028,17.1791339 13.5245548,17.1896324 C12.5596997,17.8885321 11.5338379,18.4920454 10.5630599,19.1816464 C11.5607875,19.8169552 12.5389693,20.4825597 13.5304778,21.1238676 C12.8629568,21.1358659 12.1954359,21.128367 11.5279149,21.1298668 C10.5645407,20.4675618 9.56385154,19.8571495 8.61558088,19.1726477 M42.0440465,18.0247125 C42.4533251,18.0157138 42.8623076,18.014214 43.2730669,18.0232127 C43.2834321,18.4377532 43.2819514,18.850494 43.2701054,19.2650345 C42.8623076,19.2740332 42.4533251,19.2725334 42.0455273,19.2635347 C42.0366428,18.850594 42.0361492,18.4376532 42.0440465,18.0247125 M0.0313918456,18.1941882 C2.07482331,18.1821899 4.12180856,18.1776906 6.16790537,18.1971878 C6.17234761,18.5889315 6.17234761,18.9821751 6.17382836,19.3754186 C5.25991104,19.9819316 4.34599372,20.5914441 3.40660755,21.1541633 C3.00947109,21.0074843 2.70917551,20.6742322 2.37008435,20.4297673 C2.87620382,20.1061137 3.39002318,19.7929587 3.88044673,19.4465084 C2.59752715,19.4405093 1.31490372,19.4540073 0.0305033972,19.4390095 C0.0245804074,19.024469 0.0248765569,18.6095286 0.0313918456,18.1941882 M17.5281997,19.3952158 C19.297989,19.4027147 21.0674822,19.3862171 22.8357908,19.4027147 C22.8789168,19.8103387 22.8734481,20.2217385 22.8195026,20.6280388 C21.0556362,20.6355377 19.2935468,20.6295386 17.5314573,20.6310384 C17.5282984,20.2178977 17.5272125,19.8059568 17.5281997,19.3952158 M23.9916623,19.4027147 C24.4172291,19.393716 24.8413151,19.393716 25.2671781,19.4087138 C25.2687576,19.8110561 25.268264,20.2123985 25.2656973,20.612741 C24.8416113,20.6247393 24.4160445,20.6247393 23.9922546,20.6172404 C23.9881085,20.2119985 23.9881085,19.8079565 23.9916623,19.4027147 M29.5577919,21.1361659 C29.5024119,20.7111269 29.9327171,20.4933581 30.1536446,20.2015 C30.673387,20.2029998 31.1931293,20.1985005 31.7128717,20.208999 C31.7247177,20.6052421 31.7247177,21.0014852 31.7187947,21.3995281 C31.3903649,21.4055272 31.0601582,21.4055272 30.7317284,21.4100265 L30.7317284,24.2326214 C32.2595636,24.2431199 33.7871027,24.2266222 35.3149379,24.2416201 C35.3193801,24.6423625 35.3193801,25.043405 35.3090149,25.4414478 C33.5886825,25.4534461 31.8665733,25.4429476 30.1462409,25.447447 C29.9267941,25.1570886 29.5056696,24.9375202 29.5592726,24.5157807 C29.5517702,23.3897424 29.5512766,22.2632041 29.5577919,21.1361659 M35.3504758,20.7609197 C35.7716004,20.7459219 36.1956865,20.7459219 36.6182918,20.7624195 C36.6228327,21.1707609 36.6223392,21.5792023 36.616811,21.9877436 C36.1942057,22.0027415 35.7730812,22.0027415 35.3504758,21.9892434 C35.3460336,21.5792023 35.3460336,21.1709609 35.3504758,20.7609197 M39.3754435,20.7609197 C41.1555981,20.7366232 42.9342719,20.7534208 44.7144265,20.751921 C44.717388,21.1679613 44.717388,21.5855014 44.7129457,22.0012417 C42.9342719,22.0012417 41.1555981,22.0162395 39.3769243,21.9937428 C39.3710013,21.5824018 39.3705077,21.1714608 39.3754435,20.7609197 M14.7162603,22.1995132 C15.7139879,22.1980134 16.7099387,22.1995132 17.7073701,22.1980134 C17.7162546,22.6179531 17.7162546,23.0378929 17.7058894,23.4578326 C16.7098399,23.4594324 15.7141854,23.4594324 14.7189257,23.4578326 C14.7015516,23.037093 14.7006631,22.6176532 14.7162603,22.1995132 M21.2946289,22.1995132 C22.8597789,22.1980134 24.424929,22.201013 25.9897828,22.1965136 C26.558686,22.1065266 27.1278853,22.7046407 27.055921,23.2733591 C27.0529595,24.4379919 27.0524659,25.6037245 27.0544402,26.770557 C26.8542432,26.9898256 26.6528615,27.2060945 26.4511837,27.4238632 C25.9329221,27.4238632 25.4161413,27.425363 24.8981758,27.4178641 C24.8936349,27.0179215 24.8931413,26.6185788 24.8966951,26.2198361 C25.2206826,26.2153367 25.5449663,26.2123372 25.8689539,26.2078378 C25.8704346,25.2911694 25.8674731,24.3730012 25.8719153,23.4563328 C24.3514839,23.3186526 22.8195026,23.4335361 21.2946289,23.3927419 C21.2906802,22.9935992 21.2906802,22.5958563 21.2946289,22.1995132 M10.2642451,22.5684603 C11.0289031,22.5639609 11.7920803,22.5594615 12.5567383,22.5714598 C13.0196199,24.2458195 13.5168549,25.9111804 13.9545638,27.5933389 C13.5695695,27.5933389 13.1845752,27.5933389 12.8016539,27.5963385 C12.4089597,26.3044239 12.1057026,24.9885128 11.7008662,23.7028974 C11.4829002,23.7163955 11.2649342,23.7328931 11.046672,23.7496907 C10.7570378,25.0446048 10.343317,26.3059237 10.0267332,27.5948387 C9.63107747,27.5933389 9.23512561,27.5933389 8.84213524,27.5903394 C9.31301292,25.9162797 9.78181756,24.2398203 10.2642451,22.5684603 M43.6228195,24.0811431 C44.9554921,24.067645 46.2899417,24.053847 47.6208375,24.0856425 C47.9569672,24.2956123 48.3360385,24.6363634 48.2628896,25.0838992 C48.2628896,26.0437614 48.2569666,27.0063232 48.2628896,27.9670853 C48.2510436,28.428419 48.2717741,28.8897528 48.2584474,29.3510866 C48.279474,29.7278325 48.1778947,30.0982793 48.1992175,30.476525 C47.81985,30.4750252 47.4404825,30.476525 47.061115,30.4720257 C47.0655572,28.7385745 47.061115,27.0036236 47.0640765,25.2701724 C46.1335748,25.2443761 45.2033693,25.2641733 44.2728676,25.2566744 C44.2713868,25.5788281 44.2713868,25.9009819 44.2654638,26.2246354 C43.8741517,26.2306345 43.4828395,26.2326343 43.0915273,26.2306345 C43.0841235,25.6997108 43.0856043,25.1672872 43.087085,24.6363634 C43.2674401,24.4533897 43.4451298,24.2686162 43.6228195,24.0811431 M5.69880458,24.1294362 L6.93670944,24.1294362 C6.93967093,25.4468471 6.93670944,26.7627582 6.93819018,28.0789692 L5.69436234,28.0789692 C5.70028533,26.7630581 5.69584309,25.4456472 5.69880458,24.1294362 M1.81450791,25.2308781 C2.220825,25.2248789 2.62684595,25.2368772 3.0316823,25.2641733 C3.03622326,25.6545172 3.03622326,26.0452612 3.0316823,26.436405 C2.62240371,26.4409044 2.21342127,26.4424041 1.80414268,26.4349052 C1.79970043,26.032363 1.80118118,25.6316205 1.81450791,25.2308781 M16.3604823,32.4505417 C16.3500183,30.1210761 16.3495247,27.7914105 16.3590015,25.4615449 C16.7623571,25.4555458 17.1654166,25.4555458 17.5687722,25.4645445 C18.5164505,27.0120224 19.4937438,28.5427026 20.4615604,30.079382 C20.8797234,30.6253037 20.6288848,31.3574986 20.6961108,31.9928074 C20.5557359,31.9943072 20.415361,31.9958069 20.2764669,31.9988065 C19.4057874,30.5980076 18.4963124,29.2215052 17.6629477,27.7994093 C17.5122076,29.3453874 17.6359981,30.9048635 17.5868373,32.4568408 C17.1766703,32.4610402 16.767984,32.4610402 16.3604823,32.4505417 M21.7373724,26.3575163 C22.148033,26.3485176 22.5586936,26.3475178 22.9693542,26.3545168 C22.9752772,27.3725706 22.9737965,28.3906245 22.970835,29.4083784 C22.5585949,29.4158773 22.1478355,29.4158773 21.7358916,29.4053788 C21.7290802,28.3891247 21.7275994,27.3725706 21.7373724,26.3575163 M29.1828666,27.7190209 C29.5847415,27.7160213 29.9878009,27.7145215 30.3911565,27.7190209 C30.398659,28.1335614 30.398659,28.5480019 30.3911565,28.9623424 C29.9879984,28.9639422 29.585235,28.9634422 29.1828666,28.9608426 C29.1783257,28.5479019 29.1783257,28.1339613 29.1828666,27.7190209 M33.1000359,27.7733131 C34.3515636,27.7568155 35.6030913,27.7658142 36.8560998,27.7688137 C36.9067414,28.1392606 36.9381332,28.5160065 36.9022991,28.8912526 C36.7838394,29.1348176 36.5004243,29.0379315 36.2883813,29.0607283 C35.2222431,29.0289328 34.1528473,29.1228194 33.0941129,29.0007369 C33.0867092,28.5900958 33.0867092,28.1818544 33.1000359,27.7733131 M38.1493846,27.9487879 C38.5527402,27.9427888 38.9602419,27.9154927 39.3621168,27.9787836 C39.4009124,29.4095782 39.378405,30.8451721 39.3710013,32.2777665 C38.9633021,32.2853654 38.5560966,32.2848654 38.1493846,32.2762667 C38.1359592,30.8338737 38.1359592,29.3913808 38.1493846,27.9487879 M26.9889912,28.7958663 C27.3831662,28.7943665 27.779118,28.7928667 28.1735892,28.7973661 C28.1780314,29.208907 28.1795122,29.6216478 28.1735892,30.0361882 C27.7787232,30.0421874 27.3838572,30.0421874 26.9889912,30.0361882 C26.9860297,29.6234475 26.9860297,29.208907 26.9889912,28.7958663 M8.00166299,29.6762399 C9.40837306,29.522062 10.828706,29.6444445 12.2413391,29.599151 C12.6053564,29.5945704 12.9693326,29.6111954 13.3314653,29.6489438 C13.3373883,30.0649841 13.3359076,30.4825242 13.3329461,30.8982645 C11.5560491,30.8952649 9.78300216,30.9072632 8.00906673,30.8922654 C7.9987015,30.4870235 7.9987015,30.0817817 8.00166299,29.6762399 M0.0328725931,30.5956079 C0.225665909,30.4051353 0.419643823,30.2128629 0.613917887,30.0223902 C1.12773725,30.0193907 1.64126046,30.0178909 2.15389522,30.0283894 C2.15981821,30.4216329 2.15981821,30.8163762 2.15685671,31.2096198 C1.83731142,31.2171187 1.51924687,31.2186185 1.19970157,31.2216181 C1.20710531,32.1595834 1.19525933,33.0972488 1.20710531,34.0352142 C2.71983689,34.0397135 4.23286462,34.0247157 5.7455962,34.0427131 C5.75299994,34.4299575 5.75299994,34.8157021 5.75003844,35.2029465 C5.37511319,35.2044463 4.99870719,35.2059461 4.62467039,35.2059461 C3.28222477,35.1924481 1.93800224,35.2287428 0.595556619,35.1894485 C0.371667606,35.060767 0.146001697,34.8489974 0.0444224231,34.6087318 C0.0091806341,33.2718238 0.0402763303,31.9331159 0.0328725931,30.5956079 M31.4170183,31.375496 C31.6186961,31.1835235 31.8218547,30.9912511 32.0294555,30.8037781 C33.3375478,30.8142765 34.6459362,30.8052778 35.9540285,30.8082774 C36.151264,30.9987501 36.3482035,31.1910225 36.5463275,31.3799953 C36.5479069,32.6914071 36.5484005,34.0023189 36.5478082,35.3127308 C36.149191,35.3157304 35.7502776,35.3142306 35.3531412,35.3022323 C35.3516604,34.1995906 35.3442567,33.0984487 35.3575834,31.9958069 C34.43952,31.9943072 33.5253065,31.9958069 32.6096123,31.9943072 C32.6110931,32.329959 32.6096123,32.6659107 32.6022086,33.0015626 C32.2095144,33.0075617 31.8168202,33.0075617 31.4253105,33.0060619 C31.4125761,32.4625399 31.4155376,31.9196179 31.4170183,31.375496 M39.8158178,33.6908636 C41.2669503,32.7334011 42.7325941,31.8011349 44.1958687,30.8652692 C44.5453251,31.1013353 44.8888585,31.3493997 45.2294304,31.5974641 C44.1765203,32.2773665 43.1242024,32.9555692 42.0724769,33.632072 C43.6180811,33.6485697 45.1639814,33.6305723 46.7110663,33.6410708 C46.7140278,34.057111 46.7140278,34.4746511 46.7095856,34.8903914 C44.4126501,34.8979903 42.1158134,34.8984903 39.8190754,34.8918912 C39.8128563,34.4908488 39.8128563,34.0901063 39.8158178,33.6908636 M23.392848,33.9281295 C24.849015,32.9463705 26.3513814,32.0357012 27.8072522,31.0542421 C28.1537471,31.2963074 28.4957998,31.542872 28.8482177,31.7756385 C27.8413094,32.4925356 26.7725059,33.1173459 25.746348,33.8084467 C27.2830677,33.8357428 28.8197873,33.8054472 30.356507,33.8249444 C30.3668723,34.2529829 30.3668723,34.6825213 30.3550263,35.1105598 C28.0551294,35.1240579 25.7552324,35.1150592 23.4547432,35.1150592 C23.3958095,34.7224155 23.3958095,34.3246726 23.392848,33.9281295 M8.27648972,32.8692815 C8.91558031,33.8591395 9.5564478,34.8489974 10.1881347,35.8415549 C10.8660208,34.8612956 11.472535,33.8318434 12.1444982,32.8464848 C12.1578249,33.5135891 12.1474597,34.1821931 12.1533827,34.8492973 C11.484381,35.8415549 10.8719438,36.8731068 10.1851732,37.8518663 C9.54904406,36.8686074 8.93216468,35.8721505 8.26908598,34.906889 C8.26256948,34.2277865 8.25575925,33.5471842 8.27648972,32.8692815 M15.2813135,35.409017 C15.2665061,34.9854778 15.2650253,34.5619386 15.2887173,34.1398991 C15.6905921,34.1353998 16.0951323,34.1368996 16.4970072,34.1698948 C16.5058917,34.5828356 16.5053981,34.9957763 16.4955264,35.408717 C16.0915785,35.4120165 15.6867422,35.4135163 15.2813135,35.409017 M20.9750836,36.0203292 C21.3828814,36.0158299 21.7918639,36.0143301 22.1996617,36.0188294 C22.2100269,37.5570086 22.1996617,39.0954878 22.2055847,40.633667 C21.9159505,40.6456652 21.6260201,40.6594633 21.336386,40.6864594 C21.2436912,40.668162 21.0585977,40.6351667 20.9659029,40.6183692 C20.9750836,39.0861891 20.9584992,37.5525093 20.9750836,36.0203292 M29.4111979,36.9846908 C30.1811865,36.9696929 30.9493983,36.9801914 31.7184985,36.9756921 C32.1903634,38.6502517 32.6628205,40.3247113 33.13587,41.9990709 C32.7387335,42.0005707 32.3413009,42.0005707 31.9456452,41.9900722 C31.6080348,40.7104559 31.2422901,39.4383385 30.8987567,38.160222 C30.6837522,38.146724 30.4687477,38.1374253 30.2537432,38.1269268 C29.8983638,39.4187414 29.5439716,40.710056 29.1905665,42.0008707 C28.79343,41.9993709 28.3974782,41.9993709 28.0018225,41.9948716 C28.4854346,40.3280108 28.9663813,38.6611501 29.4111979,36.9846908 M11.975693,39.7592925 C13.4407445,38.8063293 14.9028345,37.8473669 16.3883203,36.9261992 C16.730373,37.1697642 17.0753871,37.4061303 17.4141821,37.6553945 C16.3510055,38.3254983 15.3085593,39.0303971 14.2347212,39.6822035 C15.7909868,39.7121992 17.348437,39.6777042 18.9061833,39.7005009 C18.913587,40.1150414 18.9150677,40.5292819 18.9032218,40.9438224 C16.5959211,40.9513214 14.2886205,40.9621198 11.9813198,40.9393231 C11.96977,40.5457796 11.9712507,40.152536 11.975693,39.7592925 M24.0769533,37.2303555 C24.5058964,37.2351835 24.9346309,37.2089202 25.3598729,37.1517668 C25.863327,37.9916462 26.4574029,38.8246266 26.7159414,39.7805894 C26.3143627,39.783589 25.9124878,39.783589 25.5123899,39.7865886 C25.0397353,38.9305114 24.5612564,38.0784338 24.0769533,37.2303555 M41.0374344,37.7429819 C41.4570783,37.7294839 41.8782028,37.7294839 42.2993274,37.7384826 C42.3009069,38.1454241 42.3009069,38.5528657 42.2993274,38.9608071 C41.8782028,38.9713056 41.458559,38.9713056 41.0389152,38.9533082 C41.0315114,38.5492662 41.0315114,38.1470239 41.0374344,37.7429819 M37.9447453,40.9981146 C38.4526417,40.1708334 38.996076,39.3675487 39.5069339,38.5417673 C39.5217414,39.1542793 39.530922,39.7685911 39.5158184,40.382603 C39.5306258,40.61267 39.3650783,40.7911443 39.2590568,40.9771177 C38.6963727,41.8196967 38.1567884,42.6787734 37.6044696,43.5267516 C36.9399101,42.5224958 36.2963773,41.5074415 35.6392216,40.4971865 C35.6362601,39.825583 35.6303371,39.1539794 35.6466253,38.4838756 C36.2916389,39.4626351 36.9011145,40.4668909 37.5612318,41.4363517 C37.7475098,41.3565632 37.8313201,41.1540922 37.9447453,40.9981146 M6.69060921,39.8078855 C7.76740875,39.7715907 8.84568903,39.7895881 9.92396931,39.797387 C9.9298923,40.201129 9.95536116,40.6072707 9.90442345,41.0104129 C8.83502765,41.0632053 7.76148576,41.037709 6.69208996,41.0179118 C6.68764772,40.6141698 6.68764772,40.2116275 6.69060921,39.8078855 M19.8177314,42.4439071 C21.5439867,42.4181108 23.2690575,42.4424073 24.9953129,42.430409 C25.1927459,42.6303803 25.3901788,42.8315514 25.5876118,43.0339224 C25.5802081,44.3696307 25.5831696,45.7068387 25.5846503,47.0452466 C25.4115016,47.2282203 25.2402285,47.4132937 25.070831,47.6004669 C24.518216,47.6124651 23.9656011,47.6139649 23.4123939,47.5974673 C23.4197976,47.2192216 23.3721175,46.833477 23.4615547,46.4630301 C23.7736962,46.4297349 24.0873185,46.4417332 24.4024216,46.4387336 C24.4053831,45.502568 24.4024216,44.5676022 24.4039023,43.6329364 C22.8745864,43.6239377 21.3437897,43.6527336 19.8162506,43.6179386 C19.8117097,43.2261948 19.8122033,42.834851 19.8177314,42.4439071 M11.5246573,42.8890432 C11.9278155,42.8830441 12.3315659,42.8840439 12.7359087,42.8920428 C12.7418317,43.3003841 12.7423253,43.7098254 12.7373894,44.1203664 C12.3312698,44.1263656 11.9265321,44.1268655 11.5231765,44.1218662 C11.5176484,43.7103253 11.518142,43.2993843 11.5246573,42.8890432 M32.8835506,43.5498483 C33.3405093,43.1599043 33.7557108,43.809911 34.1469243,43.9997837 C34.1469243,44.0360785 34.1484051,44.1101679 34.1484051,44.1464627 C33.1269855,44.8135669 32.0815778,45.4443764 31.0823694,46.1462756 L31.661934,46.1417763 C31.9695346,46.1417763 32.2782211,46.1452758 32.5879934,46.1522747 C32.5909549,46.5608161 32.5909549,46.9705573 32.5850319,47.3790986 C31.3275812,47.397396 30.0701305,47.3925967 28.8126798,47.3820982 C28.7872109,46.9963536 28.7830648,46.6091092 28.7798072,46.2248643 C30.1222528,45.293498 31.5230399,44.4536186 32.8835506,43.5498483 M13.7931624,44.6842855 C15.4255383,44.6782863 17.0593951,44.6692876 18.6914749,44.6887848 C18.6944364,45.0957264 18.6944364,45.5031679 18.6914749,45.9111094 C17.0576182,45.9354059 15.4252422,45.9246074 13.7916816,45.9171085 C13.7842779,45.5058675 13.7857586,45.0943266 13.7931624,44.6842855 M18.1435983,47.8245347 C18.6035185,47.8200353 19.0634386,47.8185356 19.5236549,47.8275343 C19.9492218,48.6851112 20.5151634,49.4748978 20.8424086,50.3807677 C20.4301685,50.4035645 20.0194092,50.4035645 19.6074652,50.406564 C19.103715,49.5549863 18.6334296,48.6830115 18.1435983,47.8245347 M26.2960014,49.1284475 C26.6978763,49.1254479 27.099455,49.1314471 27.4995529,49.1584432 C27.5069567,49.5654848 27.5039952,49.9737262 27.4533536,50.379268 C27.0695439,50.3808677 26.6867213,50.3808677 26.3048859,50.379268 C26.2900784,49.9605281 26.2900784,49.5444878 26.2960014,49.1284475 M23.495908,53.1763664 C23.4973888,52.2264028 23.4748814,51.2749394 23.5107155,50.3249757 C23.9155518,50.3264755 24.3215728,50.3477725 24.7249284,50.3849671 C24.7294693,51.3152336 24.7294693,52.246 24.7249284,53.1772663 C24.3152549,53.1836654 23.9055815,53.1833654 23.495908,53.1763664" id="Shape"></path>
            </g>
        </g>
    </g>
</svg>