<?xml version="1.0" encoding="UTF-8"?>
<svg width="180px" height="70px" viewBox="0 0 180 70" version="1.1" xmlns="http://www.w3.org/2000/svg" xmlns:xlink="http://www.w3.org/1999/xlink">
    <!-- Generator: Sketch 55.2 (78181) - https://sketchapp.com -->
    <title>ocean</title>
    <desc>Created with Sketch.</desc>
    <g id="Zeppelin-Desktop" stroke="none" stroke-width="1" fill="none" fill-rule="evenodd">
        <rect id="Rectangle-Copy-24" fill="#F8F8FA" opacity="0" x="0" y="0" width="180" height="70"></rect>
        <g id="oceanprotocol-copy" transform="translate(69.000000, 5.000000)" fill="#141414">
            <path d="M7.18052311,55.9500902 L7.18052311,55.9190931 C7.18052311,54.0401064 5.77826607,52.5432291 3.97962122,52.5432291 C2.13487168,52.5432291 0.80795644,54.0558866 0.80795644,55.8897868 L0.80795644,55.9190931 C0.80795644,57.7992071 2.21077573,59.2960845 4.00885834,59.2960845 C5.85417012,59.2960845 7.18052311,57.7839904 7.18052311,55.9500902 L7.18052311,55.9500902 Z M0,55.9500902 L0,55.9190931 C0,53.7352077 1.69237919,51.8410042 4.00885834,51.8410042 C6.31240568,51.8410042 7.98847956,53.7047742 7.98847956,55.8897868 L7.98847956,55.9190931 C7.98847956,58.1041057 6.29610037,60 3.97962122,60 C1.67719837,60 0,58.1351027 0,55.9500902 L0,55.9500902 Z M9.73595946,55.9500902 L9.73595946,55.9190931 C9.73595946,53.7352077 11.469224,51.8410042 13.6886548,51.8410042 C15.1477148,51.8410042 16.0600479,52.5122319 16.7901386,53.2770145 L16.257991,53.8253811 C15.5890215,53.1395002 14.8280898,52.5432291 13.672954,52.5432291 C11.90997,52.5432291 10.5417508,54.0248896 10.5417508,55.8897868 L10.5417508,55.9190931 C10.5417508,57.7992071 11.9553903,59.2960845 13.7340753,59.2960845 C14.8280898,59.2960845 15.6793016,58.7319375 16.3336917,57.9975885 L16.850699,58.4563453 C16.0600479,59.3569514 15.1168737,60 13.6886548,60 C11.4535231,60 9.73595946,58.1351027 9.73595946,55.9500902 L9.73595946,55.9500902 Z M24.6572626,55.552764 C24.5506913,53.9798029 23.6538093,52.5274487 21.8746288,52.5274487 C20.3377579,52.5274487 19.1525723,53.8259447 19.0151514,55.552764 L24.6572626,55.552764 Z M18.2237189,55.9360007 L18.2237189,55.9038764 C18.2237189,53.64278 19.8065839,51.8410042 21.9043566,51.8410042 C24.0795338,51.8410042 25.4632785,53.6129101 25.4632785,55.9190931 C25.4632785,56.057171 25.4632785,56.1033848 25.4481343,56.2251189 L19.0151514,56.2251189 C19.1525723,58.1660999 20.5351954,59.296648 22.0574828,59.296648 C23.2572518,59.296648 24.0795338,58.762371 24.7172791,58.0747993 L25.2344307,58.5335562 C24.4435591,59.3890757 23.5169493,60 22.0266332,60 C19.988877,60 18.2237189,58.3644812 18.2237189,55.9360007 Z M32.9804159,56.8752902 L32.9804159,55.9809749 C32.3221524,55.8123325 31.4497412,55.6283591 30.3315408,55.6283591 C28.6765589,55.6283591 27.7572501,56.3665242 27.7572501,57.4595763 L27.7572501,57.4902386 C27.7572501,58.6292842 28.8291179,59.2913614 30.0252929,59.2913614 C31.6181212,59.2913614 32.9804159,58.3067627 32.9804159,56.8752902 L32.9804159,56.8752902 Z M26.9611185,57.5356642 L26.9611185,57.5055697 C26.9611185,55.8730891 28.35449,54.949815 30.3778736,54.949815 C31.4644322,54.949815 32.2153611,55.0889307 32.96629,55.2899387 L32.96629,54.949815 C32.96629,53.3633278 32.0000835,52.5485071 30.3925644,52.5485071 C29.4416137,52.5485071 28.661303,52.8108396 27.9414509,53.18049 L27.6651497,52.517277 C28.5234349,52.1181 29.3664643,51.8410042 30.4388971,51.8410042 C31.4949439,51.8410042 32.3374083,52.1328633 32.9047015,52.7029539 C33.425662,53.2264833 33.7013981,53.9498851 33.7013981,54.9197205 L33.7013981,59.8148909 L32.96629,59.8148909 L32.96629,58.5060674 C32.4300736,59.2601314 31.4644322,60 29.9789601,60 C28.5234349,60 26.9611185,59.1687125 26.9611185,57.5356642 L26.9611185,57.5356642 Z M36.322618,52.0249508 L37.0657336,52.0249508 L37.0657336,53.4868726 C37.5788239,52.5625973 38.4419769,51.8410042 39.8500442,51.8410042 C41.8019091,51.8410042 42.9380776,53.1950559 42.9380776,55.0731286 L42.9380776,59.874477 L42.1966369,59.874477 L42.1966369,55.2116563 C42.1966369,53.5953103 41.3033349,52.5325073 39.7445229,52.5325073 C38.230376,52.5325073 37.0657336,53.7031802 37.0657336,55.3337197 L37.0657336,59.874477 L36.322618,59.874477 L36.322618,52.0249508 Z M5.49207969,21.0245441 C5.49207969,22.3069815 4.45903001,23.3472804 3.18290982,23.3472804 C1.90790463,23.3472804 0.873739951,22.3069815 0.873739951,21.0245441 C0.873739951,19.7421067 1.90790463,18.7029288 3.18290982,18.7029288 C4.45903001,18.7029288 5.49207969,19.7421067 5.49207969,21.0245441 L5.49207969,21.0245441 Z M42.1891576,21.0245441 C42.1891576,22.3069815 41.1549929,23.3472804 39.8805453,23.3472804 C38.6049826,23.3472804 37.5708179,22.3069815 37.5708179,21.0245441 C37.5708179,19.7421067 38.6049826,18.7029288 39.8805453,18.7029288 C41.1549929,18.7029288 42.1891576,19.7421067 42.1891576,21.0245441 L42.1891576,21.0245441 Z M23.8406187,30.1880043 C23.8406187,31.4702869 22.8065788,32.5104602 21.5317275,32.5104602 C20.2563188,32.5104602 19.2222789,31.4702869 19.2222789,30.1880043 C19.2222789,28.9057216 20.2563188,27.8661088 21.5317275,27.8661088 C22.8065788,27.8661088 23.8406187,28.9057216 23.8406187,30.1880043 L23.8406187,30.1880043 Z M14.6039392,25.6694561 C14.6039392,26.951333 13.5704567,27.9916318 12.2944905,27.9916318 C11.0190819,27.9916318 9.98559944,26.951333 9.98559944,25.6694561 C9.98559944,24.3864581 11.0190819,23.3472804 12.2944905,23.3472804 C13.5704567,23.3472804 14.6039392,24.3864581 14.6039392,25.6694561 L14.6039392,25.6694561 Z M32.9524782,25.6694561 C32.9524782,26.951333 31.9184383,27.9916318 30.643587,27.9916318 C29.3676209,27.9916318 28.3341385,26.951333 28.3341385,25.6694561 C28.3341385,24.3864581 29.3676209,23.3472804 30.643587,23.3472804 C31.9184383,23.3472804 32.9524782,24.3864581 32.9524782,25.6694561 L32.9524782,25.6694561 Z M4.74315974,28.0549583 C4.74315974,28.9199913 4.04521974,29.623431 3.18375275,29.623431 C2.32116185,29.623431 1.62265991,28.9199913 1.62265991,28.0549583 C1.62265991,27.1876652 2.32116185,26.4853556 3.18375275,26.4853556 C4.04521974,26.4853556 4.74315974,27.1876652 4.74315974,28.0549583 L4.74315974,28.0549583 Z M41.4402377,28.0549583 C41.4402377,28.9199913 40.7412996,29.623431 39.8799877,29.623431 C39.018114,29.623431 38.3197378,28.9199913 38.3197378,28.0549583 C38.3197378,27.1876652 39.018114,26.4853556 39.8799877,26.4853556 C40.7412996,26.4853556 41.4402377,27.1876652 41.4402377,28.0549583 L41.4402377,28.0549583 Z M23.0916987,37.3419662 C23.0916987,38.2086942 22.3924507,38.9121339 21.5320104,38.9121339 C20.6710086,38.9121339 19.9711989,38.2086942 19.9711989,37.3419662 C19.9711989,36.4758032 20.6710086,35.7740586 21.5320104,35.7740586 C22.3924507,35.7740586 23.0916987,36.4758032 23.0916987,37.3419662 L23.0916987,37.3419662 Z M13.8550192,32.69931 C13.8550192,33.565785 13.156643,34.2677824 12.2953312,34.2677824 C11.4334574,34.2677824 10.7345194,33.565785 10.7345194,32.69931 C10.7345194,31.8322697 11.4334574,31.1297071 12.2953312,31.1297071 C13.156643,31.1297071 13.8550192,31.8322697 13.8550192,32.69931 L13.8550192,32.69931 Z M32.2035581,32.69931 C32.2035581,33.565785 31.5041842,34.2677824 30.6441509,34.2677824 C29.7818706,34.2677824 29.0830584,33.565785 29.0830584,32.69931 C29.0830584,31.8322697 29.7818706,31.1297071 30.6441509,31.1297071 C31.5041842,31.1297071 32.2035581,31.8322697 32.2035581,32.69931 L32.2035581,32.69931 Z M3.99423977,33.5765388 C3.99423977,34.0279859 3.63122347,34.3933055 3.18319702,34.3933055 C2.73459618,34.3933055 2.37157986,34.0279859 2.37157986,33.5765388 C2.37157986,33.1262477 2.73459618,32.7615063 3.18319702,32.7615063 C3.63122347,32.7615063 3.99423977,33.1262477 3.99423977,33.5765388 L3.99423977,33.5765388 Z M40.6913178,33.5765388 C40.6913178,34.0279859 40.3274694,34.3933055 39.8802752,34.3933055 C39.4313565,34.3933055 39.0686578,34.0279859 39.0686578,33.5765388 C39.0686578,33.1262477 39.4313565,32.7615063 39.8802752,32.7615063 C40.3274694,32.7615063 40.6913178,33.1262477 40.6913178,33.5765388 L40.6913178,33.5765388 Z M22.3427788,42.8655309 C22.3427788,43.3162404 21.9789305,43.6820084 21.5317362,43.6820084 C21.0833923,43.6820084 20.7201188,43.3162404 20.7201188,42.8655309 C20.7201188,42.4148216 21.0833923,42.0502092 21.5317362,42.0502092 C21.9789305,42.0502092 22.3427788,42.4148216 22.3427788,42.8655309 L22.3427788,42.8655309 Z M13.1060992,38.2217573 C13.1060992,38.6718889 12.7425086,39.0376569 12.2944822,39.0376569 C11.8470301,39.0376569 11.4834394,38.6718889 11.4834394,38.2217573 C11.4834394,37.77047 11.8470301,37.4058578 12.2944822,37.4058578 C12.7425086,37.4058578 13.1060992,37.77047 13.1060992,38.2217573 L13.1060992,38.2217573 Z M31.4546382,38.2217573 C31.4546382,38.6718889 31.0907899,39.0376569 30.6435956,39.0376569 C30.1941022,39.0376569 29.8319783,38.6718889 29.8319783,38.2217573 C29.8319783,37.77047 30.1941022,37.4058578 30.6435956,37.4058578 C31.0907899,37.4058578 31.4546382,37.77047 31.4546382,38.2217573 L31.4546382,38.2217573 Z M24.5895386,3.13813157 C24.5895386,4.87161316 23.192208,6.27615063 21.4698779,6.27615063 C19.7458695,6.27615063 18.348539,4.87161316 18.348539,3.13813157 C18.348539,1.40509996 19.7458695,0 21.4698779,0 C23.192208,0 24.5895386,1.40509996 24.5895386,3.13813157 L24.5895386,3.13813157 Z M24.5895386,12.4267782 C24.5895386,14.1600306 23.192208,15.5648536 21.4698779,15.5648536 C19.7458695,15.5648536 18.348539,14.1600306 18.348539,12.4267782 C18.348539,10.6940883 19.7458695,9.28870293 21.4698779,9.28870293 C23.192208,9.28870293 24.5895386,10.6940883 24.5895386,12.4267782 L24.5895386,12.4267782 Z M24.5895386,21.5905206 C24.5895386,23.3229587 23.192208,24.7280334 21.4698779,24.7280334 C19.7458695,24.7280334 18.348539,23.3229587 18.348539,21.5905206 C18.348539,19.8569576 19.7458695,18.4518829 21.4698779,18.4518829 C23.192208,18.4518829 24.5895386,19.8569576 24.5895386,21.5905206 L24.5895386,21.5905206 Z M42.9380776,12.4267782 C42.9380776,14.1600306 41.5409974,15.5648536 39.8178574,15.5648536 C38.0941581,15.5648536 36.6970779,14.1600306 36.6970779,12.4267782 C36.6970779,10.6940883 38.0941581,9.28870293 39.8178574,9.28870293 C41.5409974,9.28870293 42.9380776,10.6940883 42.9380776,12.4267782 L42.9380776,12.4267782 Z M6.24099965,12.4267782 C6.24099965,14.1600306 4.84422846,15.5648536 3.12077951,15.5648536 C1.39733056,15.5648536 0,14.1600306 0,12.4267782 C0,10.6940883 1.39733056,9.28870293 3.12077951,9.28870293 C4.84422846,9.28870293 6.24099965,10.6940883 6.24099965,12.4267782 L6.24099965,12.4267782 Z M15.4776792,7.78242677 C15.4776792,9.51542733 14.0807828,10.9205021 12.3571793,10.9205021 C10.6335759,10.9205021 9.23667948,9.51542733 9.23667948,7.78242677 C9.23667948,6.04830128 10.6335759,4.64435147 12.3571793,4.64435147 C14.0807828,4.64435147 15.4776792,6.04830128 15.4776792,7.78242677 L15.4776792,7.78242677 Z M15.4776792,16.9453254 C15.4776792,18.6784813 14.0807828,20.083682 12.3571793,20.083682 C10.6335759,20.083682 9.23667948,18.6784813 9.23667948,16.9453254 C9.23667948,15.2127321 10.6335759,13.8075314 12.3571793,13.8075314 C14.0807828,13.8075314 15.4776792,15.2127321 15.4776792,16.9453254 L15.4776792,16.9453254 Z M33.8262181,7.78242677 C33.8262181,9.51542733 32.4288876,10.9205021 30.7054386,10.9205021 C28.9819896,10.9205021 27.5852184,9.51542733 27.5852184,7.78242677 C27.5852184,6.04830128 28.9819896,4.64435147 30.7054386,4.64435147 C32.4288876,4.64435147 33.8262181,6.04830128 33.8262181,7.78242677 L33.8262181,7.78242677 Z M33.8262181,16.9453254 C33.8262181,18.6784813 32.4288876,20.083682 30.7054386,20.083682 C28.9819896,20.083682 27.5852184,18.6784813 27.5852184,16.9453254 C27.5852184,15.2127321 28.9819896,13.8075314 30.7054386,13.8075314 C32.4288876,13.8075314 33.8262181,15.2127321 33.8262181,16.9453254 L33.8262181,16.9453254 Z" id="Shape"></path>
        </g>
    </g>
</svg>