<?xml version="1.0" encoding="UTF-8"?>
<svg width="180px" height="70px" viewBox="0 0 180 70" version="1.1" xmlns="http://www.w3.org/2000/svg" xmlns:xlink="http://www.w3.org/1999/xlink">
    <!-- Generator: Sketch 55.2 (78181) - https://sketchapp.com -->
    <title>omisego</title>
    <desc>Created with Sketch.</desc>
    <g id="Zeppelin-Desktop" stroke="none" stroke-width="1" fill="none" fill-rule="evenodd">
        <rect id="Rectangle-Copy-17" fill="#F8F8FA" opacity="0" x="0" y="0" width="180" height="70"></rect>
        <g id="omise" transform="translate(36.000000, 26.000000)" fill-rule="nonzero">
            <g id="Group" fill="#2E374D">
                <path d="M7.47004314,21.6248995 C3.24775182,21.6248995 0.0213949395,18.9519412 0.0213949395,14.1552629 C0.0213949395,9.35858446 3.39858614,6.5908558 7.65190012,6.5908558 C11.9062839,6.5908558 15.0716652,9.32412247 15.0716652,14.0604923 C15.0716652,18.7968622 11.6623815,21.6259764 7.47004314,21.6259764 L7.47004314,21.6248995 Z M7.53101871,10.1469025 C5.60012542,10.1469025 4.63521365,11.6955383 4.63521365,14.1251086 C4.63521365,16.554679 5.63007833,18.0419292 7.56097163,18.0419292 C9.49186493,18.0419292 10.455707,16.5288324 10.455707,14.0949543 C10.455707,11.6933844 9.46084226,10.1479794 7.52887921,10.1479794 L7.53101871,10.1469025 Z M34.3752494,12.850015 C34.3752494,11.1495311 33.6510306,10.5733696 32.4743089,10.5733696 C31.5393501,10.5733696 30.7841087,10.9987598 30.2128638,11.4844586 L30.2128638,21.169355 L25.5669528,21.169355 L25.5669528,12.850015 C25.5669528,11.1495311 24.8127811,10.5733696 23.6360594,10.5733696 C22.8059358,10.5733696 22.0025559,10.8727582 21.3746143,11.4176885 L21.3746143,21.1639703 L16.7287032,21.1639703 L16.7287032,6.87839803 L21.3746143,6.86978254 L21.3746143,8.68765257 C22.6112418,7.38132772 23.9976339,6.59193274 25.8386684,6.59193274 C27.6144484,6.59193274 29.0960481,7.44271314 29.7903138,9.11196584 C31.0868471,7.56333011 32.7160718,6.59193274 34.646965,6.59193274 C37.3919358,6.59193274 39.0190209,8.44426475 39.0190209,11.4812277 L39.0190209,21.1672011 L34.3731098,21.1672011 L34.3752494,12.850015 Z M43.6938153,5.04545088 C42.0046848,5.04545088 40.9499143,4.16559318 40.9499143,2.55557203 C40.9499143,0.886319334 42.0046848,0.0355389284 43.6938153,0.0355389284 C45.4128986,0.0355389284 46.438786,0.886319334 46.438786,2.55557203 C46.438786,4.16559318 45.4128986,5.04545088 43.6938153,5.04545088 Z M41.3713946,6.88270578 L46.0173057,6.87409028 L46.0173057,21.169355 L41.3713946,21.169355 L41.3713946,6.88270578 Z M53.5194413,21.6248995 C51.5885479,21.6248995 49.0543173,21.2005861 47.5780665,20.37996 L48.4820027,17.0091465 C50.1401105,17.8599269 51.9511921,18.3456256 53.6093,18.3456256 C54.8758804,18.3456256 55.5102404,17.9503896 55.5102404,17.1911489 C55.5102404,16.366215 54.7250461,16.0980576 53.1268441,15.7351298 C49.8694645,15.0663518 47.7888066,13.8827977 47.7888066,11.1193768 C47.7888066,8.47764981 50.079135,6.59516355 53.9719442,6.59516355 C55.8407921,6.59516355 58.2830246,7.14440153 59.6726259,7.80994873 L58.737667,11.1430694 C57.1383952,10.3170586 55.2374548,9.86797577 53.9109686,9.86797577 C52.7641998,9.86797577 52.1918852,10.2319805 52.1918852,10.9309128 C52.1918852,11.6901535 53.0669383,11.9938499 54.6052344,12.3277004 C57.8925668,13.0567869 59.8844358,14.1477243 59.8844358,16.9725306 C59.8822963,19.5345643 57.6508041,21.6248995 53.5194413,21.6248995 Z M68.9911918,18.1948544 C70.5305577,18.1948544 72.1587125,17.6445395 73.5761273,16.828221 L74.0286303,20.4424223 C72.6112155,21.1715089 70.6204164,21.5958221 68.5622232,21.5958221 C63.8275231,21.5958221 60.7209778,18.9551721 60.7209778,14.2177252 C60.7209778,9.60197227 63.8628248,6.59624049 68.3204603,6.59624049 C72.3020586,6.59624049 74.469366,8.99565661 74.469366,12.5118566 C74.469366,13.2710973 74.3795072,14.3932659 74.1676973,15.0017355 L65.269542,15.1525068 L65.269542,15.2128152 C65.4332133,17.1308403 66.6997938,18.1948544 68.9922615,18.1948544 L68.9911918,18.1948544 Z M70.1679134,12.5193952 C70.1679134,10.8178344 69.4736476,9.81628278 68.02628,9.81628278 C66.428078,9.81628278 65.4631663,11.2119934 65.3112621,12.8209376 L70.1679134,12.7940141 L70.1679134,12.5183183 L70.1679134,12.5193952 Z" id="Shape"></path>
            </g>
            <g id="Group" transform="translate(74.882289, 6.461623)" fill="#1A53F0">
                <path d="M8.25630717,16.1755971 C4.13042086,16.1755971 0.785729154,19.54277 0.785729154,23.6963881 C0.785729154,27.8500064 4.13042086,31.2171792 8.25630717,31.2171792 C12.3821935,31.2171792 15.7268852,27.8500064 15.7268852,23.6963881 C15.7268852,19.54277 12.3821935,16.1755971 8.25630717,16.1755971 Z M8.25630717,28.941611 C5.37820089,28.941611 3.04503477,26.5927625 3.04503477,23.6953112 C3.04503477,20.7978599 5.37820089,18.4490116 8.25630717,18.4490116 C11.1350042,18.4490116 13.4686493,20.7983421 13.4686493,23.6963881 C13.4686493,26.5944343 11.1350042,28.9437648 8.25630717,28.9437648 L8.25630717,28.941611 Z M24.2126531,0.133540216 C20.0867668,0.133540216 16.7420751,3.50071308 16.7420751,7.65433131 C16.7420751,11.8079496 20.0867668,15.1751224 24.2126531,15.1751224 C28.3385393,15.1751224 31.6832311,11.8079496 31.6832311,7.65433131 C31.6832311,3.50071308 28.3385393,0.133540216 24.2126531,0.133540216 Z M24.2126531,12.899554 C21.335433,12.899554 19.0029852,10.5514289 19.0029852,7.65486977 C19.0029852,4.75831063 21.335433,2.4101855 24.2126531,2.4101855 C27.0898732,2.4101855 29.4223209,4.75831063 29.4223209,7.65486977 C29.4181966,10.5497073 27.088163,12.8954021 24.2126531,12.899554 Z" id="Shape"></path>
                <path d="M8.25630717,0.133539811 C4.69939037,0.13237283 1.63439062,2.6548226 0.928299187,6.16438312 C0.222207755,9.67394364 2.07065216,13.1982668 5.34768466,14.5905726 C8.62471715,15.9828783 12.4224132,14.8574186 14.4274723,11.8997477 C16.4325314,8.94207679 16.089438,4.97163784 13.6071815,2.40695469 L15.7263503,2.40695469 L15.7263503,0.133539811 L8.25630717,0.133539811 Z M13.4681144,7.65379284 C13.4669329,10.5500713 11.1339624,12.8971159 8.25702091,12.8963233 C5.38007952,12.8955302 3.0483857,10.5472 3.04877938,7.65092129 C3.04917304,4.75464262 5.38150516,2.40695469 8.25844665,2.40695469 C11.1347907,2.41110937 13.4651685,4.75811415 13.4681144,7.65379284 Z" id="Shape"></path>
            </g>
        </g>
    </g>
</svg>