<?xml version="1.0" encoding="UTF-8"?>
<svg width="180px" height="70px" viewBox="0 0 180 70" version="1.1" xmlns="http://www.w3.org/2000/svg" xmlns:xlink="http://www.w3.org/1999/xlink">
    <!-- Generator: Sketch 55.2 (78181) - https://sketchapp.com -->
    <title>set</title>
    <desc>Created with Sketch.</desc>
    <defs>
        <linearGradient x1="50%" y1="0%" x2="50%" y2="100%" id="linearGradient-1">
            <stop stop-color="#E6AE31" offset="0%"></stop>
            <stop stop-color="#E6AE31" stop-opacity="0" offset="100%"></stop>
        </linearGradient>
        <linearGradient x1="50%" y1="0%" x2="50%" y2="100%" id="linearGradient-2">
            <stop stop-color="#E6AE31" offset="0%"></stop>
            <stop stop-color="#E6AE31" stop-opacity="0" offset="100%"></stop>
        </linearGradient>
        <linearGradient x1="50%" y1="0%" x2="50%" y2="100%" id="linearGradient-3">
            <stop stop-color="#E6AE31" offset="0%"></stop>
            <stop stop-color="#E6AE31" stop-opacity="0" offset="100%"></stop>
        </linearGradient>
    </defs>
    <g id="Zeppelin-Desktop" stroke="none" stroke-width="1" fill="none" fill-rule="evenodd">
        <rect id="Rectangle-Copy-29" fill="#F8F8FA" opacity="0" x="0" y="0" width="180" height="70"></rect>
        <g id="SET-logo-Copy" transform="translate(40.000000, 10.000000)" fill-rule="nonzero">
            <g id="Group" transform="translate(0.255471, 0.188393)">
                <ellipse id="Oval" fill="url(#linearGradient-2)" transform="translate(16.964732, 17.048810) rotate(-90.000000) translate(-16.964732, -17.048810) " cx="16.9647324" cy="17.0488095" rx="16.9791667" ry="16.2556529"></ellipse>
                <ellipse id="Oval" fill="url(#linearGradient-3)" transform="translate(16.282116, 32.504167) rotate(90.000000) translate(-16.282116, -32.504167) " cx="16.2821161" cy="32.5041667" rx="16.9791667" ry="16.255628"></ellipse>
            </g>
            <path d="M56.6042618,39.9193452 C52.1409529,39.9193452 48.5144588,38.88125 45.6451676,37.2443452 L48.1559088,29.6184524 L48.3549382,29.6184524 C49.7499265,35.2080357 54.0935206,38.0827381 58.1183706,38.0827381 C60.3899794,38.0827381 62.0636088,36.7651786 62.0636088,34.6491071 C62.0636088,33.3714286 61.5455382,32.1738095 59.2344206,31.1357143 L52.6189206,28.1011905 C48.7137853,26.264881 46.6813088,22.9907738 46.6813088,19.477381 C46.6813088,15.1252976 49.4311824,10.3741071 57.4012706,10.3741071 C60.9876618,10.3741071 65.1322265,11.5318452 67.4834471,12.8497024 L64.6141559,19.3973214 L64.4151265,19.3973214 C62.8208118,14.4866071 59.2742265,12.1309524 55.8072529,12.1309524 C52.8981559,12.1309524 51.8620147,13.6083333 51.8620147,14.9255952 C51.8620147,16.2434524 52.5393088,17.4809524 54.6513971,18.5190476 L61.4659265,21.7529762 C65.8496235,23.7892857 67.1647029,26.3044643 67.1647029,29.7782738 C67.1647029,35.447619 62.9405265,39.9193452 56.6042618,39.9193452 L56.6042618,39.9193452 Z M80.4987824,33.7705357 C82.4911559,33.7705357 83.9654588,33.1717262 85.0417029,31.6544643 L85.3604471,31.7345238 C84.2845,37.8830357 80.1399353,39.7196429 76.9519,39.7196429 C72.3691735,39.7196429 67.8660588,36.0464286 67.8660588,29.0595238 C67.8660588,22.3520833 71.8112971,17.5610119 77.2308382,17.5610119 C80.6182,17.5610119 85.4400588,19.3574405 85.4400588,26.9434524 L73.9631912,26.9434524 C74.5608735,31.4550595 76.9519,33.7708333 80.4984853,33.7708333 L80.4987824,33.7705357 Z M76.3542176,18.8782738 C74.7203941,18.8782738 73.8036706,20.9943452 73.8036706,24.5877976 C73.8036706,24.9869048 73.8036706,25.3464286 73.8437735,25.7056548 L78.78505,25.7056548 C78.78505,20.4354167 77.9482353,18.8782738 76.3542176,18.8782738 Z M100.487871,33.6907738 L100.846421,33.8107143 C99.9698,36.7651786 97.5787735,39.7196429 93.4342088,39.7196429 C89.6484912,39.7196429 87.9748618,37.2842262 87.9748618,33.9702381 L87.9748618,19.2776786 L86.0219971,19.2776786 L86.0219971,19.0782738 C89.0906147,16.4428571 92.3582618,14.0074405 95.5064912,11.2526786 L95.5462971,11.2526786 L95.5462971,18.2395833 L99.2125971,18.2395833 L99.2125971,19.2377976 L95.5462971,19.2377976 L95.5462971,32.8925595 C95.5462971,34.6092262 96.3037971,35.7270833 97.6981912,35.7270833 C99.2524029,35.7270833 100.129321,34.6889881 100.487871,33.6907738 L100.487871,33.6907738 Z" id="Shape" fill="#0F0835"></path>
        </g>
    </g>
</svg>