<?xml version="1.0" encoding="UTF-8"?>
<svg width="180px" height="70px" viewBox="0 0 180 70" version="1.1" xmlns="http://www.w3.org/2000/svg" xmlns:xlink="http://www.w3.org/1999/xlink">
    <!-- Generator: Sketch 55.2 (78181) - https://sketchapp.com -->
    <title>shapeshift</title>
    <desc>Created with Sketch.</desc>
    <defs>
        <polygon id="path-1" points="0 0.0245518525 143.822312 0.0245518525 143.822312 29.7668479 0 29.7668479"></polygon>
        <polygon id="path-3" points="0 0.0245518525 143.822312 0.0245518525 143.822312 29.7668479 0 29.7668479"></polygon>
    </defs>
    <g id="Zeppelin-Desktop" stroke="none" stroke-width="1" fill="none" fill-rule="evenodd">
        <rect id="Rectangle-Copy-22" fill="#F8F8FA" opacity="0" x="0" y="0" width="180" height="70"></rect>
        <g id="Shapeshift_horizontal_RGB" transform="translate(18.000000, 20.000000)">
            <polygon id="Fill-1" fill="#10151F" fill-rule="nonzero" points="126.788635 23.5181741 128.601502 23.5181741 128.601502 12.6742119 126.788635 12.6742119"></polygon>
            <polygon id="Fill-2" fill="#10151F" fill-rule="nonzero" points="126.788635 11.261571 128.601502 11.261571 128.601502 9.43791398 126.788635 9.43791398"></polygon>
            <path d="M43.1321418,9.33425061 C41.1622331,9.33425061 39.0596867,10.1133173 39.0596867,12.0060832 C39.0596867,13.6983424 40.9850814,14.1882428 43.2647796,14.5667505 C46.3633523,15.0566509 49.4176371,15.6802225 49.4176371,19.198412 C49.3954932,22.694323 46.0754808,23.8298462 43.1097718,23.8298462 C40.3652765,23.8298462 37.7538709,22.8277669 36.5585489,20.2227699 L38.1522362,19.2872988 C39.1482625,21.1355077 41.228439,22.0261944 43.1321418,22.0261944 C45.0132486,22.0261944 47.5141604,21.4251287 47.5141604,19.1315764 C47.5363043,17.1942534 45.367326,16.6377447 43.0435659,16.2815155 C40.055487,15.8136664 37.1562099,15.1234865 37.1562099,11.9615262 C37.1121479,8.71067902 40.4095644,7.59720704 43.0876279,7.59720704 C45.38947,7.59720704 47.5805923,8.0648289 48.952614,10.4252167 L47.4920164,11.3379546 C46.6509978,9.97987339 44.8582409,9.35630181 43.1321418,9.33425061" id="Fill-3" fill="#10151F" fill-rule="nonzero"></path>
            <path d="M52.6901982,7.96116552 L52.6901982,14.3516945 C53.6197926,12.9042718 55.0806161,12.4143714 56.4747818,12.3920929 C59.5512106,12.3920929 61.056096,14.4405813 61.056096,17.4688704 L61.056096,23.5254487 L59.263565,23.5254487 L59.263565,17.4911489 C59.263565,15.3312679 58.1568189,14.1066306 56.1647663,14.1066306 C54.1729397,14.1066306 52.7123421,15.6877244 52.7123421,17.6916557 L52.7123421,23.5254487 L50.8974412,23.5254487 L50.8974412,7.93865965 L52.6901982,7.93865965 L52.6901982,7.96116552" id="Fill-4" fill="#10151F" fill-rule="nonzero"></path>
            <path d="M68.275931,14.0768501 C66.1069526,14.0768501 64.3584836,15.6356654 64.3584836,18.08494 C64.3584836,20.534442 66.1069526,22.1153085 68.275931,22.1153085 C73.5434821,22.1153085 73.5434821,14.0547989 68.2980749,14.0547989 L68.275931,14.0768501 Z M72.2598102,23.5625038 L72.2155223,21.5585725 C71.3523598,23.0728308 69.6924666,23.7852891 68.1871292,23.7852891 C65.0444945,23.7852891 62.5878706,21.6031296 62.5878706,18.0181044 C62.5878706,14.4553578 65.0887824,12.3179827 68.2094991,12.3400339 C69.8474743,12.3400339 71.4630796,13.0972767 72.2598102,14.5224208 L72.2819542,12.5182621 L74.0523412,12.5182621 L74.0523412,23.5181741 L72.3040982,23.5181741 L72.2598102,23.5625038 L72.2598102,23.5625038 Z" id="Fill-5" fill="#10151F" fill-rule="nonzero"></path>
            <path d="M85.3746838,18.08494 C85.3746838,15.6133869 83.7588526,14.1436857 81.5236683,14.1436857 C79.2441961,14.1436857 77.6947968,15.8361722 77.6947968,18.08494 C77.6947968,20.3339352 79.310402,22.0261944 81.5236683,22.0484729 C83.7147906,22.0484729 85.3746838,20.5567205 85.3746838,18.08494 Z M75.7248881,12.5628192 L77.4512132,12.5628192 L77.539789,14.6781432 C78.4029516,13.2086693 80.0185569,12.3623124 81.7448819,12.3623124 C84.8877426,12.429148 87.1895847,14.6558646 87.1895847,18.040383 C87.1895847,21.5140155 84.9098866,23.7630106 81.6341621,23.7630106 C80.0849887,23.7630106 78.3586637,23.0951093 77.4955011,21.536294 L77.4955011,28.7063443 L75.7248881,28.7063443 L75.7248881,12.5628192 L75.7248881,12.5628192 Z" id="Fill-6" fill="#10151F" fill-rule="nonzero"></path>
            <path d="M97.7795949,17.2165319 C97.691019,15.0789294 96.2304215,13.9211277 94.0833611,13.9211277 C92.1803363,13.9211277 90.5199912,15.0789294 90.2104276,17.1942534 L97.7795949,17.1942534 L97.7795949,17.2165319 Z M98.842053,21.7590793 C97.7353069,23.0728308 95.8320561,23.7184535 94.1276491,23.7184535 C90.7416567,23.7184535 88.3733828,21.4694584 88.3733828,17.9735474 C88.3733828,14.6558646 90.7416567,12.2734256 94.0392992,12.2734256 C97.3812295,12.2734256 99.9264292,14.3441925 99.5059199,18.7307902 L90.2104276,18.7307902 C90.4094973,20.757 92.0693905,22.0261944 94.171937,22.0261944 C95.4115468,22.0261944 96.9164323,21.536294 97.6467311,20.6456073 L98.864197,21.7590793 L98.842053,21.7590793 L98.842053,21.7590793 Z" id="Fill-7" fill="#10151F" fill-rule="nonzero"></path>
            <path d="M107.090452,9.33425061 C105.12077,9.33425061 103.018223,10.1133173 103.018223,12.0060832 C103.018223,13.6983424 104.943618,14.1882428 107.22309,14.5667505 C110.321889,15.0566509 113.376174,15.6802225 113.376174,19.198412 C113.35403,22.694323 110.034017,23.8298462 107.068308,23.8298462 C104.323813,23.8298462 101.712181,22.8277669 100.517085,20.2227699 L102.110547,19.2872988 C103.106573,21.1355077 105.186976,22.0261944 107.090452,22.0261944 C108.971785,22.0261944 111.472471,21.4251287 111.472471,19.1315764 C111.494841,17.1942534 109.325863,16.6377447 107.001877,16.2815155 C104.014024,15.8136664 101.114746,15.1234865 101.114746,11.9615262 C101.070459,8.71067902 104.368101,7.59720704 107.046164,7.59720704 C109.348007,7.59720704 111.539129,8.0648289 112.911151,10.4252167 L111.450553,11.3379546 C110.609534,9.97987339 108.816777,9.35630181 107.090452,9.33425061" id="Fill-8" fill="#10151F" fill-rule="nonzero"></path>
            <path d="M116.60987,7.95366356 L116.60987,14.3441925 C117.539464,12.8967699 119.000062,12.4068695 120.394453,12.384591 C123.470882,12.384591 124.975768,14.4333066 124.975768,17.4615958 L124.975768,23.5181741 L123.183237,23.5181741 L123.183237,17.4838743 C123.183237,15.3239933 122.076717,14.0991287 120.084664,14.0991287 C118.092611,14.0991287 116.632014,15.6802225 116.632014,17.6843811 L116.632014,23.5181741 L114.817113,23.5181741 L114.817113,7.93138503 L116.60987,7.93138503 L116.60987,7.95366356" id="Fill-9" fill="#10151F" fill-rule="nonzero"></path>
            <polyline id="Fill-10" fill="#10151F" fill-rule="nonzero" points="132.06545 23.5738704 132.06545 23.5515919 132.043306 23.5515919 132.06545 23.5738704"></polyline>
            <path d="M134.214092,11.7835252 C134.214092,10.1358231 134.966761,9.40085887 136.139713,9.40085887 C136.162987,9.40085887 136.184905,9.40313219 136.208179,9.40381419 L136.616486,7.83454161 C136.444757,7.81226308 136.271221,7.79771383 136.095425,7.79771383 C133.793583,7.79771383 132.421335,9.26741501 132.421335,11.7835252 L132.421335,12.6519333 L130.274727,12.6519333 L130.274727,14.2550784 L132.421335,14.2550784 L132.421335,23.5181741 L134.214092,23.5181741 L134.214092,14.2550784 L136.385556,14.2550784 L136.385556,12.6519333 L134.214092,12.6519333 L134.214092,11.7835252" id="Fill-11" fill="#10151F" fill-rule="nonzero"></path>
            <g id="Group-15">
                <g id="Fill-12-Clipped">
                    <mask id="mask-2" fill="white">
                        <use xlink:href="#path-1"></use>
                    </mask>
                    <g id="path-1"></g>
                    <path d="M143.463941,21.9900486 C143.320457,22.0130091 143.179233,22.0261944 143.043432,22.0261944 C141.73739,22.0261944 141.317107,21.2023433 141.317107,19.9108704 L141.317107,14.2412111 L143.646516,14.2412111 L143.646516,12.659208 L141.339251,12.659208 L141.339251,9.31174474 L139.524124,9.51225154 L139.524124,12.659208 L137.333227,12.659208 L137.333227,14.2412111 L139.524124,14.2412111 L139.524124,19.9108704 C139.524124,22.3378665 140.631096,23.7184535 142.977226,23.6741238 C143.266453,23.6652579 143.545286,23.6307034 143.822312,23.5729611 L143.463941,21.9900486" id="Fill-12" fill="#10151F" fill-rule="nonzero" mask="url(#mask-2)"></path>
                </g>
                <g id="Fill-14-Clipped">
                    <mask id="mask-4" fill="white">
                        <use xlink:href="#path-3"></use>
                    </mask>
                    <g id="path-1"></g>
                    <path d="M25.0762275,2.51542823 L23.7658926,10.4195334 L19.1073004,4.90309589 L25.0762275,2.51542823 Z M23.7943634,13.8190557 L24.9603107,18.1510937 L16.0432994,20.6219648 L23.7943634,13.8190557 Z M4.38292246,11.6418974 L9.16375833,5.35775982 L17.4661618,5.35775982 L22.7730297,11.6418974 L4.38292246,11.6418974 Z M22.1581959,13.1945748 L13.5136908,20.7810972 L4.70898098,13.1945748 L22.1581959,13.1945748 Z M7.56306633,4.90764252 L3.29086367,10.5227421 L1.978947,2.54589071 L7.56306633,4.90764252 Z M10.9533519,20.6194642 L1.95138003,18.1531396 L3.18488901,13.9259017 L10.9533519,20.6194642 Z M12.6155047,22.6840931 L10.9160687,24.5652651 C9.47603336,23.1892247 7.89274019,21.9673154 6.20256852,20.9270443 L12.6155047,22.6840931 Z M20.858029,20.8984005 C19.1678574,21.9554941 17.5884055,23.1933167 16.1574085,24.5825424 L14.4220451,22.6815924 L20.858029,20.8984005 Z M27.0488477,0.0552416682 L17.6753996,3.80508248 L8.93847743,3.80508248 L0,0.0245518525 L2.0304656,12.3698144 L0.0806672845,19.0522376 L5.1676773,22.1118985 C7.57617194,23.5606852 9.73362637,25.3734303 11.5799356,27.4994388 L13.5606902,29.7802605 L15.639511,27.3816809 C17.4232296,25.3234172 19.5004687,23.5565932 21.8133828,22.1300851 L26.8021007,19.0522376 L25.0055024,12.3789077 L27.0488477,0.0552416682 L27.0488477,0.0552416682 Z" id="Fill-14" fill="#10151F" fill-rule="nonzero" mask="url(#mask-4)"></path>
                </g>
            </g>
        </g>
    </g>
</svg>