<?xml version="1.0" encoding="UTF-8"?>
<svg width="180px" height="70px" viewBox="0 0 180 70" version="1.1" xmlns="http://www.w3.org/2000/svg" xmlns:xlink="http://www.w3.org/1999/xlink">
    <!-- Generator: Sketch 55.2 (78181) - https://sketchapp.com -->
    <title>status</title>
    <desc>Created with Sketch.</desc>
    <g id="Zeppelin-Desktop" stroke="none" stroke-width="1" fill="none" fill-rule="evenodd">
        <rect id="Rectangle-Copy-20" fill="#F8F8FA" opacity="0" x="0" y="0" width="180" height="70"></rect>
        <g id="status" transform="translate(32.000000, 13.000000)" fill="#4360DF" fill-rule="nonzero">
            <path d="M51.605941,25.4932963 L55.0364123,25.4932963 C55.0364123,25.9913685 55.200257,26.3487934 55.5279463,26.5655709 C56.2398293,26.9581792 57.0918042,26.9995813 57.838028,26.6778307 C58.1025159,26.5481205 58.2634949,26.2712407 58.2461425,25.9758843 C58.2528401,25.8012249 58.190558,25.6309911 58.0728863,25.5023287 C57.9211901,25.3566987 57.7405527,25.2450016 57.542851,25.1745818 C57.3041425,25.0782362 56.9995539,24.971998 56.6290853,24.8558672 L55.2853878,24.4326348 C54.8156712,24.2820949 54.3741889,24.1259634 53.960941,23.9642404 C53.5719697,23.8143727 53.2063464,23.6092774 52.8752026,23.3551988 C52.5675262,23.1217335 52.3168945,22.8207557 52.1423933,22.4751852 C51.9568962,22.0714173 51.8689467,21.6292838 51.8857176,21.1848428 C51.8721845,20.6561013 51.9913559,20.1324525 52.2322298,19.6622387 C52.463282,19.2329423 52.7972031,18.8683814 53.2037475,18.6015771 C53.6620573,18.305204 54.1692142,18.0932882 54.7014505,17.9757611 C55.3328148,17.830712 55.9789107,17.7605551 56.6265185,17.7667256 C57.3700219,17.7551202 58.1110583,17.8555921 58.8249463,18.0647947 C59.3797662,18.2267591 59.8965195,18.4992633 60.3444666,18.8660974 C60.7281722,19.1883378 61.0292357,19.598572 61.2222977,20.0622448 C61.4153942,20.5335303 61.5122838,21.0390371 61.5072077,21.5487193 L58.0536357,21.5487193 C58.0536357,21.0893574 57.9368482,20.7332229 57.7019899,20.4764448 C57.4671316,20.2196666 57.1116357,20.089342 56.6342188,20.089342 C56.3050638,20.0801491 55.9799718,20.1642105 55.696069,20.3319263 C55.4410601,20.4823715 55.2902502,20.7627594 55.3046384,21.0596796 C55.2967839,21.2493969 55.3631207,21.4346657 55.489445,21.5758165 C55.644928,21.73075 55.8294492,21.8531158 56.0323142,21.9358221 C56.2710226,22.0407699 56.565772,22.1491587 56.9165622,22.2609884 L58.1229381,22.6480911 C58.6131888,22.7762652 59.0709272,22.9177727 59.4961533,23.0726139 C59.8925905,23.214513 60.2698332,23.405675 60.6191097,23.6416548 C60.9365977,23.8584215 61.200099,24.1458717 61.3891369,24.4816678 C61.5930555,24.8762669 61.6916656,25.317307 61.6753304,25.7616876 C61.6931986,26.3684436 61.5543579,26.9694984 61.2723495,27.5062305 C61.0110817,27.9776275 60.6414505,28.3793492 60.1943113,28.6778615 C59.7153135,28.9895721 59.1825232,29.208396 58.6234558,29.3230328 C58.0065362,29.4569074 57.3769927,29.5231021 56.7458728,29.5205315 C55.1142706,29.5205315 53.8497148,29.1763639 52.9522053,28.4881811 C52.0546958,27.7999985 51.605941,26.8017035 51.605941,25.4932963" id="Shape"></path>
            <path d="M61.9050551,20.7099968 L61.9050551,18.0815691 L63.626066,18.0815691 L63.626066,14.7757117 L67.1207062,14.7757117 L67.1207062,18.0815691 L69.6245781,18.0815691 L69.6245781,20.7099968 L67.1207062,20.7099968 L67.1207062,24.6687674 C67.1112462,24.9998393 67.1492827,25.3305543 67.2336435,25.6507181 C67.2913383,25.8646873 67.4006635,26.0610333 67.5519215,26.2223398 C67.6892537,26.3604763 67.8643926,26.4543607 68.0550059,26.4920214 C68.2739649,26.5349835 68.4967219,26.5553048 68.719796,26.5526675 C68.868668,26.5526675 69.058608,26.5526675 69.2896162,26.535893 C69.4918109,26.5285489 69.6933073,26.5078589 69.8928042,26.4739566 L69.8928042,29.2133536 C69.6361285,29.2585156 69.3063001,29.3010969 68.9148696,29.3423879 C68.5234391,29.3836789 68.0639896,29.399163 67.5352375,29.399163 C67.1004342,29.3975051 66.6661859,29.367766 66.2351749,29.3101293 C65.7824599,29.2510085 65.3491854,29.0885868 64.9684801,28.8352833 C64.545644,28.5390928 64.2121648,28.1314781 64.0046628,27.6572007 C63.747987,27.1264397 63.6196491,26.3986866 63.6196491,25.4739411 L63.6196491,20.7099968 L61.9050551,20.7099968 Z" id="Shape"></path>
            <path d="M70.2264827,23.6429452 C70.2190068,22.8509769 70.3537836,22.0641556 70.6243301,21.3203287 C70.8718796,20.6372712 71.2513387,20.0101783 71.7408695,19.475139 C72.2126526,18.9619246 72.7793323,18.5460039 73.4092619,18.2506039 C74.055105,17.9473861 74.7601723,17.7930872 75.4729348,17.7989842 C76.22288,17.7799416 76.9642274,17.9630541 77.6200274,18.3293149 C78.1874047,18.6449874 78.6592512,19.1091391 78.9855424,19.6725614 L78.9855424,18.0815691 L82.4840327,18.0815691 L82.4840327,29.214644 L78.9765587,29.214644 L78.9765587,27.6468779 C78.661347,28.1987723 78.2002514,28.6520973 77.6444116,28.9565755 C76.9787306,29.3307188 76.2250335,29.5174909 75.4626677,29.497229 C74.7534142,29.5011173 74.0521227,29.3468774 73.4092619,29.0456091 C72.7779922,28.7502139 72.2110015,28.3323107 71.7408695,27.8159127 C71.2544962,27.2782 70.8773812,26.6500634 70.6307469,25.966852 C70.3602005,25.2230251 70.2254238,24.4362038 70.2328995,23.6442356 M73.7301066,23.6442356 C73.7288998,24.019501 73.7949808,24.3919124 73.9251801,24.7436074 C74.0454414,25.0758676 74.2270107,25.3823139 74.460349,25.646847 C74.6917946,25.90146 74.9703379,26.1083235 75.280428,26.2558887 C75.6153279,26.4130188 75.9812309,26.491978 76.3507659,26.4868601 C76.7223257,26.491579 77.0902289,26.4126613 77.4275206,26.2558887 C77.7397369,26.1093892 78.0201566,25.9024276 78.2527331,25.646847 C78.486057,25.3847337 78.6676731,25.0803977 78.787902,24.750059 C78.9191111,24.3964019 78.9852124,24.0216895 78.9829755,23.6442356 C78.9858171,22.9153907 78.7264602,22.21009 78.2527331,21.6583985 C78.0246323,21.3930736 77.7428642,21.1797211 77.4262372,21.0325823 C77.0864382,20.8785971 76.7170182,20.801933 76.3443489,20.8080628 C75.9754755,20.802711 75.6099831,20.8793785 75.2740111,21.0325823 C74.9601699,21.1789933 74.6806901,21.39051 74.4539322,21.6532371 C74.2251656,21.9211034 74.0441167,22.2266716 73.9187632,22.5564768 C73.7876024,22.9020782 73.7214552,23.2691748 73.7236896,23.6390742" id="Shape"></path>
            <path d="M83.6878419,20.7099968 L83.6878419,18.0815691 L85.4088527,18.0815691 L85.4088527,14.7757117 L88.907343,14.7757117 L88.907343,18.0815691 L91.4112149,18.0815691 L91.4112149,20.7099968 L88.907343,20.7099968 L88.907343,24.6687674 C88.8975538,24.9997733 88.9351566,25.3304745 89.018997,25.6507181 C89.0771806,25.8644864 89.1864428,26.0607193 89.337275,26.2223398 C89.4747468,26.3602868 89.6498249,26.4541385 89.8403594,26.4920214 C90.0593349,26.5348677 90.2820801,26.5551879 90.5051495,26.5526675 C90.6540215,26.5526675 90.8439616,26.5526675 91.0749697,26.535893 C91.2775896,26.528546 91.4795126,26.5078562 91.679441,26.4739566 L91.679441,29.2133536 C91.4227653,29.2585156 91.0916536,29.3010969 90.7015065,29.3423879 C90.3113594,29.3836789 89.8493431,29.399163 89.3205911,29.399163 C88.8862126,29.3975461 88.4523885,29.3678066 88.0218117,29.3101293 C87.5690967,29.2510085 87.1358224,29.0885868 86.755117,28.8352833 C86.3319622,28.53944 85.9984012,28.1317255 85.7912996,27.6572007 C85.5346238,27.1264397 85.406286,26.3986866 85.406286,25.4739411 L85.406286,20.7099968 L83.6878419,20.7099968 Z" id="Shape"></path>
            <path d="M92.7356617,24.6919936 L92.7356617,18.0815691 L96.2341521,18.0815691 L96.2341521,23.7887539 C96.2341521,24.5861856 96.3753238,25.2352278 96.657667,25.7358807 C96.9400104,26.2365336 97.446945,26.4864299 98.1784708,26.4855697 C98.9057187,26.4855697 99.4425988,26.2318023 99.7891111,25.7242676 C100.135623,25.2167329 100.30674,24.5285502 100.302463,23.6597197 L100.302463,18.0815691 L103.79967,18.0815691 L103.79967,29.214644 L100.302463,29.214644 L100.302463,27.6249421 C99.9907121,28.2174574 99.5037232,28.6980716 98.9087133,29.0004471 C98.2849913,29.3316351 97.5384927,29.497229 96.6692174,29.497229 C95.8991903,29.497229 95.278035,29.3772272 94.7865009,29.1359331 C94.3277738,28.9203063 93.9200157,28.6088693 93.590392,28.2223706 C93.2376256,27.7932352 92.9995424,27.2807327 92.8986508,26.7333154 C92.7811943,26.0594653 92.7266274,25.3760534 92.7356617,24.6919936" id="Shape"></path>
            <path d="M105.063798,25.4932963 L108.494269,25.4932963 C108.494269,25.9913685 108.658114,26.3487934 108.985803,26.5655709 C109.697686,26.9581792 110.54966,26.9995813 111.295885,26.6778307 C111.560372,26.5481205 111.721351,26.2712407 111.703999,25.9758843 C111.710697,25.8012249 111.648415,25.6309911 111.530743,25.5023287 C111.379046,25.3566987 111.198409,25.2450016 111.000707,25.1745818 C110.761999,25.0782362 110.457839,24.971998 110.088225,24.8558672 L108.743244,24.4326348 C108.273528,24.2820949 107.832045,24.1259634 107.418798,23.9642404 C107.028931,23.8159706 106.662052,23.612636 106.329209,23.3603602 C106.021533,23.1268948 105.770901,22.8259171 105.5964,22.4803466 C105.410902,22.0765787 105.322953,21.6344452 105.339724,21.1900041 C105.326191,20.6612626 105.445362,20.1376139 105.686236,19.6674001 C105.917288,19.2381037 106.25121,18.8735427 106.657754,18.6067385 C107.116064,18.3103654 107.623221,18.0984496 108.155457,17.9809224 C108.786821,17.8358734 109.432917,17.7657164 110.080525,17.7718869 C110.825057,17.7582177 111.567415,17.8569529 112.282802,18.0647947 C112.837622,18.2267591 113.354376,18.4992633 113.802323,18.8660974 C114.186029,19.1883378 114.487092,19.598572 114.680155,20.0622448 C114.873251,20.5335303 114.97014,21.0390371 114.965064,21.5487193 L111.511492,21.5487193 C111.511492,21.0893574 111.394705,20.7332229 111.159846,20.4764448 C110.924988,20.2196666 110.569492,20.089342 110.092075,20.089342 C109.76292,20.0801491 109.437828,20.1642105 109.153926,20.3319263 C108.901383,20.4840446 108.753217,20.7641078 108.768912,21.0596796 C108.761057,21.2493969 108.827394,21.4346657 108.953718,21.5758165 C109.109774,21.7284344 109.294256,21.8485819 109.496588,21.9293704 C109.735296,22.0343182 110.030045,22.142707 110.380835,22.2545367 L111.587212,22.6416395 C112.079174,22.7698134 112.536911,22.911321 112.960427,23.0661621 C113.356864,23.2080614 113.734107,23.3992234 114.083383,23.6352031 C114.400479,23.8524261 114.663888,24.1397751 114.85341,24.4752161 C115.056885,24.8699355 115.155051,25.3109692 115.138321,25.7552358 C115.156464,26.3634084 115.017159,26.965889 114.734056,27.5036499 C114.472788,27.9750468 114.103157,28.3767684 113.656017,28.6752809 C113.177133,28.9872084 112.644301,29.2060497 112.085163,29.3204521 C111.468662,29.454234 110.839554,29.5204281 110.208863,29.5179457 C108.576405,29.5179457 107.311421,29.1737831 106.413912,28.4856005 C105.516403,27.7974179 105.067648,26.7991229 105.067648,25.4907156" id="Shape"></path>
            <path d="M22.0240619,0 C9.8683051,0 0.0141171657,9.90765797 0.0141171657,22.1293735 C0.0141171657,34.351089 9.8683051,44.2587469 22.0240619,44.2587469 C34.1798188,44.2587469 44.0340067,34.351089 44.0340067,22.1293735 C44.0340067,16.2602988 41.7151085,10.631606 37.5874431,6.48154342 C33.4597778,2.33148087 27.8614622,0 22.0240619,0 Z M18.6526261,31.9592024 C15.8920785,32.1153338 13.1340976,30.4417597 12.982659,27.7242984 C12.8363538,25.0532896 14.907727,23.2661652 18.3330648,23.0726139 C20.8600374,22.9293858 22.4398767,23.5074593 24.9706994,23.3642312 C25.5975148,23.3294743 26.220149,23.2401055 26.8315985,23.0971304 C26.4581354,27.6881688 23.1508685,31.7050049 18.6526261,31.9592024 Z M25.7355932,21.924209 C23.0982499,22.0777598 21.4452581,21.4596857 18.8053482,21.6132365 C18.1509181,21.6497181 17.5010628,21.7451558 16.8635962,21.8984021 C17.2486098,16.9951007 20.706032,12.700841 25.4019147,12.4285788 C28.2830999,12.2608342 31.1630016,14.0505392 31.3195739,16.9538098 C31.4735793,19.8080474 29.3098028,21.7177542 25.7355932,21.924209 Z" id="Shape"></path>
        </g>
    </g>
</svg>