<?xml version="1.0" encoding="UTF-8"?>
<svg width="180px" height="70px" viewBox="0 0 180 70" version="1.1" xmlns="http://www.w3.org/2000/svg" xmlns:xlink="http://www.w3.org/1999/xlink">
    <!-- Generator: Sketch 55.2 (78181) - https://sketchapp.com -->
    <title>truffle</title>
    <desc>Created with Sketch.</desc>
    <g id="Zeppelin-Desktop" stroke="none" stroke-width="1" fill="none" fill-rule="evenodd">
        <rect id="Rectangle-Copy-26" fill="#F8F8FA" opacity="0" x="0" y="0" width="180" height="70"></rect>
        <g id="68747470733a2f2f74727566666c656672616d65776f726b2e636f6d2f696d672f74727566666c652d6c6f676f2d6461726b2e737667-copy" transform="translate(62.000000, 5.000000)" fill-rule="nonzero">
            <polygon id="Fill-12" fill="#5E464D" points="0 51.4885714 4.48928571 51.4885714 4.48928571 53.0121429 3.01071429 53.0121429 3.01071429 59.6121429 1.44214286 59.6121429 1.44214286 53.0121429 0 53.0121429"></polygon>
            <path d="M9.92357143,54.6642857 L10.8428571,54.6642857 C11.3357143,54.6642857 11.6742857,54.6 11.8585714,54.4714286 C12.0548023,54.3185315 12.1597669,54.0763056 12.1371429,53.8285714 C12.1423126,53.6608949 12.0943083,53.4958803 12,53.3571429 C11.9099746,53.2259325 11.7810698,53.1262561 11.6314286,53.0721429 C11.35169,53.0004063 11.0626902,52.9715064 10.7742857,52.9864286 L9.91714286,52.9864286 L9.92357143,54.6642857 Z M8.37642857,51.4885714 L10.4507143,51.4885714 C11.3478571,51.4885714 11.9871429,51.5685714 12.3685714,51.7285714 C12.7510604,51.8913999 13.0721339,52.1712139 13.2857143,52.5278571 C13.5260719,52.9245751 13.6473154,53.3820277 13.635,53.8457143 C13.6524674,54.3218437 13.5173227,54.7910958 13.2492857,55.185 C12.9585169,55.5705918 12.5547951,55.8559684 12.0942857,56.0014286 L14.0228571,59.6121429 L12.3278571,59.6121429 L10.5,56.1728571 L9.92357143,56.1728571 L9.92357143,59.6121429 L8.37642857,59.6121429 L8.37642857,51.4885714 Z" id="Fill-14" fill="#5E464D"></path>
            <path d="M17.9507143,51.4885714 L19.5,51.4885714 L19.5,56.7428571 C19.4822493,57.0674591 19.5228935,57.3926123 19.62,57.7028571 C19.6977033,57.8913309 19.8355825,58.0487995 20.0121429,58.1507143 C20.2115856,58.2687158 20.4405259,58.3274375 20.6721429,58.32 C20.9194868,58.3267846 21.1635345,58.2620524 21.375,58.1335714 C21.5595578,58.0227885 21.7031799,57.8551041 21.7842857,57.6557143 C21.8800742,57.2946819 21.918401,56.9208153 21.8978571,56.5478571 L21.8978571,51.4885714 L23.4492857,51.4885714 L23.4492857,56.3314286 C23.4729287,56.9020381 23.4268742,57.4734012 23.3121429,58.0328571 C23.2066299,58.3738864 23.0265655,58.6871691 22.785,58.95 C22.5386029,59.229895 22.2314991,59.4497784 21.8871429,59.5928571 C21.511271,59.7430745 21.1089674,59.8159556 20.7042857,59.8071429 C20.1632832,59.8193417 19.6298733,59.6781887 19.1657143,59.4 C18.7596288,59.1619368 18.4336331,58.8083396 18.2292857,58.3842857 C18.0421429,57.9771429 17.9485714,57.2892857 17.9485714,56.3207143 L17.9507143,51.4885714 Z" id="Fill-16" fill="#5E464D"></path>
            <polygon id="Fill-19" fill="#5E464D" points="28.1314286 51.4885714 32.1642857 51.4885714 32.1642857 52.995 29.6678571 52.995 29.6678571 54.4714286 32.1642857 54.4714286 32.1642857 55.9564286 29.6678571 55.9564286 29.6678571 59.6121429 28.1314286 59.6121429"></polygon>
            <polygon id="Fill-21" fill="#5E464D" points="36.4435714 51.4885714 40.4764286 51.4885714 40.4764286 52.995 37.98 52.995 37.98 54.4714286 40.4764286 54.4714286 40.4764286 55.9564286 37.98 55.9564286 37.98 59.6121429 36.4435714 59.6121429"></polygon>
            <polygon id="Fill-23" fill="#5E464D" points="44.7428571 51.4885714 46.29 51.4885714 46.29 58.1378571 48.5421429 58.1378571 48.5421429 59.6121429 44.7428571 59.6121429"></polygon>
            <polygon id="Fill-25" fill="#5E464D" points="52.4357143 51.4885714 56.8692857 51.4885714 56.8692857 53.0014286 53.97 53.0014286 53.97 54.4714286 56.8692857 54.4714286 56.8692857 55.9564286 53.97 55.9564286 53.97 58.095 56.8692857 58.095 56.8692857 59.6121429 52.4357143 59.6121429"></polygon>
            <ellipse id="Oval" fill="#5E464D" cx="28.3821429" cy="21.8871429" rx="21.6342857" ry="21.8871429"></ellipse>
            <path d="M21.5785714,41.295 C22.4635714,41.5971429 25.4357143,42.5635714 25.5621429,41.6185714 C25.6307143,41.1 24.0621429,40.5685714 21.9385714,39.4435714 C18.9182918,37.8473199 16.1552495,35.8059193 13.7421429,33.3878571 C10.219908,29.9342111 8.19458069,25.2356364 8.10214286,20.3035714 C7.92214286,13.6821429 10.5107143,8.32928571 14.7685714,4.875 C9.56172856,8.89383363 6.44431249,15.046007 6.28285714,21.6214286 C6.15642857,26.4107143 7.49571429,30.4457143 10.0114286,34.1185714 C10.7926106,35.1275382 11.7057745,36.0270082 12.7264286,36.7928571 C15.1371429,38.6164286 18.6621429,40.3028571 21.5785714,41.2928571" id="Fill-6" fill="#FFFFFF"></path>
            <path d="M50.3142857,16.8707143 C48.9728571,10.5621429 44.8028571,6.14571429 39.225,3.02571429 C43.5,6.06214286 49.5,12.5185714 45.9535714,18.2142857 C42.9535714,22.7764286 35.6678571,21.8828571 31.6714286,19.7142857 C26.9314286,17.1428571 21,11.3571429 26.85,5.70214286 C30.6428571,2.04214286 42.7071429,6.14571429 40.5835714,11.6164286 C39.345,14.7985714 34.5235714,14.0914286 32.355,12.5357143 C30.7564286,11.3871429 29.4107143,9.41357143 30.1242857,7.37571429 C30.3514286,6.72214286 30.3192857,5.70857143 29.3957143,6.45428571 C28.7142857,7.01142857 28.3607143,7.92857143 28.2407143,8.78571429 C27.2314286,15.9192857 39.9407143,21.45 43.7121429,14.5478571 C45.6685714,10.965 42.4971429,5.76214286 38.505,3.63214286 C35.505,2.025 32.3828571,0.895714286 28.5557143,1.17 C22.4357143,1.59857143 17.3014286,5.43428571 16.6564286,11.6871429 C16.0135714,17.9014286 20.1685714,23.4942857 25.0607143,26.8392857 C30.2035714,30.3535714 37.1164286,32.67 43.4421429,30.5742857 C49.1121429,28.695 51.4542857,22.1871429 50.3142857,16.875" id="Fill-8" fill="#FFFFFF"></path>
            <path d="M42.3342857,12.0385714 C42.9428571,7.95 39.2464286,5.14285714 35.8328571,3.86785714 C31.8085714,2.36785714 26.4921429,3.02357143 23.5607143,6.35571429 C21.4178571,8.80285714 21.5571429,12.3557143 22.6628571,15.2314286 C24.3342857,19.575 28.1078571,22.7142857 32.5007143,24.0707143 C35.6228571,25.035 39.3964286,25.455 42.5592857,24.4371429 C47.1728571,22.9521429 48.675,18.1414286 47.7214286,13.7335714 C47.5172652,12.7806789 47.2037606,11.8545462 46.7871429,10.9735714 C46.2042857,9.75 44.4192857,7.27285714 46.8792857,10.29 C47.1371487,10.6262489 47.3747139,10.9775877 47.5907143,11.3421429 C48.0981747,12.175762 48.5005182,13.068979 48.7885714,14.0014286 C50.13,18.1157143 49.0778571,22.9157143 45.36,25.3992857 C42.5078571,27.3 38.8821429,27.5271429 35.5735714,27.0514286 C31.1378571,26.4085714 26.9571429,24.2657143 24.0514286,20.8178571 C21.3985714,17.6742857 19.5878571,13.1592857 20.6785714,9.03214286 C21.4778571,6.01285714 23.9292857,3.75857143 26.865,2.81785714 C30.5785714,1.61571429 34.6671429,2.175 38.0078571,4.12714286 C39.6835714,5.10214286 41.2221429,6.45214286 42.0792857,8.22214286 C42.4669676,9.01951046 42.6754172,9.89207286 42.69,10.7785714 C42.6985223,11.1376235 42.6705212,11.4966119 42.6064286,11.85 C42.5828571,11.9785714 42.3107143,12.3407143 42.3492857,12.0428571" id="Fill-10" fill="#3FE0C5"></path>
        </g>
    </g>
</svg>