<?xml version="1.0" encoding="UTF-8"?>
<svg width="27px" height="30px" viewBox="0 0 27 30" version="1.1" xmlns="http://www.w3.org/2000/svg" xmlns:xlink="http://www.w3.org/1999/xlink">
    <!-- Generator: Sketch 51.3 (57544) - http://www.bohemiancoding.com/sketch -->
    <title>ic_home</title>
    <desc>Created with Sketch.</desc>
    <defs></defs>
    <g id="Zeppelin-Desktop" stroke="none" stroke-width="1" fill="none" fill-rule="evenodd">
        <g id="Home" transform="translate(-707.000000, -613.000000)" fill="#000000" stroke="#052431">
            <g id="Challenges" transform="translate(240.000000, 598.000000)">
                <g id="ic_home" transform="translate(468.000000, 16.000000)">
                    <path d="M23.4756098,20.1487573 L12.689547,26.251989 L12.6906794,14.1920988 L23.7356272,7.94425732 C23.8219512,7.89542805 23.8678571,7.80562317 23.8650697,7.71445244 C23.8713415,7.66161098 23.8618467,7.60663537 23.8325784,7.5570378 C23.760453,7.43462317 23.600784,7.3927939 23.4756098,7.4633061 L12.4297909,13.7145622 L1.77264808,7.68517195 L12.560453,1.58176951 C12.685453,1.51108659 12.7283101,1.35444024 12.6560976,1.23194024 C12.5840592,1.10952561 12.4243031,1.06761098 12.2991289,1.13820854 L1.11933798,7.4633061 C1.03850174,7.50914756 0.988675958,7.59365976 0.988675958,7.68517195 C0.988675958,7.77659878 1.03850174,7.86119634 1.11933798,7.90695244 L12.1659408,14.1567573 L12.1655052,26.2514768 L1.38101045,20.1509768 C1.25601045,20.0802085 1.09616725,20.1222939 1.02404181,20.2447939 C0.951916376,20.3672939 0.994773519,20.5239402 1.11968641,20.5946232 L12.2891986,26.9128915 C12.2917247,26.914428 12.2936411,26.9166476 12.2961672,26.9180988 C12.3365854,26.9409768 12.3817944,26.9524159 12.4268293,26.9524159 C12.4719512,26.9524159 12.5170732,26.9409768 12.5574913,26.9180988 L12.5579268,26.9178427 C12.5581882,26.9177573 12.5585366,26.917672 12.5587979,26.9175866 C12.5590592,26.9174159 12.5592334,26.9171598 12.5595819,26.916989 L23.7369338,20.5923183 C23.8619338,20.5216354 23.9047909,20.364989 23.8325784,20.242489 C23.760453,20.1200744 23.600784,20.0781598 23.4756098,20.1487573" id="Fill-1" stroke-width="0.875"></path>
                    <path d="M13.8066202,14.0426829 C13.8066202,14.7969756 13.1826655,15.4085366 12.412892,15.4085366 C11.6431185,15.4085366 11.0191638,14.7969756 11.0191638,14.0426829 C11.0191638,13.2883902 11.6431185,12.6768293 12.412892,12.6768293 C13.1826655,12.6768293 13.8066202,13.2883902 13.8066202,14.0426829" id="Fill-3" stroke-width="1.75"></path>
                    <path d="M2.78745645,7.68292683 C2.78745645,8.43721951 2.16350174,9.04878049 1.39372822,9.04878049 C0.623954704,9.04878049 0,8.43721951 0,7.68292683 C0,6.92863415 0.623954704,6.31707317 1.39372822,6.31707317 C2.16350174,6.31707317 2.78745645,6.92863415 2.78745645,7.68292683" id="Fill-5" stroke-width="1.75"></path>
                    <path d="M2.78745645,20.4878049 C2.78745645,21.2420976 2.16350174,21.8536585 1.39372822,21.8536585 C0.623954704,21.8536585 0,21.2420976 0,20.4878049 C0,19.7335122 0.623954704,19.1219512 1.39372822,19.1219512 C2.16350174,19.1219512 2.78745645,19.7335122 2.78745645,20.4878049" id="Fill-7" stroke-width="1.75"></path>
                    <path d="M13.7630662,1.36585366 C13.7630662,2.12014634 13.1391115,2.73170732 12.369338,2.73170732 C11.5995645,2.73170732 10.9756098,2.12014634 10.9756098,1.36585366 C10.9756098,0.611560976 11.5995645,0 12.369338,0 C13.1391115,0 13.7630662,0.611560976 13.7630662,1.36585366" id="Fill-9" stroke-width="1.75"></path>
                    <path d="M13.7630662,26.6341463 C13.7630662,27.388439 13.1391115,28 12.369338,28 C11.5995645,28 10.9756098,27.388439 10.9756098,26.6341463 C10.9756098,25.8798537 11.5995645,25.2682927 12.369338,25.2682927 C13.1391115,25.2682927 13.7630662,25.8798537 13.7630662,26.6341463" id="Fill-11" stroke-width="1.75"></path>
                    <path d="M25,20.402439 C25,21.1567317 24.3760453,21.7682927 23.6062718,21.7682927 C22.8364983,21.7682927 22.2125436,21.1567317 22.2125436,20.402439 C22.2125436,19.6481463 22.8364983,19.0365854 23.6062718,19.0365854 C24.3760453,19.0365854 25,19.6481463 25,20.402439" id="Fill-13" stroke-width="1.75"></path>
                    <path d="M25,7.68292683 C25,8.43721951 24.3760453,9.04878049 23.6062718,9.04878049 C22.8364983,9.04878049 22.2125436,8.43721951 22.2125436,7.68292683 C22.2125436,6.92863415 22.8364983,6.31707317 23.6062718,6.31707317 C24.3760453,6.31707317 25,6.92863415 25,7.68292683" id="Fill-15" stroke-width="1.75"></path>
                </g>
            </g>
        </g>
    </g>
</svg>