<?xml version="1.0" encoding="UTF-8"?>
<svg width="101px" height="40px" viewBox="0 0 101 40" version="1.1" xmlns="http://www.w3.org/2000/svg" xmlns:xlink="http://www.w3.org/1999/xlink">
    <!-- Generator: Sketch 49.3 (51167) - http://www.bohemiancoding.com/sketch -->
    <title>augur</title>
    <desc>Created with Sketch.</desc>
    <defs></defs>
    <g id="Page-1" stroke="none" stroke-width="1" fill="none" fill-rule="evenodd">
        <g id="augur" transform="translate(-30.000000, -10.000000)">
            <rect id="Rectangle-8" fill-opacity="0" fill="#FFFFFF" opacity="0" x="0" y="0" width="160" height="60"></rect>
            <g id="Group-27" transform="translate(30.000000, 10.000000)" fill="#273B5A" fill-rule="nonzero">
                <path d="M24.2067458,20.568421 C23.7659593,19.3052632 23.0103254,18.1894737 22.0238033,17.3263158 L21.6459863,17.0105263 L21.6249965,16.9894737 C21.4990575,16.8842105 21.3731185,16.8 21.2471795,16.7157895 L21.2261897,16.6947368 C21.1002507,16.6105263 20.9743117,16.5263158 20.8273829,16.4421053 C20.8063931,16.4421053 20.8063931,16.4210526 20.7854032,16.4210526 C20.6594642,16.3368421 20.5125354,16.2736842 20.3865964,16.2105263 C20.3656066,16.2105263 20.3656066,16.1894737 20.3446167,16.1894737 C20.2186778,16.1263158 20.0717489,16.0631579 19.9248201,16 C19.9038303,16 19.9038303,15.9789474 19.8828405,15.9789474 C19.7569014,15.9368421 19.6309625,15.8736842 19.5050235,15.831579 C19.1691862,15.7052632 18.812359,15.6 18.4555319,15.5368421 C18.1826641,16.0631579 17.8048471,16.5263158 17.3850505,16.9263158 C18.0357353,16.968421 18.6654302,17.1368421 19.2321557,17.368421 C19.567993,17.5157895 19.9038303,17.6842105 20.1976879,17.8736842 C20.2186778,17.8736842 20.2396676,17.8947368 20.2396676,17.8947368 C20.3236269,17.9368421 20.3865964,18 20.4705557,18.0631579 C20.5125354,18.0842105 20.5335252,18.1052632 20.5755049,18.1473684 C20.6384744,18.1894737 20.7224337,18.2526316 20.7854032,18.3157895 C20.8273829,18.3578947 20.8693625,18.3789474 20.9113422,18.4210526 C20.9743117,18.4842105 21.0372812,18.5263158 21.1002507,18.5894737 L21.2261897,18.7157895 L21.3941083,18.8842105 L21.5200473,19.0105263 C21.562027,19.0736842 21.6249965,19.1368421 21.6669761,19.1789474 C21.7089558,19.2210526 21.7509355,19.2842105 21.7929151,19.3263158 L21.9188541,19.5157895 C21.9608338,19.5789474 22.0028135,19.6210526 22.0238033,19.6842105 L22.1497422,19.8736842 C22.1917219,19.9368421 22.2127117,20 22.2546914,20.0421053 C22.2966711,20.1052632 22.3176609,20.168421 22.3596406,20.231579 C22.4016202,20.2947368 22.4226101,20.3578947 22.4645897,20.4210526 C22.4855796,20.4842105 22.5275592,20.5473684 22.5485491,20.6105263 C22.5905287,20.6947368 22.6115186,20.7789474 22.6534982,20.8421053 C22.8214169,21.2631579 22.9473559,21.7052632 23.0103254,22.1894737 L23.1992339,22.9263158 C23.2831932,23.2421053 24.0388271,25.9368421 25.801973,26.8421053 C27.8169968,27.8947368 30.4827054,29.2 31.532197,29.7052632 L17.6998979,38 L17.6998979,32.3157895 C17.6998979,31.4105263 19.4840336,30.3578947 20.3026371,30 L20.3446167,29.9789474 C20.5125354,29.8947368 20.680454,29.8105263 20.8483727,29.7052632 L20.9113422,29.6631579 C21.2681693,29.4526316 21.6040066,29.2 21.9188541,28.9263158 C21.9398439,28.9052632 21.9818236,28.8842105 22.0028135,28.8421053 C22.0447931,28.8210526 22.0657829,28.7789474 22.1077626,28.7578947 C22.2127117,28.6736842 22.2966711,28.568421 22.4016202,28.4842105 L22.4435999,28.4421053 C22.5485491,28.3368421 22.6534982,28.231579 22.7374575,28.1052632 C22.7584474,28.0631579 22.800427,28.0421053 22.8214169,28 C22.9053762,27.9157895 22.9683457,27.8105263 23.052305,27.7052632 C23.0732948,27.6842105 23.0942847,27.6421053 23.1152745,27.6210526 L23.3671525,27.2421053 C23.3671525,27.2210526 23.3881423,27.2210526 23.3881423,27.2 C23.4930915,27.031579 23.5980406,26.8421053 23.7029898,26.6736842 C23.2831932,26.168421 22.9683457,25.6210526 22.7164677,25.1157895 C22.6115186,25.431579 22.4645897,25.7473684 22.3176609,26.0210526 C22.2546914,26.1473684 22.1707321,26.2736842 22.1077626,26.4 C22.0867728,26.4210526 22.0867728,26.4421053 22.0657829,26.4421053 C22.0028135,26.5473684 21.9188541,26.6526316 21.8558846,26.7368421 C21.8348948,26.7578947 21.8139049,26.8 21.7929151,26.8210526 C21.7299456,26.9263158 21.6459863,27.0105263 21.562027,27.0947368 C21.5410371,27.1157895 21.5410371,27.1368421 21.5200473,27.1368421 C21.0162913,27.7052632 20.4075862,28.1894737 19.7149218,28.5263158 L19.5889828,28.5894737 C19.2321557,28.7368421 16.1466504,30.1473684 16.1466504,32.2736842 L16.1466504,37.9578947 L2.29336155,29.6842105 C3.19592431,29.1368421 5.79866344,27.5789474 7.93962625,26.9052632 C8.7792195,26.631579 10.5633552,27.768421 11.5708671,28.5894737 L11.6338366,28.6526316 C11.7597756,28.7789474 11.9067044,28.9052632 12.0536333,29.0105263 L12.0956129,29.0526316 C12.4104604,29.3052632 12.7462977,29.5578947 13.1241147,29.7473684 L13.3759926,29.8736842 C13.3969825,29.8736842 13.4179723,29.8947368 13.4179723,29.8947368 C13.6488605,30.0210526 13.8797486,30.1263158 14.1316266,30.231579 C14.1736063,30.2526316 14.1945961,30.2526316 14.2365757,30.2736842 C14.2575656,30.2736842 14.2785554,30.2947368 14.3205351,30.2947368 C14.6773622,30.4210526 15.0341893,30.5263158 15.3910165,30.6105263 C15.6638843,30.0842105 16.0626911,29.6210526 16.4824877,29.2210526 C15.8737826,29.1789474 15.3070571,29.0526316 14.7613215,28.8421053 C14.7403317,28.8210526 14.698352,28.8210526 14.6773622,28.8 C14.6143927,28.7789474 14.5514232,28.7578947 14.4884537,28.7157895 C14.4674639,28.6947368 14.4254842,28.6947368 14.4044944,28.6736842 C14.3415249,28.6526316 14.2785554,28.6105263 14.2365757,28.5894737 C13.8167791,28.3789474 13.4389621,28.1473684 13.082135,27.8526316 L12.5363994,27.3473684 C12.5154095,27.3263158 11.8437349,26.7157895 10.8991925,26.168421 C9.53485344,25.3894737 8.38041271,25.1368421 7.4988398,25.4105263 C5.67272443,26 3.59473111,27.1157895 2.33534121,27.8526316 L16.1676402,2.92631579 L16.1676402,13.8526316 C16.1676402,14.231579 15.6009148,15.2421053 13.6908401,16.1052632 L13.5649011,16.168421 C13.3759926,16.2526316 13.208074,16.3578947 13.0191655,16.4631579 L12.9771859,16.4842105 C12.6203587,16.6947368 12.2845214,16.9473684 11.9486841,17.2210526 C11.7387858,17.3894737 11.5498773,17.5789474 11.3819586,17.768421 L11.3609688,17.7894737 C11.1720603,17.9789474 11.0041417,18.168421 10.8572129,18.3789474 L10.836223,18.4 C10.7522637,18.5052632 10.6892942,18.6105263 10.6053349,18.7157895 C10.6053349,18.7368421 10.5843451,18.7368421 10.5843451,18.7578947 C10.5213755,18.8631579 10.458406,18.9473684 10.3954365,19.0526316 C10.3954365,19.0736842 10.3744467,19.0736842 10.3744467,19.0947368 L10.1855382,19.4105263 C10.1645484,19.431579 10.1645484,19.4526316 10.1435586,19.4947368 C10.0805891,19.6 10.0386094,19.7052632 9.99662976,19.7894737 C9.99662976,19.8105263 9.9756399,19.831579 9.9756399,19.831579 C9.93366027,19.9368421 9.8916806,20.0210526 9.84970093,20.1263158 C9.82871111,20.168421 9.82871111,20.1894737 9.80772125,20.231579 L9.68178228,20.5473684 C9.66079246,20.5894737 9.66079246,20.6105263 9.63980261,20.6526316 C9.61881279,20.7368421 9.59782293,20.8 9.5558433,20.8842105 C9.53485344,20.9263158 9.53485344,20.968421 9.51386363,21.0105263 C9.49287377,21.1157895 9.45089414,21.2210526 9.42990428,21.3052632 C9.40891447,21.3473684 9.40891447,21.4105263 9.38792465,21.4526316 C9.3669348,21.5157895 9.3669348,21.6 9.34594498,21.6631579 C9.32495512,21.7263158 9.32495512,21.7894737 9.30396531,21.8526316 C9.28297549,21.9368421 9.28297549,22.0210526 9.26198563,22.1052632 C9.26198563,22.168421 9.24099582,22.2105263 9.24099582,22.2736842 C9.24099582,22.3578947 9.22000596,22.4210526 9.22000596,22.5052632 C9.22000596,22.5894737 9.22000596,22.6526316 9.19901615,22.7368421 L9.19901615,23.0526316 C9.19901615,23.431579 9.22000596,23.831579 9.28297549,24.1894737 C9.82871111,24.3157895 10.3954365,24.5473684 11.0041417,24.8421053 C10.836223,24.2947368 10.7522637,23.7263158 10.7312738,23.1368421 L10.7312738,23.031579 C10.7312738,22.8842105 10.7312738,22.7578947 10.7522637,22.6105263 L10.7522637,22.5052632 C10.7522637,22.3789474 10.7732535,22.2736842 10.7942433,22.1473684 L10.7942433,22.1052632 C10.8152332,21.9789474 10.836223,21.8526316 10.8572129,21.7052632 C10.8572129,21.6631579 10.8782027,21.6421053 10.8782027,21.6 C10.8991925,21.4947368 10.9411722,21.3894737 10.962162,21.2842105 C10.962162,21.2631579 10.9831518,21.2421053 10.9831518,21.2210526 L11.1090908,20.8421053 C11.1300807,20.8210526 11.1300807,20.7789474 11.1510705,20.7578947 C11.1930502,20.6526316 11.2350298,20.5473684 11.2770095,20.4631579 C11.2979993,20.4421053 11.2979993,20.4210526 11.3189891,20.3789474 C11.3819586,20.2526316 11.4239383,20.1473684 11.5078976,20.0421053 C11.5288875,20.0210526 11.5288875,20 11.5498773,19.9789474 C11.6128468,19.8736842 11.6548264,19.7894737 11.7177959,19.6842105 C11.7387858,19.6631579 11.7387858,19.6421053 11.7597756,19.6210526 C11.8227451,19.5157895 11.9067044,19.4105263 11.9906637,19.3052632 C11.9906637,19.3052632 11.9906637,19.2842105 12.0116536,19.2842105 C12.0956129,19.1789474 12.1585824,19.0947368 12.2425417,18.9894737 C12.2635315,18.968421 12.2635315,18.9473684 12.2845214,18.9263158 C12.6623384,18.5052632 13.082135,18.1473684 13.5649011,17.831579 L14.2155859,17.5157895 C14.572413,17.368421 17.6369284,15.9157895 17.6369284,13.7894737 L17.6369284,2.92631579 L31.5951665,28.0631579 C30.3567664,27.4526316 28.1528341,26.3578947 26.4526577,25.4736842 C25.4661356,24.968421 24.8154509,23.1789474 24.6265424,22.5263158 L24.4376339,21.768421 C24.4376339,21.368421 24.3326847,20.968421 24.2067458,20.568421 Z M33.65217,28.4842105 L18.2666234,0.8 C17.9937556,0.294736842 17.4899997,0 16.9232742,0 C16.3565487,0 15.8527928,0.294736842 15.5799249,0.8 L0.194378382,28.4842105 C-0.204428419,29.2 0.0264597292,30.1263158 0.740114005,30.5473684 L16.1466504,39.7894737 C16.3985284,39.9368421 16.6713962,40 16.944264,40 C17.2171318,40 17.4899997,39.9368421 17.7418776,39.7894737 L33.1274242,30.568421 C33.8200886,30.1263158 34.0719666,29.2 33.65217,28.4842105 Z M40.6627739,17.368421 C40.6627739,17.7894737 40.9146518,18.1052632 41.5863265,18.1052632 C42.2370113,18.1052632 42.5098787,17.7894737 42.5098787,17.368421 L42.5098787,17.2210526 C42.5098787,15.6210526 43.8322382,14.2105263 45.6583536,14.2105263 C47.463479,14.2105263 48.8068284,15.5368421 48.8068284,17.3263158 L48.8068284,18.0421053 C48.8068284,18.4210526 48.3870317,18.6736842 47.8622859,18.7789474 L44.356984,19.5789474 C41.8382045,20.1473684 40.7047533,21.4947368 40.7047533,23.5789474 C40.7047533,25.9578947 42.8247264,27.9789474 45.6793435,27.9789474 C48.4709913,27.9789474 50.6539337,26.0842105 50.6539337,22.9894737 L50.6539337,17.3263158 C50.6539337,14.568421 48.5129706,12.631579 45.6793435,12.631579 C42.8457163,12.631579 40.7047533,14.631579 40.7047533,17.1789474 L40.7047533,17.368421 L40.6627739,17.368421 Z M45.6373637,26.4210526 C43.7272891,26.4210526 42.4888892,25.0105263 42.4888892,23.6210526 C42.4888892,22.2105263 43.3074924,21.4526316 44.7348009,21.0947368 L47.7363469,20.4 C48.2401028,20.2947368 48.5969302,20.1473684 48.7648486,19.9368421 L48.7648486,22.9473684 C48.7648486,25.368421 47.1696217,26.4210526 45.6373637,26.4210526 Z M61.4846869,22.968421 C61.4846869,25.2210526 60.0573783,26.4421053 58.2942323,26.4421053 C56.5310866,26.4421053 55.1037781,25.2421053 55.1037781,22.968421 L55.1037781,13.4736842 C55.1037781,13.0526316 54.8519001,12.7368421 54.1802254,12.7368421 C53.5295406,12.7368421 53.2566728,13.0526316 53.2566728,13.4736842 L53.2566728,23.0947368 C53.2566728,26.2947368 55.6285239,28.0210526 58.2732424,28.0210526 C60.9179613,28.0210526 63.2898124,26.2947368 63.2898124,23.0947368 L63.2898124,13.4736842 C63.2898124,13.0526316 63.0379344,12.7368421 62.3662597,12.7368421 C61.6945851,12.7368421 61.4427071,13.0526316 61.4427071,13.4736842 L61.4427071,22.968421 L61.4846869,22.968421 Z M74.1835349,22.968421 C74.1835349,25.2210526 72.7562263,26.4421053 70.9930803,26.4421053 C69.2299346,26.4421053 67.802626,25.2421053 67.802626,22.968421 L67.802626,17.6842105 C67.802626,15.431579 69.2299346,14.2105263 70.9930803,14.2105263 C72.7562263,14.2105263 74.1835349,15.4105263 74.1835349,17.6842105 L74.1835349,22.968421 Z M70.678233,32.4842105 C69.7546804,32.4842105 68.8311278,32.168421 68.0754939,31.5578947 C67.6556972,31.2210526 67.193921,31.3052632 66.8790734,31.7052632 C66.5642262,32.1052632 66.5642262,32.568421 67.0260023,32.9052632 C67.9915347,33.6842105 69.4188432,34.0842105 70.678233,34.0842105 C73.7007689,34.0842105 76.0096502,32.2526316 76.0096502,28.9052632 L76.0096502,17.5368421 C76.0096502,14.3368421 73.6377992,12.6105263 70.9930803,12.6105263 C68.3483617,12.6105263 65.9765107,14.3368421 65.9765107,17.5368421 L65.9765107,23.0947368 C65.9765107,26.2947368 68.2853921,28.0210526 70.7412023,28.0210526 C72.2314805,28.0210526 73.5118602,27.368421 74.2045248,26.4421053 L74.2045248,28.8 C74.1835349,31.1157895 72.8401855,32.4842105 70.678233,32.4842105 Z M87.1762406,22.968421 C87.1762406,25.2210526 85.7489321,26.4421053 83.9857864,26.4421053 C82.2226403,26.4421053 80.7953318,25.2421053 80.7953318,22.968421 L80.7953318,13.4736842 C80.7953318,13.0526316 80.5434538,12.7368421 79.8717791,12.7368421 C79.2210944,12.7368421 78.9482265,13.0526316 78.9482265,13.4736842 L78.9482265,23.0947368 C78.9482265,26.2947368 81.3200776,28.0210526 83.9647965,28.0210526 C86.609515,28.0210526 89.002356,26.3157895 89.002356,23.0947368 L89.002356,13.4736842 C89.002356,13.0526316 88.750478,12.7368421 88.0788033,12.7368421 C87.4281186,12.7368421 87.1552507,13.0526316 87.1552507,13.4736842 L87.1552507,22.968421 L87.1762406,22.968421 Z M100.882601,14.5052632 C100.022017,13.2210526 98.342831,12.6105263 96.8525532,12.6105263 C94.1658544,12.6105263 91.9409322,14.4631579 91.9409322,17.2842105 L91.9409322,27.1578947 C91.9409322,27.5789474 92.1928102,27.8947368 92.8644849,27.8947368 C93.5361596,27.8947368 93.7880375,27.5789474 93.7880375,27.1578947 L93.7880375,17.368421 C93.7880375,15.368421 95.2783157,14.2105263 96.8735426,14.2105263 C98.0069938,14.2105263 98.8046075,14.6947368 99.3923226,15.3894737 C99.6861803,15.7263158 100.043007,15.8947368 100.525773,15.6 C101.00854,15.2842105 101.113489,14.8842105 100.882601,14.5052632 Z" id="Shape"></path>
            </g>
        </g>
    </g>
</svg>