<?xml version="1.0" encoding="UTF-8"?>
<svg width="118px" height="40px" viewBox="0 0 118 40" version="1.1" xmlns="http://www.w3.org/2000/svg" xmlns:xlink="http://www.w3.org/1999/xlink">
    <!-- Generator: Sketch 49.3 (51167) - http://www.bohemiancoding.com/sketch -->
    <title>brave</title>
    <desc>Created with Sketch.</desc>
    <defs></defs>
    <g id="Page-1" stroke="none" stroke-width="1" fill="none" fill-rule="evenodd">
        <g id="brave" fill="#273B5A" fill-rule="nonzero">
            <path d="M33.9658431,12.9405989 L33.1714807,15.9626902 L29.5851103,29.7280314 C29.1683635,31.3107511 28.2135632,32.6971036 26.8889736,33.6514482 C26.8889736,33.6514482 23.0502073,36.3848797 18.1999005,39.5758468 C17.4955397,40.1394208 16.4957387,40.1394208 15.7913779,39.5758468 C11.4752114,36.7638684 7.09447852,33.6651939 7.09447852,33.6651939 C5.7659758,32.712813 4.81117561,31.3244968 4.39247222,29.7417771 L0.792405902,15.9842906 L0,12.970054 L2.89179241,7.96072656 L2.55526447,6.34069712 L5.17900844,3.62101129 L7.36839662,3.93716249 L10.9058531,0.0490918016 L16.9711822,0 L23.0365114,0 L26.5817941,3.89592538 L28.7711822,3.59351988 L31.4105787,6.2837506 L31.0662245,7.91163476 L33.9658431,12.9405989 Z M30.0703366,13.7162494 L30.1270768,13.5395189 C30.1290333,13.3038782 30.1114243,13.0682376 30.0781628,12.8345606 C29.9118554,12.4104075 29.696634,12.005891 29.440325,11.6308296 L28.3309567,9.9891998 C28.1274747,9.6789396 27.7694246,9.1939126 27.5385508,8.90525284 L26.0496104,7.04565536 C25.9146079,6.86303388 25.7659095,6.68826704 25.6074283,6.52528228 L24.9480683,6.64506628 L22.6256342,7.04565536 L21.6297463,7.23613156 C21.2971315,7.2538046 20.9625601,7.2047128 20.6475543,7.09474716 L18.843608,6.50957292 C18.4933842,6.3976436 17.91033,6.2346588 17.5522799,6.15022092 C17.3624938,6.1305842 17.1727077,6.1305842 16.9829216,6.15022092 C16.7931355,6.1305842 16.6033494,6.1305842 16.4135632,6.15022092 C16.0555132,6.2346588 15.4724589,6.3976436 15.1222351,6.50957292 L13.3182889,7.09474716 C13.003283,7.2047128 12.6687117,7.25184096 12.3360968,7.23613156 L11.3323827,7.04565536 L9.04321009,6.60186548 L8.38385009,6.48208148 C8.22536891,6.64506628 8.07667054,6.81983308 7.94166805,7.0024546 L6.4194661,8.90525284 C6.18859228,9.1939126 5.83054221,9.68090328 5.62706018,9.9891998 L4.51769191,11.6367207 C4.32594925,11.9194894 4.14985908,12.2140402 3.99137787,12.5164458 C3.89354999,12.856161 3.84267949,13.2056946 3.83680982,13.5591556 L3.89941966,13.7358861 C3.92681147,13.8517428 3.96202952,13.9636721 4.0050738,14.0736377 C4.28877466,14.4172803 4.59399769,14.7452136 4.9168297,15.0535101 L8.76342232,18.6254296 C9.03538386,18.9239077 9.1077765,19.3519882 8.95320842,19.7250859 L8.31537058,21.2469318 C8.1803681,21.6534119 8.1803681,22.0932744 8.31537058,22.5017182 L8.44254684,22.8532155 C8.65189853,23.4266078 9.0099486,23.9332352 9.48147903,24.3181149 L10.091925,24.8188512 C10.4167136,25.0564556 10.8432432,25.107511 11.2149892,24.952381 L13.3985077,23.9096711 C13.7937324,23.7074129 14.1635218,23.4599902 14.5000497,23.1693667 L16.2472558,21.5846834 C16.5348698,21.323515 16.5544354,20.8777614 16.2942132,20.5891016 L16.2824739,20.5773196 L13.2654618,17.9774178 C12.9817609,17.6985763 12.8878461,17.2803142 13.0267617,16.9072165 L14.0304759,14.413353 C14.1654783,14.0324006 14.1654783,13.6180658 14.0304759,13.2371134 C13.8426463,12.8757978 13.5354667,12.5910653 13.1598076,12.4339715 L8.3662411,10.6156112 C8.02188692,10.4820815 8.03558282,10.3485518 8.40928535,10.3132057 L10.8941138,10.0814924 C11.3323827,10.0559646 11.7726082,10.1109475 12.1932681,10.2444772 L14.6702703,11.132057 C15.0224507,11.269514 15.2278892,11.640648 15.1554966,12.011782 L14.2496104,15.9842906 C14.1654783,16.3436426 14.0813464,16.7442317 14.0539546,16.8718704 C14.1772177,17.0937654 14.4120046,17.2312224 14.6644006,17.2312224 L16.3920411,17.568974 C16.826397,17.6416298 17.2705356,17.6416298 17.7048914,17.568974 L19.2838335,17.2371134 C19.538186,17.2351497 19.772973,17.095729 19.8942796,16.8699067 C19.8942796,16.742268 19.7827558,16.3495336 19.6986238,15.9901816 L18.7790416,12.0098184 C18.7027359,11.6367207 18.9081744,11.263623 19.264268,11.1300933 L21.7412701,10.2425135 C22.1599735,10.1089838 22.600199,10.054001 23.0404245,10.0795287 L25.5252529,10.311242 C25.8911292,10.311242 25.9106947,10.4801178 25.5682971,10.6136475 L20.7806002,12.4378989 C20.4088542,12.5910653 20.0997181,12.8699067 19.909932,13.227295 C19.7749295,13.6082474 19.7749295,14.0225822 19.909932,14.4035346 L20.9488642,16.9052528 C21.0799536,17.2783505 20.9821257,17.694649 20.6964682,17.9695631 L17.6872824,20.5773196 C17.4192339,20.8581247 17.4290167,21.3038782 17.7107611,21.5729013 L17.7225004,21.5846834 L19.4775327,23.1477663 C19.8160173,23.4246441 20.1858067,23.6622484 20.5790748,23.8527246 L22.7625933,24.8954345 C23.1343392,25.0505646 23.5608688,24.9995091 23.8856574,24.7619048 L24.4961035,24.2611684 C24.9676339,23.874325 25.325684,23.3696613 25.5350356,22.796269 L25.6622119,22.4447717 C25.7972144,22.0382916 25.7972144,21.5984291 25.6622119,21.1899853 L24.989156,19.7250859 C24.8541536,19.3500246 24.9441552,18.9317624 25.2200299,18.64703 L29.0587962,15.0692194 C29.3816283,14.7589592 29.6868513,14.4290624 29.9705521,14.0834561 C30.0135964,13.9636721 30.0468579,13.8399607 30.0703366,13.7162494 Z M17.9122865,23.8252332 C17.6853258,23.7211586 17.4505389,23.634757 17.2098823,23.5640648 L16.7755264,23.5640648 C16.5348698,23.6327933 16.3000829,23.7211586 16.0731222,23.8252332 L14.998972,24.2768778 C14.6546178,24.4182622 14.1146079,24.6774669 13.7839496,24.8483063 L11.8058697,25.8811978 C11.6063008,25.945999 11.4967335,26.1600393 11.5613,26.3603338 C11.5926049,26.4585174 11.6630409,26.5409916 11.7569557,26.5861561 L13.4689438,27.8055965 C13.7702537,28.017673 14.2476538,28.3907708 14.5215719,28.6362298 L15.0067982,29.0525282 L16.0183386,29.940108 L16.4742166,30.3485518 C16.7657437,30.5940108 17.1922733,30.5940108 17.4857569,30.3485518 L17.9612005,29.9263623 L18.9727408,29.0387825 L19.4579672,28.616593 C19.7377549,28.3691704 20.2092853,27.9960726 20.5105952,27.7859598 L22.2304096,26.5527737 C22.4201957,26.4722631 22.5082408,26.2523319 22.4280219,26.0638194 C22.3830211,25.957781 22.2930194,25.8792342 22.1814956,25.8497791 L20.1818936,24.8424153 C19.8512353,24.6735395 19.3053557,24.4202258 18.9610015,24.2788414 L17.9122865,23.8252332 Z" id="Combined-Shape"></path>
            <path d="M41.545548,19.8939617 L41.545548,7.74864996 L42.7038301,7.74864996 C43.6449347,7.74864996 44.4099486,8.51448208 44.4099486,9.460972 L44.4099486,14.8649976 C46.2628089,13.2017673 47.841751,12.5400098 49.9411376,12.4987727 C53.9775162,12.377025 57.4151882,15.4167894 57.8025866,19.4521355 C58.287813,23.6053019 55.3255844,27.3676976 51.1874648,27.8566519 C50.8470236,27.8959254 50.5026697,27.9135984 50.1583154,27.9057438 C45.1690928,27.8959254 41.545548,24.7893962 41.545548,19.8939617 Z M44.2553806,20.844379 C44.6564749,23.4324988 46.8341239,25.3726068 49.4422153,25.4648994 C52.7194496,25.5139912 54.9597083,23.3519882 54.9597083,20.1963672 C54.9597083,17.0407462 52.7761897,14.927835 49.5909136,14.927835 C46.151285,14.9199804 43.8699387,17.4079529 44.2553806,20.844379 Z M62.5902835,12.7992145 L62.5902835,14.9631812 C64.3942297,12.9484536 65.4605538,12.4123711 67.5677667,12.4123711 C68.1821258,12.4123711 68.7945282,12.4634266 69.3991048,12.5596465 L69.3991048,15.4344624 C68.7514841,15.2557683 68.0842978,15.1654394 67.4131983,15.167403 C66.0181728,15.1202749 64.6622782,15.6445754 63.6585643,16.6185567 C62.8739843,17.3313697 62.476803,18.3799706 62.5922401,19.4364261 L62.5922401,27.4030437 L59.6300116,27.4030437 L59.6300116,12.7992145 L62.5902835,12.7992145 Z M70.0995524,17.6121748 C70.1210746,16.5478645 70.4869508,15.520864 71.1384846,14.682376 C72.3593764,13.1742759 74.556591,12.4005891 77.6733876,12.4005891 C80.1503898,12.4005891 81.9484662,12.7874325 83.2045762,13.6121748 C84.2435084,14.317133 84.6719947,15.3028964 84.6719947,17.078056 L84.6719947,23.5640648 C84.6719947,24.9739814 85.0378708,25.4864998 86.076803,25.4590084 C86.3115899,25.4531173 86.5463773,25.4354443 86.7792076,25.4020618 L86.7792076,27.3539519 C86.2783287,27.526755 85.7500578,27.6092292 85.2217874,27.5935199 C83.3611008,27.5935199 82.5060852,27.029946 81.9230308,25.4020618 C80.1953904,27.0554737 77.86513,27.9253805 75.4800861,27.8036328 C71.8448019,27.8036328 69.6182392,26.1482572 69.6182392,23.4501718 C69.614326,21.922435 70.5123862,20.5400098 71.9074117,19.9273441 C73.0089536,19.4560628 73.67614,19.3068238 76.8203281,18.9769268 C79.5086388,18.7098674 79.9645166,18.652921 80.7295306,18.413353 C81.4378048,18.305351 81.9523793,17.6809033 81.9230308,16.9621993 C81.9230308,15.3912616 80.6101808,14.6804124 77.8592603,14.6804124 C75.2629083,14.6804124 73.9207097,15.1948944 73.3806999,16.5184094 C73.1146079,17.1939126 72.4689438,17.6396662 71.7450174,17.6455572 L70.158249,17.6455572 L70.0995524,17.6121748 Z M81.8565079,20.0981836 C79.9742995,20.6480118 78.0412203,21.0034364 76.0866193,21.1624939 C73.4257005,21.4295533 72.5765546,21.9302896 72.5765546,23.275405 C72.5765546,24.7540501 73.7974464,25.5297006 76.2118388,25.5297006 C77.8612169,25.6357388 79.4871165,25.1055474 80.7608357,24.0510555 C81.6178079,23.2479136 81.8271598,22.6921944 81.8271598,21.2960236 L81.8271598,20.1119293 L81.8565079,20.0981836 Z M93.8815124,27.4030437 L93.1164981,27.4030437 C92.4434424,27.4089347 91.8251698,27.0260186 91.5297297,26.4172803 L85.1220028,12.8069941 L86.9044271,12.8070692 C87.9414028,12.7992145 88.8864201,13.4079529 89.3129498,14.3564065 L93.5880284,24.1551301 L98.0039795,14.3348061 C98.4363786,13.4000982 99.3716135,12.8051056 100.39685,12.8129602 L102.01101,12.8129602 L95.4545847,26.436917 C95.1552315,27.0338734 94.5447852,27.4089347 93.8815124,27.4030437 Z M104.030177,20.9445263 C104.339313,23.7623957 106.536528,25.5022091 109.800066,25.5022091 C111.660753,25.5022091 113.036213,24.9464899 113.912751,23.8389789 C114.421456,23.1948944 115.198209,22.8217968 116.018007,22.8316151 L117.737821,22.8316151 C116.243011,26.1502209 113.527309,27.7623957 109.55354,27.7623957 C104.542796,27.7623957 101.187299,24.712813 101.187299,20.1551301 C101.187299,15.5974472 104.640624,12.4064801 109.61028,12.4064801 C113.210347,12.4064801 116.117792,14.0343643 117.276074,16.7599411 C117.808257,18.0854197 118.048914,19.5110456 117.978478,20.9366716 L104.030177,20.9366716 L104.030177,20.9445263 Z M114.937987,18.6961218 C114.235583,16.1178203 112.277069,14.6666667 109.533974,14.6666667 C106.790881,14.6666667 104.803018,16.1178203 104.094744,18.6961218 L114.937987,18.6961218 Z" id="Shape"></path>
        </g>
    </g>
</svg>