<?xml version="1.0" encoding="UTF-8"?>
<svg width="103px" height="23px" viewBox="0 0 103 23" version="1.1" xmlns="http://www.w3.org/2000/svg" xmlns:xlink="http://www.w3.org/1999/xlink">
    <!-- Generator: Sketch 52.5 (67469) - http://www.bohemiancoding.com/sketch -->
    <title>coinbase</title>
    <desc>Created with Sketch.</desc>
    <defs>
        <path d="M10.2631209,19.314334 C10.6444023,20.1306454 11.1364056,20.8679137 11.723687,21.5141276 C10.4287816,22.1959212 9.07167964,22.5 7.59229414,22.5 C3.19274683,22.5 0,19.6629906 0,15.1350356 C0,10.5748856 3.35566489,7.73787617 7.59229414,7.73787617 C9.09990864,7.73787617 10.2888603,8.05821764 11.4867575,8.68474296 C10.9281692,9.35592871 10.4673908,10.1174259 10.1172921,10.9557786 C9.39456206,10.6725441 8.65077632,10.5436398 7.88471118,10.5436398 C5.27802212,10.5436398 3.257644,12.1699062 3.257644,15.1350356 C3.257644,17.9407992 5.21316714,19.7264728 8.01568701,19.7264728 C8.8186313,19.7264728 9.55992749,19.5842777 10.2631209,19.314334 Z M19.1112048,7.73787617 C23.4443781,7.73787617 26.5725231,10.7352833 26.5725231,15.1350356 C26.5725231,19.5035835 23.4443781,22.5 19.1112048,22.5 C14.8109443,22.5 11.6830524,19.5035835 11.6830524,15.1350356 C11.6830524,10.7352833 14.8109443,7.73787617 19.1112048,7.73787617 Z M19.1112048,10.4479212 C16.7003466,10.4479212 14.9406964,12.2658311 14.9406964,15.1350356 C14.9406964,17.973242 16.7003466,19.789955 19.1112048,19.789955 C21.5881417,19.789955 23.3149213,17.973242 23.3149213,15.1350356 C23.3149213,12.2658311 21.5881417,10.4479212 19.1112048,10.4479212 Z M28.6257296,22.1812683 L28.6257296,8.0564015 L31.8504187,8.0564015 L31.8504187,22.1812683 L28.6257296,22.1812683 Z M28.201324,3.72009006 C28.201324,2.63635272 29.1471434,1.77546341 30.2217444,1.77546341 C31.2972737,1.77546341 32.2421225,2.63635272 32.2421225,3.72009006 C32.2421225,4.83635272 31.2972737,5.7296848 30.2217444,5.7296848 C29.1471434,5.7296848 28.201324,4.83635272 28.201324,3.72009006 Z M34.6644158,8.94981614 C36.6847939,8.1846454 39.161773,7.73787617 41.2787374,7.73787617 C44.9609558,7.73787617 47.306959,9.10897561 47.306959,13.0944428 L47.306959,22.1813508 L44.1142122,22.1813508 L44.1142122,13.3818049 C44.1142122,11.341212 42.8108677,10.6070807 41.0182626,10.6070807 C39.877583,10.6070807 38.7383802,10.7665291 37.8903707,11.0216548 L37.8903707,22.1813508 L34.6644158,22.1813508 L34.6644158,8.94981614 Z M50.0080823,0.5 L53.2327714,0.5 L53.2327714,8.43964728 C53.9168923,8.088803 55.2531495,7.738 56.5233281,7.738 C60.6940897,7.738 63.8219816,10.3520788 63.8219816,14.8800338 C63.8219816,19.4389869 60.7270447,22.4998349 55.3841254,22.4998349 C53.2988923,22.4998349 51.4743449,22.0855497 50.0080823,21.5755047 L50.0080823,0.5 Z M53.2327714,19.503666 C53.8520373,19.6941126 54.6670918,19.7898311 55.4807116,19.7898311 C58.4459385,19.7898311 60.5643798,18.1960075 60.5643798,14.9435159 C60.5643798,12.2009869 58.5769144,10.5749681 56.1331434,10.5749681 C54.8627116,10.5749681 53.88495,10.8945666 53.2327714,11.2454109 L53.2327714,19.503666 Z M73.1395785,12.7113208 C73.1395785,11.180773 71.9659439,10.4803227 70.3701823,10.4803227 C68.7083421,10.4803227 67.4049975,10.9581313 66.1996739,11.6275835 L66.1996739,8.88505441 C67.4698525,8.18460413 69.09878,7.73779362 70.8916383,7.73779362 C74.0512192,7.73779362 76.2993703,9.01325704 76.2993703,12.5519137 L76.2993703,21.8939475 C74.9311708,22.2447917 72.9769136,22.4686717 71.3479439,22.4686717 C67.6008283,22.4686717 64.8634166,21.3526567 64.8634166,18.1636473 C64.8634166,15.2944015 67.3720426,13.892015 71.542551,13.892015 L73.1395785,13.892015 L73.1395785,12.7113208 Z M73.1395785,15.9960901 L71.7713367,15.9960901 C69.5221729,15.9960901 68.0561635,16.6330582 68.0561635,18.0679287 C68.0561635,19.5347467 69.4253757,20.1085216 71.3798861,20.1085216 C71.8693998,20.1085216 72.5535207,20.0450394 73.1395785,19.9490732 L73.1395785,15.9960901 Z M78.6453314,18.3552495 C79.9815887,19.3433096 81.5773503,19.9492795 83.0433597,19.9492795 C84.4777222,19.9492795 85.4225289,19.4712233 85.4225289,18.3552495 C85.4225289,17.2067917 84.57549,16.7924653 82.7180299,16.3146567 C79.7208607,15.6452045 78.4494584,14.4657073 78.4494584,12.0105816 C78.4494584,9.14013884 80.6657095,7.738 83.5977284,7.738 C85.2266981,7.738 86.5300426,8.08884428 87.735324,8.82177861 L87.735324,11.7232195 C86.4651454,10.8310844 85.2266981,10.2885966 83.6957915,10.2885966 C82.294637,10.2885966 81.5456612,10.9580488 81.5456612,11.8826679 C81.5456612,12.8069981 82.1636612,13.2860038 83.8255436,13.731576 C87.117324,14.4332645 88.5504207,15.6452045 88.5504207,18.1960488 C88.5504207,21.1609719 86.2373724,22.4998762 83.1094805,22.4998762 C81.4146854,22.4998762 79.7208607,22.0543039 78.6453314,21.3526154 L78.6453314,18.3552495 Z M92.9651585,15.8368068 L92.9651585,15.9002889 C93.1609893,18.4186492 95.3760168,19.7897899 97.623957,19.7897899 C99.6113802,19.7897899 101.04549,19.3432683 102.478544,18.4186492 L102.478544,21.1933734 C101.1752,22.0855084 99.2528845,22.4998349 97.3963949,22.4998349 C92.9003036,22.4998349 89.8372667,19.6940713 89.8372667,15.2308368 C89.8372667,10.7353659 92.8341827,7.73795872 96.810084,7.73795872 C101.012535,7.73795872 103,10.3845216 103,14.2417861 L103,15.8368068 L92.9651585,15.8368068 Z M99.9699181,13.7962139 C99.9050209,11.5952645 98.7975494,10.3845216 96.7122741,10.3845216 C94.8545608,10.3845216 93.4866145,11.6599437 93.0629685,13.7962139 L99.9699181,13.7962139 Z" id="path-1"></path>
    </defs>
    <g id="Zeppelin-Desktop" stroke="none" stroke-width="1" fill="none" fill-rule="evenodd">
        <g id="Group-4" transform="translate(-919.000000, -1248.000000)">
            <g id="coinbase" transform="translate(919.000000, 1248.000000)">
                <mask id="mask-2" fill="white">
                    <use xlink:href="#path-1"></use>
                </mask>
                <g id="Clip-2"></g>
                <polygon id="Fill-1" fill="#263B5A" mask="url(#mask-2)" points="0 22.5 103 22.5 103 0.5 0 0.5"></polygon>
            </g>
        </g>
    </g>
</svg>