<?xml version="1.0" encoding="UTF-8"?>
<svg width="124px" height="22px" viewBox="0 0 124 22" version="1.1" xmlns="http://www.w3.org/2000/svg" xmlns:xlink="http://www.w3.org/1999/xlink">
    <!-- Generator: Sketch 49.3 (51167) - http://www.bohemiancoding.com/sketch -->
    <title>cosmos</title>
    <desc>Created with Sketch.</desc>
    <defs>
        <path d="M103.6202,10.6177281 C103.62406,9.59181928 103.427392,8.57504413 103.041253,7.62457025 C102.304485,5.75966256 100.841816,4.2740085 98.9886214,3.50825446 C96.9626392,2.69023097 94.6982878,2.69023097 92.6723056,3.50825446 C91.7472505,3.90240623 90.9076416,4.47263246 90.2002003,5.18720183 C89.5009298,5.89309521 88.9497857,6.73162164 88.5791477,7.65351762 C87.8069508,9.57424979 87.8069508,11.7191012 88.5791477,13.6398334 C89.3183551,15.5018124 90.7804723,16.9848169 92.6317793,17.7503597 C94.6584624,18.564767 96.9214119,18.564767 98.9480951,17.7503597 C99.8722932,17.3520513 100.711495,16.7801361 101.4202,16.0656229 C102.120081,15.3602244 102.671311,14.5215671 103.041253,13.5993071 C103.426627,12.652653 103.623295,11.6398132 103.6202,10.6177281 Z M100.864411,10.6582545 C100.869586,11.3622882 100.743946,12.0611587 100.493885,12.7193071 C100.258433,13.3432672 99.9067812,13.9169119 99.4575688,14.4098334 C99.0122884,14.8988209 98.4726962,15.2926838 97.871253,15.5677281 C97.2280323,15.8452958 96.5338823,15.985309 95.8333582,15.9787808 C95.1277314,15.9871902 94.4286196,15.8430231 93.7838845,15.5561492 C93.1755079,15.2814414 92.6282684,14.8877439 92.1744109,14.3982545 C91.7176408,13.9067092 91.3616332,13.3304095 91.1265161,12.7019387 C90.6325282,11.3703106 90.6325282,9.90567198 91.1265161,8.57404394 C91.361219,7.95144918 91.7129946,7.37956828 92.1628319,6.88930709 C92.6064736,6.39849683 93.1464679,6.0043404 93.7491477,5.73141236 C95.0533393,5.16791304 96.5323245,5.16791304 97.8365161,5.73141236 C98.4439625,6.00772769 98.9909039,6.40121068 99.4459898,6.88930709 C99.9018589,7.38373402 100.257703,7.96173547 100.493885,8.59141236 C100.746786,9.25682575 100.872473,9.96381584 100.864411,10.6756229 L100.864411,10.6582545 Z" id="path-1"></path>
    </defs>
    <g id="Page-1" stroke="none" stroke-width="1" fill="none" fill-rule="evenodd">
        <g id="cosmos" transform="translate(-18.000000, -19.000000)">
            <rect id="Rectangle-8-Copy-5" fill-opacity="0" fill="#FFFFFF" opacity="0" x="0" y="0" width="160" height="60"></rect>
            <g id="Group-32" transform="translate(18.000000, 19.000000)">
                <path d="M114.909474,7.57924023 C114.908546,7.07949999 115.144878,6.6089846 115.546316,6.3113455 C116.059952,5.93089776 116.691551,5.74428861 117.329474,5.78450339 C118.021757,5.78739934 118.70727,5.92096644 119.35,6.1781876 C120.070258,6.47615033 120.74931,6.86529212 121.370526,7.33608234 L122.771579,5.35029287 C122.033539,4.75644559 121.204683,4.28532666 120.316842,3.95502971 C119.370343,3.62327566 118.37286,3.46062124 117.37,3.47450339 C116.680648,3.46840256 115.994712,3.57197694 115.337895,3.7813455 C114.751734,3.96758604 114.208536,4.26870662 113.74,4.66713497 C112.817337,5.45301353 112.294834,6.61059291 112.315789,7.82239813 C112.297694,8.42973945 112.410231,9.03388516 112.645789,9.59397708 C112.863184,10.0742033 113.190403,10.4966132 113.601053,10.827135 C114.070566,11.1948731 114.596484,11.4842257 115.158421,11.6839771 C115.852818,11.933754 116.56252,12.1387361 117.283158,12.2976613 C117.972105,12.4713455 118.539474,12.6334508 118.973684,12.7897665 C119.336024,12.9116327 119.680605,13.0810033 119.998421,13.2934508 C120.217672,13.4365839 120.393799,13.6367286 120.507895,13.8723981 C120.603288,14.1015634 120.650581,14.3478837 120.646842,14.5960823 C120.662847,15.1505733 120.394208,15.6747464 119.934737,15.985556 C119.363537,16.3532461 118.690963,16.5315185 118.012632,16.4950297 C117.148615,16.5097416 116.291588,16.3379413 115.5,15.9913455 C114.704799,15.6213346 113.967615,15.1376799 113.311579,14.555556 L111.736842,16.4313455 C112.578017,17.2107434 113.560611,17.8219167 114.631579,18.2318718 C115.687615,18.6224636 116.805651,18.8186101 117.931579,18.8108192 C118.656247,18.8182521 119.378049,18.7187605 120.073684,18.515556 C120.683836,18.337935 121.252581,18.0407703 121.746842,17.6413455 C122.20881,17.2596705 122.578849,16.7788172 122.829474,16.2345034 C123.099744,15.6384972 123.234212,14.9898856 123.223158,14.335556 C123.235983,13.7753265 123.129411,13.218784 122.910526,12.7029244 C122.7007,12.2389169 122.392536,11.8260553 122.007368,11.4929244 C121.55945,11.1130186 121.050523,10.8115775 120.502105,10.6013455 C119.825634,10.3400184 119.133389,10.1215165 118.429474,9.94713497 C117.717368,9.77345076 117.132632,9.6113455 116.692632,9.45502971 C116.307708,9.3345228 115.941398,9.16111 115.604211,8.93976655 C115.376467,8.79627485 115.189143,8.59699514 115.06,8.36081918 C114.957186,8.11950743 114.90781,7.85880425 114.915263,7.59660866" id="Shape" fill="#273B5A" fill-rule="nonzero"></path>
                <path d="M103.6202,10.6177281 C103.62406,9.59181928 103.427392,8.57504413 103.041253,7.62457025 C102.304485,5.75966256 100.841816,4.2740085 98.9886215,3.50825446 C96.9626392,2.69023097 94.698288,2.69023097 92.6723057,3.50825446 C91.7472509,3.90240622 90.9076417,4.47263246 90.2002005,5.18720183 C89.5009299,5.89309522 88.9497859,6.73162163 88.5791478,7.65351762 C87.8069507,9.57424979 87.8069507,11.7191012 88.5791478,13.6398334 C89.3183554,15.5018124 90.7804725,16.9848169 92.6317794,17.7503597 C94.6584623,18.564767 96.9214124,18.564767 98.9480952,17.7503597 C99.8722932,17.3520513 100.711495,16.7801361 101.4202,16.0656229 C102.120081,15.3602244 102.671312,14.5215671 103.041253,13.5993071 C103.426628,12.652653 103.623296,11.6398132 103.6202,10.6177281 Z M100.864411,10.6582545 C100.869586,11.3622882 100.743947,12.0611587 100.493885,12.7193071 C100.258434,13.3432672 99.9067811,13.9169119 99.4575689,14.4098334 C99.0122883,14.8988209 98.472696,15.2926838 97.8712531,15.5677281 C97.2280327,15.8452958 96.5338824,15.985309 95.8333584,15.9787808 C95.1277315,15.9871902 94.4286196,15.8430231 93.7838847,15.5561492 C93.1755083,15.2814414 92.6282687,14.8877439 92.174411,14.3982545 C91.7176412,13.9067092 91.3616331,13.3304095 91.1265163,12.7019387 C90.6325283,11.3703106 90.6325283,9.90567198 91.1265163,8.57404394 C91.3612192,7.95144915 91.7129946,7.37956829 92.162832,6.88930709 C92.6064736,6.39849682 93.1464683,6.00434042 93.7491478,5.73141236 C95.0533397,5.16791304 96.5323244,5.16791304 97.8365163,5.73141236 C98.4439629,6.00772767 98.9909043,6.40121069 99.4459899,6.88930709 C99.9018589,7.38373405 100.257704,7.96173548 100.493885,8.59141236 C100.746786,9.25682575 100.872473,9.96381584 100.864411,10.6756229 L100.864411,10.6582545 Z" id="Shape" fill="#273B5A" fill-rule="nonzero"></path>
                <polyline id="Shape" fill="#273B5A" fill-rule="nonzero" points="76.8957895 7.67684211 76.8957895 18.3410526 79.4894737 18.3410526 79.4894737 3.47368421 76.7047368 3.47368421 72.1657895 10.5021053 67.6326316 3.47368421 64.8421053 3.47368421 64.8421053 18.3410526 67.4415789 18.3410526 67.4415789 7.72315789 72.1021053 14.6878947 72.1889474 14.6878947 76.8957895 7.67684211"></polyline>
                <mask id="mask-2" fill="white">
                    <use xlink:href="#path-1"></use>
                </mask>
                <g id="path-7"></g>
                <path d="M32.0794737,18.1036842 C33.0031418,17.7095859 33.8424136,17.1415543 34.5515789,16.4305263 C35.2500868,15.7262374 35.8011778,14.8897598 36.1726316,13.97 C37.1851315,11.4906132 36.8689393,8.66668955 35.3331579,6.47263158 L39.9647368,1.84105263 L38.1294737,0 L33.4978947,4.63157895 C33.0697491,4.34221369 32.6140199,4.09592598 32.1373684,3.89631579 C30.1134394,3.07803295 27.8507711,3.07803295 25.8268421,3.89631579 C24.9035084,4.28843451 24.0642245,4.85450894 23.3547368,5.56368421 C22.6593109,6.27047011 22.1086485,7.106297 21.7336842,8.02421053 C20.9694617,9.93847429 20.9694617,12.0731047 21.7336842,13.9873684 C21.9574166,14.5304787 22.240917,15.0469932 22.5789474,15.5273684 L17.9473684,20.1589474 L19.7884211,21.9942105 L24.42,17.3626316 C24.8453587,17.6548237 25.2992612,17.9031122 25.7747368,18.1036842 C27.8001783,18.9141538 30.0598217,18.9141538 32.0852632,18.1036842 L32.0794737,18.1036842 Z M31.0026316,15.8978947 C29.7003929,16.4611064 28.2232913,16.4611064 26.9210526,15.8978947 C26.6927454,15.7964063 26.4721581,15.6783728 26.2610526,15.5447368 L33.3763158,8.43526316 C33.4693669,8.62375869 33.5524637,8.81700681 33.6252632,9.01421053 C34.1190755,10.3398934 34.1190755,11.799054 33.6252632,13.1247368 C33.3899025,13.7452776 33.0381591,14.3151412 32.5889474,14.8036842 C32.1390727,15.271308 31.5995571,15.6434556 31.0026316,15.8978947 Z M31.6278947,6.49578947 L24.5126316,13.5994737 C24.4257895,13.4257895 24.3389474,13.2347368 24.2636842,13.0205263 C23.7697538,11.6968574 23.7697538,10.2394584 24.2636842,8.91578947 C24.4983871,8.29319468 24.8501626,7.72131383 25.3,7.23105263 C25.7476843,6.75213179 26.2871643,6.36819532 26.8863158,6.10210526 C27.5293821,5.82404466 28.2236377,5.6840102 28.9242105,5.69105263 C29.6280133,5.68219555 30.3253335,5.82640057 30.9678947,6.11368421 C31.1971219,6.22440396 31.4177384,6.3521293 31.6278947,6.49578947 Z" id="Shape" fill="#273B5A" fill-rule="nonzero"></path>
                <path d="M13.700968,15.7421814 L12.0162312,14.0342866 C11.4319362,14.5892968 10.7780488,15.0660897 10.070968,15.4527077 C9.34188194,15.8160632 8.53477796,15.9949778 7.72044171,15.9737603 C6.36809088,15.9913848 5.07413779,15.4235653 4.17149434,14.4163919 C3.7229677,13.9206966 3.37494949,13.3426324 3.1467575,12.7142866 C2.66026255,11.3713752 2.66026255,9.90035597 3.1467575,8.55744454 C3.37522197,7.93787938 3.72342109,7.36935092 4.17149434,6.88428664 C4.61104864,6.39647497 5.14473189,6.00261279 5.74044171,5.7263919 C6.36241841,5.44554789 7.03802724,5.30331448 7.72044171,5.3095498 C8.51286706,5.29685157 9.29687579,5.47350167 10.0072838,5.82481296 C10.7007148,6.18265807 11.3400322,6.63680737 11.9062312,7.17376033 L13.5967575,5.22270769 C13.2325174,4.88416919 12.8456586,4.57081351 12.4388628,4.28481296 C12.0315996,3.99478287 11.5949927,3.74834253 11.1362312,3.5495498 C10.6386409,3.33184049 10.1181915,3.17065652 9.58465223,3.06902348 C8.96877844,2.94816335 8.34224994,2.88997185 7.71465223,2.89533927 C6.64381485,2.88204358 5.58166956,3.088955 4.59412592,3.50323401 C2.7481181,4.28189059 1.29642654,5.77535742 0.570441707,7.64270769 C-0.190147236,9.58566155 -0.190147236,11.7439644 0.570441707,13.6869182 C0.939647947,14.5975388 1.48011656,15.4288778 2.16254697,16.1358656 C3.59922572,17.5861513 5.56340064,18.3906272 7.60465223,18.364813 C8.24599027,18.3712911 8.88626704,18.3111438 9.51517855,18.1853393 C10.0654598,18.0728062 10.6000639,17.8939568 11.1072838,17.6527077 C11.5864906,17.4191086 12.0421002,17.1399265 12.4678101,16.8190235 C12.8980901,16.4852758 13.3007951,16.1174203 13.6720207,15.7190235" id="Shape" fill="#273B5A" fill-rule="nonzero"></path>
                <path d="M47.7457895,7.57924516 C47.744862,7.07950492 47.9811939,6.60898953 48.3826316,6.31135043 C48.8962671,5.93090269 49.5278673,5.74429354 50.1657895,5.78450832 C50.8580726,5.78740427 51.543586,5.92097137 52.1863158,6.17819253 C52.9065735,6.47615526 53.5856259,6.86529705 54.2068421,7.33608727 L55.6078947,5.35029779 C54.8706589,4.75526952 54.041602,4.28403674 53.1531579,3.95503464 C52.2086689,3.62324763 51.2130789,3.46058234 50.2121053,3.47450832 C49.5208276,3.46798951 48.8329199,3.57156651 48.1742105,3.78135043 C47.5880492,3.96759097 47.0448513,4.26871155 46.5763158,4.6671399 C45.6536534,5.45301846 45.1311497,6.61059784 45.1521053,7.82240306 C45.1340094,8.42974438 45.2465463,9.03389008 45.4821053,9.59398201 C45.6998289,10.0756145 46.029297,10.4983656 46.4431579,10.8271399 C46.9105687,11.1948454 47.4345789,11.4842241 47.9947368,11.683982 C48.6891338,11.9337589 49.3988362,12.1387411 50.1194737,12.2976662 C50.8142105,12.4713504 51.3757895,12.6334557 51.81,12.7897715 C52.1728454,12.9104054 52.5175872,13.0798547 52.8347368,13.2934557 C53.0539875,13.4365888 53.2301148,13.6367336 53.3442105,13.8724031 C53.4396035,14.1015683 53.486897,14.3478887 53.4831579,14.5960873 C53.4991626,15.1505783 53.2305239,15.6747514 52.7710526,15.985561 C52.1998524,16.353251 51.5272793,16.5315234 50.8489474,16.4950346 C49.9867436,16.5103738 49.1314705,16.3385291 48.3421053,15.9913504 C47.5443034,15.6228483 46.8049985,15.1390815 46.1478947,14.555561 L44.5789474,16.4313504 C45.4192461,17.2118957 46.4020741,17.8232148 47.4736842,18.2318767 C48.5276975,18.6225229 49.6438455,18.8186825 50.7678947,18.8108241 C51.4944366,18.8178181 52.2180844,18.7183409 52.9157895,18.515561 C53.5241901,18.3379526 54.0910428,18.0407486 54.5831579,17.6413504 C55.0456701,17.2587909 55.4174304,16.778271 55.6715789,16.2345083 C55.9371448,15.6371736 56.069507,14.9891918 56.0594737,14.335561 C56.0710257,13.776001 55.9665504,13.2201137 55.7526316,12.7029294 C55.5406431,12.2386541 55.2305415,11.8258438 54.8436842,11.4929294 C54.3982346,11.112577 53.8911272,10.8110537 53.3442105,10.6013504 C52.6714431,10.3438593 51.9830488,10.1292195 51.2831579,9.95871885 C50.5710526,9.78503464 49.9863158,9.62292937 49.5463158,9.46661358 C49.1613922,9.34610667 48.7950819,9.17269387 48.4578947,8.95135043 C48.2301508,8.80785873 48.0428279,8.60857902 47.9136842,8.37240306 C47.8108702,8.13109131 47.7614945,7.87038813 47.7689474,7.60819253" id="Shape" fill="#273B5A" fill-rule="nonzero"></path>
            </g>
        </g>
    </g>
</svg>