<?xml version="1.0" encoding="UTF-8"?>
<svg width="106px" height="31px" viewBox="0 0 106 31" version="1.1" xmlns="http://www.w3.org/2000/svg" xmlns:xlink="http://www.w3.org/1999/xlink">
    <!-- Generator: Sketch 51.3 (57544) - http://www.bohemiancoding.com/sketch -->
    <title>logo_10</title>
    <desc>Created with Sketch.</desc>
    <defs></defs>
    <g id="Symbols" stroke="none" stroke-width="1" fill="none" fill-rule="evenodd">
        <g id="logos" transform="translate(-493.000000, -84.000000)">
            <g id="logo_10" transform="translate(493.000000, 84.000000)">
                <g id="Group-29" transform="translate(0.000000, 0.079253)">
                    <path d="M29.7367362,16.8586382 C29.7823445,16.3543916 29.81275,15.8653443 29.81275,15.345815 C29.81275,7.24680326 23.2762286,0.675897518 15.2195975,0.675897518 C7.16304951,0.675897518 0.626528095,7.24680326 0.626528095,15.345815 C0.626528095,15.4069459 29.5086948,16.0945852 29.7367362,16.8586382" id="Fill-1" fill="#D7D1C7"></path>
                    <path d="M0.565667217,15.3764138 C0.565667217,23.4754255 7.10218863,30.0463313 15.1588197,30.0463313 C23.2153677,30.0463313 28.9227988,25.0646624 29.7518891,17.2101744 C29.7582859,17.149294 0.565667217,14.8721672 0.565667217,15.3764138" id="Fill-3" fill="#BFB5AF"></path>
                    <path d="M9.56470315,4.49622088 C11.1766109,4.49622088 12.4833004,5.80978404 12.4833004,7.43017096 C12.4833004,9.0506414 11.1766109,10.3642046 9.56470315,10.3642046 C7.95279541,10.3642046 6.64610589,9.0506414 6.64610589,7.43017096 C6.64610589,5.80978404 7.95279541,4.49622088 9.56470315,4.49622088" id="Fill-5" fill="#F47E33"></path>
                    <path d="M9.56470315,5.10746326 C8.28783762,5.10746326 7.25413314,6.14660538 7.25413314,7.43018766 C7.25413314,8.71376995 8.28783762,9.75291207 9.56470315,9.75291207 C10.8415687,9.75291207 11.8752732,8.71376995 11.8752732,7.43018766 C11.8752732,6.14660538 10.8263659,5.10746326 9.56470315,5.10746326 M9.56470315,10.9754469 C7.61891626,10.9754469 6.03799556,9.38621006 6.03799556,7.43018766 C6.03799556,5.47424878 7.61891626,3.8850119 9.56470315,3.8850119 C11.5104901,3.8850119 13.0914108,5.47424878 13.0914108,7.43018766 C13.0914108,9.38621006 11.4952873,10.9754469 9.56470315,10.9754469" id="Fill-7" fill="#35312E"></path>
                    <path d="M19.050219,4.35870136 C21.577283,4.35870136 23.625917,6.41811185 23.625917,8.95830198 C23.625917,11.4986591 21.577283,13.5579026 19.050219,13.5579026 C16.5233213,13.5579026 14.4746873,11.4986591 14.4746873,8.95830198 C14.4746873,6.41811185 16.5233213,4.35870136 19.050219,4.35870136" id="Fill-9" fill="#F47E33"></path>
                    <polyline id="Fill-11" fill="#BFB5AF" points="10.8568047 18.7993695 14.5658623 14.0927898 15.3563226 14.5511882 16.8764323 15.1166492 17.9559112 14.5511882 21.4064389 10.8531851 22.6072906 12.4729874 23.1849124 11.9993063 23.9449672 11.9993063 25.8605147 14.6887327 27.2285968 14.4594918 29.6910283 17.2712635"></polyline>
                    <polyline id="Fill-13" fill="#BFB5AF" points="13.2889885 16.4613874 11.2824736 15.3458317 8.36379326 16.1098846 7.02611669 11.6631113 4.62433012 11.6631113 2.3137601 15.7431826 0.626420097 15.8043136"></polyline>
                    <path d="M6.64613081,17.31707 C6.64613081,17.31707 5.55161529,20.5261092 5.55161529,20.5872401 C5.55161529,20.8928947 6.03810356,21.1373349 6.64613081,21.1373349 C7.25415806,21.1373349 7.74064632,20.8928947 7.74064632,20.5872401 C7.72544356,20.541559 6.64613081,17.31707 6.64613081,17.31707" id="Fill-15" fill="#F47E33"></path>
                    <path d="M4.12272218,16.0793609 C4.12272218,16.0793609 3.04340942,19.2729504 3.04340942,19.3342483 C3.04340942,19.6399029 3.52989768,19.8843431 4.12272218,19.8843431 C4.71554667,19.8843431 5.20203493,19.6399029 5.20203493,19.3342483 C5.20203493,19.2729504 4.12272218,16.0793609 4.12272218,16.0793609" id="Fill-17" fill="#F47E33"></path>
                    <path d="M23.9298807,16.4155726 C23.9298807,17.6533067 18.0774004,17.6533067 18.0774004,16.4155726 C18.0774004,15.1778385 19.3847545,14.1692619 20.9960807,14.1692619 C22.6074069,14.1692619 23.9298807,15.1625558 23.9298807,16.4155726" id="Fill-19" fill="#D8A780"></path>
                    <path d="M26.8485195,19.4718013 C26.8485195,20.7095354 20.9960392,20.7095354 20.9960392,19.4718013 C20.9960392,18.2339001 22.3033933,17.2254905 23.9145534,17.2254905 C25.5410823,17.2100408 26.8485195,18.2187844 26.8485195,19.4718013" id="Fill-21" fill="#D8A780"></path>
                    <path d="M20.9960724,23.1086734 C20.9960724,24.3464075 15.143592,24.3464075 15.143592,23.1086734 C15.143592,21.8707723 16.4509462,20.8623627 18.0621062,20.8623627 C19.6735986,20.8623627 20.9960724,21.8707723 20.9960724,23.1086734" id="Fill-23" fill="#D8A780"></path>
                    <path d="M15.3867946,29.4197477 C9.35196423,29.4197477 4.1835249,25.6149325 2.13140177,20.2664782 C2.54179317,20.2664782 2.9674704,20.2815939 3.40826731,20.2815939 C3.62110592,20.3428918 3.86435006,20.3732903 4.12271387,20.3732903 C4.33555248,20.3732903 4.51798558,20.3580075 4.70041868,20.3121593 C4.79155215,20.3121593 4.89797146,20.3121593 4.98918801,20.3274421 C4.95878249,20.4193055 4.95878249,20.4497039 4.95878249,20.4802694 C4.95878249,21.1679087 5.68843181,21.656956 6.67652802,21.656956 C7.64942147,21.656956 8.19663768,21.0457304 8.24224596,20.388573 C8.39427354,20.4038557 8.71344839,20.556683 8.86547597,20.5721328 C12.9698053,21.0151649 13.2434549,21.7639352 13.2434549,21.7945841 C13.2586577,21.8556315 13.1522384,22.1766524 12.3313725,22.7418628 C10.5680187,23.9643977 9.95999148,24.6826025 10.1272218,25.4466555 C10.3247746,26.3635358 11.5105067,26.5927767 13.304266,26.9289133 C13.8058739,27.0206096 14.3834957,27.1430385 14.9764032,27.2651333 C15.6300388,27.4179606 16.3140798,27.5554217 16.9677153,27.6778505 C18.1837698,27.9222072 19.4151102,28.1667309 20.3880036,28.472302 C18.8526912,29.0988104 17.1501484,29.4197477 15.3867946,29.4197477" id="Fill-25" fill="#D7D1C7"></path>
                    <path d="M27.4565634,13.8024847 L26.1491262,14.0317257 L24.2643165,11.4033467 L23.6562892,11.4033467 C24.0362751,10.6698592 24.2489476,9.84467525 24.2489476,8.97364316 C24.2489476,6.100824 21.923341,3.76281687 19.0655547,3.76281687 C16.2076854,3.76281687 13.8667099,6.08554127 13.8667099,8.95836044 C13.8667099,11.3422158 15.4778699,13.3593691 17.6517813,13.9858775 L17.5757675,14.0622911 L16.8309154,14.4442759 L15.6148609,14.0011602 L14.4139261,13.2982382 L12.7266692,15.4375698 L11.3737068,14.6887995 L8.77436742,15.3611561 L7.46701329,11.0518439 L4.27476637,11.0518439 L1.9489936,15.1471979 L1.23454704,15.1624807 C1.32576359,7.49138539 7.5734326,1.28726517 15.2195892,1.28726517 C22.9264738,1.28726517 29.2047145,7.5983645 29.2047145,15.3458734 L29.2047145,15.7890726 L27.4565634,13.8024847 Z M20.3880285,23.0322514 C20.1751899,23.1850787 19.3845634,23.4296024 18.0774585,23.4296024 C16.7700213,23.4296024 15.9797271,23.1850787 15.7668885,23.0322514 C15.8276995,22.1764185 16.8613209,21.47358 18.0774585,21.47358 C19.293513,21.47358 20.3272175,22.1764185 20.3880285,23.0322514 Z M23.9298558,17.8212581 C25.1459934,17.8212581 26.1796979,18.5243472 26.2405089,19.3800965 C26.0276703,19.5329238 25.2220072,19.7774475 23.9298558,19.7774475 C22.6377875,19.7774475 21.8321244,19.5329238 21.6192858,19.3800965 C21.6800968,18.5243472 22.7138013,17.8212581 23.9298558,17.8212581 Z M23.3064597,16.3238846 C23.0937872,16.4767119 22.2882072,16.7211521 20.9960558,16.7211521 C19.7039875,16.7211521 18.8981582,16.4767119 18.6854858,16.3238846 C18.7461307,15.4681353 19.7800013,14.7652132 20.9960558,14.7652132 C22.2121934,14.7652132 23.2458148,15.4681353 23.3064597,16.3238846 Z M22.3793406,11.1435403 L21.4673413,9.90580617 L18.6398775,12.9467354 C16.6483993,12.7327771 15.0980502,11.0366447 15.0980502,8.97364316 C15.0980502,6.7731806 16.8764406,4.98526823 19.0655547,4.98526823 C21.2543365,4.98526823 23.0328931,6.7731806 23.0328931,8.97364316 C23.0328931,9.76826161 22.7898151,10.5170319 22.3793406,11.1435403 Z M21.7257051,27.7846793 C20.5856644,27.2191348 18.85255,26.8831653 17.0283851,26.5163798 C16.3899524,26.3941179 15.7212802,26.2565734 15.0828475,26.1191123 C14.4899399,25.9815677 13.912152,25.8745886 13.3955075,25.7828922 C12.5746416,25.6300649 11.5865454,25.4313895 11.2672875,25.2480802 C11.3737068,25.0798032 11.7080013,24.6826192 12.8938164,23.872718 C13.3194937,23.5824297 14.611562,22.6961149 14.2619816,21.5651093 C13.9427237,20.510935 12.2857892,19.8690604 8.91110917,19.5021914 C8.60713708,19.4717929 8.28771301,19.4412275 7.95350155,19.410662 C7.78627121,18.9064154 7.54302708,18.1882106 7.19344672,17.1490685 L6.61565883,15.4526855 L6.03812017,17.1490685 C5.84031816,17.714446 5.68837366,18.1729279 5.55154883,18.5701954 C5.39952125,18.0812315 5.12603776,17.2864461 4.65483533,15.9111674 L4.12282187,14.184553 L3.54511706,15.8806854 C2.75465671,18.2033263 2.52661533,18.8909657 2.46588738,19.1508556 L1.7665605,19.1508556 C1.52323329,18.2645408 1.35600295,17.3324613 1.27998916,16.3850155 L2.67864292,16.3391673 L4.98921293,12.2743788 L6.58533639,12.2743788 L7.96853816,16.8434139 L11.2217623,16.0029473 L11.9666143,16.415581 L10.3856936,18.4173681 L11.3433012,19.181421 L14.7179813,14.887475 L15.1130868,15.1166325 L16.9373347,15.7890726 L17.7277951,15.3764389 C17.5757675,15.6973762 17.4844679,16.0487955 17.4844679,16.415581 C17.4844679,16.782283 17.7124262,17.5616187 19.4455406,17.8519906 C19.9926737,17.943687 20.4032313,18.4173681 20.4032313,18.9828291 L20.4032313,20.9693334 C20.1599872,20.8012234 19.8862544,20.6483961 19.5821993,20.5415005 L19.5975682,20.5415005 C18.9285638,20.3275423 18.3054999,20.0066049 18.107864,19.3495311 C17.9558365,19.8843431 17.5300761,20.1899977 16.982943,20.4039559 C15.5692526,20.7859407 14.5507509,21.8556482 14.5507509,23.1239478 C14.5507509,23.5824297 14.9002482,24.6673365 18.0774585,24.6673365 C21.2697054,24.6673365 21.604083,23.5824297 21.604083,23.1239478 L21.604083,20.7248097 C21.8167555,20.8012234 22.0601658,20.8623543 22.348852,20.9082025 C22.8962344,20.9998989 23.3064597,21.47358 23.3064597,22.039041 L23.3064597,23.4143197 C23.3064597,23.735257 23.534501,24.0255453 23.8539251,24.0561108 C24.2185421,24.0865092 24.5225972,23.7963044 24.5225972,23.4448851 L24.5225972,22.039041 C24.5225972,21.47358 24.9329886,20.9998989 25.480371,20.9082025 C27.2131531,20.6178306 27.4411945,19.8537776 27.4411945,19.4717929 C27.4411945,18.4479335 26.7725224,17.5616187 25.7844262,17.0572051 L25.7996289,17.0572051 C25.7844262,17.0572051 25.7690573,17.0420894 25.7386517,17.0420894 C25.5715875,16.950393 25.3740348,16.8892621 25.1916017,16.8279642 C24.917952,16.6905866 24.6746248,16.5072774 24.5075606,16.2780364 C24.4315468,15.1930461 23.6258837,14.2761658 22.470391,13.8330502 L22.4553544,13.8330502 C22.3793406,13.8024847 22.3034099,13.787202 22.2273961,13.7566365 C21.6496913,13.5426783 21.1480834,13.2218245 20.9806869,12.6563635 C20.7983369,13.2829554 20.2662403,13.6038092 19.5821993,13.8177675 C19.536591,13.8330502 19.4759461,13.8483329 19.4301717,13.8788984 L21.3303503,11.8464623 L22.470391,13.3899345 L23.3824734,12.6563635 L23.6105148,12.6563635 L25.5867072,15.3917216 L26.9851948,15.1471979 L29.037318,17.4852051 C28.3686458,21.9471776 25.5867072,25.7370441 21.7257051,27.7846793 Z M6.23558988,20.4803696 C6.32697258,20.2052804 6.47900016,19.7468821 6.64614742,19.242552 C6.81337776,19.7468821 6.96540535,20.2052804 7.05645574,20.4803696 C6.96540535,20.510935 6.81337776,20.5415005 6.64614742,20.5415005 C6.47900016,20.5415005 6.32697258,20.510935 6.23558988,20.4803696 Z M3.727384,19.181421 C3.8187667,18.9064154 3.95542538,18.4632163 4.12282187,17.9895351 C4.28996913,18.478499 4.44199671,18.9216982 4.5180105,19.1965368 C4.24427778,19.1965368 3.98599704,19.181421 3.727384,19.181421 Z M15.2195892,29.4044817 C9.27580921,29.4044817 4.18346675,25.6606304 2.16183221,20.3886732 C2.55702085,20.3886732 2.98269808,20.4039559 3.40820916,20.4039559 C3.62113085,20.4650868 3.84917222,20.4956523 4.10745296,20.4956523 C4.30517189,20.4956523 4.50280775,20.4803696 4.67003809,20.4345214 C4.76125464,20.4345214 4.85230503,20.4345214 4.95880742,20.4498041 C4.92831882,20.5415005 4.92831882,20.572066 4.92831882,20.6025479 C4.92831882,21.274988 5.64293153,21.7639519 6.63094467,21.7639519 C7.5884692,21.7639519 8.28771301,21.3055535 8.31828467,20.6636788 C8.47031225,20.6789615 8.63754259,20.6942443 8.78957018,20.709527 C12.8329223,21.1527262 13.106655,21.8862137 13.106655,21.9167792 C13.1218578,21.9779101 13.0306413,22.2987639 12.2097754,22.8489422 C10.4919468,24.0408281 9.89920537,24.7590329 10.051233,25.5078031 C10.2336661,26.4094007 11.4039461,26.6386416 13.1826688,26.9747782 C13.6841937,27.0664745 14.2467788,27.1734536 14.8242344,27.3109982 C15.4628333,27.4483758 16.1468744,27.5860873 16.8004268,27.7236319 C17.9860758,27.9680721 19.2022134,28.2124287 20.1751899,28.5029676 C18.6398775,29.0836278 16.9677402,29.4044817 15.2195892,29.4044817 Z M15.2195892,0.0647302946 C6.84361713,0.0647302946 0.0184925354,6.9260079 0.0184925354,15.3458734 C0.0184925354,23.7657389 6.84361713,30.6270165 15.2195892,30.6270165 C23.5954782,30.6270165 30.420769,23.7657389 30.420769,15.3458734 C30.420769,6.9260079 23.5954782,0.0647302946 15.2195892,0.0647302946 Z" id="Fill-27" fill="#35312E"></path>
                </g>
                <path d="M37.842822,17.9342417 L38.9537033,17.9342417 C40.3143086,17.9342417 41.0786833,17.0941091 41.0786833,15.5316797 C41.0786833,14.0358094 40.2888045,13.1803106 38.9537033,13.1803106 L37.842822,13.1803106 L37.842822,17.9342417 Z M39.1982766,11.8587303 C41.3844831,11.8587303 42.6482227,13.1905826 42.6482227,15.5061249 C42.6482227,17.9086035 41.3996858,19.2559056 39.1982766,19.2559056 L36.3038542,19.2559056 L36.3038542,11.8587303 L39.1982766,11.8587303 Z" id="Fill-30" fill="#35312E"></path>
                <path d="M45.1804373,15.8854373 L47.5754948,15.8854373 C47.5449232,15.1375857 47.0964833,14.6714207 46.4034702,14.6714207 C45.7155246,14.6714207 45.2313624,15.1529519 45.1804373,15.8854373 Z M48.9871083,17.6937266 C48.7628884,18.7593421 47.7946471,19.4252683 46.418756,19.4252683 C44.7065765,19.4252683 43.6975454,18.3392758 43.6975454,16.5053482 C43.6975454,14.6662429 44.7269299,13.528974 46.3983195,13.528974 C48.0545894,13.528974 49.0329658,14.5894117 49.0329658,16.3823348 L49.0329658,16.8383113 L45.1752867,16.8383113 L45.1752867,16.9151425 C45.1958063,17.7552751 45.6849529,18.2777273 46.4594628,18.2777273 C47.0455582,18.2777273 47.4481406,18.0677777 47.6060665,17.6937266 L48.9871083,17.6937266 Z" id="Fill-32" fill="#35312E"></path>
                <path d="M53.7909307,15.6446717 C53.6889143,15.1068532 53.3067685,14.7533461 52.6748987,14.7533461 C51.8748847,14.7533461 51.4263618,15.3527131 51.4263618,16.4642602 C51.4263618,17.5913407 51.8799523,18.2008961 52.6748987,18.2008961 C53.2812644,18.2008961 53.6787792,17.9038433 53.7909307,17.3453973 L55.1770401,17.3453973 C55.0546703,18.6107739 54.1374372,19.4252683 52.6748987,19.4252683 C50.9219293,19.4252683 49.928184,18.3597363 49.928184,16.4642602 C49.928184,14.5894117 50.9167786,13.528974 52.6748987,13.528974 C54.1629413,13.528974 55.0546703,14.3589181 55.1770401,15.6446717 L53.7909307,15.6446717 Z" id="Fill-34" fill="#35312E"></path>
                <path d="M57.5587224,15.8854373 L59.9537799,15.8854373 C59.9232082,15.1375857 59.4747684,14.6714207 58.7817553,14.6714207 C58.0937266,14.6714207 57.6096475,15.1529519 57.5587224,15.8854373 Z M61.3653103,17.6937266 C61.1411735,18.7593421 60.1729322,19.4252683 58.7970411,19.4252683 C57.0847785,19.4252683 56.0757474,18.3392758 56.0757474,16.5053482 C56.0757474,14.6662429 57.105215,13.528974 58.7766046,13.528974 C60.4328745,13.528974 61.4112509,14.5894117 61.4112509,16.3823348 L61.4112509,16.8383113 L57.5535718,16.8383113 L57.5535718,16.9151425 C57.5740913,17.7552751 58.063238,18.2777273 58.8377479,18.2777273 C59.4238433,18.2777273 59.8264257,18.0677777 59.9843516,17.6937266 L61.3653103,17.6937266 Z" id="Fill-36" fill="#35312E"></path>
                <path d="M62.6386867,13.6519874 L64.0758043,13.6519874 L64.0758043,14.5586792 L64.1674362,14.5586792 C64.4273784,13.9234855 64.9981049,13.528974 65.8286906,13.528974 C67.0772275,13.528974 67.7498872,14.2974531 67.7498872,15.6498494 L67.7498872,19.3023383 L66.2669952,19.3023383 L66.2669952,16.003273 C66.2669952,15.2246889 65.9357745,14.8148111 65.2325431,14.8148111 C64.5445144,14.8148111 64.1216618,15.3015201 64.1216618,16.0442775 L64.1216618,19.3023383 L62.6386867,19.3023383 L62.6386867,13.6519874 Z" id="Fill-38" fill="#35312E"></path>
                <path d="M71.0625932,12.2762912 L71.0625932,13.6747862 L72.2295502,13.6747862 L72.2295502,14.8478819 L71.0625932,14.8478819 L71.0625932,17.3887401 C71.0625932,17.8804599 71.2868131,18.1059428 71.7912456,18.1059428 C71.9849769,18.1059428 72.0868271,18.100765 72.2295502,18.0854823 L72.2295502,19.2226677 C72.0461202,19.2584944 71.7708921,19.2893104 71.4855289,19.2893104 C70.119856,19.2893104 69.5796181,18.8436059 69.5796181,17.7421637 L69.5796181,14.8478819 L68.7031749,14.8478819 L68.7031749,13.6747862 L69.5796181,13.6747862 L69.5796181,12.2762912 L71.0625932,12.2762912 Z" id="Fill-40" fill="#35312E"></path>
                <path d="M73.4384603,13.6211714 L74.8754947,13.6211714 L74.8754947,14.522769 L74.9672097,14.522769 C75.1150005,13.9593123 75.6959452,13.528974 76.4093949,13.528974 C76.6131783,13.528974 76.8629023,13.5545287 76.9903396,13.6007109 L76.9903396,14.9582015 C76.8731206,14.9121028 76.526614,14.8659205 76.2870252,14.8659205 C75.4767929,14.8659205 74.9213522,15.3475353 74.9213522,16.1415692 L74.9213522,19.2715223 L73.4384603,19.2715223 L73.4384603,13.6211714 Z" id="Fill-42" fill="#35312E"></path>
                <path d="M81.1287298,17.2531999 L81.1287298,16.8383113 L79.9923444,16.9100483 C79.3553239,16.9560635 79.0445396,17.1866406 79.0445396,17.5913407 C79.0445396,18.011407 79.4063321,18.2675389 79.9210659,18.2675389 C80.6089284,18.2675389 81.1287298,17.8270121 81.1287298,17.2531999 M77.5922193,17.6887159 C77.5922193,16.6641049 78.3717968,16.0699157 79.7681245,15.9879903 L81.1287298,15.9059813 L81.1287298,15.4449105 C81.1287298,14.9736513 80.7924415,14.7072474 80.180925,14.7072474 C79.6458378,14.7072474 79.289113,14.8917258 79.1668263,15.2297831 L77.8010703,15.2297831 C77.897936,14.1847116 78.8508914,13.528974 80.2624218,13.528974 C81.7503814,13.528974 82.5912684,14.2359881 82.5912684,15.4449105 L82.5912684,19.3023383 L81.1542339,19.3023383 L81.1542339,18.5646752 L81.0625189,18.5646752 C80.772005,19.0820332 80.1605716,19.3894416 79.4318361,19.3894416 C78.3514434,19.3894416 77.5922193,18.7234319 77.5922193,17.6887159" id="Fill-44" fill="#35312E"></path>
                <polygon id="Fill-46" fill="#35312E" points="84.0720835 19.2481389 85.5550585 19.2481389 85.5550585 11.4411693 84.0720835 11.4411693"></polygon>
                <path d="M90.350158,17.2531999 L90.350158,16.8383113 L89.2136895,16.9100483 C88.5767521,16.9560635 88.2658848,17.1866406 88.2658848,17.5913407 C88.2658848,18.011407 88.6277603,18.2675389 89.142411,18.2675389 C89.8303566,18.2675389 90.350158,17.8270121 90.350158,17.2531999 M86.8135644,17.6887159 C86.8135644,16.6641049 87.593225,16.0699157 88.9895527,15.9879903 L90.350158,15.9059813 L90.350158,15.4449105 C90.350158,14.9736513 90.0137866,14.7072474 89.4022702,14.7072474 C88.8671829,14.7072474 88.5104581,14.8917258 88.3882545,15.2297831 L87.0224985,15.2297831 C87.1192811,14.1847116 88.0722365,13.528974 89.4837669,13.528974 C90.9718096,13.528974 91.8126135,14.2359881 91.8126135,15.4449105 L91.8126135,19.3023383 L90.3756621,19.3023383 L90.3756621,18.5646752 L90.283864,18.5646752 C89.9934332,19.0820332 89.3819168,19.3894416 88.6531813,19.3894416 C87.5728716,19.3894416 86.8135644,18.7234319 86.8135644,17.6887159" id="Fill-48" fill="#35312E"></path>
                <path d="M93.2934286,13.6519874 L94.7304631,13.6519874 L94.7304631,14.5586792 L94.822095,14.5586792 C95.0820372,13.9234855 95.6527637,13.528974 96.4833494,13.528974 C97.7319694,13.528974 98.404546,14.2974531 98.404546,15.6498494 L98.404546,19.3023383 L96.9216541,19.3023383 L96.9216541,16.003273 C96.9216541,15.2246889 96.5905164,14.8148111 95.8872019,14.8148111 C95.1992563,14.8148111 94.7763206,15.3015201 94.7763206,16.0442775 L94.7763206,19.3023383 L93.2934286,19.3023383 L93.2934286,13.6519874 Z" id="Fill-49" fill="#35312E"></path>
                <path d="M101.047749,16.4204163 C101.047749,17.4654878 101.521693,18.0904095 102.316639,18.0904095 C103.111669,18.0904095 103.590597,17.4603101 103.590597,16.4255941 C103.590597,15.3958054 103.106518,14.7555174 102.316639,14.7555174 C101.526844,14.7555174 101.047749,15.3856169 101.047749,16.4204163 M99.5240672,16.4152386 C99.5240672,14.6172213 100.400593,13.5055906 101.812124,13.5055906 C102.571514,13.5055906 103.198316,13.8744639 103.488747,14.4993856 L103.575395,14.4993856 L103.575395,11.4411693 L105.058203,11.4411693 L105.058203,19.2481389 L103.621252,19.2481389 L103.621252,18.3619076 L103.529454,18.3619076 C103.228805,18.9715466 102.591867,19.3352421 101.812124,19.3352421 C100.395443,19.3352421 99.5240672,18.2184337 99.5240672,16.4152386" id="Fill-50" fill="#35312E"></path>
            </g>
        </g>
    </g>
</svg>