<?xml version="1.0" encoding="UTF-8"?>
<svg width="87px" height="40px" viewBox="0 0 87 40" version="1.1" xmlns="http://www.w3.org/2000/svg" xmlns:xlink="http://www.w3.org/1999/xlink">
    <!-- Generator: Sketch 49.3 (51167) - http://www.bohemiancoding.com/sketch -->
    <title>golem</title>
    <desc>Created with Sketch.</desc>
    <defs></defs>
    <g id="Page-1" stroke="none" stroke-width="1" fill="none" fill-rule="evenodd">
        <g id="golem" transform="translate(-37.000000, -10.000000)">
            <rect id="Rectangle-8-Copy-6" fill-opacity="0" fill="#FFFFFF" opacity="0" x="0" y="0" width="160" height="60"></rect>
            <path d="M106.314834,16.3952096 L106.314834,29.8323353 L107.630333,29.8323353 L107.630333,17.7125749 L114.423091,17.7125749 L114.423091,29.8323353 L115.73859,29.8323353 L115.73859,17.7125749 L122.531348,17.7125749 L122.531348,29.8323353 L123.846847,29.8323353 L123.846847,16.3952096 L106.314834,16.3952096 Z M64.4819683,15.8922156 C62.5685154,15.8922156 60.750735,16.6347305 59.3873998,18 C58.0240645,19.3652695 57.2826015,21.1616766 57.2826015,23.1017964 C57.2826015,25.0179641 58.0240645,26.8383234 59.3873998,28.2035928 C60.750735,29.5688623 62.5445972,30.3113772 64.4819683,30.3113772 C66.3954213,30.3113772 68.2132016,29.5688623 69.5765369,28.2035928 C70.9398721,26.8383234 71.6813351,25.0419162 71.6813351,23.1017964 C71.6813351,21.1856287 70.9398721,19.3652695 69.5765369,18 C68.1892835,16.6586826 66.3954213,15.8922156 64.4819683,15.8922156 Z M68.6437286,27.2934132 C67.5434931,28.4191617 66.060567,29.0179641 64.4819683,29.0179641 C62.9033696,29.0179641 61.4204436,28.3952096 60.3202081,27.2934132 C59.2199727,26.1676647 58.5981004,24.7065868 58.5981004,23.1257485 C58.5981004,21.5449102 59.2199727,20.0598802 60.3202081,18.9580838 C61.4204436,17.8323353 62.9033696,17.2335329 64.4819683,17.2335329 C66.060567,17.2335329 67.5434931,17.8562874 68.6437286,18.9580838 C69.743964,20.0838323 70.3658362,21.5449102 70.3658362,23.1257485 C70.3658362,24.6826347 69.743964,26.1676647 68.6437286,27.2934132 Z M98.3261678,18.0239521 C96.9628326,16.6586826 95.1689704,15.9161677 93.2315993,15.9161677 C91.3181463,15.9161677 89.500366,16.6586826 88.1370307,18.0239521 C86.7736955,19.3892216 86.0322325,21.1856287 86.0322325,23.1257485 C86.0322325,25.0419162 86.7736955,26.8622754 88.1370307,28.2275449 C89.500366,29.5928144 91.2942281,30.3353293 93.2315993,30.3353293 C95.1689704,30.3353293 96.9628326,29.5928144 98.3261678,28.2275449 L97.3933595,27.2934132 C96.293124,28.4191617 94.810198,29.0179641 93.2315993,29.0179641 C91.6530006,29.0179641 90.1700745,28.3952096 89.069839,27.2934132 C87.9696036,26.1676647 87.3477314,24.7065868 87.3477314,23.1257485 L100.430966,23.1257485 C100.430966,21.1856287 99.6895031,19.3652695 98.3261678,18.0239521 Z M89.0937572,18.9341317 C90.1939927,17.8083832 91.6769187,17.2095808 93.2555174,17.2095808 C94.8341161,17.2095808 96.3170422,17.8323353 97.4172776,18.9341317 C98.206577,19.7245509 98.7566947,20.7305389 98.9958764,21.7844311 L87.5151585,21.7844311 C87.7543401,20.7305389 88.2805397,19.748503 89.0937572,18.9341317 Z M52.9773323,13.3772455 L48.791654,17.5688623 C47.5000732,16.491018 45.8975563,15.8922156 44.1993668,15.8922156 C42.2859138,15.8922156 40.4681335,16.6347305 39.1047983,18 C37.741463,19.3652695 37,21.1856287 37,23.1017964 C37,25.0179641 37.741463,26.8383234 39.1047983,28.2035928 C40.3007064,29.4011976 41.8553869,30.1437126 43.5296583,30.2874251 L43.5296583,35.6047904 C41.8553869,35.748503 40.3007064,36.4670659 39.1047983,37.6886228 C37.741463,39.0538922 37,40.8742515 37,42.7904192 C37,44.7065868 37.741463,46.5269461 39.1047983,47.8922156 C40.4681335,49.257485 42.2619957,50 44.1993668,50 C46.1128198,50 47.9306001,49.257485 49.2939354,47.8922156 C50.6572706,46.5269461 51.3987336,44.7305389 51.3987336,42.7904192 C51.3987336,40.8502994 50.6572706,39.0538922 49.2939354,37.6886228 C48.0980272,36.491018 46.5433467,35.748503 44.8690754,35.6047904 L44.8690754,30.2874251 C46.5433467,30.1437126 48.0980272,29.4251497 49.2939354,28.2035928 C50.6572706,26.8383234 51.3987336,25.0419162 51.3987336,23.1017964 C51.3987336,21.4011976 50.8007796,19.7724551 49.7244623,18.4790419 L53.9101407,14.2874251 L52.9773323,13.3772455 Z M48.361127,38.6227545 C49.4613625,39.748503 50.0832347,41.2095808 50.0832347,42.7904192 C50.0832347,44.3712575 49.4613625,45.8562874 48.361127,46.9580838 C47.2608916,48.0838323 45.7779655,48.6826347 44.1993668,48.6826347 C42.6207681,48.6826347 41.1378421,48.0598802 40.0376066,46.9580838 C38.9373711,45.8323353 38.3154989,44.3712575 38.3154989,42.7904192 C38.3154989,41.2095808 38.9373711,39.7245509 40.0376066,38.6227545 C41.1378421,37.497006 42.6207681,36.8982036 44.1993668,36.8982036 C45.7779655,36.8982036 47.2608916,37.497006 48.361127,38.6227545 Z M50.0832347,23.1257485 C50.0832347,24.7065868 49.4613625,26.1916168 48.361127,27.2934132 C47.2608916,28.4191617 45.7779655,29.0179641 44.1993668,29.0179641 C42.6207681,29.0179641 41.1378421,28.3952096 40.0376066,27.2934132 C38.9373711,26.1676647 38.3154989,24.7065868 38.3154989,23.1257485 C38.3154989,21.5449102 38.9373711,20.0598802 40.0376066,18.9580838 C41.1378421,17.8323353 42.6207681,17.2335329 44.1993668,17.2335329 C45.7779655,17.2335329 47.2608916,17.8562874 48.361127,18.9580838 C49.4852807,20.0598802 50.0832347,21.5449102 50.0832347,23.1257485 Z M78.2109934,29.6646707 L79.5264923,29.6646707 L79.5264923,10 L78.2109934,10 L78.2109934,29.6646707 Z" id="Shape" fill="#273B5A" fill-rule="nonzero"></path>
        </g>
    </g>
</svg>