<?xml version="1.0" encoding="UTF-8"?>
<svg width="71px" height="36px" viewBox="0 0 71 36" version="1.1" xmlns="http://www.w3.org/2000/svg" xmlns:xlink="http://www.w3.org/1999/xlink">
    <!-- Generator: Sketch 49.3 (51167) - http://www.bohemiancoding.com/sketch -->
    <title>kik</title>
    <desc>Created with Sketch.</desc>
    <defs></defs>
    <g id="Page-1" stroke="none" stroke-width="1" fill="none" fill-rule="evenodd">
        <g id="kik" transform="translate(-45.000000, -12.000000)">
            <rect id="Rectangle-8-Copy-8" fill-opacity="0" fill="#FFFFFF" opacity="0" x="0" y="0" width="160" height="60"></rect>
            <g transform="translate(45.000000, 12.000000)" fill="#273B5A" fill-rule="nonzero">
                <path d="M66.7056908,16.4117647 C69.0452395,16.4117647 70.9411765,18.3078691 70.9411765,20.6470588 C70.9411765,22.9862484 69.0452395,24.8823529 66.7056908,24.8823529 C64.3663337,24.8823529 62.4705882,22.9862484 62.4705882,20.6470588 C62.4705882,18.3078691 64.3663337,16.4117647 66.7056908,16.4117647" id="Fill-1"></path>
                <path d="M30.7087512,35.4705882 L30.7028287,35.4705882 C28.6573616,35.4705882 26.99926,33.8076452 27.0000002,31.757078 L27.0055525,13.2407403 C27.0062929,11.1836787 28.6749439,9.51943675 30.7265185,9.52945677 C32.7645825,9.53929113 34.4113945,11.1985231 34.4113945,13.2416681 L34.4117647,31.7580058 C34.4117647,33.8083874 32.7538481,35.4705882 30.7087512,35.4705882" id="Fill-3"></path>
                <path d="M14.9157642,20.9405557 L19.5961963,16.2750572 C21.1101759,14.7659622 21.0770339,12.2829974 19.5234319,10.8157227 C18.0640718,9.43733967 15.792269,9.46546988 14.3666064,10.8798597 L7.42918371,17.761648 L7.40048531,3.83135263 C7.39641199,1.80372303 5.84040302,0.077649893 3.83984651,0.00263584952 C1.73560544,-0.0763164313 0.000185150996,1.62856524 0.000185150996,3.74771197 L0,32.2699267 C0,34.3299999 1.64876962,36 3.68265331,36 C5.71635185,36 7.36512147,34.3301873 7.36530662,32.2701142 L7.36549177,27.6132424 L9.23218412,25.859039 L15.5419449,34.461837 C16.7550542,36.1158967 19.0564812,36.4731511 20.7028438,35.262987 C22.3721651,34.0359448 22.7341353,31.6662512 21.5091763,29.985749 L14.9157642,20.9405557 Z" id="Fill-5"></path>
                <path d="M53.5628231,20.9405557 L58.2432551,16.2750572 C59.7572348,14.7659622 59.7240927,12.2829974 58.1704908,10.8157227 C56.7111306,9.43733967 54.4393278,9.46546988 53.0136652,10.8798597 L46.0762425,17.761648 L46.0475441,3.83135263 C46.0434708,1.80372303 44.4874619,0.077649893 42.4869053,0.00263584952 C40.3826643,-0.0763164313 38.647244,1.62856524 38.647244,3.74771197 L38.6470588,32.2699267 C38.6470588,34.3299999 40.2958284,36 42.3297121,36 C44.3635958,36 46.0121803,34.3301873 46.0123654,32.2701142 L46.0125506,27.6132424 L47.8792429,25.859039 L54.1890037,34.461837 C55.4021131,36.1158967 57.7035399,36.4731511 59.3499025,35.262987 C61.0192239,34.0359448 61.3811942,31.6662512 60.1562352,29.985749 L53.5628231,20.9405557 Z" id="Fill-8"></path>
            </g>
        </g>
    </g>
</svg>