<?xml version="1.0" encoding="UTF-8"?>
<svg width="135px" height="38px" viewBox="0 0 135 38" version="1.1" xmlns="http://www.w3.org/2000/svg" xmlns:xlink="http://www.w3.org/1999/xlink">
    <!-- Generator: Sketch 49.3 (51167) - http://www.bohemiancoding.com/sketch -->
    <title>omise</title>
    <desc>Created with Sketch.</desc>
    <defs></defs>
    <g id="Page-1" stroke="none" stroke-width="1" fill="none" fill-rule="evenodd">
        <g id="omise" transform="translate(-13.000000, -11.000000)">
            <rect id="Rectangle-8-Copy-3" fill-opacity="0" fill="#FFFFFF" opacity="0" x="0" y="0" width="160" height="60"></rect>
            <g id="Group-30" transform="translate(13.000000, 11.000000)" fill="#273B5A" fill-rule="nonzero">
                <path d="M55.1994904,27.5393258 C50.1972997,27.5393258 46.3784229,24.3904494 46.3784229,18.7865169 C46.3784229,13.1825843 50.3855542,9.95365169 55.4415319,9.95365169 C60.4975097,9.95365169 64.235706,13.1558989 64.235706,18.7064607 C64.235706,24.2570225 60.1478942,27.5393258 55.1994904,27.5393258 Z M55.2801709,14.116573 C52.9942236,14.116573 51.8378031,15.9311798 51.8378031,18.7598315 C51.8378031,21.5884831 53.021117,23.3497191 55.3070645,23.3497191 C57.5930118,23.3497191 58.7494323,21.5884831 58.7494323,18.7331461 C58.7494323,15.877809 57.5661183,14.116573 55.2801709,14.116573 Z" id="Shape"></path>
                <path d="M87.0951797,17.3188202 C87.0951797,15.3441011 86.2345878,14.6502809 84.8361258,14.6502809 C83.8410664,14.6769663 82.8729005,15.0505618 82.146776,15.7176966 L82.146776,16.6783708 L82.146776,27.0323034 L76.6336088,27.0323034 L76.6336088,17.3188202 C76.6336088,15.3441011 75.7461233,14.6502809 74.3476614,14.6502809 C73.352602,14.6502809 72.4113295,14.997191 71.6583116,15.6376404 L71.6583116,27.0323034 L66.1451444,27.0323034 L66.1720378,10.3272472 L71.685205,10.3272472 L71.685205,12.4620787 C73.1643475,10.9410112 74.8048509,10.0070225 76.9832243,10.0337079 C79.0809172,10.0337079 80.8558881,11.0210674 81.662693,12.9957865 C83.1956224,11.1811798 85.1319543,10.0603933 87.4179017,10.0603933 C90.6720149,10.0603933 92.6083472,12.2219101 92.5814536,15.7710674 L92.5545601,27.0856742 L87.0413928,27.0856742 L87.0951797,17.3188202 Z" id="Shape"></path>
                <path d="M98.1484078,8.21910112 C96.1313954,8.21910112 94.8942944,7.17837079 94.8942944,5.31039326 C94.8942944,3.36235955 96.1582889,2.375 98.1484078,2.375 C100.138527,2.375 101.402521,3.36235955 101.402521,5.33707865 C101.402521,7.20505618 100.192314,8.21910112 98.1484078,8.21910112 Z M95.405271,10.3539326 L100.918438,10.3539326 L100.891545,27.0589888 L95.3783775,27.0589888 L95.405271,10.3539326 Z" id="Shape"></path>
                <path d="M109.766399,27.619382 C107.480452,27.619382 104.46838,27.1123596 102.720302,26.1516854 L103.796042,22.2022472 C105.678587,23.1896067 107.749387,23.7233146 109.873973,23.7766854 C111.380009,23.7766854 112.133027,23.3230337 112.133027,22.4424157 C112.133027,21.4817416 111.191754,21.1615169 109.30921,20.7345506 C105.436546,19.9606742 102.989238,18.5730337 102.989238,15.3441011 C102.989238,12.2485955 105.705481,10.0603933 110.331162,10.0603933 C112.536429,10.0603933 115.440927,10.7008427 117.081431,11.5014045 L115.978797,15.3974719 C114.096252,14.4367978 111.837199,13.9030899 110.250482,13.9030899 C108.905807,13.9030899 108.206576,14.3300562 108.206576,15.130618 C108.206576,16.011236 109.228529,16.3848315 111.057287,16.758427 C114.956844,17.6123596 117.323472,18.8932584 117.296579,22.2022472 C117.323472,25.1643258 114.687909,27.619382 109.766399,27.619382 Z" id="Shape"></path>
                <path d="M128.134658,23.616573 C129.963417,23.616573 131.899748,22.9761236 133.567145,22.0154494 L134.105015,26.2317416 C132.437618,27.0856742 130.07099,27.5660112 127.623682,27.5660112 C122.002941,27.5660112 118.345425,24.4705056 118.345425,18.9199438 C118.345425,13.5294944 122.083621,10.0070225 127.354747,10.0337079 C132.061109,10.0337079 134.642885,12.8356742 134.642885,16.9719101 C134.642885,17.8525281 134.535311,19.1601124 134.29327,19.880618 L123.751018,20.0407303 L123.751018,20.1207865 C123.912379,22.3890449 125.418415,23.616573 128.134658,23.616573 Z M129.533121,16.9985955 C129.533121,15.0238764 128.726316,13.8497191 127.005132,13.8230337 C125.122587,13.8230337 123.966166,15.4508427 123.777912,17.3188202 L129.533121,17.2921348 L129.533121,16.9985955 Z" id="Shape"></path>
                <path d="M32.255294,5.53943664 C24.8880134,-1.81971831 12.9128337,-1.81971831 5.54555305,5.53943664 C-1.82172757,12.8985916 -1.82172757,24.8605634 5.54555305,32.2197183 C12.9128337,39.5788732 24.8880134,39.5788732 32.255294,32.2197183 C39.6225746,24.8605634 39.6225746,12.8985916 32.255294,5.53943664 Z M29.3083817,19.2943662 L19.3156702,29.2760563 C19.0745592,29.5169014 18.6994977,29.5169014 18.4583867,29.2760563 L8.46567517,19.2943662 C8.22456417,19.0535211 8.22456417,18.6788732 8.46567517,18.4380282 L18.4583867,8.45633803 C18.6994977,8.21549296 19.0745592,8.21549296 19.3156702,8.45633803 L29.3083817,18.4380282 C29.5494927,18.6788732 29.5494927,19.0535211 29.3083817,19.2943662 Z" id="Shape" fill-opacity="0.7"></path>
                <path d="M37.800847,18.8394366 C37.800847,13.8352113 35.8183788,9.01830987 32.2820841,5.48591547 C29.2815917,2.48873239 24.4325815,2.46197183 21.4320891,5.45915493 L18.4851768,8.37605632 C18.5923372,8.26901408 18.7530779,8.21549296 18.8870285,8.21549296 C19.0477692,8.21549296 19.2085098,8.29577466 19.3156702,8.40281691 L32.2285039,21.328169 C35.2289964,24.3253521 35.2289964,29.1690141 32.2285039,32.1661972 C35.7915887,28.6338028 37.800847,23.843662 37.800847,18.8394366 Z" id="Shape"></path>
                <path d="M5.51876292,32.1394366 C8.51925539,35.1366197 13.3682655,35.1366197 16.3955481,32.1661972 C16.3955481,32.1661972 17.6011031,30.9084507 19.3156702,29.1957747 C19.1013494,29.4366197 18.6994977,29.4366197 18.4583867,29.2225352 L18.4315966,29.1957747 L8.4924653,19.2676056 C8.35851473,19.1605634 8.30493452,18.9732394 8.30493452,18.8126761 C8.30493452,18.6521127 8.35851473,18.4915493 8.46567517,18.384507 L5.57234314,21.2746479 C2.57185069,24.271831 2.54506057,29.115493 5.51876292,32.1394366 Z" id="Shape"></path>
            </g>
        </g>
    </g>
</svg>