<?xml version="1.0" encoding="UTF-8"?>
<svg width="125px" height="42px" viewBox="0 0 125 42" version="1.1" xmlns="http://www.w3.org/2000/svg" xmlns:xlink="http://www.w3.org/1999/xlink">
    <!-- Generator: Sketch 49.3 (51167) - http://www.bohemiancoding.com/sketch -->
    <title>shapeshift</title>
    <desc>Created with Sketch.</desc>
    <defs>
        <linearGradient x1="92.5756719%" y1="-3.51014456%" x2="44.1579795%" y2="77.6511454%" id="linearGradient-1">
            <stop stop-color="#2B415B" offset="0%"></stop>
            <stop stop-color="#3B5676" offset="37.62%"></stop>
            <stop stop-color="#54769E" offset="69.23%"></stop>
            <stop stop-color="#52749B" offset="79.01%"></stop>
            <stop stop-color="#4D6C92" offset="86.14%"></stop>
            <stop stop-color="#436082" offset="92.44%"></stop>
            <stop stop-color="#364F6C" offset="98.22%"></stop>
            <stop stop-color="#314863" offset="100%"></stop>
        </linearGradient>
        <linearGradient x1="99.7887646%" y1="61.4941149%" x2="-4.60729499%" y2="13.3460498%" id="linearGradient-2">
            <stop stop-color="#54769E" offset="0%"></stop>
            <stop stop-color="#53749C" offset="48.02%"></stop>
            <stop stop-color="#4F6F95" offset="68.78%"></stop>
            <stop stop-color="#486588" offset="84.23%"></stop>
            <stop stop-color="#435F80" offset="90.95%"></stop>
        </linearGradient>
        <linearGradient x1="725.856983%" y1="50.0229457%" x2="-347.124022%" y2="50.0229457%" id="linearGradient-3">
            <stop stop-color="#20344C" offset="25.39%"></stop>
            <stop stop-color="#273D57" offset="40.72%"></stop>
            <stop stop-color="#395373" offset="67.33%"></stop>
            <stop stop-color="#54769E" offset="100%"></stop>
        </linearGradient>
        <linearGradient x1="-653.788268%" y1="50.0214562%" x2="455.494413%" y2="50.0214562%" id="linearGradient-4">
            <stop stop-color="#54769E" offset="25.39%"></stop>
            <stop stop-color="#4D6E93" offset="41.33%"></stop>
            <stop stop-color="#3C5777" offset="68.97%"></stop>
            <stop stop-color="#233850" offset="100%"></stop>
        </linearGradient>
        <linearGradient x1="50.0370086%" y1="-209.335792%" x2="49.9575834%" y2="235.965027%" id="linearGradient-5">
            <stop stop-color="#54769E" offset="0.6545247%"></stop>
            <stop stop-color="#507198" offset="19.93%"></stop>
            <stop stop-color="#466488" offset="45.02%"></stop>
            <stop stop-color="#354F6D" offset="73.18%"></stop>
            <stop stop-color="#21354D" offset="100%"></stop>
        </linearGradient>
        <linearGradient x1="163.859645%" y1="-95.5767241%" x2="-53.1396722%" y2="173.049483%" id="linearGradient-6">
            <stop stop-color="#54769E" offset="25.39%"></stop>
            <stop stop-color="#4D6E93" offset="41.02%"></stop>
            <stop stop-color="#3C5777" offset="68.13%"></stop>
            <stop stop-color="#22364E" offset="100%"></stop>
        </linearGradient>
        <linearGradient x1="-44.1116755%" y1="-60.1463542%" x2="137.687762%" y2="146.957292%" id="linearGradient-7">
            <stop stop-color="#54769E" offset="25.39%"></stop>
            <stop stop-color="#4D6E93" offset="41.02%"></stop>
            <stop stop-color="#3C5777" offset="68.13%"></stop>
            <stop stop-color="#22364E" offset="100%"></stop>
        </linearGradient>
        <linearGradient x1="-1.43584834%" y1="31.6007047%" x2="127.701745%" y2="103.798097%" id="linearGradient-8">
            <stop stop-color="#54769E" offset="26.64%"></stop>
            <stop stop-color="#425E7F" offset="100%"></stop>
        </linearGradient>
        <linearGradient x1="-71.276129%" y1="-65.3137538%" x2="149.174581%" y2="96.3311509%" id="linearGradient-9">
            <stop stop-color="#54769E" stop-opacity="0" offset="46.09%"></stop>
            <stop stop-color="#52739A" stop-opacity="0.2156" offset="56.99%"></stop>
            <stop stop-color="#4A698E" stop-opacity="0.4266" offset="67.64%"></stop>
            <stop stop-color="#3D597B" stop-opacity="0.6356" offset="78.2%"></stop>
            <stop stop-color="#2C435F" stop-opacity="0.8422" offset="88.63%"></stop>
            <stop stop-color="#1B2E45" offset="96.61%"></stop>
        </linearGradient>
        <linearGradient x1="50.309375%" y1="295.997443%" x2="50.309375%" y2="-124.649242%" id="linearGradient-10">
            <stop stop-color="#54769E" offset="25.39%"></stop>
            <stop stop-color="#4D6E93" offset="41.02%"></stop>
            <stop stop-color="#3C5777" offset="68.13%"></stop>
            <stop stop-color="#22364E" offset="100%"></stop>
        </linearGradient>
    </defs>
    <g id="Page-1" stroke="none" stroke-width="1" fill="none" fill-rule="evenodd">
        <g id="shapeshift" transform="translate(-18.000000, -9.000000)">
            <rect id="Rectangle-8-Copy-4" fill-opacity="0" fill="#FFFFFF" opacity="0" x="0" y="0" width="160" height="60"></rect>
            <g id="Group-31" transform="translate(18.000000, 9.000000)">
                <path d="M91.6225067,23.8139922 C89.8166689,23.8139922 87.8801455,24.5294852 87.8801455,26.2705182 C87.8801455,27.820753 89.6503417,28.2738986 91.7531924,28.6197202 C94.6045152,29.0728658 97.4083159,29.6452602 97.4083159,32.8649787 C97.3845549,36.0727724 94.3312634,37.1102372 91.6106262,37.1102372 C89.0919577,37.1102372 86.6802138,36.1920212 85.5872067,33.7951196 L87.0485097,32.936528 C87.9633091,34.6298615 89.8760715,35.4526784 91.6343872,35.4526784 C93.3689419,35.4526784 95.6618807,34.9041338 95.6618807,32.7934294 C95.6856417,31.0166218 93.6897158,30.5038518 91.5512236,30.1818799 C88.8068254,29.7525841 86.1337103,29.1205653 86.1337103,26.2228187 C86.0980687,23.2415978 89.1275992,22.2160578 91.5868652,22.2160578 C93.7015963,22.2160578 95.7212832,22.6453536 96.9806175,24.8156824 L95.6381197,25.6504243 C94.8658864,24.4102364 93.2144953,23.837842 91.6225067,23.8139922 Z" id="Shape" fill="#273B5A" fill-rule="nonzero"></path>
                <path d="M33.3367161,23.8139922 C31.5308783,23.8139922 29.5943549,24.5294852 29.5943549,26.2705182 C29.5943549,27.820753 31.3645511,28.2738986 33.4674017,28.6197202 C36.3187245,29.0728658 39.1225253,29.6452602 39.1225253,32.8649787 C39.0987642,36.0727724 36.0454727,37.1102372 33.3248355,37.1102372 C30.806167,37.1102372 28.3944232,36.1920212 27.3014161,33.7951196 L28.762719,32.936528 C29.6775184,34.6298615 31.5902808,35.4526784 33.3485966,35.4526784 C35.0831513,35.4526784 37.37609,34.9041338 37.37609,32.7934294 C37.3998511,31.0166218 35.4039251,30.5038518 33.265433,30.1818799 C30.5210348,29.7525841 27.8479196,29.1205653 27.8479196,26.2228187 C27.8122781,23.2415978 30.8418086,22.2160578 33.3010745,22.2160578 C35.4158056,22.2160578 37.4354926,22.6453536 38.6948269,24.8156824 L37.352329,25.6504243 C36.5800958,24.4102364 34.9287046,23.837842 33.3367161,23.8139922 Z" id="Shape" fill="#273B5A" fill-rule="nonzero"></path>
                <path d="M42.0332507,22.5499546 L42.0332507,28.4169972 C42.8886475,27.0933352 44.2311453,26.6401896 45.5142406,26.6163398 C48.3418024,26.6163398 49.7318223,28.5004714 49.7318223,31.2789692 L49.7318223,36.8359649 L48.0804311,36.8359649 L48.0804311,31.302819 C48.0804311,29.3232884 47.0587072,28.2023493 45.2291083,28.2023493 C43.3995095,28.2023493 42.0570117,29.6333353 42.0570117,31.4816922 L42.0570117,36.8359649 L40.39374,36.8359649 L40.39374,22.5261048 L42.0451312,22.5261048 L42.0451312,22.5499546 L42.0332507,22.5499546 Z" id="Shape" fill="#273B5A" fill-rule="nonzero"></path>
                <path d="M59.9253014,36.8717396 L59.8896598,35.0353075 C59.0936655,36.4305189 57.57296,37.0744626 56.1829402,37.0744626 C53.2959758,37.0744626 51.0386786,35.0710821 51.0386786,31.7798143 C51.0386786,28.5123963 53.3434979,26.5447905 56.2067012,26.5686403 C57.7155262,26.5686403 59.2005902,27.2602835 59.9371819,28.5720207 L59.9609429,26.7355886 L61.588573,26.7355886 L61.588573,36.82404 L59.9847039,36.82404 L59.9253014,36.8717396 Z M56.2542232,28.1665747 C54.2582973,28.1665747 52.6544282,29.5975607 52.6544282,31.8394388 C52.6544282,34.0813168 54.2582973,35.5361526 56.2542232,35.5361526 C61.101472,35.5361526 61.101472,28.1427249 56.2779843,28.1427249 L56.2542232,28.1665747 Z" id="Shape" fill="#273B5A" fill-rule="nonzero"></path>
                <path d="M62.9073098,26.7832882 L64.4992984,26.7832882 L64.582462,28.7270442 C65.3784562,27.3795324 66.8635202,26.6044149 68.4555088,26.6044149 C71.342473,26.6640394 73.4572043,28.7031944 73.4572043,31.815589 C73.4572043,34.9995329 71.3662342,37.0625377 68.3485842,37.0625377 C66.9229228,37.0625377 65.3309342,36.4543686 64.5468204,35.0233826 L64.5468204,41.6059183 L62.9191903,41.6059183 L62.9191903,26.7832882 L62.9073098,26.7832882 Z M71.782052,31.8394388 C71.782052,29.5737109 70.296988,28.2261991 68.2416596,28.2261991 C66.1506895,28.2261991 64.7250281,29.7764339 64.7250281,31.8394388 C64.7250281,33.9024436 66.2100921,35.4526784 68.2416596,35.4765282 C70.249466,35.4765282 71.782052,34.1170915 71.782052,31.8394388 Z" id="Shape" fill="#273B5A" fill-rule="nonzero"></path>
                <path d="M84.2209478,35.2141808 C83.1992239,36.418594 81.4527889,37.0148381 79.8845613,37.0148381 C76.7718669,37.0148381 74.5977333,34.9518333 74.5977333,31.7440397 C74.5977333,28.7031944 76.7718669,26.5090158 79.8132781,26.5090158 C82.8903305,26.5090158 85.2307912,28.4050723 84.8387347,32.4356829 L76.284766,32.4356829 C76.4629739,34.2959648 77.9955599,35.4646033 79.9320833,35.4646033 C81.0726122,35.4646033 82.4507515,35.0114578 83.1279408,34.2005657 L84.244709,35.2261057 L84.2209478,35.2261057 L84.2209478,35.2141808 Z M83.2348655,31.0523965 C83.151702,29.0967156 81.8092039,28.023476 79.8370389,28.023476 C78.0906038,28.023476 76.5580178,29.0847907 76.2728856,31.0285467 L83.2348655,31.0285467 L83.2348655,31.0523965 Z" id="Shape" fill="#273B5A" fill-rule="nonzero"></path>
                <path d="M100.319041,22.5499546 L100.319041,28.4169972 C101.174438,27.0933352 102.516936,26.6401896 103.800031,26.6163398 C106.627593,26.6163398 108.017613,28.5004714 108.017613,31.2789692 L108.017613,36.8359649 L106.366222,36.8359649 L106.366222,31.302819 C106.366222,29.3232884 105.344498,28.2023493 103.514899,28.2023493 C101.6853,28.2023493 100.342802,29.6571851 100.342802,31.4936171 L100.342802,36.8478898 L98.6795307,36.8478898 L98.6795307,22.5261048 L100.330922,22.5261048 L100.330922,22.5499546 L100.319041,22.5499546 Z" id="Shape" fill="#273B5A" fill-rule="nonzero"></path>
                <path d="M109.371991,36.82404 L111.035263,36.82404 L111.035263,26.8786873 L109.371991,26.8786873 L109.371991,36.82404 Z M110.227388,25.3642271 L108.908651,23.9093913 L110.227388,22.4545555 L111.546125,23.9093913 L110.227388,25.3642271 Z" id="Shape" fill="#273B5A" fill-rule="nonzero"></path>
                <path d="M115.799348,26.0677952 C115.799348,24.553335 116.488418,23.8855415 117.569544,23.8855415 C117.593305,23.8855415 117.617066,23.8855415 117.628947,23.8855415 L118.009123,22.4426306 C117.854677,22.4187809 117.688349,22.406856 117.533903,22.406856 C115.419172,22.406856 114.159837,23.7543678 114.159837,26.0677952 L114.159837,26.8667624 L112.187673,26.8667624 L112.187673,28.333523 L114.159837,28.333523 L114.159837,36.8359649 L115.811229,36.8359649 L115.811229,28.333523 L117.807155,28.333523 L117.807155,26.8667624 L115.811229,26.8667624 L115.811229,26.0677952 L115.799348,26.0677952 Z" id="Shape" fill="#273B5A" fill-rule="nonzero"></path>
                <path d="M124.282034,35.4288287 C124.151348,35.4526784 124.020662,35.4646033 123.889977,35.4646033 C122.690045,35.4646033 122.297988,34.7133357 122.297988,33.5208473 L122.297988,28.3215981 L124.43648,28.3215981 L124.43648,26.8667624 L122.309869,26.8667624 L122.309869,23.7901424 L120.646597,23.9690157 L120.646597,26.8548375 L118.62691,26.8548375 L118.62691,28.3096733 L120.646597,28.3096733 L120.646597,33.5089224 C120.646597,35.7388756 121.668321,37.0029132 123.818694,36.9671386 C124.080065,36.9552137 124.341436,36.931364 124.590927,36.8717396 L124.282034,35.4288287 Z" id="Shape" fill="#273B5A" fill-rule="nonzero"></path>
                <polygon id="Shape" fill="url(#linearGradient-1)" fill-rule="nonzero" points="11.60726 12.0799069 0 22.299532 16.1693765 31.6367157 16.228779 12.3899539"></polygon>
                <polygon id="Shape" fill="#466284" fill-rule="nonzero" points="9.95586885 18.4000951 16.181257 35.1068568 16.228779 19.330236"></polygon>
                <polygon id="Shape" fill="#354D6A" fill-rule="nonzero" points="22.4185257 18.4597195 16.181257 35.1068568 16.228779 19.330236"></polygon>
                <polygon id="Shape" fill="url(#linearGradient-2)" fill-rule="nonzero" points="27.3845796 0.0357746503 21.194833 3.30319271 16.2406596 4.38835709 11.2389641 3.30319271 5.07297851 0.0238497669 7.19959011 9.88572837 5.17990314 15.4188743 12.2606881 19.8310811 16.1931375 24.1240391 16.1931375 24.1598138 16.2168986 24.135964 16.2406596 24.1598138 16.2406596 24.1240391 20.173109 19.8310811 27.277655 15.4188743 25.257968 9.89765325"></polygon>
                <polygon id="Shape" fill="url(#linearGradient-3)" fill-rule="nonzero" points="27.3845796 0.0357746503 25.6619054 9.90957814 27.277655 15.4188743 25.257968 9.89765325"></polygon>
                <polygon id="Shape" fill="url(#linearGradient-4)" fill-rule="nonzero" points="5.07297851 0.0238497669 6.80753323 9.90957814 5.17990314 15.4188743 7.19959011 9.88572837"></polygon>
                <polygon id="Shape" fill="url(#linearGradient-5)" fill-rule="nonzero" points="5.07297851 0.0238497669 12.2725687 3.05277015 20.1849895 3.05277015 27.3845796 0.0357746503 21.194833 3.30319271 16.2406596 4.38835709 11.2389641 3.30319271"></polygon>
                <polygon id="Shape" fill="url(#linearGradient-6)" fill-rule="nonzero" points="7.19959011 9.88572837 6.84317477 10.8754937 14.3160167 3.95906129"></polygon>
                <polygon id="Shape" fill="url(#linearGradient-7)" fill-rule="nonzero" points="25.257968 9.89765325 18.177183 3.95906129 25.6025028 10.8277942"></polygon>
                <polygon id="Shape" fill="url(#linearGradient-8)" fill-rule="nonzero" points="0 22.299532 17.3811887 31.9229129 19.5790834 37.4441339 14.9219228 39.2209416 7.67481061 38.4696739 0 27.8565277"></polygon>
                <polygon id="Shape" fill="url(#linearGradient-9)" fill-rule="nonzero" points="25.257968 9.89765325 27.3845796 0.0357746503 21.194833 3.30319271 18.177183 3.95906129"></polygon>
                <polygon id="Shape" fill="url(#linearGradient-10)" fill-rule="nonzero" points="16.0386909 4.34065755 16.2432754 4.38835709 16.4237912 4.35258244 16.231241 16.9333345"></polygon>
                <polygon id="Shape" fill-opacity="0.6" fill="#192E4E" fill-rule="nonzero" points="25.6619054 9.90957814 27.3845796 0.0357746503 20.1849895 3.05277015 12.2725687 3.05277015 5.07297851 0.0238497669 6.80753323 9.90957814 5.17990314 15.4188743 6.71248912 16.3847898 0 22.299532 0 27.8565277 7.67481061 38.4696739 14.9100423 40.9023501 14.9219228 40.914275 20.5770464 38.0046035 20.5889269 37.9926786 20.5889269 33.6877956 17.3811887 31.9229129 17.3811887 31.9229129 17.3811887 31.9229129 22.4185257 18.4597195 22.3828841 18.4597195 27.277655 15.4188743"></polygon>
                <polygon id="Shape" fill="#DDE0E5" fill-rule="nonzero" points="14.3872997 30.2653541 7.6985716 38.4458241 7.67481061 38.4696739 14.9100423 40.9023501 14.9219228 40.914275 20.5770464 38.0046035 20.5889269 37.9926786 20.5889269 33.6877956"></polygon>
                <polygon id="Shape" fill="#DDE0E5" fill-rule="nonzero" points="16.228779 24.1598138 14.2684946 22.0014099 16.228779 19.8310811 18.200944 22.0014099"></polygon>
                <g id="Group" opacity="0.15"></g>
            </g>
        </g>
    </g>
</svg>