<?xml version="1.0" encoding="UTF-8"?>
<svg width="109px" height="40px" viewBox="0 0 109 40" version="1.1" xmlns="http://www.w3.org/2000/svg" xmlns:xlink="http://www.w3.org/1999/xlink">
    <!-- Generator: Sketch 49.3 (51167) - http://www.bohemiancoding.com/sketch -->
    <title>storj</title>
    <desc>Created with Sketch.</desc>
    <defs></defs>
    <g id="Page-1" stroke="none" stroke-width="1" fill="none" fill-rule="evenodd">
        <g id="storj" transform="translate(-26.000000, -10.000000)">
            <rect id="Rectangle-8-Copy" fill-opacity="0" fill="#FFFFFF" opacity="0" x="0" y="0" width="160" height="60"></rect>
            <g id="Group-28" transform="translate(26.000000, 10.000000)" fill="#273B5A" fill-rule="nonzero">
                <path d="M35.4484064,11.60621 C35.4161173,12.8593715 34.873237,13.7932494 33.8255881,14.4226942 C33.6325945,14.5386334 33.5652638,14.6564819 33.5657931,14.8773285 C33.5724627,18.2958903 33.5721451,21.7146642 33.5668518,25.1324835 C33.5665342,25.3378433 33.6186202,25.461738 33.8066381,25.5707824 C35.0190144,26.2721455 35.6321896,27.5668882 35.4145293,28.927609 C35.2056559,30.2317922 34.1652059,31.3032485 32.8178506,31.55963 C32.0364544,31.7086644 31.279619,31.5897551 30.5947726,31.1687463 C30.3861109,31.0407146 30.2390632,31.0630963 30.0435288,31.1763836 C27.1103189,32.8789981 24.1740174,34.5762601 21.2346391,36.268161 C21.0335997,36.383782 20.9581174,36.5113894 20.9585408,36.7461318 C20.9617168,38.3912377 19.6947137,39.8228161 18.1119127,39.9821397 C16.4263158,40.1522828 14.9359357,39.0915401 14.5718629,37.4518439 C14.5159657,37.1999175 14.4971215,36.9369594 14.4912989,36.6784564 C14.4871702,36.5039642 14.4386836,36.3967231 14.2836959,36.30656 C11.3034209,34.5887595 8.32519928,32.8673849 5.34903751,31.1424399 C5.18780372,31.0485641 5.06108225,31.0480338 4.89868398,31.1463646 C2.9539274,32.31944 0.474759774,31.1948406 0.0624120972,29.0035582 C-0.198018014,27.6193949 0.364553373,26.3245462 1.60085534,25.5957099 C1.79638966,25.480301 1.88468182,25.3637254 1.88425835,25.1244218 C1.87547148,21.705754 1.87674188,18.2872983 1.88203517,14.8689486 C1.8822469,14.6633767 1.82899636,14.5421338 1.64140198,14.4329834 C0.399700851,13.7104054 -0.184043716,12.4551224 0.0543662888,11.0455014 C0.290976573,9.64532088 1.3718674,8.61820368 2.77819,8.41772328 C3.53206107,8.31027004 4.25883047,8.4478484 4.91117615,8.8651446 C5.06267024,8.96220256 5.17520571,8.95923248 5.3294523,8.87013008 C8.29709331,7.1495836 11.2672348,5.43337068 14.2398674,3.72149684 C14.4195218,3.61796834 14.4896051,3.49895301 14.4901344,3.28680446 C14.495216,1.40387997 15.9797735,-0.0371390774 17.861434,0.000729439313 C19.3279943,0.0301120139 20.7000163,1.24296529 20.9080428,2.69300065 C20.9270987,2.82633602 20.956847,2.90833144 20.956847,3.09205208 C20.956847,3.49396752 21.1046358,3.66442888 21.417046,3.84327011 C24.3012566,5.49675592 27.1772096,7.16339496 30.0517864,8.832898 C30.2491204,8.94767036 30.3927804,8.95265588 30.5982661,8.83554988 C32.5504333,7.71964848 34.9178065,8.78908932 35.3929327,10.9968132 C35.4370788,11.2024913 35.4328441,11.4185646 35.4484064,11.60621 Z M9.99602112,23.3341002 C9.9665904,23.3591338 9.94668762,23.380985 9.92202089,23.3946686 C8.30417819,24.3311984 6.68728832,25.2701679 5.06351715,26.1959842 C4.97374289,26.2467938 4.79917002,26.2361864 4.7082312,26.1809216 C4.27894498,25.9211458 3.8222395,25.748775 3.32202312,25.7354097 C1.65802293,25.6928739 0.64594493,27.0547615 0.589306676,28.2380201 C0.523458088,29.6235623 1.5699425,31.0430483 3.26231476,31.0302133 C4.74655467,31.0192876 5.87593206,29.8269067 5.86121672,28.339321 C5.85878178,28.0733928 5.93669909,27.9229795 6.16960406,27.7905988 C7.89384199,26.806866 9.61130445,25.8110406 11.3271789,24.8129878 C11.4929649,24.7160359 11.626356,24.7003369 11.8068573,24.7853024 C12.8767381,25.2891552 13.9834602,25.3746511 15.1240594,25.0515488 C15.2373359,25.0196205 15.3878772,25.0519731 15.5013655,25.1004491 C15.8367486,25.2435433 16.156993,25.4251424 16.4947052,25.5614479 C16.6871694,25.6395185 16.7521711,25.7448503 16.7517476,25.9496797 C16.745925,28.6442846 16.7461367,31.3385712 16.7512183,34.0329639 C16.75143,34.2229429 16.6916158,34.3311387 16.5185251,34.4143009 C15.6122071,34.8518573 14.9285251,35.9811241 15.1150608,37.189204 C15.3316624,38.5922484 16.7705917,39.6521426 18.1587054,39.379956 C19.3819859,39.1402282 20.1856139,38.3038325 20.357646,37.0166212 C20.4743102,36.1437359 20.0549754,34.9907086 18.9343849,34.4137706 C18.7825732,34.3362302 18.6987274,34.2510526 18.6992567,34.0636194 C18.7048676,31.4463427 18.7051852,28.8292781 18.6992567,26.2124257 C18.6990449,25.9798048 18.8057578,25.9320714 19.0089144,25.8961122 C19.5457604,25.8016 20.0836651,25.6977533 20.6081247,25.5500979 C20.8452643,25.4836954 21.0330704,25.4739366 21.2630112,25.573116 C22.4128207,26.0690133 23.532776,25.9840478 24.6038213,25.3365704 C24.7566917,25.2444979 24.8662629,25.240361 25.0200861,25.3300999 C26.434772,26.1555699 27.8523165,26.9775395 29.2757893,27.7875226 C29.5059418,27.9178879 29.5951867,28.0626793 29.5880937,28.3333809 C29.5470177,29.8991433 30.9096178,31.178399 32.4989825,31.0089984 C34.0588106,30.8429922 35.1640506,29.3381164 34.802201,27.8167992 C34.3683625,25.9935945 32.3975629,25.1713067 30.8055516,26.1565246 C30.6377541,26.2603713 30.5165376,26.2883749 30.3376243,26.1836796 C28.9908194,25.3943074 27.6395963,24.6125276 26.284019,23.8383773 C26.083509,23.7245596 26.0568308,23.6183793 26.1206679,23.4030485 C26.529522,22.0223857 26.2517299,20.7944699 25.2651656,19.7369094 C25.0723838,19.5301706 24.1677597,18.0824688 24.0414617,17.815586 C23.9418419,17.6044982 23.9838706,17.4917412 24.1848041,17.3763324 C26.2407381,16.1966372 28.2934151,15.0112526 30.3428117,13.8201923 C30.5079625,13.7246194 30.6199686,13.7228161 30.7817317,13.8317544 C31.3593361,14.2204105 32.0068119,14.3431384 32.6861534,14.224017 C34.0086302,13.9919265 34.9672459,12.7928629 34.8493113,11.3775138 C34.7212136,9.8419826 33.2180237,8.69425892 31.7166335,9.02712 C30.3993441,9.31935464 29.5715786,10.3511391 29.5867175,11.7074048 C29.5889406,11.9386468 29.5247859,12.0704971 29.3193002,12.1881334 C27.2377737,13.3816081 25.1607055,14.5828724 23.0881392,15.7919009 C22.9010742,15.900627 22.7991253,15.8782454 22.6486899,15.7330297 C21.6718653,14.7902415 20.4969655,14.2607187 19.156068,14.0929092 C18.7037031,14.0358413 18.7034913,14.038387 18.7034913,13.5703874 C18.7032796,11.1174197 18.7094198,8.66445204 18.6961866,6.21169656 C18.6944927,5.8692888 18.7743156,5.67092988 19.0944541,5.48667888 C20.2422521,4.8259422 20.6787373,3.40316794 20.1534307,2.19031466 C19.6237836,0.966747876 18.2708174,0.31301211 17.001697,0.700289292 C15.8468059,1.05256197 15.2031412,1.87028856 15.089653,3.05991158 C15.0025254,3.97798444 15.4359403,4.9978886 16.4816837,5.57037148 C16.6422823,5.658201 16.7543943,5.73552912 16.7535473,5.95637576 C16.7447604,8.66073944 16.7453957,11.3644667 16.7521711,14.0688304 C16.7525945,14.2832065 16.655092,14.3557613 16.480625,14.4442272 C15.9583886,14.708034 15.3982521,14.9386394 14.9550975,15.3059747 C14.4437652,15.7288928 13.9657806,15.9732879 13.2538324,15.9732879 C13.1843844,15.9710604 13.1398149,15.9779552 13.0675085,15.976258 C12.89103,15.9724394 12.692849,15.9651202 12.5486597,15.8824884 C10.4485979,14.6825761 8.35996954,13.462722 6.25726103,12.2667345 C5.95691949,12.096167 5.81188322,11.9134011 5.86206363,11.5664321 C5.88196641,11.4282173 5.83951422,11.2803498 5.81707062,11.137892 C5.61179666,9.84230084 4.34712262,8.75843388 2.82053636,9.00993596 C1.32306322,9.2567708 0.372387449,10.6146276 0.619266724,12.0679513 C0.934429505,13.924145 3.04835978,14.863751 4.64344129,13.8485141 C4.8234133,13.7338478 4.9479116,13.7248315 5.13222413,13.832709 C6.71301374,14.7564038 8.30015531,15.669173 9.88517951,16.5856547 C10.1567256,16.7427507 10.4275305,16.9013318 10.6974886,17.0583217 C8.87574817,18.9905707 8.67132112,21.0669747 9.99602112,23.3341002 Z" id="Shape"></path>
                <path d="M14.4145682,17.1105236 C14.8268312,17.1473764 15.0321248,17.0077569 15.3332569,16.7266227 C16.6337288,15.5115332 18.1680887,15.1353188 19.8525434,15.6977978 C21.5087178,16.2506951 22.5356046,17.4337753 22.8759102,19.1694368 C22.9423163,19.5094302 23.0752334,19.7137 23.377413,19.8866976 C24.2406934,20.3810516 24.7382161,21.4507305 24.5672778,22.3416206 C24.345854,23.4955344 23.593495,24.2953454 22.5294249,24.464763 C21.9627728,24.5553156 21.4001008,24.4905599 20.9013212,24.1817335 C20.6779073,24.0433776 20.5009988,24.0585398 20.2703577,24.155726 C18.7886828,24.7818024 17.3540369,24.6756663 15.9907201,23.8134161 C15.7813416,23.6808513 15.6061088,23.6705325 15.379448,23.7451858 C13.457963,24.3760004 11.459493,23.2801034 10.9715018,21.3536496 C10.4124958,19.1452193 12.165242,17.0096522 14.4145682,17.1105236 Z M31.3411276,28.3291476 C31.340918,27.8971274 31.6500106,27.5830363 32.073062,27.5842998 C32.4804021,27.5859845 32.8270969,27.9240827 32.8312865,28.3241988 C32.8356857,28.7090473 32.4651098,29.0812606 32.078718,29.0818923 C31.6656171,29.0819976 31.3414418,28.7512701 31.3411276,28.3291476 Z M16.9841943,3.36474514 C16.9858701,2.94620263 17.3101502,2.6233721 17.7297451,2.62295092 C18.149759,2.62274034 18.4719442,2.94472851 18.4735153,3.36495572 C18.4747722,3.76770418 18.1249352,4.1237022 17.7311067,4.11896402 C17.3306795,4.11496284 16.9828326,3.76317655 16.9841943,3.36474514 Z M4.11584883,28.3324117 C4.11427773,28.7535865 3.78696016,29.0852617 3.3760588,29.0819976 C2.98767689,29.0785229 2.62851789,28.7141014 2.62684203,28.3208294 C2.62464245,27.9281891 2.98003076,27.5841945 3.38778986,27.5841945 C3.81031754,27.5844051 4.11752472,27.9000757 4.11584883,28.3324117 Z M17.7378102,35.9104002 C18.1568814,35.9132432 18.4754007,36.2338625 18.4732011,36.6509309 C18.470792,37.0665252 18.1473499,37.3793528 17.7227274,37.3770364 C17.3014566,37.3746146 16.9793761,37.0514682 16.9840895,36.6360845 C16.9890124,36.2228067 17.3170631,35.9075573 17.7378102,35.9104002 Z M3.3961692,12.4171616 C2.97144194,12.4210574 2.63930628,12.1100198 2.62684203,11.6972684 C2.61437777,11.295257 2.95028414,10.9577907 3.36914586,10.9515784 C3.80612788,10.9450502 4.10998332,11.2379773 4.11616305,11.6712609 C4.12255228,12.1064398 3.82613353,12.4134763 3.3961692,12.4171616 Z M32.06374,12.4184251 C31.6344041,12.4152663 31.3368331,12.1079139 31.340918,11.6725244 C31.345422,11.240399 31.6500106,10.946419 32.0872021,10.9521048 C32.5061686,10.957896 32.8399801,11.2924141 32.8300296,11.6965314 C32.8198697,12.1062292 32.4856392,12.421268 32.06374,12.4184251 Z" id="Shape"></path>
                <path d="M50.8768648,17.1977426 C50.6700098,17.3656848 50.5667071,17.5878018 50.5667071,17.8643399 C50.5667071,18.1411243 50.6930908,18.360902 50.9458581,18.5240423 C51.1985007,18.6871825 51.7820114,18.8802421 52.6965151,19.1021129 C53.610894,19.3245993 54.3209132,19.6578979 54.8263231,20.1020088 C55.3316082,20.546366 55.5845003,21.1949871 55.5845003,22.0473796 C55.5845003,22.9000184 55.260494,23.5914869 54.6126062,24.1221545 C53.9647184,24.6529453 53.1122213,24.9180328 52.0554892,24.9180328 C50.5297776,24.9180328 49.1559011,24.3604009 47.9337349,23.2447677 L49.215662,21.6937654 C50.2539294,22.591591 51.2144702,23.0405038 52.0967853,23.0405038 C52.491781,23.0405038 52.801814,22.9565327 53.0272585,22.7887137 C53.2523287,22.6211409 53.3649886,22.394222 53.3649886,22.1086958 C53.3649886,21.8230464 53.2454668,21.5964969 53.0065481,21.4286779 C52.7675046,21.2611051 52.2942832,21.0909467 51.5867593,20.918449 C50.4654006,20.6553314 49.6452168,20.3130446 49.1260831,19.8910962 C48.6066999,19.469394 48.3471954,18.8074754 48.3471954,17.9049711 C48.3471954,17.0025899 48.6758179,16.3066889 49.3328133,15.8167756 C49.9898087,15.3268623 50.8099925,15.0819672 51.7933647,15.0819672 C52.4365116,15.0819672 53.079908,15.1909326 53.7234291,15.4083709 C54.3664512,15.6263017 54.9271306,15.9343597 55.4050929,16.3335301 L54.3160475,17.8845324 C53.4796447,17.2586894 52.6157942,16.9458294 51.7244962,16.9458294 C51.3661805,16.9460757 51.0835951,17.0300467 50.8768648,17.1977426 Z M60.9189388,17.1366728 L60.9189388,24.8091905 L58.7685452,24.8091905 L58.7685452,17.1366728 L56.0391321,17.1366728 L56.0391321,15.3001442 L63.6483518,15.3001442 L63.6483518,17.1366728 L60.9189388,17.1366728 Z M72.567071,23.4964346 C71.5926816,24.4351376 70.3934716,24.9046122 68.9690666,24.9046122 C67.5445368,24.9046122 66.3453268,24.4352607 65.371187,23.4964346 C64.3969224,22.5577316 63.9099772,21.390263 63.9099772,19.9934128 C63.9099772,18.596809 64.3969224,17.429094 65.371187,16.4905142 C66.3453268,15.5518112 67.5444121,15.0823366 68.9690666,15.0823366 C70.3934716,15.0823366 71.5926816,15.5516881 72.567071,16.4905142 C73.541086,17.4292171 74.0282807,18.596809 74.0282807,19.9934128 C74.0282807,21.390263 73.541086,22.5577316 72.567071,23.4964346 Z M71.8364661,20.0003078 C71.8364661,19.1523478 71.5607426,18.42899 71.0094204,17.8304806 C70.4579734,17.2320944 69.780018,16.9326551 68.976178,16.9326551 C68.1719637,16.9326551 67.4943826,17.2320944 66.9429356,17.8304806 C66.3916134,18.42899 66.1158899,19.1523478 66.1158899,20.0003078 C66.1158899,20.8486373 66.3916134,21.5695326 66.9429356,22.16324 C67.4943826,22.7573169 68.1719637,23.0542937 68.976178,23.0542937 C69.7801428,23.0542937 70.4579734,22.7573169 71.0094204,22.16324 C71.5607426,21.5695326 71.8364661,20.8482678 71.8364661,20.0003078 Z M83.1674538,18.4562005 C83.1674538,19.9798691 82.556246,20.9640051 81.3340798,21.4084854 L83.7741703,24.8094368 L81.1274743,24.8094368 L78.9906797,21.7755202 L77.5018976,21.7755202 L77.5018976,24.8094368 L75.3515039,24.8094368 L75.3515039,15.3003905 L79.0045282,15.3003905 C80.5022932,15.3003905 81.5706281,15.5498412 82.2094083,16.0484964 C82.8480637,16.5472747 83.1674538,17.3496786 83.1674538,18.4562005 Z M80.5760273,19.5852544 C80.8425185,19.3494705 80.9756393,18.9754175 80.9756393,18.4630955 C80.9756393,17.9507735 80.8379023,17.5990061 80.5623035,17.4087784 C80.2867048,17.2181813 79.8042511,17.123129 79.1145681,17.123129 L77.5017728,17.123129 L77.5017728,19.9391148 L79.0732719,19.9391148 C79.8083683,19.9388686 80.3091619,19.8211613 80.5760273,19.5852544 Z M85.1249659,17.1228828 L85.1249659,15.2997749 L90.1426342,15.2997749 L90.1426342,21.5034146 C90.1426342,22.6371471 89.8462002,23.4852303 89.2534572,24.0472947 C88.6607142,24.6096054 87.9000416,24.8909454 86.9721885,24.8909454 C85.8142746,24.8909454 84.8030805,24.4511438 83.9392301,23.5711713 L85.0558478,22.0475028 C85.6349919,22.6646039 86.2413341,22.9727851 86.8753733,22.9727851 C87.1789187,22.9727851 87.4384232,22.8572941 87.654261,22.6259428 C87.8699741,22.3945914 87.9782671,22.0478721 87.9782671,21.5852925 L87.9782671,17.1232522 L85.1249659,17.1228828 Z M91.872581,24.5713136 C91.6380287,24.3400853 91.5211268,24.0565291 91.5211268,23.7211373 C91.5211268,23.3857455 91.6381533,23.1023124 91.872581,22.870961 C92.1070083,22.6397328 92.394085,22.5242417 92.7340609,22.5242417 C93.0740364,22.5242417 93.3611136,22.6397328 93.5952912,22.870961 C93.8298435,23.1023124 93.94687,23.3859918 93.94687,23.7211373 C93.94687,24.0568984 93.8298435,24.3400853 93.5952912,24.5713136 C93.3611136,24.8025418 93.0736621,24.9180328 92.7340609,24.9180328 C92.3938353,24.9180328 92.1070083,24.8022956 91.872581,24.5713136 Z M95.4083291,15.3001442 L97.558598,15.3001442 L97.558598,24.8091905 L95.4083291,24.8091905 L95.4083291,15.3001442 Z M107.53879,23.4964346 C106.564401,24.4351376 105.365315,24.9046122 103.940911,24.9046122 C102.516256,24.9046122 101.317171,24.4352607 100.343031,23.4964346 C99.3687663,22.5577316 98.8816966,21.390263 98.8816966,19.9934128 C98.8816966,18.596809 99.3686416,17.429094 100.343031,16.4905142 C101.317171,15.5518112 102.516256,15.0823366 103.940911,15.0823366 C105.365315,15.0823366 106.564401,15.5516881 107.53879,16.4905142 C108.51293,17.4292171 109,18.596809 109,19.9934128 C109,21.390263 108.512805,22.5577316 107.53879,23.4964346 Z M106.80831,20.0003078 C106.80831,19.1523478 106.532587,18.42899 105.98114,17.8304806 C105.429818,17.2320944 104.751737,16.9326551 103.947773,16.9326551 C103.143683,16.9326551 102.465852,17.2320944 101.91453,17.8304806 C101.363083,18.42899 101.08736,19.1523478 101.08736,20.0003078 C101.08736,20.8486373 101.363083,21.5695326 101.91453,22.16324 C102.465852,22.7573169 103.143683,23.0542937 103.947773,23.0542937 C104.751737,23.0542937 105.429818,22.7573169 105.98114,22.16324 C106.532587,21.5695326 106.80831,20.8482678 106.80831,20.0003078 Z" id="Shape"></path>
            </g>
        </g>
    </g>
</svg>