<?xml version="1.0" encoding="UTF-8"?>
<svg width="25px" height="25px" viewBox="0 0 25 25" version="1.1" xmlns="http://www.w3.org/2000/svg" xmlns:xlink="http://www.w3.org/1999/xlink">
    <!-- Generator: Sketch 49.3 (51167) - http://www.bohemiancoding.com/sketch -->
    <title>Shape</title>
    <desc>Created with Sketch.</desc>
    <defs></defs>
    <g id="Page-1" stroke="none" stroke-width="1" fill="none" fill-rule="evenodd">
        <g id="zepp_02-copy-4" transform="translate(-276.000000, -1386.000000)" fill="#4F7FB5" fill-rule="nonzero">
            <g id="Group-11" transform="translate(240.000000, 1148.000000)">
                <g id="Group-3" transform="translate(36.000000, 238.000000)">
                    <path d="M12.5,0 C5.59692383,0 0,5.73841338 0,12.8159985 C0,18.4793181 3.58125,23.2821886 8.54873047,24.9764786 C9.17358398,25.0938251 9.40170898,24.698006 9.40170898,24.3600842 C9.40170898,24.0550033 9.39025879,23.0443918 9.38415527,21.974306 C5.90820312,22.7486977 5.17348633,20.4630444 5.17348633,20.4630444 C4.6043457,18.983072 3.78569336,18.5888298 3.78569336,18.5888298 C2.64968262,17.7940877 3.871875,17.8097322 3.871875,17.8097322 C5.1269043,17.8988936 5.78764648,19.1301305 5.78764648,19.1301305 C6.90307617,21.0888256 8.71428223,20.5224936 9.4253418,20.1939585 C9.53896484,19.3679274 9.86245117,18.8015954 10.2187988,18.482447 C7.44399414,18.1586178 4.525,17.0587948 4.525,12.1479646 C4.525,10.7477667 5.01252441,9.60574104 5.81054688,8.70852102 C5.68312988,8.38311481 5.25283203,7.07913703 5.93413086,5.31523512 C5.93413086,5.31523512 6.98242188,4.97105547 9.37192383,6.62937558 C10.3683105,6.34386918 11.437207,6.20306842 12.4999756,6.19836254 C13.5619873,6.20306842 14.6316162,6.34542112 15.6295654,6.63092752 C18.0145264,4.97105547 19.0643311,5.31678705 19.0643311,5.31678705 C19.7479248,7.08226594 19.317627,8.38466675 19.1894531,8.70852102 C19.9905273,9.60574104 20.4742432,10.7477917 20.4742432,12.1479646 C20.4742432,17.0713105 17.5506592,18.1554638 14.7659424,18.4730603 C15.2160889,18.8704313 15.6143311,19.6495289 15.6143311,20.8447709 C15.6143311,22.5578594 15.5975342,23.9392589 15.5975342,24.3616612 C15.5975342,24.7027119 15.8248779,25.1016349 16.4581299,24.9764786 C21.4218262,23.2790597 25,18.4761892 25,12.8159985 C25,5.73841338 19.4030762,0 12.5,0 Z" id="Shape"></path>
                </g>
            </g>
        </g>
    </g>
</svg>