<?xml version="1.0" encoding="UTF-8"?>
<svg width="251px" height="31px" viewBox="0 0 251 31" version="1.1" xmlns="http://www.w3.org/2000/svg" xmlns:xlink="http://www.w3.org/1999/xlink">
    <!-- Generator: Sketch 51.3 (57544) - http://www.bohemiancoding.com/sketch -->
    <title>OZ</title>
    <desc>Created with Sketch.</desc>
    <defs></defs>
    <g id="Symbols" stroke="none" stroke-width="1" fill="none" fill-rule="evenodd">
        <g id="CARD" transform="translate(-595.000000, -140.000000)" fill-rule="nonzero">
            <g id="OZ" transform="translate(595.000000, 140.000000)">
                <g id="OZ_logo_dark">
                    <g id="_Group_" fill="#5AA5FF">
                        <g id="_Group_2">
                            <path d="M37.9239878,24.54 C42.2204743,16.3778397 40.5637287,6.30794266 33.8865546,0 L31.6520244,3.87096774 L19.723071,24.54 L37.9239878,24.54 Z" id="_Path_"></path>
                            <path d="M2.46371276,5.15225806 C-1.81103405,13.094465 -0.418187196,22.9405724 5.88617265,29.3458065 L19.8281131,5.15225806 L2.46371276,5.15225806 Z" id="_Path_2"></path>
                        </g>
                    </g>
                    <path d="M62.2784568,24.7335484 C60.2412783,24.7335484 58.5071301,24.2122581 57.0760122,23.1696774 C55.6723895,22.1627562 54.5934074,20.7582241 53.9744079,19.1322581 C53.3127715,17.3422419 52.9888447,15.4421936 53.0194805,13.5309677 C52.9888447,11.6197418 53.3127715,9.71969355 53.9744079,7.92967742 C54.5935074,6.30376869 55.6724688,4.89926337 57.0760122,3.89225806 C58.5058569,2.84967742 60.2400051,2.3283871 62.2784568,2.3283871 C65.3163993,2.3283871 67.6241406,3.38580645 69.2016807,5.50064516 C70.7792208,7.61548387 71.5679908,10.2916129 71.5679908,13.5290323 C71.5679908,16.7664516 70.7792208,19.4425806 69.2016807,21.5574194 C67.6241406,23.6722581 65.3163993,24.7309677 62.2784568,24.7335484 Z M62.2784568,22.9470968 C63.9043799,22.9470968 65.2858416,22.4754839 66.4228419,21.5322581 C67.532239,20.6281477 68.3676113,19.4253567 68.8330787,18.0619355 C69.3173114,16.6030817 69.5555578,15.0719769 69.5378151,13.5329032 C69.5555214,11.9938322 69.317276,10.4627336 68.8330787,9.00387097 C68.3672016,7.64120154 67.5318709,6.43914114 66.4228419,5.53548387 C65.2858416,4.59225806 63.9043799,4.12064516 62.2784568,4.12064516 C61.1357784,4.09807004 60.0067691,4.37544214 59.0011459,4.92580645 C58.0743352,5.43907344 57.2905765,6.18141877 56.7226891,7.08387097 C56.144968,8.00835302 55.7132335,9.0185858 55.4430863,10.0780645 C54.8746973,12.3459314 54.8746973,14.7218105 55.4430863,16.9896774 C55.7130258,18.0492284 56.1447739,19.059493 56.7226891,19.983871 C57.2901348,20.8871943 58.0739603,21.6302688 59.0011459,22.143871 C60.0069483,22.6935627 61.1359475,22.9702655 62.2784568,22.9470968 Z" id="Shape" stroke="#5AA5FF" stroke-width="0.625" fill="#5AA5FF"></path>
                    <path d="M76.9461421,30 L76.9461421,9.33290323 L78.6860199,9.33290323 L78.6860199,11.5974194 L78.7452254,11.5974194 C79.7243443,9.79096774 81.2624141,8.88774194 83.3594347,8.88774194 C85.3189458,8.88774194 86.8525592,9.66193548 87.960275,11.2103226 C89.0679908,12.7587097 89.6218487,14.5858065 89.6218487,16.6916129 C89.6499036,18.6847036 89.0644557,20.6371275 87.946906,22.2774194 C86.8302776,23.916129 85.3023937,24.7354839 83.3632544,24.7354839 C82.4414052,24.7665843 81.5294833,24.5345385 80.7314744,24.0658065 C80.0159155,23.6193548 79.3544691,22.9193548 78.7471352,21.9658065 L78.6860199,21.9658065 L78.6860199,30 L76.9461421,30 Z M83.3537051,23.0883871 C84.8039216,23.0883871 85.9065444,22.4329032 86.6615737,21.1219355 C87.4211367,19.7925244 87.8124206,18.2799419 87.7941176,16.743871 C87.8137886,15.2308627 87.4219501,13.7415828 86.6615737,12.4393548 C85.9065444,11.1580645 84.8039216,10.5174194 83.3537051,10.5174194 C81.8258212,10.5174194 80.6448943,11.1477419 79.8109244,12.4083871 C78.9658512,13.7112525 78.5303532,15.2431277 78.5618793,16.8019355 C78.5303532,18.3607432 78.9658512,19.8926185 79.8109244,21.1954839 C80.6448943,22.4625806 81.8264579,23.096129 83.355615,23.096129 L83.3537051,23.0883871 Z" id="Shape" stroke="#5AA5FF" stroke-width="0.625" fill="#5AA5FF"></path>
                    <path d="M100.91864,24.7335484 C99.4493252,24.7335484 98.2047364,24.336129 97.1848739,23.5412903 C96.2074563,22.8041659 95.4618143,21.7957388 95.0381971,20.6380645 C94.6155355,19.4284632 94.4067089,18.1527931 94.421314,16.8696774 C94.421314,14.5858065 94.9700789,12.6845161 96.0676089,11.1658065 C97.1651388,9.64709677 98.7719633,8.88774194 100.888083,8.88774194 C105.297301,8.88774194 107.50191,11.6187097 107.50191,17.0806452 L107.50191,17.2258065 L96.302521,17.2258065 C96.3419913,18.9741935 96.7386045,20.3890323 97.4923606,21.4703226 C98.2461166,22.5516129 99.4556914,23.0929032 101.121085,23.0941935 C102.137359,23.1146804 103.131127,22.7896543 103.94385,22.1709677 C104.718191,21.6100364 105.248543,20.7674238 105.423988,19.8193548 L107.245989,19.8193548 C106.932773,21.4077419 106.236949,22.623871 105.158518,23.4677419 C104.080087,24.3116129 102.666794,24.7335484 100.91864,24.7335484 Z M96.3617143,15.7083871 L105.614973,15.7083871 C105.614973,14.0993548 105.21836,12.8335484 104.425134,11.9109677 C103.631907,10.9883871 102.461166,10.5264516 100.912911,10.5251613 C99.4626942,10.5251613 98.3409728,11.0264516 97.5477464,12.0290323 C96.75452,13.0316129 96.35918,14.2580645 96.3617143,15.7083871 Z" id="Shape" stroke="#5AA5FF" stroke-width="0.625" fill="#5AA5FF"></path>
                    <path d="M113.445378,24.2883871 L113.445378,9.33290323 L115.179526,9.33290323 L115.179526,11.5374194 L115.238732,11.5974194 C116.140183,9.79096774 117.648969,8.88774194 119.765088,8.88774194 C121.430481,8.88774194 122.694169,9.45354839 123.55615,10.5851613 C124.418131,11.7167742 124.849121,13.1664516 124.849121,14.9341935 L124.849121,24.2883871 L123.114973,24.2883871 L123.114973,14.636129 C123.114973,13.4051613 122.776929,12.4122581 122.10084,11.6574194 C121.424752,10.9025806 120.499109,10.5251613 119.323911,10.5251613 C118.011204,10.5251613 116.992615,11.0316129 116.268144,12.0445161 C115.530885,13.1057708 115.151725,14.3800345 115.187166,15.6774194 L115.187166,24.2864516 L113.445378,24.2883871 Z" id="Shape" stroke="#5AA5FF" stroke-width="0.625" fill="#5AA5FF"></path>
                    <polygon id="Shape" stroke="#000000" stroke-width="0.625" fill="#000000" points="130.297937 24.2883871 130.297937 22.5 141.850649 4.56580645 130.297937 4.56580645 130.297937 2.77935484 144.08518 2.77935484 144.08518 4.56580645 132.50382 22.5 144.08518 22.5 144.08518 24.2883871"></polygon>
                    <path d="M154.639037,24.7335484 C153.169722,24.7335484 151.925134,24.336129 150.905271,23.5412903 C149.927854,22.8041659 149.182212,21.7957388 148.758594,20.6380645 C148.335855,19.4284835 148.127026,18.1527993 148.141711,16.8696774 C148.141711,14.5858065 148.690476,12.6845161 149.788006,11.1658065 C150.885536,9.64709677 152.492361,8.88774194 154.60848,8.88774194 C159.017698,8.88774194 161.222307,11.6187097 161.222307,17.0806452 L161.222307,17.2258065 L150.024828,17.2258065 C150.064298,18.9741935 150.460912,20.3890323 151.214668,21.4703226 C151.968424,22.5516129 153.177998,23.0929032 154.843392,23.0941935 C155.859688,23.11483 156.853503,22.7897886 157.666157,22.1709677 C158.437319,21.6078215 158.964148,20.7646769 159.136746,19.8174194 L160.958747,19.8174194 C160.645531,21.4058065 159.949707,22.6219355 158.871276,23.4658065 C157.792844,24.3096774 156.382098,24.7322581 154.639037,24.7335484 Z M150.084034,15.7083871 L159.34301,15.7083871 C159.34301,14.0993548 158.946397,12.8335484 158.15317,11.9109677 C157.359944,10.9883871 156.189203,10.5264516 154.640947,10.5251613 C153.190731,10.5251613 152.069009,11.0264516 151.275783,12.0290323 C150.482557,13.0316129 150.085307,14.2580645 150.084034,15.7083871 Z" id="Shape" stroke="#000000" stroke-width="0.625" fill="#000000"></path>
                    <path d="M166.850649,30 L166.850649,9.33290323 L168.584798,9.33290323 L168.584798,11.5974194 L168.640183,11.5974194 C169.619302,9.79096774 171.158009,8.88774194 173.256303,8.88774194 C175.215814,8.88774194 176.749427,9.66193548 177.857143,11.2103226 C178.964859,12.7587097 179.521263,14.5858065 179.526356,16.6916129 C179.554284,18.6846854 178.968847,20.637071 177.851413,22.2774194 C176.734785,23.916129 175.206901,24.7354839 173.267762,24.7354839 C172.345923,24.7664799 171.43403,24.5344412 170.635982,24.0658065 C169.920423,23.6193548 169.258976,22.9193548 168.651642,21.9658065 L168.592437,21.9658065 L168.592437,30 L166.850649,30 Z M173.258212,23.0883871 C174.708429,23.0883871 175.811052,22.4329032 176.566081,21.1219355 C177.325556,19.7924875 177.716833,18.2799301 177.698625,16.743871 C177.717143,15.2328407 177.325349,13.7457383 176.566081,12.4451613 C175.811052,11.163871 174.708429,10.5232258 173.258212,10.5232258 C171.730328,10.5232258 170.549402,11.1535484 169.715432,12.4141935 C168.870358,13.7170589 168.434861,15.2489342 168.466387,16.8077419 C168.43474,18.3665656 168.870248,19.8984763 169.715432,21.2012903 C170.548128,22.4645161 171.729055,23.096129 173.258212,23.096129 L173.258212,23.0883871 Z" id="Shape" stroke="#000000" stroke-width="0.625" fill="#000000"></path>
                    <path d="M184.940794,30 L184.940794,9.33290323 L186.674943,9.33290323 L186.674943,11.5974194 L186.734148,11.5974194 C187.713267,9.79096774 189.251974,8.88774194 191.350267,8.88774194 C193.309778,8.88774194 194.843392,9.66193548 195.951108,11.2103226 C197.058824,12.7587097 197.612681,14.5858065 197.612681,16.6916129 C197.640609,18.6846854 197.055173,20.637071 195.937739,22.2774194 C194.82111,23.916129 193.293226,24.7354839 191.354087,24.7354839 C190.432249,24.7664799 189.520355,24.5344412 188.722307,24.0658065 C188.006748,23.6193548 187.345302,22.9193548 186.737968,21.9658065 L186.678762,21.9658065 L186.678762,30 L184.940794,30 Z M191.348358,23.0883871 C192.798574,23.0883871 193.901197,22.4329032 194.656226,21.1219355 C195.415701,19.7924875 195.806978,18.2799301 195.78877,16.743871 C195.808342,15.2308751 195.416511,13.7416218 194.656226,12.4393548 C193.901197,11.1580645 192.798574,10.5174194 191.348358,10.5174194 C189.820474,10.5174194 188.639547,11.1477419 187.805577,12.4083871 C186.960504,13.7112525 186.525006,15.2431277 186.556532,16.8019355 C186.524885,18.3607592 186.960393,19.8926698 187.805577,21.1954839 C188.639547,22.4625806 189.820474,23.096129 191.348358,23.096129 L191.348358,23.0883871 Z" id="Shape" stroke="#000000" stroke-width="0.625" fill="#000000"></path>
                    <path d="M208.913293,24.7335484 C207.443978,24.7335484 206.199389,24.336129 205.179526,23.5412903 C204.202109,22.8041659 203.456467,21.7957388 203.03285,20.6380645 C202.61011,19.4284835 202.401281,18.1527993 202.415966,16.8696774 C202.415966,14.5858065 202.964731,12.6845161 204.062261,11.1658065 C205.159791,9.64709677 206.766616,8.88774194 208.882735,8.88774194 C213.291953,8.88774194 215.496562,11.6187097 215.496562,17.0806452 L215.496562,17.2258065 L204.297173,17.2258065 C204.336644,18.9741935 204.733257,20.3890323 205.487013,21.4703226 C206.240769,22.5516129 207.450344,23.0929032 209.115737,23.0941935 C210.132033,23.11483 211.125848,22.7897886 211.938503,22.1709677 C212.709664,21.6078215 213.236494,20.7646769 213.409091,19.8174194 L215.240642,19.8174194 C214.927426,21.4058065 214.231602,22.6219355 213.15317,23.4658065 C212.074739,24.3096774 210.661446,24.7322581 208.913293,24.7335484 Z M204.354469,15.7083871 L213.613445,15.7083871 C213.613445,14.0993548 213.216832,12.8335484 212.423606,11.9109677 C211.630379,10.9883871 210.459638,10.5264516 208.911383,10.5251613 C207.461166,10.5251613 206.339445,11.0264516 205.546218,12.0290323 C204.752992,13.0316129 204.355742,14.2580645 204.354469,15.7083871 Z" id="Shape" stroke="#000000" stroke-width="0.625" fill="#000000"></path>
                    <polygon id="Shape" stroke="#000000" stroke-width="0.625" fill="#000000" points="221.399924 24.2883871 221.399924 2.77935484 223.105424 2.77935484 223.105424 24.2883871"></polygon>
                    <path d="M229.463331,5.31096774 L229.463331,2.75032258 L231.755157,2.75032258 L231.755157,5.31096774 L229.463331,5.31096774 Z M229.904507,24.2787097 L229.904507,9.33290323 L231.610008,9.33290323 L231.610008,24.2883871 L229.904507,24.2787097 Z" id="Shape" stroke="#000000" stroke-width="0.625" fill="#000000"></path>
                    <path d="M238.453018,24.2883871 L238.453018,9.33290323 L240.187166,9.33290323 L240.187166,11.5374194 L240.246371,11.5974194 C241.147823,9.79096774 242.656608,8.88774194 244.772727,8.88774194 C246.438121,8.88774194 247.702445,9.45354839 248.565699,10.5851613 C249.428953,11.7167742 249.859944,13.1664516 249.858671,14.9341935 L249.858674,24.2883871 L248.124523,24.2883871 L248.124523,14.636129 C248.124523,13.4051613 247.786478,12.4122581 247.11039,11.6574194 C246.434301,10.9025806 245.508658,10.5251613 244.333461,10.5251613 C243.020754,10.5251613 242.002165,11.0316129 241.277693,12.0445161 C240.537331,13.1053574 240.155448,14.3804442 240.189076,15.6793548 L240.189076,24.2883871 L238.453018,24.2883871 Z" id="Shape" stroke="#000000" stroke-width="0.625" fill="#000000"></path>
                </g>
            </g>
        </g>
    </g>
</svg>