<?xml version="1.0" encoding="UTF-8"?>
<svg width="216px" height="38px" viewBox="0 0 216 38" version="1.1" xmlns="http://www.w3.org/2000/svg" xmlns:xlink="http://www.w3.org/1999/xlink">
    <!-- Generator: Sketch 51.3 (57544) - http://www.bohemiancoding.com/sketch -->
    <title>zOS_logo_dark Copy</title>
    <desc>Created with Sketch.</desc>
    <defs></defs>
    <g id="Zeppelin-Desktop" stroke="none" stroke-width="1" fill="none" fill-rule="evenodd">
        <g id="Home" transform="translate(-854.000000, -1626.000000)" fill-rule="nonzero">
            <g id="Proyects" transform="translate(0.000000, 964.000000)">
                <g id="Group-9" transform="translate(240.000000, 526.000000)">
                    <g id="zOS_logo_dark-Copy" transform="translate(614.000000, 136.000000)">
                        <polygon id="Shape" fill="#191D1F" points="0 30.1723502 0 27.7294931 16.1056653 3.22737327 0 3.22737327 0 0.786267281 19.2195918 0.786267281 19.2195918 3.22737327 3.07337143 27.7294931 19.2195918 27.7294931 19.2195918 30.1723502"></polygon>
                        <path d="M33.0735673,30.7817512 C31.0246531,30.7817512 29.2896,30.238894 27.8684082,29.1531797 C26.503575,28.1464777 25.462273,26.7680187 24.8708571,25.1850691 C24.2814424,23.5325391 23.9901553,21.7897093 24.0103837,20.036682 C24.0103837,16.916129 24.7744653,14.3180031 26.3026286,12.2423041 C27.8307918,10.1666052 30.0713143,9.12875576 33.0241959,9.12875576 C39.1721143,9.12875576 42.2460735,12.8598771 42.2460735,20.3221198 L42.2460735,20.5252535 L26.6394122,20.5252535 C26.6934857,22.9138249 27.2465633,24.8470968 28.2986449,26.3250691 C29.3507265,27.8030415 31.0375837,28.5426114 33.3592163,28.5437788 C34.7756235,28.5706637 36.1603807,28.1262213 37.2930612,27.2811982 C38.3675877,26.5116545 39.1015659,25.3599106 39.3419755,24.0660829 L41.8828408,24.0660829 C41.4467265,26.2340092 40.4751673,27.8964363 38.9681633,29.0533641 C37.4611592,30.2102919 35.4962939,30.7864209 33.0735673,30.7817512 Z M26.7258122,18.4501382 L39.6346776,18.4501382 C39.6346776,16.2518587 39.0816,14.5223041 37.9754449,13.2614747 C36.8692898,12.0006452 35.2353306,11.3696467 33.0735673,11.3684793 C31.0516898,11.3684793 29.4876735,12.0537634 28.3815184,13.4243318 C27.2753633,14.7949002 26.721698,16.470169 26.7205224,18.4501382 L26.7258122,18.4501382 Z" id="Shape" fill="#191D1F"></path>
                        <path d="M48.523298,37.9859908 L48.523298,9.73990783 L50.9407347,9.73990783 L50.9407347,12.8324424 L51.0218449,12.8324424 C52.3901388,10.3644854 54.5354449,9.1299232 57.4577633,9.12875576 C60.189649,9.12875576 62.3273143,10.1870353 63.8707592,12.3035945 C65.4142041,14.4201536 66.1865143,16.9149616 66.1876898,19.7880184 C66.1876898,22.6365591 65.4089143,25.1803994 63.8513633,27.4195392 C62.2938122,29.658679 60.1626122,30.7782488 57.4577633,30.7782488 C56.0095347,30.7782488 54.7870041,30.4729647 53.7901714,29.8623963 C52.7933388,29.251828 51.871151,28.2951152 51.0236082,26.9922581 L50.942498,26.9922581 L50.942498,37.9824885 L48.523298,37.9859908 Z M57.4577633,28.5437788 C59.4796408,28.5437788 61.0166204,27.6483564 62.068702,25.8575115 C63.1300766,24.0411317 63.6777545,21.9737688 63.6538776,19.8738249 C63.6787019,17.8061606 63.1296462,15.7716462 62.0669388,13.9934562 C61.0089796,12.2423041 59.472,11.3667281 57.456,11.3667281 C55.3248,11.3667281 53.6790857,12.2282949 52.5188571,13.9514286 C51.3586286,15.6745622 50.7796898,17.6784639 50.7820408,19.9631336 C50.7820408,22.2419662 51.3627429,24.2429493 52.5241469,25.9660829 C53.685551,27.6892166 55.3300898,28.5484485 57.4577633,28.5437788 Z" id="Shape" fill="#191D1F"></path>
                        <path d="M72.170449,37.9859908 L72.170449,9.73990783 L74.5861224,9.73990783 L74.5861224,12.8324424 L74.6672327,12.8324424 C76.0355265,10.3644854 78.1831837,9.1299232 81.1102041,9.12875576 C83.8420898,9.12875576 85.9797551,10.1870353 87.5232,12.3035945 C89.0666449,14.4201536 89.8371918,16.9149616 89.8348408,19.7880184 C89.8348408,22.6365591 89.0560653,25.1803994 87.4985143,27.4195392 C85.9409633,29.658679 83.8115265,30.7794163 81.1102041,30.7817512 C79.6619755,30.7817512 78.4394449,30.476467 77.4426122,29.8658986 C76.4457796,29.2553303 75.5235918,28.2986175 74.676049,26.9957604 L74.5861224,26.9957604 L74.5861224,37.9859908 L72.170449,37.9859908 Z M81.1102041,28.5437788 C83.1320816,28.5437788 84.6690612,27.6483564 85.7211429,25.8575115 C86.7800532,24.0404371 87.3252829,21.9731176 87.2992653,19.8738249 C87.3270799,17.8063988 86.7810784,15.771293 85.7211429,13.9917051 C84.6631837,12.240553 83.1262041,11.364977 81.1102041,11.364977 C78.9790041,11.364977 77.3332898,12.2265438 76.1730612,13.9496774 C75.0128327,15.6728111 74.4297796,17.6772965 74.423902,19.9631336 C74.423902,22.2419662 75.0046041,24.2429493 76.1660082,25.9660829 C77.3274122,27.6892166 78.9754776,28.5484485 81.1102041,28.5437788 Z" id="Shape" fill="#191D1F"></path>
                        <path d="M104.013257,30.7817512 C101.964343,30.7817512 100.22929,30.238894 98.808098,29.1531797 C97.4432648,28.1464777 96.4019628,26.7680187 95.8105469,25.1850691 C95.2211322,23.5325391 94.9298451,21.7897093 94.9500735,20.036682 C94.9500735,16.916129 95.7141551,14.3180031 97.2423184,12.2423041 C98.7704816,10.1666052 101.011004,9.12875576 103.963886,9.12875576 C110.111804,9.12875576 113.185763,12.8598771 113.185763,20.3221198 L113.185763,20.5252535 L97.579102,20.5252535 C97.6331755,22.9138249 98.1862531,24.8470968 99.2383347,26.3250691 C100.290416,27.8030415 101.977861,28.5426114 104.300669,28.5437788 C105.717077,28.5706637 107.101834,28.1262213 108.234514,27.2811982 C109.309176,26.511781 110.043192,25.3599779 110.283429,24.0660829 L112.824294,24.0660829 C112.387004,26.2375115 111.417208,27.8993548 109.914906,29.0516129 C108.412604,30.203871 106.445388,30.7805837 104.013257,30.7817512 Z M97.665502,18.4501382 L110.574367,18.4501382 C110.574367,16.2518587 110.02129,14.5223041 108.915135,13.2614747 C107.80898,12.0006452 106.17502,11.3696467 104.013257,11.3684793 C101.99138,11.3684793 100.427363,12.0537634 99.3212082,13.4243318 C98.2150531,14.7949002 97.6619755,16.470169 97.6619755,18.4501382 L97.665502,18.4501382 Z" id="Shape" fill="#191D1F"></path>
                        <polygon id="Shape" fill="#191D1F" points="119.833273 30.1723502 119.833273 0.786267281 122.210155 0.786267281 122.210155 30.1723502"></polygon>
                        <path d="M129.464229,4.24479263 L129.464229,0.742488479 L132.661029,0.742488479 L132.661029,4.24479263 L129.464229,4.24479263 Z M130.079608,30.1723502 L130.079608,9.73990783 L132.45649,9.73990783 L132.45649,30.1723502 L130.079608,30.1723502 Z" id="Shape" fill="#191D1F"></path>
                        <path d="M140.407053,30.1723502 L140.407053,9.73990783 L142.82449,9.73990783 L142.82449,12.7518894 L142.9056,12.8324424 C144.16222,10.363318 146.265796,9.12875576 149.216327,9.12875576 C151.537959,9.12875576 153.301224,9.90218126 154.506122,11.4490323 C155.71102,12.9958833 156.312294,14.9764363 156.309943,17.3906912 L156.30995,30.1741014 L153.890743,30.1741014 L153.890743,16.9861751 C153.890743,15.3039017 153.420539,13.9473425 152.480131,12.9164977 C151.539722,11.8856528 150.246661,11.3702304 148.600947,11.3702304 C146.770678,11.3702304 145.350073,12.0619355 144.339135,13.4453456 C143.328196,14.8287558 142.823314,16.4835945 142.82449,18.4098618 L142.82449,30.1723502 L140.407053,30.1723502 Z" id="Shape" fill="#191D1F"></path>
                        <path d="M176.511673,30.7817512 C173.66929,30.7817512 171.251265,30.069616 169.2576,28.6453456 C167.301294,27.269943 165.797282,25.3516742 164.934073,23.1309677 C164.046563,20.8789862 163.602808,18.3281413 163.602808,15.4784332 C163.602808,12.628725 164.046563,10.0778802 164.934073,7.82589862 C165.797467,5.60529575 167.30144,3.6870754 169.2576,2.31152074 C171.252441,0.887250384 173.670465,0.175115207 176.511673,0.175115207 C180.74351,0.175115207 183.960882,1.61981567 186.163788,4.50921659 C188.366694,7.39861751 189.466384,11.055023 189.462857,15.4784332 C189.462857,19.9018433 188.363167,23.5582488 186.163788,26.4476498 C183.964408,29.3370507 180.747037,30.7817512 176.511673,30.7817512 Z M176.511673,28.338894 C178.779233,28.338894 180.705306,27.6968049 182.289894,26.4126267 C183.83681,25.1771683 185.001634,23.5335833 185.650678,21.6705069 C186.326114,19.6777303 186.658735,17.5861974 186.63458,15.4836866 C186.658668,13.3811807 186.326049,11.289659 185.650678,9.29686636 C185.001755,7.43324055 183.83694,5.78906007 182.289894,4.55299539 C180.705306,3.2688172 178.779233,2.62672811 176.511673,2.62672811 C174.790727,2.62672811 173.267265,2.99330261 171.94129,3.72645161 C170.649846,4.42865455 169.558073,5.44365372 168.767412,6.67714286 C167.962186,7.93678326 167.359558,9.31336435 166.981224,10.7573272 C166.578129,12.3012167 166.378389,13.8905136 166.387004,15.4854378 C166.378329,17.0803655 166.57807,18.66967 166.981224,20.2135484 C167.357179,21.6610357 167.95866,23.0412609 168.763886,24.3042396 C169.55431,25.5379242 170.646138,26.5529758 171.937763,27.2549309 C173.26609,27.9787404 174.790727,28.3406452 176.511673,28.3406452 L176.511673,28.338894 Z" id="Shape" fill="#4CE0E2"></path>
                        <path d="M206.428996,30.7817512 C200.144718,30.7817512 196.661094,28.0277727 195.978122,22.5198157 L198.765845,22.5198157 C199.312457,26.4820891 201.826286,28.4626421 206.307331,28.4614747 C210.788376,28.4603072 213.028898,26.5340399 213.028898,22.6826728 C213.051168,21.6918163 212.733425,20.7229028 212.127869,19.9351152 C211.501024,19.1413992 210.693732,18.5064837 209.772147,18.0823963 C208.734665,17.5944533 207.666897,17.1727368 206.575347,16.8198157 C205.413943,16.4403994 204.252539,16.0265438 203.091135,15.5782488 C201.982161,15.1564162 200.912482,14.6390205 199.894335,14.0319816 C198.917108,13.4420883 198.1061,12.6161699 197.536849,11.6311521 C196.936163,10.613149 196.63582,9.4124424 196.63582,8.02903226 C196.63582,5.5050384 197.496294,3.5647619 199.217241,2.20820276 C200.938188,0.851643625 203.112882,0.173364055 205.741322,0.173364055 C211.642384,0.173364055 214.784522,2.50823349 215.167739,7.17797235 L212.545763,7.17797235 C212.244833,4.02589862 210.017829,2.44986175 205.864751,2.44986175 C204.006269,2.44986175 202.478106,2.88414747 201.280261,3.75271889 C200.082416,4.62129032 199.481143,5.95099846 199.476441,7.74184332 C199.451792,8.77674545 199.768177,9.79132291 200.377469,10.6312442 C200.995036,11.4594655 201.802627,12.1294354 202.733192,12.58553 C203.766186,13.1002915 204.834434,13.5420932 205.929992,13.9076498 C207.091396,14.3010753 208.2528,14.7219355 209.414204,15.1702304 C210.522949,15.5925864 211.592583,16.1099603 212.611004,16.7164977 C213.587202,17.3071008 214.397476,18.1328901 214.966727,19.1173272 C215.584911,20.2022232 215.896239,21.4329286 215.867755,22.6791705 C215.867755,25.5020276 215.0208,27.5572965 213.32689,28.844977 C211.63298,30.1326575 209.333682,30.7782488 206.428996,30.7817512 Z" id="Shape" fill="#4CE0E2"></path>
                    </g>
                </g>
            </g>
        </g>
    </g>
</svg>