<?xml version="1.0" encoding="UTF-8"?>
<svg width="45px" height="35px" viewBox="0 0 45 35" version="1.1" xmlns="http://www.w3.org/2000/svg" xmlns:xlink="http://www.w3.org/1999/xlink">
    <!-- Generator: Sketch 49.3 (51167) - http://www.bohemiancoding.com/sketch -->
    <title>Fill 1</title>
    <desc>Created with Sketch.</desc>
    <defs></defs>
    <g id="Page-1" stroke="none" stroke-width="1" fill="none" fill-rule="evenodd">
        <g id="zepp_02-copy-3" transform="translate(-1107.000000, -3108.000000)" fill="#FFFFFF">
            <g id="Page-1" transform="translate(1107.335872, 3108.000000)">
                <path d="M5.21752672,7.13993135 C5.27227481,6.5987827 5.0660458,6.06402823 4.66299237,5.69956058 L0.554534351,0.740714032 L0.554534351,0 L13.3108397,0 L23.1708702,21.6668109 L31.839542,0 L44,0 L44,0.740714032 L40.4873893,4.11515274 C40.1844275,4.34668897 40.0342901,4.72663724 40.0970992,5.10288363 L40.0970992,29.8971164 C40.0342901,30.2733628 40.1844275,30.653311 40.4873893,30.8845107 L43.9180458,34.2589494 L43.9180458,35 L26.6629924,35 L26.6629924,34.2589494 L30.2165802,30.8023961 C30.5658931,30.4523995 30.5658931,30.3494197 30.5658931,29.8143287 L30.5658931,9.77365602 L20.685374,34.9175489 L19.3502595,34.9175489 L7.84677863,9.77365602 L7.84677863,26.6253209 C7.75071756,27.3337276 7.98583206,28.0471822 8.48360305,28.5593889 L13.1052824,34.1764983 L13.1052824,34.9175489 L0,34.9175489 L0,34.1764983 L4.62201527,28.5593889 C5.1160916,28.0465092 5.33709924,27.328343 5.21752672,26.6253209 L5.21752672,7.13993135 Z" id="Fill-1"></path>
            </g>
        </g>
    </g>
</svg>