<?xml version="1.0" encoding="UTF-8"?>
<svg width="79px" height="79px" viewBox="0 0 79 79" version="1.1" xmlns="http://www.w3.org/2000/svg" xmlns:xlink="http://www.w3.org/1999/xlink">
    <!-- Generator: Sketch 49.3 (51167) - http://www.bohemiancoding.com/sketch -->
    <title>logo</title>
    <desc>Created with Sketch.</desc>
    <defs>
        <path d="M36.5003251,73 C16.3417211,73 0,56.6587836 0,36.5 C0,16.3418666 16.3417211,0 36.5003251,0 C56.6582789,0 73,16.3418666 73,36.5 C73,56.6587836 56.6582789,73 36.5003251,73 Z" id="path-1"></path>
        <filter x="-8.2%" y="-5.5%" width="113.7%" height="113.7%" filterUnits="objectBoundingBox" id="filter-2">
            <feOffset dx="-1" dy="1" in="SourceAlpha" result="shadowOffsetOuter1"></feOffset>
            <feGaussianBlur stdDeviation="1.5" in="shadowOffsetOuter1" result="shadowBlurOuter1"></feGaussianBlur>
            <feColorMatrix values="0 0 0 0 0   0 0 0 0 0   0 0 0 0 0  0 0 0 0.08 0" type="matrix" in="shadowBlurOuter1"></feColorMatrix>
        </filter>
        <linearGradient x1="67.3781997%" y1="0%" x2="0%" y2="100%" id="linearGradient-3">
            <stop stop-color="#65D9EA" offset="0%"></stop>
            <stop stop-color="#63C4E8" offset="100%"></stop>
        </linearGradient>
        <linearGradient x1="100%" y1="0%" x2="30.7731853%" y2="100%" id="linearGradient-4">
            <stop stop-color="#62BDE8" offset="0%"></stop>
            <stop stop-color="#5EA0E6" offset="100%"></stop>
        </linearGradient>
    </defs>
    <g id="Page-1" stroke="none" stroke-width="1" fill="none" fill-rule="evenodd">
        <g id="zepp_02-copy-4" transform="translate(-566.000000, -1196.000000)">
            <g id="Group-11" transform="translate(240.000000, 1148.000000)">
                <g id="logo" transform="translate(330.000000, 50.000000)">
                    <g id="Fill-1">
                        <use fill="black" fill-opacity="1" filter="url(#filter-2)" xlink:href="#path-1"></use>
                        <use fill="#FFFFFF" fill-rule="evenodd" xlink:href="#path-1"></use>
                    </g>
                    <path d="M69,53.170435 C71.7549283,48.1325511 72.5138889,42.3811857 72.5138889,36.2689201 C72.5138889,25.8988013 68.190042,16.5563518 61,10 L56.7514317,16.8129493 L35,53.170435 L69,53.170435 Z" id="Fill-4" fill="url(#linearGradient-3)"></path>
                    <path d="M4.53540127,19 C1.64773468,24.1808934 0,30.1235111 0,36.4463422 C0,46.4889055 4.1408174,55.5822332 10.8375072,62.170435 L36.5,19 L4.53540127,19 Z" id="Fill-6" fill="url(#linearGradient-4)"></path>
                </g>
            </g>
        </g>
    </g>
</svg>