<?xml version="1.0" encoding="UTF-8"?>
<svg width="300px" height="37px" viewBox="0 0 300 37" version="1.1" xmlns="http://www.w3.org/2000/svg" xmlns:xlink="http://www.w3.org/1999/xlink">
    <!-- Generator: Sketch 51.3 (57544) - http://www.bohemiancoding.com/sketch -->
    <title>OpenZeppelin_white</title>
    <desc>Created with Sketch.</desc>
    <defs></defs>
    <g id="Zeppelin-Desktop" stroke="none" stroke-width="1" fill="none" fill-rule="evenodd">
        <g id="Security" transform="translate(-323.000000, -2467.000000)" fill="#FFFFFF">
            <g id="Group-13" transform="translate(240.000000, 2395.000000)">
                <g id="OpenZeppelin_white" transform="translate(83.000000, 72.000000)">
                    <path d="M47.3720949,30 C49.2563053,26.499093 50.3289474,22.5022478 50.3289474,18.2548308 C50.3289474,11.0483477 47.2532301,4.55619528 42.3359413,0 L39.5482152,4.73436391 L24.6710526,30 L47.3720949,30 Z" id="Fill-1"></path>
                    <path d="M3.06554796,6 C1.11392352,9.60065257 0,13.730079 0,18.1238924 C0,25.1025559 2.79883387,31.4214516 7.32536646,36 L24.6710526,6 L3.06554796,6 Z" id="Fill-3"></path>
                    <path d="M70.0745051,25.7144274 C71.1732185,27.2622861 72.6505764,28.0357501 74.5068175,28.0357501 C76.3623429,28.0357501 77.8399394,27.2622861 78.9386528,25.7144274 C80.0376048,24.1665687 80.5870808,22.4286589 80.5870808,20.5004652 C80.5870808,18.5713411 80.0376048,16.8343618 78.9386528,15.2855726 C77.8399394,13.7386444 76.3623429,12.9642499 74.5068175,12.9642499 C72.6505764,12.9642499 71.1732185,13.7386444 70.0745051,15.2855726 C68.9755531,16.8343618 68.4260771,18.5713411 68.4260771,20.5004652 C68.4260771,22.4286589 68.9755531,24.1665687 70.0745051,25.7144274 M74.5068175,30 C71.9424372,30 69.903435,29.0653297 68.3895726,27.1964544 C66.875233,25.327579 66.1184211,23.09535 66.1184211,20.5004652 C66.1184211,17.9055805 66.875233,15.6731188 68.3895726,13.8035456 C69.903435,11.9349029 71.9424372,11 74.5068175,11 C77.0461458,11 79.0789446,11.9349029 80.6056909,13.8035456 C82.1314829,15.6731188 82.8947368,17.9055805 82.8947368,20.5004652 C82.8947368,23.09535 82.1314829,25.327579 80.6056909,27.1964544 C79.0789446,29.0653297 77.0461458,30 74.5068175,30" id="Fill-5"></path>
                    <path d="M96.8023949,28.4928938 C98.6094629,28.4928938 99.9831972,27.6862534 100.923598,26.0722561 C101.863521,24.4589753 102.33408,22.6620088 102.33408,20.6820733 C102.33408,18.7260241 101.863521,16.9596322 100.923598,15.3824197 C99.9831972,13.8054461 98.6094629,13.0169593 96.8023949,13.0169593 C94.8972543,13.0169593 93.4256858,13.7939807 92.3876896,15.3463514 C91.3492161,16.8984832 90.8309339,18.7014212 90.8309339,20.7554043 C90.8309339,22.8086707 91.3492161,24.6120865 92.3876896,26.1637406 C93.4256858,27.7168279 94.8972543,28.4928938 96.8023949,28.4928938 Z M88.8157895,37 L88.8157895,11.5503404 L90.9772078,11.5503404 L90.9772078,14.3378717 L91.0507027,14.3378717 C92.2717204,12.1131016 94.1885534,11 96.8023949,11 C99.243953,11 101.155298,11.9542577 102.535475,13.8608623 C103.915175,15.7681834 104.605263,18.0175564 104.605263,20.6087424 C104.605263,23.1753255 103.909448,25.4674549 102.517101,27.4844142 C101.125232,29.5013735 99.220091,30.5098531 96.8023949,30.5098531 C95.5076438,30.5098531 94.4145264,30.2346829 93.52352,29.6843425 C92.6317977,29.1349576 91.8073662,28.272901 91.0507027,27.0988893 L90.9772078,27.0988893 L90.9772078,37 L88.8157895,37 Z" id="Fill-7"></path>
                    <path d="M112.867997,19.1788465 L124.045062,19.1788465 C124.045062,17.2499786 123.565955,15.7326118 122.607974,14.6253505 C121.649762,13.5180891 120.236248,12.9644584 118.367665,12.9644584 C116.616951,12.9644584 115.263297,13.566241 114.305084,14.7681779 C113.347103,15.9708126 112.867997,17.4409579 112.867997,19.1788465 M118.367665,30 C116.593839,30 115.091114,29.5233659 113.861339,28.5707954 C112.631332,27.6191555 111.76834,26.4581594 111.271207,25.0892029 C110.774536,23.7202463 110.526316,22.2142778 110.526316,20.5717626 C110.526316,17.8340822 111.188236,15.5537286 112.513231,13.7320976 C113.837765,11.9106992 115.777533,11 118.332072,11 C123.654705,11 126.315789,14.2745626 126.315789,20.8213617 L126.315789,21.0002449 L112.797044,21.0002449 C112.84396,23.0952019 113.323298,24.7914519 114.234131,26.0889947 C115.144502,27.3872354 116.605395,28.0355416 118.616347,28.0355416 C119.917075,28.0355416 121.052323,27.6666095 122.022323,26.9282802 C122.992322,26.191114 123.583752,25.2497092 123.796611,24.1070899 L125.996616,24.1070899 C125.618046,26.0119982 124.777935,27.4700474 123.477438,28.4817028 C122.175785,29.4935908 120.473143,30 118.367665,30" id="Fill-9"></path>
                    <path d="M134.210526,30 L134.210526,11.5515156 L136.311144,11.5515156 L136.311144,14.2712727 L136.382116,14.3449996 C137.473825,12.1154786 139.302385,11 141.865941,11 C143.883295,11 145.414517,11.6984907 146.459376,13.0947539 C147.503771,14.4917353 148.026316,16.2803311 148.026316,18.46102 L148.026316,30 L145.925466,30 L145.925466,18.0926248 C145.925466,16.5742813 145.515872,15.3496485 144.696916,14.4184872 C143.877729,13.4870865 142.756101,13.0212664 141.332031,13.0212664 C139.741202,13.0212664 138.506623,13.6462696 137.628756,14.8955577 C136.750193,16.1458034 136.311144,17.6402096 136.311144,19.3790158 L136.311144,30 L134.210526,30 Z" id="Fill-11"></path>
                    <polygon id="Fill-13" points="155.921053 30 155.921053 28.0278708 166.234442 13.9723628 155.921053 13.9723628 155.921053 12 168.75 12 168.75 13.9723628 158.50847 28.0278708 168.75 28.0278708 168.75 30"></polygon>
                    <path d="M176.025857,19.1788465 L187.202527,19.1788465 C187.202527,17.2499786 186.723659,15.7326118 185.765923,14.6253505 C184.807494,13.5180891 183.394001,12.9644584 181.525444,12.9644584 C179.774756,12.9644584 178.421122,13.566241 177.462924,14.7681779 C176.504956,15.9708126 176.025857,17.4409579 176.025857,19.1788465 M181.525444,30 C179.751645,30 178.248942,29.5233659 177.019185,28.5707954 C175.789196,27.6191555 174.926217,26.4581594 174.429091,25.0892029 C173.932427,23.7202463 173.684211,22.2142778 173.684211,20.5717626 C173.684211,17.8340822 174.346121,15.5537286 175.671097,13.7320976 C176.995611,11.9106992 178.93535,11 181.490084,11 C186.812407,11 189.473684,14.2745626 189.473684,20.8213617 L189.473684,21.0002449 L175.954905,21.0002449 C176.001821,23.0952019 176.481152,24.7914519 177.391972,26.0889947 C178.302329,27.3872354 179.763201,28.0355416 181.774123,28.0355416 C183.074832,28.0355416 184.210064,27.6666095 185.180049,26.9282802 C186.150035,26.191114 186.741455,25.2497092 186.954311,24.1070899 L189.154285,24.1070899 C188.775489,26.0119982 187.935621,27.4700474 186.635143,28.4817028 C185.333509,29.4935908 183.630893,30 181.525444,30" id="Fill-15"></path>
                    <path d="M205.355027,28.4928938 C207.162094,28.4928938 208.535829,27.6862534 209.476229,26.0722561 C210.416392,24.4589753 210.886711,22.6620088 210.886711,20.6820733 C210.886711,18.7260241 210.416392,16.9596322 209.476229,15.3824197 C208.535829,13.8054461 207.162094,13.0169593 205.355027,13.0169593 C203.450124,13.0169593 201.978317,13.7939807 200.940321,15.3463514 C199.902086,16.8984832 199.383565,18.7014212 199.383565,20.7554043 C199.383565,22.8086707 199.902086,24.6120865 200.940321,26.1637406 C201.978317,27.7168279 203.450124,28.4928938 205.355027,28.4928938 Z M197.368421,37 L197.368421,11.5503404 L199.530078,11.5503404 L199.530078,14.3378717 L199.603334,14.3378717 C200.824352,12.1131016 202.741424,11 205.355027,11 C207.796585,11 209.707929,11.9542577 211.088345,13.8608623 C212.468045,15.7681834 213.157895,18.0175564 213.157895,20.6087424 C213.157895,23.1753255 212.462079,25.4674549 211.069733,27.4844142 C209.677863,29.5013735 207.772961,30.5098531 205.355027,30.5098531 C204.060275,30.5098531 202.967158,30.2346829 202.07639,29.6843425 C201.184429,29.1349576 200.359998,28.272901 199.603334,27.0988893 L199.530078,27.0988893 L199.530078,37 L197.368421,37 Z" id="Fill-17"></path>
                    <path d="M227.065435,28.4928938 C228.87253,28.4928938 230.246285,27.6862534 231.1867,26.0722561 C232.126876,24.4589753 232.597203,22.6620088 232.597203,20.6820733 C232.597203,18.7260241 232.126876,16.9596322 231.1867,15.3824197 C230.246285,13.8054461 228.87253,13.0169593 227.065435,13.0169593 C225.160504,13.0169593 223.688913,13.7939807 222.650901,15.3463514 C221.612412,16.8984832 221.093884,18.7014212 221.093884,20.7554043 C221.093884,22.8086707 221.612412,24.6120865 222.650901,26.1637406 C223.688913,27.7168279 225.160504,28.4928938 227.065435,28.4928938 Z M219.078947,37 L219.078947,11.5503404 L221.240398,11.5503404 L221.240398,14.3378717 L221.313656,14.3378717 C222.534692,12.1131016 224.451792,11 227.065435,11 C229.507268,11 231.418404,11.9542577 232.79884,13.8608623 C234.178561,15.7681834 234.868421,18.0175564 234.868421,20.6087424 C234.868421,23.1753255 234.172595,25.4674549 232.780227,27.4844142 C231.388337,29.5013735 229.483406,30.5098531 227.065435,30.5098531 C225.770664,30.5098531 224.67753,30.2346829 223.786749,29.6843425 C222.894775,29.1349576 222.070331,28.272901 221.313656,27.0988893 L221.240398,27.0988893 L221.240398,37 L219.078947,37 Z" id="Fill-19"></path>
                    <path d="M243.13112,19.1788465 L254.308022,19.1788465 C254.308022,17.2499786 253.828923,15.7326118 252.871186,14.6253505 C251.912757,13.5180891 250.499495,12.9644584 248.630708,12.9644584 C246.880251,12.9644584 245.526385,13.566241 244.568187,14.7681779 C243.610219,15.9708126 243.13112,17.4409579 243.13112,19.1788465 M248.630708,30 C246.856908,30 245.354205,29.5233659 244.124679,28.5707954 C242.89446,27.6191555 242.03148,26.4581594 241.534585,25.0892029 C241.03769,23.7202463 240.789474,22.2142778 240.789474,20.5717626 C240.789474,17.8340822 241.451384,15.5537286 242.776591,13.7320976 C244.100874,11.9106992 246.040614,11 248.595347,11 C253.917901,11 256.578947,14.2745626 256.578947,20.8213617 L256.578947,21.0002449 L243.060168,21.0002449 C243.107315,23.0952019 243.586415,24.7914519 244.497235,26.0889947 C245.407824,27.3872354 246.868464,28.0355416 248.879386,28.0355416 C250.180096,28.0355416 251.315327,27.6666095 252.285312,26.9282802 C253.255298,26.191114 253.846718,25.2497092 254.059574,24.1070899 L256.259548,24.1070899 C255.880983,26.0119982 255.040884,27.4700474 253.740406,28.4817028 C252.438772,29.4935908 250.736156,30 248.630708,30" id="Fill-21"></path>
                    <polygon id="Fill-23" points="264.473684 29 266.447368 29 266.447368 3 264.473684 3"></polygon>
                    <path d="M274.91196,29 L277.112762,29 L277.112762,10.9472423 L274.91196,10.9472423 L274.91196,29 Z M274.342105,6.09288456 L277.302632,6.09288456 L277.302632,3 L274.342105,3 L274.342105,6.09288456 Z" id="Fill-25"></path>
                    <path d="M286.184211,30 L286.184211,11.5515156 L288.284864,11.5515156 L288.284864,14.2712727 L288.355836,14.3449996 C289.447564,12.1154786 291.276387,11 293.839754,11 C295.857374,11 297.388854,11.6984907 298.433498,13.0947539 C299.476982,14.4917353 300,16.2803311 300,18.46102 L300,30 L297.899347,30 L297.899347,18.0926248 C297.899347,16.5742813 297.489514,15.3496485 296.670313,14.4184872 C295.851111,13.4870865 294.729464,13.0212664 293.305371,13.0212664 C291.71498,13.0212664 290.479683,13.6462696 289.60273,14.8955577 C288.72392,16.1458034 288.284864,17.6402096 288.284864,19.3790158 L288.284864,30 L286.184211,30 Z" id="Fill-26"></path>
                </g>
            </g>
        </g>
    </g>
</svg>