<?xml version="1.0" encoding="UTF-8"?>
<svg width="198px" height="35px" viewBox="0 0 198 35" version="1.1" xmlns="http://www.w3.org/2000/svg" xmlns:xlink="http://www.w3.org/1999/xlink">
    <!-- Generator: Sketch 51.3 (57544) - http://www.bohemiancoding.com/sketch -->
    <title>zOS_logo_light</title>
    <desc>Created with Sketch.</desc>
    <defs></defs>
    <g id="Zeppelin-Desktop" stroke="none" stroke-width="1" fill="none" fill-rule="evenodd">
        <g id="Security" transform="translate(-869.000000, -2469.000000)" fill-rule="nonzero">
            <g id="Group-12" transform="translate(735.000000, 2395.000000)">
                <g id="zOS_logo_light" transform="translate(134.000000, 74.000000)">
                    <polygon id="Shape" fill="#FFFFFF" points="0 28 0 25.7554973 15.0836697 3.24289375 0 3.24289375 0 1 18 1 18 3.24289375 2.87834862 25.7554973 18 25.7554973 18 28"></polygon>
                    <path d="M30.4495049,27.999974 C28.5395327,27.999974 26.922138,27.4985594 25.5973208,26.4957301 C24.3250404,25.5658812 23.3543518,24.2926558 22.8030413,22.8305509 C22.2535963,21.3041774 21.9820621,19.6943978 22.0009188,18.0751992 C22.0009188,15.1928738 22.7131861,12.7930926 24.1377207,10.8758555 C25.5622553,8.95861851 27.6508422,8 30.4034815,8 C36.1344938,8 39,11.4462821 39,18.3388462 L39,18.5264724 L24.4516662,18.5264724 C24.5020728,20.7326967 25.0176448,22.5183798 25.9983821,23.8835216 C26.9791194,25.2486634 28.5515864,25.9317734 30.7157833,25.9328517 C32.0361403,25.9576842 33.3269936,25.5471712 34.3828641,24.7666583 C35.3845242,24.0558628 36.0687295,22.9920446 36.2928363,21.7969897 L38.6613991,21.7969897 C38.2548588,23.7994133 37.3491835,25.3349283 35.9443732,26.4035345 C34.5395629,27.4721407 32.7079402,28.0042872 30.4495049,27.999974 Z M24.5322072,16.6097745 L36.5656895,16.6097745 C36.5656895,14.5793148 36.0501175,12.981797 35.0189736,11.8172211 C33.9878297,10.6526452 32.4646735,10.069818 30.4495049,10.0687397 C28.564736,10.0687397 27.1067796,10.7017083 26.0756357,11.9676455 C25.0444918,13.2335826 24.5283719,14.780959 24.5272761,16.6097745 L24.5322072,16.6097745 Z" id="Shape" fill="#FFFFFF"></path>
                    <path d="M44,35 L44,8.57181868 L46.1896586,8.57181868 L46.1896586,11.4653195 L46.2631264,11.4653195 C47.5024955,9.1561988 49.4456645,8.0010923 52.0926333,8 C54.5671125,8 56.5033606,8.99016931 57.9013775,10.9705079 C59.2993944,12.9508465 59.9989352,15.2850901 60,17.9732387 C60,20.6384489 59.294603,23.0185691 57.8838091,25.1135991 C56.4730152,27.2086292 54.5426233,28.2561442 52.0926333,28.2561442 C50.7808611,28.2561442 49.673521,27.9705079 48.7706129,27.3992354 C47.8677048,26.8279629 47.0324083,25.9328236 46.2647235,24.7138176 L46.1912557,24.7138176 L46.1912557,34.9967231 L44,35 Z M52.0926333,26.1654833 C53.9240035,26.1654833 55.3161642,25.3276898 56.2691156,23.6521027 C57.2304842,21.952624 57.7265583,20.0183154 57.7049311,18.0535227 C57.7274164,16.118932 57.2300944,14.2153579 56.2675185,12.5516111 C55.3092434,10.9131622 53.9170826,10.0939377 52.0910361,10.0939377 C50.1606442,10.0939377 48.669994,10.9000546 47.6190856,12.5122884 C46.5681773,14.1245221 46.0437878,15.9994539 46.0459173,18.1370836 C46.0459173,20.2692518 46.5719039,22.1414528 47.623877,23.7536865 C48.6758501,25.3659203 50.1654355,26.1698525 52.0926333,26.1654833 Z" id="Shape" fill="#FFFFFF"></path>
                    <path d="M66,35 L66,8.57181868 L68.1880608,8.57181868 L68.1880608,11.4653195 L68.2615286,11.4653195 C69.5008973,9.1561988 71.4461952,8.0010923 74.0974222,8 C76.5719007,8 78.5081482,8.99016931 79.9061647,10.9705079 C81.3041812,12.9508465 82.0021246,15.2850901 81.9999951,17.9732387 C81.9999951,20.6384489 81.2945984,23.0185691 79.8838049,25.1135991 C78.4730115,27.2086292 76.5442172,28.2572365 74.0974222,28.2594211 C72.7856504,28.2594211 71.6783106,27.9737848 70.7754028,27.4025123 C69.872495,26.8312398 69.0371988,25.9361005 68.2695142,24.7170945 L68.1880608,24.7170945 L68.1880608,35 L66,35 Z M74.0974222,26.1654833 C75.9287918,26.1654833 77.3209522,25.3276898 78.2739032,23.6521027 C79.2330396,21.9519741 79.7268959,20.0177061 79.7033298,18.0535227 C79.7285236,16.1191549 79.2339682,14.2150274 78.2739032,12.5499727 C77.3156284,10.9115238 75.9234681,10.0922993 74.0974222,10.0922993 C72.1670308,10.0922993 70.6763811,10.8984162 69.625473,12.5106499 C68.574565,14.1228837 68.0464491,15.9983616 68.0411254,18.1370836 C68.0411254,20.2692518 68.5671118,22.1414528 69.6190845,23.7536865 C70.6710573,25.3659203 72.1638366,26.1698525 74.0974222,26.1654833 Z" id="Shape" fill="#FFFFFF"></path>
                    <path d="M95.4495049,28 C93.5395327,28 91.922138,27.4985847 90.5973208,26.4957541 C89.3250404,25.5659041 88.3543518,24.2926769 87.8030413,22.8305702 C87.2535963,21.3041947 86.9820621,19.694413 87.0009188,18.0752123 C87.0009188,15.1928831 87.7131861,12.7930988 89.1377207,10.8758593 C90.5622553,8.95861976 92.6508422,8 95.4034815,8 C101.134494,8 104,11.4462866 104,18.3388597 L104,18.526486 L89.4516662,18.526486 C89.5020728,20.7327133 90.0176448,22.5183987 90.9983821,23.8835423 C91.9791194,25.2486858 93.5521343,25.9317967 95.717427,25.9328751 C97.037784,25.9577076 98.3286373,25.547194 99.3845078,24.7666801 C100.386294,24.0560005 101.070535,22.9921263 101.29448,21.7970077 L103.663043,21.7970077 C103.255407,23.8026688 102.351375,25.3376466 100.950948,26.401941 C99.5505209,27.4662353 97.7167065,27.9989217 95.4495049,28 Z M89.5322072,16.6097857 L101.565689,16.6097857 C101.565689,14.5793234 101.050118,12.9818035 100.018974,11.817226 C98.9878297,10.6526486 97.4646735,10.0698207 95.4495049,10.0687424 C93.564736,10.0687424 92.1067796,10.7017118 91.0756357,11.9676506 C90.0444918,13.2335894 89.5289198,14.7809678 89.5289198,16.6097857 L89.5322072,16.6097857 Z" id="Shape" fill="#FFFFFF"></path>
                    <polygon id="Shape" fill="#FFFFFF" points="110 28 110 1 112 1 112 28"></polygon>
                    <path d="M119,4.21313816 L119,1 L122,1 L122,4.21313816 L119,4.21313816 Z M119.577496,28 L119.577496,9.25455195 L121.808053,9.25455195 L121.808053,28 L119.577496,28 Z" id="Shape" fill="#FFFFFF"></path>
                    <path d="M129,26.998419 L129,8.5517557 L131.280185,8.5517557 L131.280185,11.2710102 L131.35669,11.3437344 C132.541965,9.11457813 134.526109,8 137.309122,8 C139.498942,8 141.162097,8.69825817 142.298586,10.0947745 C143.435075,11.4912908 144.002211,13.2793587 143.999994,15.4589782 L144,27 L141.718145,27 L141.718145,15.093776 C141.718145,13.5749986 141.274637,12.3502801 140.387621,11.4196206 C139.500605,10.488961 138.280958,10.0236312 136.728681,10.0236312 C135.002326,10.0236312 133.662377,10.6481112 132.708835,11.8970711 C131.755293,13.146031 131.279077,14.6400399 131.280185,16.379098 L131.280185,26.998419 L129,26.998419 Z" id="Shape" fill="#FFFFFF"></path>
                    <path d="M161.980359,28 C159.342422,28 157.09832,27.3485143 155.248055,26.045543 C153.432462,24.7872775 152.036631,23.0323794 151.23551,21.000801 C150.411837,18.9406111 150,16.6070107 150,14 C150,11.3929893 150.411837,9.05938895 151.23551,6.99919899 C152.036802,4.96771535 153.432597,3.2128616 155.248055,1.95445703 C157.099411,0.651485677 159.343513,0 161.980359,0 C165.907809,0 168.893762,1.32166152 170.938218,3.96498455 C172.982674,6.60830759 174.003265,9.95331274 173.999992,14 C173.999992,18.0466873 172.979401,21.3916924 170.938218,24.0350154 C168.897035,26.6783385 165.911082,28 161.980359,28 Z M161.980359,25.7651905 C164.084817,25.7651905 165.872353,25.1777854 167.342964,24.0029752 C168.778615,22.8727354 169.859655,21.3691276 170.462014,19.6647214 C171.088868,17.841661 171.397564,15.928255 171.375146,14.004806 C171.397502,12.0813615 171.088808,10.1679657 170.462014,8.34489072 C169.859767,6.63998193 168.778735,5.13582925 167.342964,4.0050349 C165.872353,2.83022466 164.084817,2.24281954 161.980359,2.24281954 C160.383196,2.24281954 158.969314,2.57817447 157.738713,3.24888431 C156.540159,3.89128363 155.526916,4.81983968 154.793125,5.94827783 C154.045817,7.10064007 153.486535,8.35998365 153.135414,9.68097036 C152.761312,11.0933735 152.575939,12.5473167 152.583935,14.0064081 C152.575884,15.4655026 152.761258,16.9194528 153.135414,18.3318457 C153.484327,19.6560568 154.042545,20.9187341 154.789853,22.0741504 C155.523423,23.2027673 156.536719,24.1313713 157.73544,24.7735439 C158.968223,25.4357097 160.383196,25.7667925 161.980359,25.7667925 L161.980359,25.7651905 Z" id="Shape" fill="#67EAEC"></path>
                    <path d="M189.457126,28 C183.770405,28 180.618029,25.4807102 180,20.4421306 L182.522645,20.4421306 C183.017281,24.0667468 185.292076,25.8785209 189.34703,25.8774529 C193.401983,25.876385 195.42946,24.1142705 195.42946,20.5911093 C195.449613,19.6846917 195.162083,18.7983471 194.614108,18.0776932 C194.046868,17.3516161 193.316339,16.7708069 192.482385,16.3828594 C191.543555,15.936498 190.577318,15.5507193 189.589561,15.2278734 C188.538592,14.8807903 187.487623,14.5022026 186.436654,14.0921105 C185.43313,13.7062257 184.465163,13.2329214 183.543829,12.6776131 C182.659525,12.1379894 181.925634,11.3824542 181.410511,10.4813777 C180.866943,9.55012682 180.595159,8.45174209 180.595159,7.18622347 C180.595159,4.87731945 181.373812,3.10238953 182.931119,1.86143372 C184.488425,0.620477907 186.456333,-1.89798339e-16 188.834842,0 C194.174786,0 197.018147,2.13589641 197.364924,6.40768923 L194.992265,6.40768923 C194.71995,3.52422907 192.704706,2.082499 188.946534,2.082499 C187.264771,2.082499 185.881917,2.47977573 184.797972,3.2743292 C183.714027,4.06888266 183.169927,5.28527566 183.165672,6.92350821 C183.143367,7.870218 183.429668,8.79833515 183.981024,9.56668002 C184.539868,10.3243219 185.270667,10.9371983 186.112747,11.3544253 C187.047516,11.8253199 188.014187,12.2294721 189.005571,12.5638767 C190.05654,12.9237752 191.107509,13.3087705 192.158478,13.7188626 C193.161795,14.1052263 194.129721,14.5785106 195.051303,15.13336 C195.934676,15.6736331 196.667903,16.4290503 197.183025,17.3295955 C197.742428,18.3220388 198.024153,19.4478659 197.998377,20.5879055 C197.998377,23.1702042 197.231957,25.0503271 195.699117,26.2282739 C194.166276,27.4062208 192.085613,27.9967962 189.457126,28 Z" id="Shape" fill="#67EAEC"></path>
                </g>
            </g>
        </g>
    </g>
</svg>