<?xml version="1.0" encoding="utf-8"?>
<!-- Generator: Adobe Illustrator 21.1.0, SVG Export Plug-In . SVG Version: 6.00 Build 0)  -->
<svg version="1.1" id="Layer_1" xmlns="http://www.w3.org/2000/svg" xmlns:xlink="http://www.w3.org/1999/xlink" x="0px" y="0px"
	 viewBox="0 0 1736 2036.9" style="enable-background:new 0 0 1736 2036.9;" xml:space="preserve">
<style type="text/css">
	.st0{fill:url(#SVGID_1_);}
	.st1{fill:#FFFFFF;}
</style>
<title>brave_logo_horz</title>
<linearGradient id="SVGID_1_" gradientUnits="userSpaceOnUse" x1="868.25" y1="-1317.533" x2="868.25" y2="719.392" gradientTransform="matrix(1 0 0 1 -0.25 1317.533)">
	<stop  offset="0" style="stop-color:#F9BA16"/>
	<stop  offset="4.000000e-02" style="stop-color:#FAA612"/>
	<stop  offset="0.11" style="stop-color:#FC8B0C"/>
	<stop  offset="0.19" style="stop-color:#FD7508"/>
	<stop  offset="0.28" style="stop-color:#FE6404"/>
	<stop  offset="0.4" style="stop-color:#FF5902"/>
	<stop  offset="0.56" style="stop-color:#FF5200"/>
	<stop  offset="1" style="stop-color:#FF5000"/>
</linearGradient>
<path class="st0" d="M1736,659l-148.2-256.1l17.6-82.9l-134.9-137l-111.9,15.4L1177.4,0h-310l-310,2.5l-180.8,198l-111.9-16.1
	L130.6,322.9l17.2,82.5L0,660.5L40.5,814l184,700.6c21.4,80.6,70.2,151.3,138.1,199.8c0,0,223.9,157.8,444.5,301
	c36,28.7,87.1,28.7,123.1,0c247.9-162.5,444.1-301.7,444.1-301.7c67.7-48.6,116.5-119.2,137.8-199.8l183.3-701L1736,659z"/>
<path class="st1" d="M915.5,1213.3c-11.6-5.3-23.6-9.7-35.9-13.3h-22.2c-12.3,3.5-24.3,8-35.9,13.3l-54.9,23
	c-17.6,7.2-45.2,20.4-62.1,29.1L603.4,1318c-10.2,3.3-15.8,14.2-12.5,24.4c1.6,5,5.2,9.2,10,11.5l87.5,62.1
	c15.4,10.8,39.8,29.8,53.8,42.3l24.8,21.2l51.7,45.2l23.3,20.8c14.9,12.5,36.7,12.5,51.7,0L918,1524l51.7-45.2l24.8-21.5
	c14.3-12.6,38.4-31.6,53.8-42.3l87.9-62.8c9.7-4.1,14.2-15.3,10.1-24.9c-2.3-5.4-6.9-9.4-12.6-10.9l-102.2-51.3
	c-16.9-8.6-44.8-21.5-62.4-28.7L915.5,1213.3L915.5,1213.3z"/>
<path class="st1" d="M1536.9,698.5l2.9-9c0.1-12-0.8-24-2.5-35.9c-8.5-21.6-19.5-42.2-32.6-61.3l-56.7-83.6
	c-10.4-15.8-28.7-40.5-40.5-55.2l-76.1-94.7c-6.9-9.3-14.5-18.2-22.6-26.5l-33.7,6.1l-118.7,20.4l-50.9,9.7
	c-17,0.9-34.1-1.6-50.2-7.2l-92.2-29.8c-17.9-5.7-47.7-14-66-18.3c-9.7-1-19.4-1-29.1,0c-9.7-1-19.4-1-29.1,0
	c-18.3,4.3-48.1,12.6-66,18.3l-92.2,29.8c-16.1,5.6-33.2,8-50.2,7.2l-51.3-9.7l-117-22.6l-33.7-6.1c-8.1,8.3-15.7,17.2-22.6,26.5
	l-77.8,96.9c-11.8,14.7-30.1,39.5-40.5,55.2l-56.7,83.9c-9.8,14.4-18.8,29.4-26.9,44.8c-5,17.3-7.6,35.1-7.9,53.1l3.2,9
	c1.4,5.9,3.2,11.6,5.4,17.2c14.5,17.5,30.1,34.2,46.6,49.9l196.6,181.9c13.9,15.2,17.6,37,9.7,56L425,1082
	c-6.9,20.7-6.9,43.1,0,63.9l6.5,17.9c10.7,29.2,29,55,53.1,74.6l31.2,25.5c16.6,12.1,38.4,14.7,57.4,6.8l111.6-53.1
	c20.2-10.3,39.1-22.9,56.3-37.7l89.3-80.7c14.7-13.3,15.7-36,2.4-50.7l-0.6-0.6L678,915.5c-14.5-14.2-19.3-35.5-12.2-54.5l51.3-127
	c6.9-19.4,6.9-40.5,0-59.9c-9.6-18.4-25.3-32.9-44.5-40.9l-245-92.6c-17.6-6.8-16.9-13.6,2.2-15.4l127-11.8
	c22.4-1.3,44.9,1.5,66.4,8.3l126.6,45.2c18,7,28.5,25.9,24.8,44.8L728.3,814c-4.3,18.3-8.6,38.7-10,45.2
	c6.3,11.3,18.3,18.3,31.2,18.3l88.3,17.2c22.2,3.7,44.9,3.7,67.1,0l80.7-16.9c13-0.1,25-7.2,31.2-18.7c0-6.5-5.7-26.5-10-44.8
	l-47-202.7c-3.9-19,6.6-38,24.8-44.8l126.6-45.2c21.4-6.8,43.9-9.6,66.4-8.3l127,11.8c18.7,0,19.7,8.6,2.2,15.4l-244.7,92.9
	c-19,7.8-34.8,22-44.5,40.2c-6.9,19.4-6.9,40.5,0,59.9l53.1,127.4c6.7,19,1.7,40.2-12.9,54.2L904,1047.9
	c-13.7,14.3-13.2,37,1.2,50.7l0.6,0.6l89.7,79.6c17.3,14.1,36.2,26.2,56.3,35.9l111.6,53.1c19,7.9,40.8,5.3,57.4-6.8l31.2-25.5
	c24.1-19.7,42.4-45.4,53.1-74.6l6.5-17.9c6.9-20.7,6.9-43.1,0-63.9l-34.4-74.6c-6.9-19.1-2.3-40.4,11.8-54.9l196.2-182.2
	c16.5-15.8,32.1-32.6,46.6-50.2C1534,711.1,1535.7,704.8,1536.9,698.5L1536.9,698.5z"/>
</svg>
