<?xml version="1.0" encoding="UTF-8"?>
<svg width="15px" height="14px" viewBox="0 0 15 14" version="1.1" xmlns="http://www.w3.org/2000/svg" xmlns:xlink="http://www.w3.org/1999/xlink">
    <!-- Generator: Sketch 51.3 (57544) - http://www.bohemiancoding.com/sketch -->
    <title>ic_github_grey</title>
    <desc>Created with Sketch.</desc>
    <defs></defs>
    <g id="Symbols" stroke="none" stroke-width="1" fill="none" fill-rule="evenodd" opacity="0.7">
        <g id="CARD-Copy-17" transform="translate(-57.000000, -218.000000)" fill="#3C3C3C" fill-rule="nonzero">
            <g id="Group" transform="translate(57.000000, 218.000000)">
                <path d="M7.5,0 C3.3581543,0 0,3.2135115 0,7.17695917 C0,10.3484181 2.14875,13.0380256 5.12923828,13.986828 C5.50415039,14.0525421 5.64102539,13.8308834 5.64102539,13.6416472 C5.64102539,13.4708019 5.63415527,12.9048594 5.63049316,12.3056114 C3.54492187,12.7392707 3.1040918,11.4593049 3.1040918,11.4593049 C2.76260742,10.6305203 2.27141602,10.4097447 2.27141602,10.4097447 C1.58980957,9.96468912 2.323125,9.97345004 2.323125,9.97345004 C3.07614258,10.0233804 3.47258789,10.7128731 3.47258789,10.7128731 C4.1418457,11.8097423 5.22856934,11.4925964 5.65520508,11.3086168 C5.7233789,10.8460394 5.9174707,10.5288934 6.13127928,10.3501703 C4.46639648,10.168826 2.715,9.5529251 2.715,6.80286018 C2.715,6.01874936 3.00751465,5.37921499 3.48632813,4.87677178 C3.40987793,4.6945443 3.15169922,3.96431674 3.56047852,2.97653167 C3.56047852,2.97653167 4.18945313,2.78379107 5.6231543,3.71245033 C6.2209863,3.55256674 6.8623242,3.47371832 7.49998536,3.47108303 C8.13719238,3.47371832 8.77896972,3.55343583 9.37773924,3.71331941 C10.8087158,2.78379107 11.4385987,2.97740075 11.4385987,2.97740075 C11.8487549,3.96606893 11.5905762,4.69541338 11.5136719,4.87677178 C11.9943164,5.37921499 12.2845459,6.01876336 12.2845459,6.80286018 C12.2845459,9.55993389 10.5303955,10.1670597 8.85956544,10.3449138 C9.12965334,10.5674415 9.36859866,11.0037362 9.36859866,11.6730717 C9.36859866,12.6324013 9.35852052,13.405985 9.35852052,13.6425303 C9.35852052,13.8335187 9.49492674,14.0569156 9.87487794,13.986828 C12.8530957,13.0362734 15,10.346666 15,7.17695917 C15,3.2135115 11.6418457,0 7.5,0 Z" id="ic_github_grey"></path>
            </g>
        </g>
    </g>
</svg>