<?xml version="1.0" encoding="UTF-8"?>
<svg width="16px" height="13px" viewBox="0 0 16 13" version="1.1" xmlns="http://www.w3.org/2000/svg" xmlns:xlink="http://www.w3.org/1999/xlink">
    <!-- Generator: Sketch 51.3 (57544) - http://www.bohemiancoding.com/sketch -->
    <title>ic_twitter_grey</title>
    <desc>Created with Sketch.</desc>
    <defs></defs>
    <g id="Symbols" stroke="none" stroke-width="1" fill="none" fill-rule="evenodd" opacity="0.7">
        <g id="CARD-Copy-17" transform="translate(-78.000000, -219.000000)" fill="#3C3C3C" fill-rule="nonzero">
            <g id="Group" transform="translate(57.000000, 218.000000)">
                <path d="M37,2.539 C36.405,2.8 35.771,2.973 35.11,3.057 C35.79,2.651 36.309,2.013 36.553,1.244 C35.919,1.622 35.219,1.889 34.473,2.038 C33.871,1.397 33.013,1 32.077,1 C30.261,1 28.799,2.474 28.799,4.281 C28.799,4.541 28.821,4.79100001 28.875,5.029 C26.148,4.89600001 23.735,3.589 22.114,1.598 C21.831,2.089 21.665,2.651 21.665,3.256 C21.665,4.392 22.25,5.39899999 23.122,5.98199999 C22.595,5.97199998 22.078,5.81900001 21.64,5.57799999 C21.64,5.588 21.64,5.601 21.64,5.614 C21.64,7.20800002 22.777,8.53199999 24.268,8.83700001 C24.001,8.90999998 23.71,8.94499999 23.408,8.94499999 C23.198,8.94499999 22.986,8.93299999 22.787,8.88900001 C23.212,10.188 24.418,11.143 25.852,11.174 C24.736,12.047 23.319,12.573 21.785,12.573 C21.516,12.573 21.258,12.561 21,12.528 C22.453,13.465 24.175,14 26.032,14 C32.068,14 35.368,8.99999999 35.368,4.666 C35.368,4.521 35.363,4.381 35.356,4.242 C36.007,3.78 36.554,3.203 37,2.539 Z" id="ic_twitter_grey"></path>
            </g>
        </g>
    </g>
</svg>