<?xml version="1.0" encoding="UTF-8"?>
<svg width="36px" height="35px" viewBox="0 0 36 35" version="1.1" xmlns="http://www.w3.org/2000/svg" xmlns:xlink="http://www.w3.org/1999/xlink">
    <!-- Generator: Sketch 49.3 (51167) - http://www.bohemiancoding.com/sketch -->
    <title>instagram</title>
    <desc>Created with Sketch.</desc>
    <defs>
        <polygon id="path-1" points="3.46534653e-05 0.0110267327 34.9196733 0.0110267327 34.9196733 34.9306931 3.46534653e-05 34.9306931"></polygon>
    </defs>
    <g id="Page-1" stroke="none" stroke-width="1" fill="none" fill-rule="evenodd">
        <g id="zepp_02-copy-3" transform="translate(-1037.000000, -3108.000000)">
            <g id="instagram" transform="translate(1037.741051, 3108.000000)">
                <g id="Group-3" transform="translate(0.000000, 0.058287)">
                    <mask id="mask-2" fill="white">
                        <use xlink:href="#path-1"></use>
                    </mask>
                    <g id="Clip-2"></g>
                    <path d="M17.4598366,0.0110267327 C12.7180644,0.0110267327 12.1234109,0.0311257426 10.261203,0.11609604 C8.40273762,0.200858416 7.13358911,0.496036634 6.02294554,0.927680198 C4.87487624,1.37380891 3.90111386,1.97081881 2.9304703,2.94146238 C1.95975743,3.91217525 1.36281683,4.88586832 0.916618812,6.03393762 C0.484975248,7.14458119 0.189866337,8.4137297 0.105034653,10.272195 C0.0200643564,12.1344723 3.46534653e-05,12.7289871 3.46534653e-05,17.4708287 C3.46534653e-05,22.2126703 0.0200643564,22.8072545 0.105034653,24.6695317 C0.189866337,26.5279277 0.484975248,27.7971455 0.916618812,28.9077198 C1.36281683,30.0557891 1.95975743,31.0295515 2.9304703,32.000195 C3.90111386,32.9709079 4.87487624,33.5678485 6.02294554,34.0141158 C7.13358911,34.4456901 8.40273762,34.7408683 10.261203,34.8257 C12.1234109,34.910601 12.7180644,34.9307 17.4598366,34.9307 C22.2016782,34.9307 22.7961931,34.910601 24.6584703,34.8257 C26.5169356,34.7408683 27.7860842,34.4456901 28.8967277,34.0141158 C30.0448663,33.5678485 31.0185594,32.9709079 31.989203,32.000195 C32.9599158,31.0295515 33.5568564,30.0558584 34.0030545,28.9077198 C34.434698,27.7971455 34.7298762,26.5279277 34.8146386,24.6695317 C34.8996089,22.8072545 34.9197079,22.2126703 34.9197079,17.4708287 C34.9197079,12.7290564 34.8996089,12.1344723 34.8146386,10.272195 C34.7298762,8.4137297 34.434698,7.14458119 34.0030545,6.03393762 C33.5568564,4.88586832 32.9599158,3.91217525 31.989203,2.94146238 C31.0185594,1.97081881 30.0448663,1.37380891 28.8967277,0.927680198 C27.7860842,0.496036634 26.5169356,0.200858416 24.6584703,0.11609604 C22.7961931,0.0311257426 22.2016782,0.0110267327 17.4598366,0.0110267327 M17.4598366,3.15693762 C22.1218366,3.15693762 22.674005,3.1746802 24.5150743,3.2586802 C26.2173911,3.33637327 27.1418762,3.62080891 27.7571139,3.85991782 C28.5720941,4.1766505 29.1537871,4.55499703 29.7647277,5.16593762 C30.3756683,5.77694752 30.7540149,6.35857129 31.0708168,7.17355149 C31.3098564,7.78878911 31.5942921,8.71327426 31.6719851,10.4155911 C31.7559158,12.2566604 31.7737277,12.808898 31.7737277,17.4708287 C31.7737277,22.1328287 31.7559158,22.6850663 31.6719851,24.5260663 C31.5942921,26.2284525 31.3098564,27.1529376 31.0708168,27.7681752 C30.7540149,28.5830861 30.3756683,29.1647792 29.7647277,29.7757198 C29.1537871,30.3867297 28.5720941,30.7650762 27.7571139,31.0818089 C27.1418762,31.3208485 26.2173911,31.6053535 24.5150743,31.6829772 C22.6742822,31.7669772 22.1221832,31.7847891 17.4598366,31.7847891 C12.7974901,31.7847891 12.2453911,31.7669772 10.404599,31.6829772 C8.70228218,31.6053535 7.77772772,31.3208485 7.1624901,31.0818089 C6.34757921,30.7650762 5.76588614,30.3867297 5.15494554,29.7757198 C4.54400495,29.1647792 4.16558911,28.5830861 3.84885644,27.7681752 C3.60981683,27.1529376 3.32538119,26.2284525 3.24768812,24.5261356 C3.16368812,22.6850663 3.14594554,22.1328287 3.14594554,17.4708287 C3.14594554,12.808898 3.16368812,12.2566604 3.24768812,10.4155911 C3.32538119,8.71327426 3.60981683,7.78878911 3.84885644,7.17355149 C4.16558911,6.35857129 4.54400495,5.77694752 5.15494554,5.16600693 C5.76588614,4.55499703 6.34757921,4.1766505 7.1624901,3.85991782 C7.77772772,3.62080891 8.70228218,3.33637327 10.4045297,3.2586802 C12.2456683,3.1746802 12.7978366,3.15693762 17.4598366,3.15693762" id="Fill-1" fill="#FFFFFF" mask="url(#mask-2)"></path>
                </g>
                <path d="M17.4598366,23.349096 C14.2455891,23.349096 11.6398564,20.7433634 11.6398564,17.5291158 C11.6398564,14.3148683 14.2455891,11.709205 17.4598366,11.709205 C20.6740842,11.709205 23.2798168,14.3148683 23.2798168,17.5291158 C23.2798168,20.7433634 20.6740842,23.349096 17.4598366,23.349096 M17.4598366,8.56329406 C12.5081337,8.56329406 8.49394554,12.5774129 8.49394554,17.5291158 C8.49394554,22.4808881 12.5081337,26.4950069 17.4598366,26.4950069 C22.4115396,26.4950069 26.4256584,22.4808881 26.4256584,17.5291158 C26.4256584,12.5774129 22.4115396,8.56329406 17.4598366,8.56329406" id="Fill-4" fill="#FFFFFF"></path>
                <path d="M28.8751109,8.20905248 C28.8751109,9.36620099 27.9371109,10.304201 26.7799624,10.304201 C25.6228139,10.304201 24.6847446,9.36620099 24.6847446,8.20905248 C24.6847446,7.05190396 25.6228139,6.11390396 26.7799624,6.11390396 C27.9371109,6.11390396 28.8751109,7.05190396 28.8751109,8.20905248" id="Fill-6" fill="#FFFFFF"></path>
            </g>
        </g>
    </g>
</svg>