<?xml version="1.0" encoding="UTF-8"?>
<svg width="161px" height="225px" viewBox="0 0 161 225" version="1.1" xmlns="http://www.w3.org/2000/svg" xmlns:xlink="http://www.w3.org/1999/xlink">
    <!-- Generator: Sketch 51.3 (57544) - http://www.bohemiancoding.com/sketch -->
    <title>jobs_build</title>
    <desc>Created with Sketch.</desc>
    <defs>
        <polygon id="path-1" points="0.388571429 11.5405714 0.388571429 56.0382857 19.6742857 44.9011429 19.6742857 0.404"></polygon>
        <linearGradient x1="-47.1184841%" y1="83.6660758%" x2="147.118554%" y2="16.3334954%" id="linearGradient-3">
            <stop stop-color="#4DE9EF" offset="0%"></stop>
            <stop stop-color="#54BFFF" offset="100%"></stop>
        </linearGradient>
        <polygon id="path-4" points="0.525714286 11.2611429 19.8171429 22.3977143 39.1028571 11.2611429 19.8171429 0.123428571"></polygon>
        <linearGradient x1="1.98489112e-05%" y1="50.0020192%" x2="100.000012%" y2="50.0020192%" id="linearGradient-6">
            <stop stop-color="#4DE9EF" offset="0%"></stop>
            <stop stop-color="#52DDEF" offset="100%"></stop>
        </linearGradient>
        <polygon id="path-7" points="0.525714286 0.404 19.8171429 11.5411429 19.8171429 56.0382857 0.525714286 44.9011429"></polygon>
        <linearGradient x1="99.9427577%" y1="20.0068028%" x2="0.0572488152%" y2="79.9927528%" id="linearGradient-9">
            <stop stop-color="#52DFF4" offset="0%"></stop>
            <stop stop-color="#64D4FF" offset="100%"></stop>
        </linearGradient>
        <polygon id="path-10" points="19.76 11.364 19.76 11.3582857 0.468571429 0.221142857 0.468571429 22.4954286 19.7371429 33.6211429 19.7485714 33.6325714 39.0342857 44.7697143 39.0342857 22.4954286"></polygon>
        <linearGradient x1="2.22255149e-05%" y1="49.9997317%" x2="100.000019%" y2="49.9997317%" id="linearGradient-12">
            <stop stop-color="#5D97E4" offset="0%"></stop>
            <stop stop-color="#5B62E4" offset="100%"></stop>
        </linearGradient>
        <polygon id="path-13" points="39.04 11.6497143 39.0457143 11.6497143 19.76 0.512571429 0.468571429 11.6497143 39.0342857 33.924 58.3257143 22.7868571"></polygon>
        <linearGradient x1="1.48148148e-05%" y1="49.9996412%" x2="100.000022%" y2="49.9996412%" id="linearGradient-15">
            <stop stop-color="#5D97E4" offset="0%"></stop>
            <stop stop-color="#5B62E4" offset="100%"></stop>
        </linearGradient>
        <polygon id="path-16" points="19.4685714 22.7754286 0.177142857 33.9125714 0.177142857 11.6382857 19.4685714 0.501142857"></polygon>
        <linearGradient x1="3.7914692e-05%" y1="49.9996338%" x2="100.000067%" y2="49.9996338%" id="linearGradient-18">
            <stop stop-color="#5D97E4" offset="0%"></stop>
            <stop stop-color="#5B62E4" offset="100%"></stop>
        </linearGradient>
        <polygon id="path-19" points="0.182857143 22.4154286 19.4742857 33.552 19.4742857 11.2782857 0.182857143 0.141142857"></polygon>
        <linearGradient x1="100.000051%" y1="100.00133%" x2="6.69431279e-05%" y2="-0.000375583643%" id="linearGradient-21">
            <stop stop-color="#38BAFB" offset="0%"></stop>
            <stop stop-color="#4D80ED" offset="100%"></stop>
        </linearGradient>
        <polygon id="path-22" points="19.3371429 22.4154286 0.0457142857 33.552 0.0457142857 11.2782857 19.3371429 0.141142857"></polygon>
        <linearGradient x1="5.06516587e-05%" y1="50.0004676%" x2="100.000034%" y2="50.0004676%" id="linearGradient-24">
            <stop stop-color="#66CCFF" offset="0%"></stop>
            <stop stop-color="#62BFE8" offset="100%"></stop>
        </linearGradient>
        <polygon id="path-25" points="19.3371429 22.4154286 0.0457142857 33.552 0.0457142857 11.2782857 19.3371429 0.141142857"></polygon>
        <linearGradient x1="5.06516587e-05%" y1="100.00133%" x2="100.000034%" y2="-0.000375583643%" id="linearGradient-27">
            <stop stop-color="#34C4FD" offset="0%"></stop>
            <stop stop-color="#4D80ED" offset="100%"></stop>
        </linearGradient>
        <polygon id="path-28" points="0.171428571 22.3925714 19.4628571 33.5297143 19.4628571 11.2548571 0.171428571 0.118285714"></polygon>
        <linearGradient x1="24.9949174%" y1="75.0004922%" x2="75.0052201%" y2="24.9987753%" id="linearGradient-30">
            <stop stop-color="#5D8EE4" offset="0%"></stop>
            <stop stop-color="#5B62E4" offset="100%"></stop>
        </linearGradient>
        <polygon id="path-31" points="0.171428571 11.5468571 19.4628571 22.6834286 38.7485714 11.5468571 19.4628571 0.409142857"></polygon>
        <linearGradient x1="2.29595615e-05%" y1="50.0019997%" x2="100.000015%" y2="50.0019997%" id="linearGradient-33">
            <stop stop-color="#5D97E4" offset="0%"></stop>
            <stop stop-color="#5B62E4" offset="100%"></stop>
        </linearGradient>
        <polygon id="path-34" points="19.32 22.3925714 0.0342857143 33.5297143 0.0342857143 11.2554286 19.32 0.118285714"></polygon>
        <linearGradient x1="100.003723%" y1="66.6626025%" x2="-0.00368059259%" y2="33.3366942%" id="linearGradient-36">
            <stop stop-color="#5D8CE9" offset="0%"></stop>
            <stop stop-color="#6062FF" offset="100%"></stop>
        </linearGradient>
        <polygon id="path-37" points="0.462857143 22.4211429 19.7485714 33.5582857 19.7485714 11.284 0.462857143 0.146285714"></polygon>
        <linearGradient x1="-18.3056486%" y1="10.5652529%" x2="118.305725%" y2="89.435696%" id="linearGradient-39">
            <stop stop-color="#17C6FF" offset="0%"></stop>
            <stop stop-color="#31A1FF" offset="100%"></stop>
        </linearGradient>
        <polygon id="path-40" points="58.3314286 11.3068571 39.04 0.169714286 19.76 11.3011429 19.7485714 11.2954286 0.462857143 22.432 19.7485714 33.5697143 19.7485714 33.7125714"></polygon>
        <linearGradient x1="1.26394786e-05%" y1="49.9996416%" x2="100.000017%" y2="49.9996416%" id="linearGradient-42">
            <stop stop-color="#00D8FF" offset="0%"></stop>
            <stop stop-color="#1DAEFF" offset="100%"></stop>
        </linearGradient>
        <polygon id="path-43" points="38.9028571 22.724 38.9028571 0.449714286 19.6228571 11.5811429 19.6114286 11.5748571 0.32 22.7125714 0.32 44.9868571 19.6114286 33.8554286 19.6114286 56.0897143 38.9028571 44.9525714"></polygon>
        <linearGradient x1="24.9805798%" y1="90.0465173%" x2="99.9669687%" y2="-0.0134664681%" id="linearGradient-45">
            <stop stop-color="#00CCFF" offset="0%"></stop>
            <stop stop-color="#3D80FF" offset="100%"></stop>
        </linearGradient>
        <polygon id="path-46" points="19.6114286 22.552 0.32 33.6897143 0.32 11.4154286 19.6114286 0.278285714"></polygon>
        <linearGradient x1="50.0000524%" y1="-0.000353172567%" x2="50.0000524%" y2="99.9996489%" id="linearGradient-48">
            <stop stop-color="#59C8EF" offset="0%"></stop>
            <stop stop-color="#52DDEF" offset="100%"></stop>
        </linearGradient>
        <polygon id="path-49" points="0.171428571 22.4491429 19.4514286 33.5748571 19.4514286 33.5868571 19.4514286 55.8097143 38.7371429 66.9468571 38.7485714 66.9411429 38.7485714 67.124 58.0342857 78.2605714 58.0342857 55.9868571 57.9142857 55.9182857 58.0342857 55.844 38.7371429 44.6897143 38.7371429 22.4491429 38.7314286 22.4434286 38.7485714 22.4325714 0.171428571 0.169714286"></polygon>
        <linearGradient x1="91.7740772%" y1="103.519647%" x2="8.33443462%" y2="-3.5656341%" id="linearGradient-51">
            <stop stop-color="#4DE9EF" offset="0%"></stop>
            <stop stop-color="#64CDE9" offset="100%"></stop>
        </linearGradient>
        <polygon id="path-52" points="0.171428571 11.5982857 38.7371429 33.8777143 58.0285714 22.7411429 19.4628571 0.461142857"></polygon>
        <linearGradient x1="1.5308642e-05%" y1="50.0004846%" x2="100.000015%" y2="50.0004846%" id="linearGradient-54">
            <stop stop-color="#4DE9EF" offset="0%"></stop>
            <stop stop-color="#52DDEF" offset="100%"></stop>
        </linearGradient>
        <polygon id="path-55" points="0.394285714 11.4897143 0.394285714 55.9868571 19.6857143 44.8497143 19.6857143 0.346857143"></polygon>
        <linearGradient x1="5.242891e-05%" y1="49.9997726%" x2="100.000036%" y2="49.9997726%" id="linearGradient-57">
            <stop stop-color="#237BFF" offset="0%"></stop>
            <stop stop-color="#4B80FF" offset="100%"></stop>
        </linearGradient>
        <polygon id="path-58" points="0.537142857 44.8497143 19.8228571 55.9868571 19.8228571 33.7525714 19.84 33.7754286 39.1257143 44.912 39.1257143 22.6154286 19.8228571 11.5068571 19.8228571 11.4897143 0.537142857 0.346857143"></polygon>
        <linearGradient x1="0.0377099067%" y1="-0.0153002978%" x2="75.0449391%" y2="90.0885465%" id="linearGradient-60">
            <stop stop-color="#11CCFF" offset="0%"></stop>
            <stop stop-color="#3B95FF" offset="100%"></stop>
        </linearGradient>
        <polygon id="path-61" points="0.537142857 11.204 2.61142857 12.404 19.8228571 22.3405714 19.8348571 22.3405714 39.1257143 33.4725714 58.4171429 22.3297143 39.1257143 11.1925714 39.0971429 11.1925714 19.8228571 0.0668571429"></polygon>
        <linearGradient x1="1.37229736e-05%" y1="49.999661%" x2="100.000007%" y2="49.999661%" id="linearGradient-63">
            <stop stop-color="#00D8FF" offset="0%"></stop>
            <stop stop-color="#1DAEFF" offset="100%"></stop>
        </linearGradient>
        <polygon id="path-64" points="0.268571429 11.1868571 0.268571429 33.4834286 19.56 22.3468571 19.56 0.0497142857"></polygon>
        <linearGradient x1="-25.0230092%" y1="74.9944711%" x2="125.023113%" y2="25.0065304%" id="linearGradient-66">
            <stop stop-color="#11BAFF" offset="0%"></stop>
            <stop stop-color="#4B80FF" offset="100%"></stop>
        </linearGradient>
    </defs>
    <g id="Zeppelin-Desktop" stroke="none" stroke-width="1" fill="none" fill-rule="evenodd">
        <g id="Jobs" transform="translate(-951.000000, -641.000000)">
            <g id="jobs_build" transform="translate(952.000000, 642.000000)">
                <g id="Group-3" transform="translate(140.000000, 97.746286)">
                    <mask id="mask-2" fill="white">
                        <use xlink:href="#path-1"></use>
                    </mask>
                    <g id="Clip-2"></g>
                    <polygon id="Fill-1" fill="url(#linearGradient-3)" mask="url(#mask-2)" points="0.388571429 11.5405714 0.388571429 56.0382857 19.6742857 44.9011429 19.6742857 0.404"></polygon>
                </g>
                <path d="M0.5,145 L0.5,167 L0.5,145 Z" id="Stroke-208" stroke="#B8D6FF" stroke-width="0.5"></path>
                <polygon id="Stroke-4" stroke="#FFFFFF" stroke-width="0.5" points="140.388514 109.287314 159.674229 98.1501714 159.674229 142.647314 140.388514 153.784457"></polygon>
                <g id="Group-8" transform="translate(120.571429, 86.889143)">
                    <mask id="mask-5" fill="white">
                        <use xlink:href="#path-4"></use>
                    </mask>
                    <g id="Clip-7"></g>
                    <polygon id="Fill-6" fill="url(#linearGradient-6)" mask="url(#mask-5)" points="0.525714286 11.2611429 19.8171429 22.3977143 39.1028571 11.2611429 19.8171429 0.123428571"></polygon>
                </g>
                <polygon id="Stroke-9" stroke="#FFFFFF" stroke-width="0.5" points="140.388514 109.287314 121.097086 98.1501714 140.388514 87.0130286 159.674229 98.1501714"></polygon>
                <g id="Group-13" transform="translate(120.571429, 97.746286)">
                    <mask id="mask-8" fill="white">
                        <use xlink:href="#path-7"></use>
                    </mask>
                    <g id="Clip-12"></g>
                    <polygon id="Fill-11" fill="url(#linearGradient-9)" mask="url(#mask-8)" points="0.525714286 0.404 19.8171429 11.5411429 19.8171429 56.0382857 0.525714286 44.9011429"></polygon>
                </g>
                <polygon id="Stroke-14" stroke="#FFFFFF" stroke-width="0.5" points="121.097257 98.1500571 140.388686 109.2872 140.388686 153.784343 121.097257 142.6472"></polygon>
                <g id="Group-22" transform="translate(26.857143, 114.889143)" stroke="#FFFFFF" stroke-width="0.5">
                    <g id="Group-19">
                        <path d="M2.20577143,0.3524 L2.20577143,4.8324" id="Stroke-15"></path>
                        <path d="M0.262971429,3.71234286 L4.14297143,1.47234286" id="Stroke-17"></path>
                    </g>
                    <path d="M31.2286286,108.4724 L50.5143429,97.3352571 L31.2286286,86.1981143 L11.9372,97.3352571 L31.2286286,108.4724 Z" id="Stroke-20" stroke-dasharray="0.5705508365426012,1.141101673085202"></path>
                </g>
                <path d="M19.4114286,201.144457 L38.7028571,212.2816" id="Stroke-23" stroke="#FFFFFF" stroke-width="0.5" stroke-dasharray="0.5705508365426012,1.141101673085202"></path>
                <path d="M96.7543429,201.144457 L77.4629143,212.2816" id="Stroke-24" stroke="#FFFFFF" stroke-width="0.5" stroke-dasharray="0.5705508365426012,1.141101673085202"></path>
                <path d="M56.1429714,211.104286 L60.0229714,213.344286" id="Stroke-25" stroke="#FFFFFF" stroke-width="0.5"></path>
                <path d="M60.0227429,211.104286 L56.1427429,213.344286" id="Stroke-26" stroke="#FFFFFF" stroke-width="0.5"></path>
                <path d="M36.8000571,199.869886 L40.6800571,202.110457" id="Stroke-27" stroke="#FFFFFF" stroke-width="0.5"></path>
                <path d="M40.6801143,199.869886 L36.8001143,202.110457" id="Stroke-28" stroke="#FFFFFF" stroke-width="0.5"></path>
                <path d="M75.3885143,199.869886 L79.2685143,202.110457" id="Stroke-29" stroke="#FFFFFF" stroke-width="0.5"></path>
                <path d="M79.2685714,199.869886 L75.3885714,202.110457" id="Stroke-30" stroke="#FFFFFF" stroke-width="0.5"></path>
                <g id="Group-33" transform="translate(38.285714, 100.603429)">
                    <mask id="mask-11" fill="white">
                        <use xlink:href="#path-10"></use>
                    </mask>
                    <g id="Clip-32"></g>
                    <polygon id="Fill-31" fill="url(#linearGradient-12)" mask="url(#mask-11)" points="19.76 11.364 19.76 11.3582857 0.468571429 0.221142857 0.468571429 22.4954286 19.7371429 33.6211429 19.7485714 33.6325714 39.0342857 44.7697143 39.0342857 22.4954286"></polygon>
                </g>
                <polygon id="Stroke-34" stroke="#FFFFFF" stroke-width="0.5" points="58.0456 111.967257 58.0456 111.961543 38.7541714 100.8244 38.7541714 123.098686 58.0227429 134.2244 58.0341714 134.235829 77.3198857 145.372971 77.3198857 123.098686"></polygon>
                <g id="Group-39" transform="translate(38.285714, 100.603429)">
                    <polygon id="Fill-35" fill="#5C62E4" points="19.7598857 11.3638286 19.7598857 11.3581143 0.468457143 0.220971429 0.468457143 22.4952571 19.7370286 33.6209714 19.7484571 33.6324 39.0341714 44.7695429 39.0341714 22.4952571"></polygon>
                    <polygon id="Stroke-37" stroke="#FFFFFF" stroke-width="0.5" points="19.7598857 11.3638286 19.7598857 11.3581143 0.468457143 0.220971429 0.468457143 22.4952571 19.7370286 33.6209714 19.7484571 33.6324 39.0341714 44.7695429 39.0341714 22.4952571"></polygon>
                </g>
                <g id="Group-42" transform="translate(38.285714, 89.174857)">
                    <mask id="mask-14" fill="white">
                        <use xlink:href="#path-13"></use>
                    </mask>
                    <g id="Clip-41"></g>
                    <polygon id="Fill-40" fill="url(#linearGradient-15)" mask="url(#mask-14)" points="39.04 11.6497143 39.0457143 11.6497143 19.76 0.512571429 0.468571429 11.6497143 39.0342857 33.924 58.3257143 22.7868571"></polygon>
                </g>
                <polygon id="Stroke-43" stroke="#FFFFFF" stroke-width="0.5" points="77.3257714 100.8244 77.3314857 100.8244 58.0457714 89.6872571 38.7543429 100.8244 77.3200571 123.098686 96.6114857 111.961543"></polygon>
                <g id="Group-46" transform="translate(77.142857, 111.460571)">
                    <mask id="mask-17" fill="white">
                        <use xlink:href="#path-16"></use>
                    </mask>
                    <g id="Clip-45"></g>
                    <polygon id="Fill-44" fill="url(#linearGradient-18)" mask="url(#mask-17)" points="19.4685714 22.7754286 0.177142857 33.9125714 0.177142857 11.6382857 19.4685714 0.501142857"></polygon>
                </g>
                <polygon id="Stroke-47" stroke="#FFFFFF" stroke-width="0.5" points="96.6114857 134.235943 77.3200571 145.373086 77.3200571 123.0988 96.6114857 111.961657"></polygon>
                <g id="Group-50" transform="translate(77.142857, 167.460571)">
                    <mask id="mask-20" fill="white">
                        <use xlink:href="#path-19"></use>
                    </mask>
                    <g id="Clip-49"></g>
                    <polygon id="Fill-48" fill="url(#linearGradient-21)" mask="url(#mask-20)" points="0.182857143 22.4154286 19.4742857 33.552 19.4742857 11.2782857 0.182857143 0.141142857"></polygon>
                </g>
                <polygon id="Stroke-51" stroke="#FFFFFF" stroke-width="0.5" points="77.3257714 189.876057 96.6172 201.012629 96.6172 178.738914 77.3257714 167.601771"></polygon>
                <polygon id="Fill-52" fill="#3E81F7" points="96.6170286 178.738743 77.3256 167.6016 96.6170286 156.464457 115.908457 167.6016"></polygon>
                <polygon id="Stroke-53" stroke="#FFFFFF" stroke-width="0.5" points="96.6170286 178.738743 77.3256 167.6016 96.6170286 156.464457 115.908457 167.6016"></polygon>
                <g id="Group-56" transform="translate(96.571429, 167.460571)">
                    <mask id="mask-23" fill="white">
                        <use xlink:href="#path-22"></use>
                    </mask>
                    <g id="Clip-55"></g>
                    <polygon id="Fill-54" fill="url(#linearGradient-24)" mask="url(#mask-23)" points="19.3371429 22.4154286 0.0457142857 33.552 0.0457142857 11.2782857 19.3371429 0.141142857"></polygon>
                </g>
                <polygon id="Stroke-57" stroke="#FFFFFF" stroke-width="0.5" points="115.908629 189.876057 96.6172 201.012629 96.6172 178.738914 115.908629 167.601771"></polygon>
                <g id="Group-60" transform="translate(96.571429, 167.460571)">
                    <mask id="mask-26" fill="white">
                        <use xlink:href="#path-25"></use>
                    </mask>
                    <g id="Clip-59"></g>
                    <polygon id="Fill-58" fill="url(#linearGradient-27)" mask="url(#mask-26)" points="19.3371429 22.4154286 0.0457142857 33.552 0.0457142857 11.2782857 19.3371429 0.141142857"></polygon>
                </g>
                <polygon id="Stroke-61" stroke="#FFFFFF" stroke-width="0.5" points="115.908629 189.876057 96.6172 201.012629 96.6172 178.738914 115.908629 167.601771"></polygon>
                <g id="Group-64" transform="translate(0.000000, 167.460571)">
                    <mask id="mask-29" fill="white">
                        <use xlink:href="#path-28"></use>
                    </mask>
                    <g id="Clip-63"></g>
                    <polygon id="Fill-62" fill="url(#linearGradient-30)" mask="url(#mask-29)" points="0.171428571 22.3925714 19.4628571 33.5297143 19.4628571 11.2548571 0.171428571 0.118285714"></polygon>
                </g>
                <polygon id="Stroke-65" stroke="#FFFFFF" stroke-width="0.5" points="0.171428571 189.853143 19.4628571 200.990286 19.4628571 178.716 0.171428571 167.578857"></polygon>
                <g id="Group-69" transform="translate(0.000000, 156.032000)">
                    <mask id="mask-32" fill="white">
                        <use xlink:href="#path-31"></use>
                    </mask>
                    <g id="Clip-68"></g>
                    <polygon id="Fill-67" fill="url(#linearGradient-33)" mask="url(#mask-32)" points="0.171428571 11.5468571 19.4628571 22.6834286 38.7485714 11.5468571 19.4628571 0.409142857"></polygon>
                </g>
                <g id="Group-77" transform="translate(0.000000, 156.032000)">
                    <polygon id="Stroke-70" stroke="#FFFFFF" stroke-width="0.5" points="19.4627429 22.6838857 0.171314286 11.5467429 19.4627429 0.4096 38.7484571 11.5467429"></polygon>
                    <g id="Group-76">
                        <polygon id="Fill-72" fill="#444DBC" points="19.4627429 22.6838857 0.171314286 11.5467429 19.4627429 0.4096 38.7484571 11.5467429"></polygon>
                        <polygon id="Stroke-74" stroke="#FFFFFF" stroke-width="0.5" points="19.4627429 22.6838857 0.171314286 11.5467429 19.4627429 0.4096 38.7484571 11.5467429"></polygon>
                    </g>
                </g>
                <g id="Group-80" transform="translate(19.428571, 167.460571)">
                    <mask id="mask-35" fill="white">
                        <use xlink:href="#path-34"></use>
                    </mask>
                    <g id="Clip-79"></g>
                    <polygon id="Fill-78" fill="url(#linearGradient-36)" mask="url(#mask-35)" points="19.32 22.3925714 0.0342857143 33.5297143 0.0342857143 11.2554286 19.32 0.118285714"></polygon>
                </g>
                <polygon id="Stroke-81" stroke="#FFFFFF" stroke-width="0.5" points="38.7484571 189.853143 19.4627429 200.990286 19.4627429 178.716 38.7484571 167.578857"></polygon>
                <g id="Group-84" transform="translate(38.285714, 145.174857)">
                    <mask id="mask-38" fill="white">
                        <use xlink:href="#path-37"></use>
                    </mask>
                    <g id="Clip-83"></g>
                    <polygon id="Fill-82" fill="url(#linearGradient-39)" mask="url(#mask-38)" points="0.462857143 22.4211429 19.7485714 33.5582857 19.7485714 11.284 0.462857143 0.146285714"></polygon>
                </g>
                <polygon id="Stroke-85" stroke="#FFFFFF" stroke-width="0.5" points="38.7484571 167.595886 58.0341714 178.733029 58.0341714 156.458743 38.7484571 145.3216"></polygon>
                <g id="Group-88" transform="translate(38.285714, 122.889143)">
                    <mask id="mask-41" fill="white">
                        <use xlink:href="#path-40"></use>
                    </mask>
                    <g id="Clip-87"></g>
                    <polygon id="Fill-86" fill="url(#linearGradient-42)" mask="url(#mask-41)" points="58.3314286 11.3068571 39.04 0.169714286 19.76 11.3011429 19.7485714 11.2954286 0.462857143 22.432 19.7485714 33.5697143 19.7485714 33.7125714"></polygon>
                </g>
                <polygon id="Stroke-89" stroke="#FFFFFF" stroke-width="0.5" points="96.6170286 134.195771 77.3256 123.058629 58.0456 134.190057 58.0341714 134.184343 38.7484571 145.321486 58.0341714 156.458629 58.0341714 156.601486"></polygon>
                <g id="Group-92" transform="translate(57.714286, 133.746286)">
                    <mask id="mask-44" fill="white">
                        <use xlink:href="#path-43"></use>
                    </mask>
                    <g id="Clip-91"></g>
                    <polygon id="Fill-90" fill="url(#linearGradient-45)" mask="url(#mask-44)" points="38.9028571 22.724 38.9028571 0.449714286 19.6228571 11.5811429 19.6114286 11.5748571 0.32 22.7125714 0.32 44.9868571 19.6114286 33.8554286 19.6114286 56.0897143 38.9028571 44.9525714"></polygon>
                </g>
                <polygon id="Stroke-93" stroke="#FFFFFF" stroke-width="0.5" points="96.6170286 156.470343 96.6170286 134.196057 77.3370286 145.327486 77.3256 145.3212 58.0341714 156.458343 58.0341714 178.7332 77.3256 167.6012 77.3256 189.836057 96.6170286 178.698343"></polygon>
                <g id="Group-96" transform="translate(57.714286, 167.460571)">
                    <mask id="mask-47" fill="white">
                        <use xlink:href="#path-46"></use>
                    </mask>
                    <g id="Clip-95"></g>
                    <polygon id="Fill-94" fill="url(#linearGradient-48)" mask="url(#mask-47)" points="19.6114286 22.552 0.32 33.6897143 0.32 11.4154286 19.6114286 0.278285714"></polygon>
                </g>
                <polygon id="Stroke-97" stroke="#FFFFFF" stroke-width="0.5" points="77.3257714 190.012743 58.0343429 201.149886 58.0343429 178.876171 77.3257714 167.739029"></polygon>
                <g id="Group-100" transform="translate(0.000000, 122.889143)">
                    <mask id="mask-50" fill="white">
                        <use xlink:href="#path-49"></use>
                    </mask>
                    <g id="Clip-99"></g>
                    <polygon id="Fill-98" fill="url(#linearGradient-51)" mask="url(#mask-50)" points="0.171428571 22.4491429 19.4514286 33.5748571 19.4514286 33.5868571 19.4514286 55.8097143 38.7371429 66.9468571 38.7485714 66.9411429 38.7485714 67.124 58.0342857 78.2605714 58.0342857 55.9868571 57.9142857 55.9182857 58.0342857 55.844 38.7371429 44.6897143 38.7371429 22.4491429 38.7314286 22.4434286 38.7485714 22.4325714 0.171428571 0.169714286"></polygon>
                </g>
                <polygon id="Stroke-101" stroke="#FFFFFF" stroke-width="0.5" points="58.0341714 178.7332 38.7370286 167.578343 38.7370286 145.338914 38.7313143 145.3332 38.7484571 145.3212 0.171314286 123.058914 0.171314286 145.338914 19.4513143 156.464057 19.4513143 156.476057 19.4513143 178.698343 38.7370286 189.836057 38.7484571 189.830343 38.7484571 190.012629 58.0341714 201.149771 58.0341714 178.876057 57.9141714 178.807486"></polygon>
                <g id="Group-105" transform="translate(0.000000, 111.460571)">
                    <mask id="mask-53" fill="white">
                        <use xlink:href="#path-52"></use>
                    </mask>
                    <g id="Clip-104"></g>
                    <polygon id="Fill-103" fill="url(#linearGradient-54)" mask="url(#mask-53)" points="0.171428571 11.5982857 38.7371429 33.8777143 58.0285714 22.7411429 19.4628571 0.461142857"></polygon>
                </g>
                <g id="Group-121" transform="translate(0.000000, 111.460571)">
                    <polygon id="Stroke-106" stroke="#FFFFFF" stroke-width="0.5" points="19.4627429 0.460971429 0.171314286 11.5981143 38.7370286 33.8781143 58.0284571 22.7409714"></polygon>
                    <g id="Group-120" transform="translate(38.285714, 11.428571)">
                        <polygon id="Fill-108" fill="#17CEFF" points="0.462742857 44.7067429 19.7484571 55.8438857 19.7484571 33.5696 0.462742857 22.4324571"></polygon>
                        <polygon id="Stroke-110" stroke="#FFFFFF" stroke-width="0.5" stroke-linecap="round" stroke-linejoin="round" points="0.462742857 44.7067429 19.7484571 55.8438857 19.7484571 33.5696 0.462742857 22.4324571"></polygon>
                        <polygon id="Fill-112" fill="#17CEFF" points="58.3313143 11.3066286 39.0398857 0.169485714 19.7598857 11.3009143 19.7484571 11.2952 0.462742857 22.4323429 19.7484571 33.5694857 19.7484571 33.7123429"></polygon>
                        <polygon id="Stroke-114" stroke="#FFFFFF" stroke-width="0.5" stroke-linecap="round" stroke-linejoin="round" points="58.3313143 11.3066286 39.0398857 0.169485714 19.7598857 11.3009143 19.7484571 11.2952 0.462742857 22.4323429 19.7484571 33.5694857 19.7484571 33.7123429"></polygon>
                        <polygon id="Fill-116" fill="#17CEFF" points="58.3313143 33.5812 58.3313143 11.3069143 39.0513143 22.4383429 39.0398857 22.4320571 19.7484571 33.5692 19.7484571 55.8440571 39.0398857 44.7120571 39.0398857 66.9469143 58.3313143 55.8092"></polygon>
                        <polygon id="Stroke-118" stroke="#FFFFFF" stroke-width="0.5" stroke-linecap="round" stroke-linejoin="round" points="58.3313143 33.5812 58.3313143 11.3069143 39.0513143 22.4383429 39.0398857 22.4320571 19.7484571 33.5692 19.7484571 55.8440571 39.0398857 44.7120571 39.0398857 66.9469143 58.3313143 55.8092"></polygon>
                    </g>
                </g>
                <path d="M96.6513714,112.0588 L115.9428,123.195943 L97.2113714,133.915943" id="Stroke-122" stroke="#FFFFFF" stroke-width="0.5" stroke-dasharray="0.5705508365426012,1.141101673085202"></path>
                <g id="Group-127" transform="translate(94.285714, 121.746286)" stroke="#FFFFFF" stroke-width="0.5">
                    <path d="M4.30845714,0.329542857 L0.422742857,2.56954286" id="Stroke-123"></path>
                    <path d="M0.422857143,0.329542857 L4.30857143,2.56954286" id="Stroke-125"></path>
                </g>
                <path d="M115.942914,123.195771 L115.942914,145.470057 L96.6514857,134.332914" id="Stroke-128" stroke="#FFFFFF" stroke-width="0.5" stroke-dasharray="0.5705508365426012,1.141101673085202"></path>
                <g id="Group-133" transform="translate(104.000000, 126.317714)" stroke="#FFFFFF" stroke-width="0.5">
                    <path d="M4.24011429,3.56948571 L0.3544,1.32948571" id="Stroke-129"></path>
                    <path d="M2.29725714,0.209542857 L2.29725714,4.68954286" id="Stroke-131"></path>
                </g>
                <path d="M115.942914,145.481486 L115.942914,167.755771" id="Stroke-134" stroke="#FFFFFF" stroke-width="0.5" stroke-dasharray="0.5705508365426012,1.141101673085202"></path>
                <g id="Group-139" transform="translate(104.000000, 148.603429)" stroke="#FFFFFF" stroke-width="0.5">
                    <path d="M4.24011429,3.56388571 L0.3544,1.32388571" id="Stroke-135"></path>
                    <path d="M2.29725714,0.203942857 L2.29725714,4.68394286" id="Stroke-137"></path>
                </g>
                <path d="M140.388514,131.510229 L140.388514,153.784514 L121.097086,142.647371 L121.097086,120.373086" id="Stroke-140" stroke="#FFFFFF" stroke-width="0.5" stroke-dasharray="0.5705508365426012,1.141101673085202"></path>
                <g id="Group-187" transform="translate(7.000000, 98.000000)">
                    <path d="M123.5096,38.7871429 C123.7336,38.6574286 124.020457,38.7345714 124.1496,38.9585714 C124.278743,39.1825714 124.202171,39.4694286 123.978171,39.5985714 C123.754171,39.7282857 123.467314,39.6511429 123.338171,39.4271429 C123.208457,39.2031429 123.285029,38.9168571 123.5096,38.7871429" id="Fill-141" fill="#FFFFFF"></path>
                    <path d="M133.388514,11.3981714 L133.388514,33.6724571 L114.097086,22.5353143 L114.097086,0.261028571 L133.388514,11.3981714 Z" id="Stroke-143" stroke="#FFFFFF" stroke-width="0.5" stroke-dasharray="0.5705508365426012,1.141101673085202"></path>
                    <path d="M123.5124,16.5644571 C123.7364,16.4347429 124.023257,16.5118857 124.1524,16.7358857 C124.282114,16.9598857 124.204971,17.2467429 123.980971,17.3758857 C123.756971,17.5050286 123.470114,17.4284571 123.340971,17.2044571 C123.211257,16.9804571 123.2884,16.6941714 123.5124,16.5644571" id="Fill-145" fill="#FFFFFF"></path>
                    <g id="Group-173" transform="translate(0.428571, 52.428571)" stroke="#FFFFFF" stroke-width="0.5">
                        <path d="M0.445714286,1.68388571 L2.38857143,0.563885714" id="Stroke-169"></path>
                        <path d="M2.38851429,0.563885714 L2.38851429,2.80388571" id="Stroke-171"></path>
                    </g>
                    <g id="Group-180" transform="translate(0.428571, 61.571429)" stroke="#FFFFFF" stroke-width="0.5">
                        <path d="M4.33131429,3.68388571 L0.4456,1.44388571" id="Stroke-176"></path>
                        <path d="M2.38851429,0.323942857 L2.38851429,4.80394286" id="Stroke-178"></path>
                    </g>
                </g>
                <g id="Group-190" transform="translate(38.285714, 10.889143)">
                    <mask id="mask-56" fill="white">
                        <use xlink:href="#path-55"></use>
                    </mask>
                    <g id="Clip-189"></g>
                    <polygon id="Fill-188" fill="url(#linearGradient-57)" mask="url(#mask-56)" points="0.394285714 11.4897143 0.394285714 55.9868571 19.6857143 44.8497143 19.6857143 0.346857143"></polygon>
                </g>
                <polygon id="Stroke-191" stroke="#FFFFFF" stroke-width="0.5" points="57.9714286 11.2359429 38.68 22.3788 38.68 66.8759429 57.9714286 55.7388"></polygon>
                <g id="Group-195" transform="translate(18.857143, 10.889143)">
                    <mask id="mask-59" fill="white">
                        <use xlink:href="#path-58"></use>
                    </mask>
                    <g id="Clip-194"></g>
                    <polygon id="Fill-193" fill="url(#linearGradient-60)" mask="url(#mask-59)" points="0.537142857 44.8497143 19.8228571 55.9868571 19.8228571 33.7525714 19.84 33.7754286 39.1257143 44.912 39.1257143 22.6154286 19.8228571 11.5068571 19.8228571 11.4897143 0.537142857 0.346857143"></polygon>
                </g>
                <polygon id="Stroke-196" stroke="#FFFFFF" stroke-width="0.5" points="38.6801143 22.3958286 38.6801143 22.3786857 19.3944 11.2358286 19.3944 55.7386857 38.6801143 66.8758286 38.6801143 44.6415429 38.6972571 44.6644 57.9829714 55.8015429 57.9829714 33.5044"></polygon>
                <g id="Group-200" transform="translate(18.857143, 0.032000)">
                    <mask id="mask-62" fill="white">
                        <use xlink:href="#path-61"></use>
                    </mask>
                    <g id="Clip-199"></g>
                    <polygon id="Fill-198" fill="url(#linearGradient-63)" mask="url(#mask-62)" points="0.537142857 11.204 2.61142857 12.404 19.8228571 22.3405714 19.8348571 22.3405714 39.1257143 33.4725714 58.4171429 22.3297143 39.1257143 11.1925714 39.0971429 11.1925714 19.8228571 0.0668571429"></polygon>
                </g>
                <polygon id="Stroke-201" stroke="#FFFFFF" stroke-width="0.5" points="77.2744 22.3615429 57.9829714 11.2244 57.9544 11.2244 38.6801143 0.0986857143 19.3944 11.2358286 21.4686857 12.4358286 38.6801143 22.3729714 38.6915429 22.3729714 57.9829714 33.5044"></polygon>
                <g id="Group-205" transform="translate(57.714286, 22.317714)">
                    <mask id="mask-65" fill="white">
                        <use xlink:href="#path-64"></use>
                    </mask>
                    <g id="Clip-204"></g>
                    <polygon id="Fill-203" fill="url(#linearGradient-66)" mask="url(#mask-65)" points="0.268571429 11.1868571 0.268571429 33.4834286 19.56 22.3468571 19.56 0.0497142857"></polygon>
                </g>
                <g id="Group-231" transform="translate(18.857143, 22.317714)" stroke="#FFFFFF" stroke-width="0.5">
                    <polygon id="Stroke-206" points="58.4172571 0.0496571429 39.1258286 11.1868 39.1258286 33.4839429 58.4172571 22.3468"></polygon>
                    <path d="M19.8458286,100.729657 L0.560114286,89.5925143 L7.04311941,85.8486989 L19.8458286,78.4553714 L39.1372571,89.5925143 L19.8458286,100.729657 Z" id="Stroke-208" stroke-dasharray="0.5705508365426012,1.141101673085202"></path>
                    <g id="Group-214" transform="translate(17.714286, 88.000000)">
                        <path d="M4.07434286,0.4724 L0.194342857,2.7124" id="Stroke-210"></path>
                        <path d="M0.194342857,0.4724 L4.07434286,2.7124" id="Stroke-212"></path>
                    </g>
                    <path d="M39.1770286,89.6266857 L58.4684571,100.763829 L39.1770286,111.900971 L19.8913143,100.763829" id="Stroke-215" stroke-dasharray="0.5705508365426012,1.141101673085202"></path>
                    <g id="Group-221" transform="translate(37.142857, 99.428571)">
                        <path d="M3.97725714,0.209542857 L0.0972571429,2.45525714" id="Stroke-217"></path>
                        <path d="M0.0972571429,0.209542857 L3.97725714,2.45525714" id="Stroke-219"></path>
                    </g>
                    <path d="M39.1371429,33.4210286 L19.8457143,44.5581714 L0.56,33.4210286" id="Stroke-222" stroke-dasharray="0.5705508365426012,1.141101673085202"></path>
                    <path d="M58.6457714,22.2781714 L39.3543429,33.4153143 L20.0629143,22.2781714" id="Stroke-224" stroke-dasharray="0.5705508365426012,1.141101673085202"></path>
                    <g id="Group-230" transform="translate(85.142857, 137.142857)">
                        <path d="M0.354228571,3.78657143 L4.23994286,1.54657143" id="Stroke-226"></path>
                        <path d="M2.29725714,0.426628571 L2.29725714,4.91291429" id="Stroke-228"></path>
                    </g>
                </g>
                <path d="M20,112 L39,101 L20,112 Z" id="Stroke-208" stroke="#B8D6FF" stroke-width="0.5"></path>
                <path d="M58,223 L20,201 L58,223 Z" id="Stroke-208" stroke="#B8D6FF" stroke-width="0.5"></path>
                <path d="M96,223 L58,201 L96,223 Z" id="Stroke-208" stroke="#B8D6FF" stroke-width="0.5" transform="translate(77.000000, 212.000000) scale(-1, 1) translate(-77.000000, -212.000000) "></path>
                <path d="M58,223 L58,201 L58,223 Z" id="Stroke-208" stroke="#B8D6FF" stroke-width="0.5"></path>
            </g>
        </g>
    </g>
</svg>