<svg id="Layer_1" data-name="Layer 1" xmlns="http://www.w3.org/2000/svg" viewBox="0 0 129.04 28.35"><defs><style>.cls-1{fill:#fff;}</style></defs><title>logoZeppelin</title><path class="cls-1" d="M34.79,18.46l6.82-9.32H34.79V7.83h8.49V9.14L36.5,18.46h6.78v1.31H34.79Z"/><path class="cls-1" d="M46.59,13.84c0-3.4,1.64-6.37,5.23-6.37,4,0,5.35,2.73,5.35,6.54v.12H48.11c0,2.52,1,4.68,3.9,4.68a3.41,3.41,0,0,0,3.47-2.62H57c-.5,2.52-2.28,3.92-5.11,3.92C48.06,20.12,46.59,16.91,46.59,13.84Zm9.06-.93c0-2.47-1.24-4.14-3.8-4.14s-3.69,1.95-3.69,4.14Z"/><path class="cls-1" d="M61.76,7.83h1.4V9.63h0a4,4,0,0,1,3.73-2.16c3.35,0,5.06,3.14,5.06,6.23s-1.71,6.42-5.06,6.42a4.09,4.09,0,0,1-3.73-2.21h0v6.42h-1.4Zm8.77,5.92c0-2.21-1-5-3.59-5s-3.88,2.64-3.88,5,1.21,5,3.88,5S70.53,16,70.53,13.75Z"/><path class="cls-1" d="M76.43,7.83h1.4V9.63h0a4,4,0,0,1,3.73-2.16c3.35,0,5.06,3.14,5.06,6.23S85,20.12,81.61,20.12a4.09,4.09,0,0,1-3.73-2.21h0v6.42h-1.4Zm8.77,5.92c0-2.21-1-5-3.59-5s-3.88,2.64-3.88,5,1.21,5,3.88,5S85.2,16,85.2,13.75Z"/><path class="cls-1" d="M90.6,13.84c0-3.4,1.64-6.37,5.23-6.37,4,0,5.35,2.73,5.35,6.54v.12H92.12c0,2.52,1,4.68,3.9,4.68a3.41,3.41,0,0,0,3.47-2.62H101c-.5,2.52-2.28,3.92-5.11,3.92C92.07,20.12,90.6,16.91,90.6,13.84Zm9.06-.93c0-2.47-1.24-4.14-3.8-4.14s-3.69,1.95-3.69,4.14Z"/><path class="cls-1" d="M106,2.6h1.38V19.76H106Z"/><path class="cls-1" d="M112.52,2.57h1.85v2h-1.85Zm.36,5.25h1.38V19.76h-1.38Z"/><path class="cls-1" d="M119.82,7.83h1.4V9.59l0,0a3.93,3.93,0,0,1,3.66-2.16c2.81,0,4.11,2.16,4.11,4.83v7.47h-1.4v-7.7a3,3,0,0,0-3.07-3.28c-2.24,0-3.35,2-3.35,4.11v6.87h-1.4Z"/><polygon id="Shape" class="cls-1" points="0.55 0 24.35 0 20.92 5.84 0.55 5.84 0.55 0"/><g id="_Group_" data-name="&lt;Group&gt;"><polygon id="_Path_" data-name="&lt;Path&gt;" class="cls-1" points="16.79 22.47 9.18 28.35 24.27 28.35 24.27 22.47 16.79 22.47"/><polygon id="_Path_2" data-name="&lt;Path&gt;" class="cls-1" points="3.63 22.47 0 28.35 7.78 28.35 11.21 22.47 3.63 22.47"/></g><polygon id="_Path_3" data-name="&lt;Path&gt;" class="cls-1" points="20.06 7.31 10.74 9.99 0 28.35 7.78 28.35 20.06 7.31"/></svg>