<?xml version="1.0" encoding="UTF-8"?>
<svg width="491px" height="100px" viewBox="0 0 491 100" version="1.1" xmlns="http://www.w3.org/2000/svg" xmlns:xlink="http://www.w3.org/1999/xlink">
    <!-- Generator: Sketch 55.2 (78181) - https://sketchapp.com -->
    <title>OZ_logo_complete_Contracts</title>
    <desc>Created with Sketch.</desc>
    <g id="presentación" stroke="none" stroke-width="1" fill="none" fill-rule="evenodd">
        <g id="Contracts">
            <path d="M356.480782,89.8333333 C350.335885,89.8333333 346,85.3854454 346,79.4166667 C346,73.5052801 350.3646,69 356.509497,69 C361.678102,69 365.296125,72.1852617 366.329846,76.4896694 L362.194962,76.4896694 C361.448386,74.1652893 359.266086,72.6443985 356.509497,72.6443985 C352.719186,72.6443985 349.962597,75.5426997 349.962597,79.4166667 C349.962597,83.3480257 352.719186,86.1889348 356.509497,86.1889348 C359.237371,86.1889348 361.448386,84.6967401 362.252391,82.401056 L366.444704,82.401056 C365.468412,86.7341598 361.649387,89.8333333 356.480782,89.8333333 Z M376.896772,89.8333333 C372.158884,89.8333333 368.856719,86.4185032 368.856719,81.9132231 C368.856719,77.4366391 372.130169,73.9931129 376.896772,73.9931129 C381.634659,73.9931129 384.936824,77.4366391 384.936824,81.9132231 C384.936824,86.3898072 381.605945,89.8333333 376.896772,89.8333333 Z M376.896772,86.4471993 C379.366216,86.4471993 381.146513,84.5532599 381.146513,81.9132231 C381.146513,79.3018825 379.366216,77.379247 376.896772,77.379247 C374.398612,77.379247 372.64703,79.3018825 372.64703,81.9132231 C372.64703,84.5819559 374.427327,86.4471993 376.896772,86.4471993 Z M388.238988,89.4602847 L388.238988,74.3661616 L391.799582,74.3661616 L391.799582,76.2027089 L392.000584,76.2027089 C392.603588,75.0835629 394.09674,73.9931129 396.250325,73.9931129 C399.638633,73.9931129 401.706075,76.3748852 401.706075,79.588843 L401.706075,89.4602847 L397.973194,89.4602847 L397.973194,80.5645087 C397.973194,78.7279614 396.7959,77.4940312 395.073032,77.4940312 C393.26402,77.4940312 391.971869,78.9288338 391.971869,80.8227732 L391.971869,89.4602847 L388.238988,89.4602847 Z M412.071999,89.4602847 C408.942122,89.4602847 407.046967,87.6811295 407.046967,84.4384757 L407.046967,77.350551 L404.491379,77.350551 L404.491379,74.3948577 L406.185533,74.3948577 C406.845966,74.3948577 407.276683,73.9644169 407.276683,73.2470156 L407.276683,70.2052342 L410.779848,70.2052342 L410.779848,74.3661616 L414.943447,74.3661616 L414.943447,77.350551 L410.779848,77.350551 L410.779848,84.2949954 C410.779848,85.5576217 411.411567,86.3611111 412.84729,86.3611111 L414.857303,86.3611111 L414.857303,89.4602847 L412.071999,89.4602847 Z M418.102038,89.4602847 L418.102038,74.3661616 L421.633918,74.3661616 L421.633918,76.834022 L421.863634,76.834022 C422.35178,75.6574839 423.730075,74.3087695 425.826231,74.3087695 L427.204526,74.3087695 L427.204526,77.8670799 L425.653944,77.8670799 C423.270643,77.8670799 421.83492,79.617539 421.83492,82.3149679 L421.83492,89.4602847 L418.102038,89.4602847 Z M436.077298,89.8333333 C431.85627,89.8333333 428.956109,86.6767677 428.956109,81.9993113 C428.956109,77.2644628 431.827556,73.9931129 435.96244,73.9931129 C438.575457,73.9931129 440.039895,75.5426997 440.556755,76.3174931 L440.757757,76.3174931 L440.757757,74.3661616 L444.490638,74.3661616 L444.490638,89.4602847 L440.815186,89.4602847 L440.815186,87.5376492 L440.614184,87.5376492 C440.183467,88.1689624 438.833887,89.8333333 436.077298,89.8333333 Z M436.795159,86.4758953 C439.293319,86.4758953 440.8439,84.4671717 440.8439,81.9419192 C440.8439,79.1010101 439.121032,77.379247 436.766445,77.379247 C434.383144,77.379247 432.746419,79.2731864 432.746419,81.9419192 C432.746419,84.6680441 434.383144,86.4758953 436.795159,86.4758953 Z M455.258565,89.8333333 C450.520677,89.8333333 447.362085,86.3611111 447.362085,81.9132231 C447.362085,77.4653352 450.520677,73.9931129 455.258565,73.9931129 C459.135018,73.9931129 462.150038,76.3748852 462.724327,79.9331956 L458.905303,79.9331956 C458.445871,78.4410009 457.038862,77.379247 455.287279,77.379247 C452.760406,77.379247 451.152395,79.3879706 451.152395,81.9132231 C451.152395,84.5245638 452.846549,86.4471993 455.315994,86.4471993 C457.038862,86.4471993 458.445871,85.4715335 458.876588,84.0080349 L462.695613,84.0080349 C462.121323,87.5089532 459.135018,89.8333333 455.258565,89.8333333 Z M472.573391,89.4602847 C469.443514,89.4602847 467.548359,87.6811295 467.548359,84.4384757 L467.548359,77.350551 L464.992771,77.350551 L464.992771,74.3948577 L466.686924,74.3948577 C467.347357,74.3948577 467.778074,73.9644169 467.778074,73.2470156 L467.778074,70.2052342 L471.28124,70.2052342 L471.28124,74.3661616 L475.444838,74.3661616 L475.444838,77.350551 L471.28124,77.350551 L471.28124,84.2949954 C471.28124,85.5576217 471.912958,86.3611111 473.348682,86.3611111 L475.358695,86.3611111 L475.358695,89.4602847 L472.573391,89.4602847 Z M484.001751,89.8333333 C479.924296,89.8333333 477.885568,87.9106979 477.741996,84.9263085 L481.187733,84.9263085 C481.331305,86.2176309 482.365026,86.9063361 484.05918,86.9063361 C485.782048,86.9063361 486.75834,86.1602388 486.75834,85.0984848 C486.75834,81.8845271 478.08657,84.9263085 478.08657,78.6131772 C478.08657,76.0592287 480.297584,73.9931129 484.030465,73.9931129 C487.303915,73.9931129 489.744645,75.6574839 489.974361,78.6705693 L486.672197,78.6705693 C486.49991,77.5801194 485.638476,76.8627181 484.001751,76.8627181 C482.479884,76.8627181 481.503592,77.5227273 481.503592,78.498393 C481.503592,81.3679982 490.376364,78.3549128 490.376364,84.8976125 C490.376364,87.7672176 488.050491,89.8333333 484.001751,89.8333333 Z" id="Contracts-Copy-5" fill="#282846" fill-rule="nonzero"></path>
            <path d="M141.95068,50.875 C131.033441,50.875 123,42.5714286 123,31.4285714 C123,20.3928571 131.084937,11.9821429 142.002177,11.9821429 C152.919416,11.9821429 161.004353,20.5 161.004353,31.4285714 C161.004353,42.4642857 152.86792,50.875 141.95068,50.875 Z M142.002177,44.0714286 C148.902696,44.0714286 153.846352,38.7142857 153.846352,31.4285714 C153.846352,24.25 148.902696,18.7857143 142.002177,18.7857143 C135.050161,18.7857143 130.106505,24.25 130.106505,31.4285714 C130.106505,38.7142857 135.050161,44.0714286 142.002177,44.0714286 Z M168.314942,62.5 L168.314942,22 L174.906483,22 L174.906483,25.5892857 L175.266958,25.5892857 C175.987907,24.4107143 178.459735,21.3035714 183.403391,21.3035714 C190.973364,21.3035714 196.174502,27.1964286 196.174502,35.9821429 C196.174502,44.7678571 191.02486,50.875 183.609377,50.875 C178.82021,50.875 176.245389,48.0892857 175.36995,46.5357143 L175.009476,46.5357143 L175.009476,62.5 L168.314942,62.5 Z M182.115981,44.5535714 C186.441679,44.5535714 189.376975,41.0714286 189.376975,36.0892857 C189.376975,30.9464286 186.441679,27.625 182.064484,27.625 C177.635793,27.625 174.854986,31.3214286 174.854986,36.0892857 C174.854986,41.3392857 177.944771,44.5535714 182.115981,44.5535714 Z M215.329265,50.875 C207.347321,50.875 201.682715,44.6607143 201.682715,36.25 C201.682715,27.3571429 207.398817,21.3035714 215.329265,21.3035714 C224.032159,21.3035714 228.769829,28 228.769829,35.9285714 L228.769829,38.125 L208.171264,38.125 C208.377249,42.4107143 211.209552,45.3035714 215.535251,45.3035714 C218.831021,45.3035714 221.354346,43.6964286 222.281281,41.3928571 L228.512347,41.3928571 C227.17344,47.125 222.332777,50.875 215.329265,50.875 Z M208.274256,33.1964286 L222.384274,33.1964286 C222.075295,29.3928571 219.242993,26.875 215.329265,26.875 C211.570027,26.875 208.686228,29.6607143 208.274256,33.1964286 Z M235.977425,50.1785714 L235.977425,22 L242.36298,22 L242.36298,25.4285714 L242.723455,25.4285714 C243.804879,23.3392857 246.482693,21.3035714 250.344924,21.3035714 C256.421501,21.3035714 260.129243,25.75 260.129243,31.75 L260.129243,50.1785714 L253.434709,50.1785714 L253.434709,33.5714286 C253.434709,30.1428571 251.323356,27.8392857 248.233571,27.8392857 C244.989297,27.8392857 242.671958,30.5178571 242.671958,34.0535714 L242.671958,50.1785714 L235.977425,50.1785714 Z M266.770378,50.1785714 L266.770378,43.8035714 L285.515072,19.2142857 L285.515072,18.8392857 L267.439831,18.8392857 L267.439831,12.6785714 L294.063477,12.6785714 L294.063477,19 L275.318782,43.5892857 L275.318782,44.0178571 L294.16647,44.0178571 L294.16647,50.1785714 L266.770378,50.1785714 Z M312.291305,50.875 C304.309361,50.875 298.644755,44.6607143 298.644755,36.25 C298.644755,27.3571429 304.360857,21.3035714 312.291305,21.3035714 C320.994199,21.3035714 325.731869,28 325.731869,35.9285714 L325.731869,38.125 L305.133303,38.125 C305.339289,42.4107143 308.171592,45.3035714 312.497291,45.3035714 C315.793061,45.3035714 318.316385,43.6964286 319.243321,41.3928571 L325.474387,41.3928571 C324.13548,47.125 319.294817,50.875 312.291305,50.875 Z M305.236296,33.1964286 L319.346314,33.1964286 C319.037335,29.3928571 316.205032,26.875 312.291305,26.875 C308.532067,26.875 305.648268,29.6607143 305.236296,33.1964286 Z M332.939464,62.5 L332.939464,22 L339.531005,22 L339.531005,25.5892857 L339.89148,25.5892857 C340.61243,24.4107143 343.084258,21.3035714 348.027914,21.3035714 C355.597887,21.3035714 360.799024,27.1964286 360.799024,35.9821429 C360.799024,44.7678571 355.649383,50.875 348.233899,50.875 C343.444733,50.875 340.869912,48.0892857 339.994473,46.5357143 L339.633998,46.5357143 L339.633998,62.5 L332.939464,62.5 Z M346.740503,44.5535714 C351.066202,44.5535714 354.001498,41.0714286 354.001498,36.0892857 C354.001498,30.9464286 351.066202,27.625 346.689007,27.625 C342.260315,27.625 339.479509,31.3214286 339.479509,36.0892857 C339.479509,41.3392857 342.569294,44.5535714 346.740503,44.5535714 Z M368.00662,62.5 L368.00662,22 L374.598161,22 L374.598161,25.5892857 L374.958636,25.5892857 C375.679585,24.4107143 378.151413,21.3035714 383.095069,21.3035714 C390.665042,21.3035714 395.86618,27.1964286 395.86618,35.9821429 C395.86618,44.7678571 390.716538,50.875 383.301055,50.875 C378.511888,50.875 375.937068,48.0892857 375.061629,46.5357143 L374.701154,46.5357143 L374.701154,62.5 L368.00662,62.5 Z M381.807659,44.5535714 C386.133357,44.5535714 389.068653,41.0714286 389.068653,36.0892857 C389.068653,30.9464286 386.133357,27.625 381.756162,27.625 C377.327471,27.625 374.546664,31.3214286 374.546664,36.0892857 C374.546664,41.3392857 377.636449,44.5535714 381.807659,44.5535714 Z M415.020943,50.875 C407.038999,50.875 401.374394,44.6607143 401.374394,36.25 C401.374394,27.3571429 407.090495,21.3035714 415.020943,21.3035714 C423.723837,21.3035714 428.461507,28 428.461507,35.9285714 L428.461507,38.125 L407.862942,38.125 C408.068927,42.4107143 410.90123,45.3035714 415.226929,45.3035714 C418.522699,45.3035714 421.046024,43.6964286 421.972959,41.3928571 L428.204025,41.3928571 C426.865118,47.125 422.024455,50.875 415.020943,50.875 Z M407.965934,33.1964286 L422.075952,33.1964286 C421.766973,29.3928571 418.934671,26.875 415.020943,26.875 C411.261705,26.875 408.377906,29.6607143 407.965934,33.1964286 Z M442.260644,50.1785714 C437.522974,50.1785714 434.84516,47.2321429 434.84516,42.25 L434.84516,10 L441.539694,10 L441.539694,41.6071429 C441.539694,43.2142857 442.31214,44.0714286 443.702543,44.0714286 L444.783968,44.0714286 L444.783968,50.1785714 L442.260644,50.1785714 Z M454.566384,18.25 C452.146053,18.25 450.446671,16.6964286 450.446671,14.1785714 C450.446671,11.7678571 452.146053,10.1607143 454.566384,10.1607143 C456.986716,10.1607143 458.686097,11.7678571 458.686097,14.1785714 C458.686097,16.6964286 456.986716,18.25 454.566384,18.25 Z M451.219117,50.1785714 L451.219117,22 L457.913651,22 L457.913651,50.1785714 L451.219117,50.1785714 Z M466.048182,50.1785714 L466.048182,22 L472.433737,22 L472.433737,25.4285714 L472.794212,25.4285714 C473.875637,23.3392857 476.55345,21.3035714 480.415681,21.3035714 C486.492258,21.3035714 490.2,25.75 490.2,31.75 L490.2,50.1785714 L483.505466,50.1785714 L483.505466,33.5714286 C483.505466,30.1428571 481.394113,27.8392857 478.304328,27.8392857 C475.060054,27.8392857 472.742716,30.5178571 472.742716,34.0535714 L472.742716,50.1785714 L466.048182,50.1785714 Z" id="OpenZeppelin-Copy-12" fill="#282846" fill-rule="nonzero"></path>
            <g id="Group-7-Copy-25">
                <path d="M86.7958355,99.9661667 L86.7958355,73.9661667 L59.5501377,73.9661667 C52.1407969,73.9661667 45.2774565,78.0081667 41.4826165,84.6071667 L32.6496883,99.9661667 L86.7958355,99.9661667 Z" id="Stroke-1" fill="#63D2F9"></path>
                <polygon id="Stroke-3" fill="#4E5EE4" points="0.0803329545 0.08335 0.0803329545 26.08335 71.8431531 26.08335 86.7958837 0.08335"></polygon>
                <path d="M34.4252588,40.7173833 L0.159347921,99.9662167 L29.3530958,99.9662167 L70.3290103,29.0833833 L54.2080926,29.0833833 C46.0994147,29.0833833 38.5872066,33.5012167 34.4252588,40.7173833 Z" id="Stroke-5" fill="#63B0F9"></path>
            </g>
        </g>
    </g>
</svg>