<?xml version="1.0" encoding="utf-8"?>
<!-- Generator: Adobe Illustrator 21.1.0, SVG Export Plug-In . SVG Version: 6.00 Build 0)  -->
<svg version="1.1" id="Layer_1" xmlns="http://www.w3.org/2000/svg" xmlns:xlink="http://www.w3.org/1999/xlink" x="0px" y="0px"
	 viewBox="0 0 312.2 37" style="enable-background:new 0 0 312.2 37;" xml:space="preserve">
<style type="text/css">
	.st0{fill:#FFFFFF;}
</style>
<g>
	<g id="XMLID_37_">
		<g id="XMLID_38_">
			<path id="XMLID_40_" class="st0" d="M47.4,30.3c1.9-3.5,3-7.6,3-11.8c0-7.3-3.1-13.8-8-18.4l-2.8,4.8L24.6,30.3H47.4z"/>
			<path id="XMLID_39_" class="st0" d="M3.1,6.4C1.1,9.9,0,14,0,18.4c0,6.9,2.8,13.2,7.4,17.8L24.8,6.4H3.1z"/>
		</g>
	</g>
	<g>
		<path class="st0" d="M77.8,30.5c-2.5,0-4.7-0.6-6.5-1.9c-1.8-1.3-3.1-2.9-3.9-5c-0.8-2-1.2-4.3-1.2-6.9s0.4-4.9,1.2-6.9
			c0.8-2,2.1-3.7,3.9-5c1.8-1.3,4-1.9,6.5-1.9c3.8,0,6.7,1.3,8.7,3.9c2,2.6,3,5.9,3,9.9c0,4-1,7.3-3,9.9
			C84.5,29.2,81.6,30.5,77.8,30.5z M77.8,28.3c2,0,3.8-0.6,5.2-1.7c1.4-1.2,2.4-2.6,3-4.3c0.6-1.7,0.9-3.6,0.9-5.6
			c0-2-0.3-3.9-0.9-5.6c-0.6-1.7-1.6-3.1-3-4.3c-1.4-1.2-3.1-1.7-5.2-1.7c-1.5,0-2.9,0.3-4.1,1c-1.2,0.7-2.1,1.5-2.8,2.7
			c-0.7,1.1-1.2,2.3-1.6,3.7c-0.4,1.3-0.5,2.8-0.5,4.3c0,1.5,0.2,2.9,0.5,4.3c0.4,1.3,0.9,2.6,1.6,3.7c0.7,1.1,1.7,2,2.8,2.7
			C74.9,28,76.3,28.3,77.8,28.3z"/>
		<path class="st0" d="M96.2,37V11.5h2.2v2.8h0.1c1.2-2.2,3.1-3.3,5.8-3.3c2.4,0,4.4,1,5.7,2.9c1.4,1.9,2.1,4.2,2.1,6.8
			c0,2.6-0.7,4.9-2.1,6.9c-1.4,2-3.3,3-5.7,3c-1.3,0-2.4-0.3-3.3-0.8c-0.9-0.6-1.7-1.4-2.5-2.6h-0.1V37H96.2z M104.2,28.5
			c1.8,0,3.2-0.8,4.1-2.4c0.9-1.6,1.4-3.4,1.4-5.4c0-2-0.5-3.7-1.4-5.3c-0.9-1.6-2.3-2.4-4.1-2.4c-1.9,0-3.4,0.8-4.4,2.3
			c-1,1.6-1.6,3.4-1.6,5.4s0.5,3.9,1.6,5.4C100.8,27.7,102.2,28.5,104.2,28.5z"/>
		<path class="st0" d="M126.1,30.5c-1.8,0-3.4-0.5-4.7-1.5c-1.3-1-2.2-2.2-2.7-3.6c-0.5-1.4-0.8-3-0.8-4.6c0-2.8,0.7-5.2,2.1-7
			c1.4-1.9,3.4-2.8,6-2.8c5.5,0,8.3,3.4,8.3,10.1v0.2h-14c0,2.2,0.5,3.9,1.5,5.2c0.9,1.3,2.5,2,4.5,2c1.3,0,2.5-0.4,3.5-1.1
			c1-0.8,1.6-1.7,1.8-2.9h2.3c-0.4,2-1.3,3.5-2.6,4.5C130,30,128.3,30.5,126.1,30.5z M120.4,19.4H132c0-2-0.5-3.5-1.5-4.7
			S128,13,126.1,13c-1.8,0-3.2,0.6-4.2,1.9C120.9,16.1,120.4,17.6,120.4,19.4z"/>
		<path class="st0" d="M141.8,29.9V11.5h2.2v2.7l0.1,0.1c1.1-2.2,3-3.3,5.7-3.3c2.1,0,3.7,0.7,4.7,2.1c1.1,1.4,1.6,3.2,1.6,5.4v11.5
			h-2.2V18c0-1.5-0.4-2.7-1.3-3.7c-0.8-0.9-2-1.4-3.5-1.4c-1.6,0-2.9,0.6-3.8,1.9c-0.9,1.2-1.4,2.7-1.4,4.5v10.6H141.8z"/>
		<g>
			<path class="st0" d="M162.8,29.9v-2.2l14.4-22.1h-14.4V3.4H180v2.2l-14.5,22.1H180v2.2H162.8z"/>
			<path class="st0" d="M193.2,30.5c-1.8,0-3.4-0.5-4.7-1.5c-1.3-1-2.2-2.2-2.7-3.6c-0.5-1.4-0.8-3-0.8-4.6c0-2.8,0.7-5.2,2.1-7
				c1.4-1.9,3.4-2.8,6-2.8c5.5,0,8.3,3.4,8.3,10.1v0.2h-14c0,2.2,0.5,3.9,1.5,5.2c0.9,1.3,2.5,2,4.5,2c1.3,0,2.5-0.4,3.5-1.1
				c1-0.8,1.6-1.7,1.8-2.9h2.3c-0.4,2-1.3,3.5-2.6,4.5C197.2,30,195.4,30.5,193.2,30.5z M187.5,19.4h11.6c0-2-0.5-3.5-1.5-4.7
				c-1-1.1-2.5-1.7-4.4-1.7c-1.8,0-3.2,0.6-4.2,1.9C188,16.1,187.5,17.6,187.5,19.4z"/>
			<path class="st0" d="M208.5,37V11.5h2.2v2.8h0.1c1.2-2.2,3.1-3.3,5.8-3.3c2.4,0,4.4,1,5.7,2.9c1.4,1.9,2.1,4.2,2.1,6.8
				c0,2.6-0.7,4.9-2.1,6.9c-1.4,2-3.3,3-5.7,3c-1.3,0-2.4-0.3-3.3-0.8c-0.9-0.6-1.7-1.4-2.5-2.6h-0.1V37H208.5z M216.5,28.5
				c1.8,0,3.2-0.8,4.1-2.4c0.9-1.6,1.4-3.4,1.4-5.4c0-2-0.5-3.7-1.4-5.3c-0.9-1.6-2.3-2.4-4.1-2.4c-1.9,0-3.4,0.8-4.4,2.3
				c-1,1.6-1.6,3.4-1.6,5.4s0.5,3.9,1.6,5.4C213.1,27.7,214.6,28.5,216.5,28.5z"/>
			<path class="st0" d="M231.1,37V11.5h2.2v2.8h0.1c1.2-2.2,3.1-3.3,5.8-3.3c2.4,0,4.4,1,5.7,2.9c1.4,1.9,2.1,4.2,2.1,6.8
				c0,2.6-0.7,4.9-2.1,6.9c-1.4,2-3.3,3-5.7,3c-1.3,0-2.4-0.3-3.3-0.8c-0.9-0.6-1.7-1.4-2.5-2.6h-0.1V37H231.1z M239.1,28.5
				c1.8,0,3.2-0.8,4.1-2.4c0.9-1.6,1.4-3.4,1.4-5.4c0-2-0.5-3.7-1.4-5.3c-0.9-1.6-2.3-2.4-4.1-2.4c-1.9,0-3.4,0.8-4.4,2.3
				c-1,1.6-1.6,3.4-1.6,5.4s0.5,3.9,1.6,5.4C235.7,27.7,237.2,28.5,239.1,28.5z"/>
			<path class="st0" d="M261.1,30.5c-1.8,0-3.4-0.5-4.7-1.5c-1.3-1-2.2-2.2-2.7-3.6c-0.5-1.4-0.8-3-0.8-4.6c0-2.8,0.7-5.2,2.1-7
				c1.4-1.9,3.4-2.8,6-2.8c5.5,0,8.3,3.4,8.3,10.1v0.2h-14c0,2.2,0.5,3.9,1.5,5.2c0.9,1.3,2.5,2,4.5,2c1.3,0,2.5-0.4,3.5-1.1
				c1-0.8,1.6-1.7,1.8-2.9h2.3c-0.4,2-1.3,3.5-2.6,4.5C265,30,263.2,30.5,261.1,30.5z M255.4,19.4h11.6c0-2-0.5-3.5-1.5-4.7
				c-1-1.1-2.5-1.7-4.4-1.7c-1.8,0-3.2,0.6-4.2,1.9C255.9,16.1,255.4,17.6,255.4,19.4z"/>
			<path class="st0" d="M276.7,29.9V3.4h2.1v26.5H276.7z"/>
			<path class="st0" d="M286.7,6.5V3.4h2.9v3.2H286.7z M287.3,29.9V11.5h2.1v18.4H287.3z"/>
			<path class="st0" d="M298,29.9V11.5h2.2v2.7l0.1,0.1c1.1-2.2,3-3.3,5.7-3.3c2.1,0,3.7,0.7,4.7,2.1c1.1,1.4,1.6,3.2,1.6,5.4v11.5
				h-2.2V18c0-1.5-0.4-2.7-1.3-3.7c-0.8-0.9-2-1.4-3.5-1.4c-1.6,0-2.9,0.6-3.8,1.9c-0.9,1.2-1.4,2.7-1.4,4.5v10.6H298z"/>
		</g>
	</g>
</g>
<title>OpenZeppelin_white</title>
<desc>Created with Sketch.</desc>
</svg>
