<?xml version="1.0" encoding="UTF-8"?>
<svg width="484px" height="166px" viewBox="0 0 484 166" version="1.1" xmlns="http://www.w3.org/2000/svg" xmlns:xlink="http://www.w3.org/1999/xlink">
    <!-- Generator: Sketch 51.3 (57544) - http://www.bohemiancoding.com/sketch -->
    <title>OZ_subbrand_name_sdk_dark</title>
    <desc>Created with Sketch.</desc>
    <defs></defs>
    <g id="Page-1" stroke="none" stroke-width="1" fill="none" fill-rule="evenodd">
        <g id="OZ_subbrand_name_sdk_dark" fill="#282846" fill-rule="nonzero">
            <path d="M285.88,130.56 C266.68,130.56 253.96,119.16 253.96,102.48 L269.44,102.48 C269.56,110.04 275.8,115.92 286.36,115.92 C295.36,115.92 301.12,112.08 301.12,105.72 C301.12,86.52 256.48,102 256.48,67.68 C256.48,54.36 267.04,43.44 285.52,43.44 C301.48,43.44 315.04,51.84 315.52,69.36 L299.56,69.36 C299.44,62.4 294.52,57.72 285.52,57.72 C276.64,57.72 272.32,62.16 272.32,67.44 C272.32,84.96 317.56,70.56 317.56,104.52 C317.56,119.4 306.04,130.56 285.88,130.56 Z M331.72,129 L331.72,45 L360.04,45 C386.8,45 402.88,62.28 402.88,86.76 C402.88,112.8 386.8,129 360.04,129 L331.72,129 Z M347.68,115.08 L359.44,115.08 C374.2,115.08 386.32,106.44 386.32,86.76 C386.32,67.92 374.32,58.92 359.44,58.92 L347.68,58.92 L347.68,115.08 Z M483.4,129 L464.8,129 L442.96,91.68 L433.48,102.72 L433.48,129 L417.52,129 L417.52,45 L433.48,45 L433.48,80.4 L434.2,80.4 L462.88,45 L482.68,45 L453.88,78.84 L483.4,129 Z" id="SDK"></path>
            <g id="OZ_subbrand_ic_platform">
                <path d="M90,114.74228 L131.2236,93.08 L180,118.71092 L90,166.00484 L0,118.71092 L48.7764,93.08 L90,114.74228 Z M90,0.2 L180,47.49356 L90,94.78712 L0,47.49356 L90,0.2 Z" id="Combined-Shape"></path>
            </g>
        </g>
    </g>
</svg>
