<?xml version="1.0" encoding="UTF-8"?>
<svg width="862px" height="180px" viewBox="0 0 862 180" version="1.1" xmlns="http://www.w3.org/2000/svg" xmlns:xlink="http://www.w3.org/1999/xlink">
    <!-- Generator: Sketch 51.3 (57544) - http://www.bohemiancoding.com/sketch -->
    <title>OZ_subbrand_name_sk_dark</title>
    <desc>Created with Sketch.</desc>
    <defs>
        <rect id="path-1" x="0" y="0" width="180" height="180"></rect>
    </defs>
    <g id="Page-1" stroke="none" stroke-width="1" fill="none" fill-rule="evenodd">
        <g id="OZ_subbrand_name_sk_dark" transform="translate(-9.000000, 0.000000)">
            <path d="M285.88,137.56 C266.68,137.56 253.96,126.16 253.96,109.48 L269.44,109.48 C269.56,117.04 275.8,122.92 286.36,122.92 C295.36,122.92 301.12,119.08 301.12,112.72 C301.12,93.52 256.48,109 256.48,74.68 C256.48,61.36 267.04,50.44 285.52,50.44 C301.48,50.44 315.04,58.84 315.52,76.36 L299.56,76.36 C299.44,69.4 294.52,64.72 285.52,64.72 C276.64,64.72 272.32,69.16 272.32,74.44 C272.32,91.96 317.56,77.56 317.56,111.52 C317.56,126.4 306.04,137.56 285.88,137.56 Z M358.48,136 C345.4,136 337.48,128.56 337.48,115 L337.48,85.36 L326.8,85.36 L326.8,73 L333.88,73 C336.64,73 338.44,71.2 338.44,68.2 L338.44,55.48 L353.08,55.48 L353.08,72.88 L370.48,72.88 L370.48,85.36 L353.08,85.36 L353.08,114.4 C353.08,119.68 355.72,123.04 361.72,123.04 L370.12,123.04 L370.12,136 L358.48,136 Z M409.48,137.56 C391.84,137.56 379.72,124.36 379.72,104.8 C379.72,85 391.72,71.32 409,71.32 C419.92,71.32 426.04,77.8 428.2,81.04 L429.04,81.04 L429.04,72.88 L444.64,72.88 L444.64,136 L429.28,136 L429.28,127.96 L428.44,127.96 C426.64,130.6 421,137.56 409.48,137.56 Z M412.48,123.52 C422.92,123.52 429.4,115.12 429.4,104.56 C429.4,92.68 422.2,85.48 412.36,85.48 C402.4,85.48 395.56,93.4 395.56,104.56 C395.56,115.96 402.4,123.52 412.48,123.52 Z M460.6,136 L460.6,72.88 L475.36,72.88 L475.36,83.2 L476.32,83.2 C478.36,78.28 484.12,72.64 492.88,72.64 L498.64,72.64 L498.64,87.52 L492.16,87.52 C482.2,87.52 476.2,94.84 476.2,106.12 L476.2,136 L460.6,136 Z M540.04,136 C526.96,136 519.04,128.56 519.04,115 L519.04,85.36 L508.36,85.36 L508.36,73 L515.44,73 C518.2,73 520,71.2 520,68.2 L520,55.48 L534.64,55.48 L534.64,72.88 L552.04,72.88 L552.04,85.36 L534.64,85.36 L534.64,114.4 C534.64,119.68 537.28,123.04 543.28,123.04 L551.68,123.04 L551.68,136 L540.04,136 Z M593.08,137.56 C574.48,137.56 561.28,123.64 561.28,104.8 C561.28,84.88 574.6,71.32 593.08,71.32 C613.36,71.32 624.4,86.32 624.4,104.08 L624.4,109 L576.4,109 C576.88,118.6 583.48,125.08 593.56,125.08 C601.24,125.08 607.12,121.48 609.28,116.32 L623.8,116.32 C620.68,129.16 609.4,137.56 593.08,137.56 Z M576.64,97.96 L609.52,97.96 C608.8,89.44 602.2,83.8 593.08,83.8 C584.32,83.8 577.6,90.04 576.64,97.96 Z M638.2,136 L638.2,72.88 L652.96,72.88 L652.96,83.2 L653.92,83.2 C655.96,78.28 661.72,72.64 670.48,72.64 L676.24,72.64 L676.24,87.52 L669.76,87.52 C659.8,87.52 653.8,94.84 653.8,106.12 L653.8,136 L638.2,136 Z M787.96,136 L769.36,136 L747.52,98.68 L738.04,109.72 L738.04,136 L722.08,136 L722.08,52 L738.04,52 L738.04,87.4 L738.76,87.4 L767.44,52 L787.24,52 L758.44,85.84 L787.96,136 Z M807.04,64.48 C801.4,64.48 797.44,61 797.44,55.36 C797.44,49.96 801.4,46.36 807.04,46.36 C812.68,46.36 816.64,49.96 816.64,55.36 C816.64,61 812.68,64.48 807.04,64.48 Z M799.24,136 L799.24,72.88 L814.84,72.88 L814.84,136 L799.24,136 Z M858.16,136 C845.08,136 837.16,128.56 837.16,115 L837.16,85.36 L826.48,85.36 L826.48,73 L833.56,73 C836.32,73 838.12,71.2 838.12,68.2 L838.12,55.48 L852.76,55.48 L852.76,72.88 L870.16,72.88 L870.16,85.36 L852.76,85.36 L852.76,114.4 C852.76,119.68 855.4,123.04 861.4,123.04 L869.8,123.04 L869.8,136 L858.16,136 Z" id="StarterKit" fill="#282846" fill-rule="nonzero"></path>
            <g id="Group-57">
                <g id="Mask" fill="#FFFFFF" fill-opacity="0" fill-rule="nonzero">
                    <rect id="path-1" x="0" y="0" width="180" height="180"></rect>
                </g>
                <g id="Combined-Shape-Clipped">
                    <mask id="mask-2" fill="white">
                        <use xlink:href="#path-1"></use>
                    </mask>
                    <g id="path-1"></g>
                    <path d="M79.8975909,2.20268248e-13 L79.8975909,80.6302703 L8.99917677,120.945405 L8.99917677,40.3151351 L79.8975909,2.20268248e-13 Z M100.973491,-4.40536496e-13 L171.870259,40.3151351 L171.870259,132.929189 L90.4344707,179.236216 L19.537703,138.921081 L100.973491,92.6124324 L100.973491,-4.40536496e-13 Z" id="Combined-Shape" fill="#282846" fill-rule="nonzero" mask="url(#mask-2)"></path>
                </g>
            </g>
        </g>
    </g>
</svg>
