<?xml version="1.0" encoding="UTF-8"?>
<svg width="77px" height="77px" viewBox="0 0 77 77" version="1.1" xmlns="http://www.w3.org/2000/svg" xmlns:xlink="http://www.w3.org/1999/xlink">
    <!-- Generator: Sketch 49.3 (51167) - http://www.bohemiancoding.com/sketch -->
    <title>Group 8</title>
    <desc>Created with Sketch.</desc>
    <defs>
        <filter x="-8.5%" y="-5.6%" width="114.1%" height="114.1%" filterUnits="objectBoundingBox" id="filter-1">
            <feOffset dx="-1" dy="1" in="SourceAlpha" result="shadowOffsetOuter1"></feOffset>
            <feGaussianBlur stdDeviation="1.5" in="shadowOffsetOuter1" result="shadowBlurOuter1"></feGaussianBlur>
            <feColorMatrix values="0 0 0 0 0   0 0 0 0 0   0 0 0 0 0  0 0 0 0.05 0" type="matrix" in="shadowBlurOuter1" result="shadowMatrixOuter1"></feColorMatrix>
            <feMerge>
                <feMergeNode in="shadowMatrixOuter1"></feMergeNode>
                <feMergeNode in="SourceGraphic"></feMergeNode>
            </feMerge>
        </filter>
        <linearGradient x1="100%" y1="0%" x2="0%" y2="100%" id="linearGradient-2">
            <stop stop-color="#66E0EB" offset="0%"></stop>
            <stop stop-color="#5C8EE4" offset="100%"></stop>
        </linearGradient>
        <linearGradient x1="100%" y1="0%" x2="0%" y2="100%" id="linearGradient-3">
            <stop stop-color="#63C4E9" offset="0%"></stop>
            <stop stop-color="#5C8EE4" offset="100%"></stop>
        </linearGradient>
        <linearGradient x1="100%" y1="0%" x2="0%" y2="100%" id="linearGradient-4">
            <stop stop-color="#5FA5E6" offset="0%"></stop>
            <stop stop-color="#5C8EE4" offset="100%"></stop>
        </linearGradient>
        <linearGradient x1="100%" y1="0%" x2="0%" y2="100%" id="linearGradient-5">
            <stop stop-color="#64CFEA" offset="0%"></stop>
            <stop stop-color="#5E9FE5" offset="98.9771496%"></stop>
        </linearGradient>
    </defs>
    <g id="Page-1" stroke="none" stroke-width="1" fill="none" fill-rule="evenodd">
        <g id="zepp_02-copy-4" transform="translate(-1077.000000, -1196.000000)">
            <g id="Group-10" transform="translate(749.000000, 1148.000000)">
                <g id="Group-8" filter="url(#filter-1)" transform="translate(332.000000, 50.000000)">
                    <path d="M35.463321,0.46345203 C16.1334944,0.46345203 0.463450318,16.1334961 0.463450318,35.4635813 C0.463450318,54.793408 16.1334944,70.463452 35.463321,70.463452 C54.7934063,70.463452 70.4631917,54.793408 70.4631917,35.4635813 C70.4631917,16.1334961 54.7934063,0.46345203 35.463321,0.46345203 Z" id="Fill-1" fill="url(#linearGradient-2)"></path>
                    <path d="M65.6261291,35.3855882 C65.6261291,18.684206 52.086978,5.14477761 35.3853186,5.14477761 C18.6839363,5.14477761 5.14478524,18.684206 5.14478524,35.3855882 C5.14478524,52.0869704 18.6839363,65.6263987 35.3853186,65.6263987 C52.086978,65.6263987 65.6261291,52.0869704 65.6261291,35.3855882" id="Fill-4" fill="#FCFFFF"></path>
                    <g id="Group-2" transform="translate(18.804887, 17.739726)">
                        <polygon id="Fill-9" fill="url(#linearGradient-3)" points="26.0733484 13.920696 24.5254888 16.5651867 30.9634176 16.5651867 32.5085104 13.920696"></polygon>
                        <polygon id="Fill-12" fill="url(#linearGradient-4)" points="3.97120137 13.920696 2.42334179 16.5651867 8.86127058 16.5651867 10.406615 13.920696"></polygon>
                        <polygon id="Fill-15" fill="url(#linearGradient-3)" points="23.7440134 17.9000081 22.2036994 20.5316712 28.6459041 20.5316712 30.1837028 17.9000081"></polygon>
                        <polygon id="Fill-18" fill="url(#linearGradient-4)" points="1.6421179 17.9000081 0.101803943 20.5316712 6.54375707 20.5316712 8.08155581 17.9000081"></polygon>
                        <polygon id="Fill-6" fill="url(#linearGradient-5)" points="2.72340622 0.688433359 2.72340622 7.51420737 17.4602669 7.51420737 2.08127338 33.789589 11.15992 33.789589 30.4193779 33.789589 30.4193779 26.927596 15.1691631 26.927596 26.5114978 7.51420737 30.5202378 0.688433359"></polygon>
                    </g>
                </g>
            </g>
        </g>
    </g>
</svg>