<?xml version="1.0" encoding="UTF-8"?>
<svg width="1440px" height="500px" viewBox="0 0 1440 500" version="1.1" xmlns="http://www.w3.org/2000/svg" xmlns:xlink="http://www.w3.org/1999/xlink">
    <!-- Generator: Sketch 51.3 (57544) - http://www.bohemiancoding.com/sketch -->
    <title>bg_contracts_full</title>
    <desc>Created with Sketch.</desc>
    <defs>
        <linearGradient x1="100%" y1="0%" x2="0%" y2="100%" id="linearGradient-1">
            <stop stop-color="#A134D1" offset="0%"></stop>
            <stop stop-color="#6746D6" offset="100%"></stop>
        </linearGradient>
        <linearGradient x1="78.5411802%" y1="100%" x2="19.4222168%" y2="0%" id="linearGradient-2">
            <stop stop-color="#A134D1" offset="0%"></stop>
            <stop stop-color="#6746D6" offset="100%"></stop>
        </linearGradient>
        <linearGradient x1="100%" y1="0%" x2="0%" y2="100%" id="linearGradient-3">
            <stop stop-color="#6746D6" stop-opacity="0" offset="0%"></stop>
            <stop stop-color="#6746D6" offset="100%"></stop>
        </linearGradient>
        <linearGradient x1="100%" y1="0%" x2="0%" y2="100%" id="linearGradient-4">
            <stop stop-color="#F8F8FA" offset="0%"></stop>
            <stop stop-color="#6746D6" offset="100%"></stop>
        </linearGradient>
        <linearGradient x1="100%" y1="0%" x2="50%" y2="100%" id="linearGradient-5">
            <stop stop-color="#FFFFFF" offset="0%"></stop>
            <stop stop-color="#4E5EE4" offset="100%"></stop>
        </linearGradient>
        <filter x="-8.9%" y="-26.7%" width="117.9%" height="153.5%" filterUnits="objectBoundingBox" id="filter-6">
            <feGaussianBlur stdDeviation="5" in="SourceGraphic"></feGaussianBlur>
        </filter>
        <linearGradient x1="100%" y1="38.7250966%" x2="0%" y2="50%" id="linearGradient-7">
            <stop stop-color="#F8F8FA" offset="0%"></stop>
            <stop stop-color="#F8F8FA" offset="100%"></stop>
        </linearGradient>
        <linearGradient x1="100%" y1="0%" x2="0%" y2="100%" id="linearGradient-8">
            <stop stop-color="#A134D1" stop-opacity="0" offset="0%"></stop>
            <stop stop-color="#6746D6" offset="100%"></stop>
        </linearGradient>
    </defs>
    <g id="OZ-desktop" stroke="none" stroke-width="1" fill="none" fill-rule="evenodd">
        <g id="Group-20" transform="translate(-1.000000, 77.000000)">
            <path d="M969.55666,336.761806 L964.549956,355.693788 C962.855537,362.100941 966.675962,368.668562 973.083114,370.362981 C974.084293,370.62775 975.115534,370.761806 976.151131,370.761806 L1000.57269,370.761806 L1005.5798,351.830097 C1007.27437,345.422985 1003.4541,338.855273 997.046992,337.160703 C996.045728,336.895886 995.014393,336.761806 993.978701,336.761806 L969.55666,336.761806 Z" id="Fill-1-Copy-12" fill-opacity="0.2" fill="url(#linearGradient-1)" transform="translate(985.065107, 353.761806) rotate(-15.000000) translate(-985.065107, -353.761806) "></path>
            <g id="Group-10" transform="translate(0.000000, 290.000000)" fill="#F8F8FA">
                <polygon id="Rectangle" points="0 0 496 133 0 133"></polygon>
                <polygon id="Rectangle" transform="translate(1192.000000, 66.500000) scale(-1, 1) translate(-1192.000000, -66.500000) " points="944 0 1440 133 944 133"></polygon>
            </g>
            <path d="M1015,412.694866 L1014.68017,323.591602 C1014.65638,316.964228 1009.26455,311.610964 1002.63717,311.634752 C1001.60017,311.638475 1000.56802,311.776602 999.566528,312.045682 L925.529416,331.937904" id="Fill-1-Copy-23" stroke="url(#linearGradient-1)" opacity="0.5"></path>
            <path d="M999.55666,342.761806 L994.549956,361.693788 C992.855537,368.100941 996.675962,374.668562 1003.08311,376.362981 C1004.08429,376.62775 1005.11553,376.761806 1006.15113,376.761806 L1030.57269,376.761806 L1035.5798,357.830097 C1037.27437,351.422985 1033.4541,344.855273 1027.04699,343.160703 C1026.04573,342.895886 1025.01439,342.761806 1023.9787,342.761806 L999.55666,342.761806 Z" id="Fill-1-Copy-11" fill-opacity="0.5" fill="url(#linearGradient-2)" transform="translate(1015.065107, 359.761806) rotate(-15.000000) translate(-1015.065107, -359.761806) "></path>
            <path d="M1230.00028,215.692978 L1230.00259,271.289545 C1230.00286,277.916962 1235.37567,283.289323 1242.00308,283.289048 C1243.06953,283.289004 1244.13122,283.146799 1245.16008,282.86619 L1439.93978,229.742855 L1440,151.5 L1236.63041,207.010228 C1232.71562,208.078778 1230.00012,211.634981 1230.00028,215.692978 Z" id="Fill-1-Copy-10" fill-opacity="0.5" fill="url(#linearGradient-3)" opacity="0.866001674"></path>
            <path d="M419.157896,352.999647 L583.276969,308.251768 C593.718965,305.404707 600.963402,295.920867 600.96371,285.097696 L600.96663,182.710373 C600.966819,176.082956 595.59439,170.71022 588.966973,170.710031 C587.900545,170.71 586.838871,170.852126 585.810001,171.132652 L410.642974,218.89281 C406.727394,219.960412 404.010774,223.516603 404.010447,227.575118 L404.001267,341.421301 C404.000732,348.048718 409.372882,353.421734 416.000299,353.422268 C417.066937,353.422354 418.128824,353.280228 419.157896,352.999647 Z" id="Fill-1-Copy-19" fill-opacity="0.5" fill="url(#linearGradient-4)" opacity="0.866001674" transform="translate(502.483539, 262.066261) scale(-1, 1) translate(-502.483539, -262.066261) "></path>
            <path d="M1287.02822,249.132896 L1287.40734,373.238998 L1439.95599,332.364991 L1439.62994,199 L1295.92242,237.505104 C1290.66301,238.914316 1287.01158,243.687988 1287.02822,249.132896 Z" id="Fill-1-Copy-22" fill-opacity="0.5" fill="#FFFFFF"></path>
            <path d="M1015.00009,118.646533 L1015.00117,226.625557 C1015.0012,229.939266 1017.68752,232.62553 1021.00123,232.625497 C1021.53514,232.625492 1022.06666,232.554223 1022.58171,232.413578 L1092.16109,213.41363 C1097.38,211.988508 1101,207.247465 1101,201.837468 L1101,93.8580901 C1101,90.5443816 1098.31371,87.8580901 1095,87.8580901 C1094.46607,87.8580901 1093.93453,87.9293591 1093.41946,88.0700091 L1023.839,107.070251 C1018.62005,108.495386 1015.00004,113.236492 1015.00009,118.646533 Z" id="Fill-1-Copy-14" fill-opacity="0.2" fill="url(#linearGradient-5)" opacity="0.5"></path>
            <path d="M1043.00026,140.118926 L1043.00094,164.130351 C1043.00103,167.444059 1045.6874,170.130275 1049.00111,170.130181 C1049.53789,170.130166 1050.07224,170.058119 1050.58985,169.91597 L1114.17782,152.45324 C1119.38846,151.022279 1123,146.285213 1123,140.881662 L1123,116.86988 C1123,113.556172 1120.31371,110.86988 1117,110.86988 C1116.46316,110.86988 1115.92876,110.941927 1115.41109,111.084091 L1051.82244,128.547007 C1046.61168,129.978002 1043.00011,134.715248 1043.00026,140.118926 Z" id="Fill-1-Copy-10" fill="url(#linearGradient-1)" opacity="0.6"></path>
            <g id="Group-4" transform="translate(32.000000, 216.000000)">
                <g id="Fill-1-Copy-13" transform="translate(92.500000, 64.000000) scale(1, -1) translate(-92.500000, -64.000000) ">
                    <path d="M31.3763245,20.865252 L10.443534,100.242459 C9.59855449,103.446624 11.5110522,106.729104 14.7152173,107.574084 C15.2177531,107.706609 15.7353778,107.77328 16.2550935,107.772422 L143.566273,107.562241 C149.007721,107.553258 153.762038,103.884003 155.149701,98.6224606 L171.741278,35.7128961 C173.431382,29.3046041 169.606534,22.7395574 163.198242,21.049454 C162.193089,20.7843579 161.15775,20.6509932 160.118228,20.6527094 L31.3763245,20.865252 Z" id="Mask" fill="url(#linearGradient-1)" transform="translate(92.087194, 64.206126) scale(-1, 1) rotate(-15.000000) translate(-92.087194, -64.206126) "></path>
                    <path d="M69.2466022,38.5192605 L58,81 L197.242909,80.770111 C205.398642,80.756646 212.526188,75.2612637 214.613626,67.3771806 L225.861172,24.8961117 L86.6174062,25.126002 C78.461547,25.1394673 71.3339237,30.6350161 69.2466022,38.5192605 Z" fill="#241068" style="mix-blend-mode: multiply;" opacity="0.2" filter="url(#filter-6)" transform="translate(141.930586, 52.948056) scale(-1, 1) rotate(-15.000000) translate(-141.930586, -52.948056) "></path>
                </g>
                <path d="M241.965262,99.3155682 L241.825981,155 L106.424904,119.129456 C98.515287,117.034035 93.0141811,109.867394 93.0345186,101.684948 L93.1729236,46 L228.574877,81.8707764 C236.484596,83.9662246 241.985729,91.1330168 241.965262,99.3155682 Z" id="Fill-1-Copy-9" fill-opacity="0.5" fill="url(#linearGradient-7)" transform="translate(167.500000, 100.500000) scale(-1, 1) translate(-167.500000, -100.500000) "></path>
            </g>
            <path d="M384.645254,169.046868 L371.388593,219.808123 L491.633731,219.808123 C502.552687,219.808123 512.09543,212.43769 514.854747,201.873137 L528.113064,151.111244 L407.866437,151.111244 C396.947236,151.111244 387.404344,158.482003 384.645254,169.046868 Z" id="Fill-1-Copy-18" stroke="url(#linearGradient-1)" opacity="0.5" transform="translate(449.750829, 185.459684) scale(-1, 1) rotate(-15.000000) translate(-449.750829, -185.459684) "></path>
            <path d="M158.994903,21.9147329 L147,67 L230.407374,67 C235.846451,67 240.605363,63.3417375 242.003902,58.0855368 L254,13 L170.591503,13 C165.152322,13 160.393347,16.6583994 158.994903,21.9147329 Z" id="Fill-1-Copy-18" stroke="url(#linearGradient-8)" fill-opacity="0.5" fill="url(#linearGradient-8)" opacity="0.2" transform="translate(200.500000, 40.000000) scale(-1, 1) rotate(-15.000000) translate(-200.500000, -40.000000) "></path>
        </g>
    </g>
</svg>