<?xml version="1.0" encoding="UTF-8"?>
<svg width="1440px" height="460px" viewBox="0 0 1440 460" version="1.1" xmlns="http://www.w3.org/2000/svg" xmlns:xlink="http://www.w3.org/1999/xlink">
    <!-- Generator: Sketch 51.3 (57544) - http://www.bohemiancoding.com/sketch -->
    <title>bg_home_full</title>
    <desc>Created with Sketch.</desc>
    <defs>
        <linearGradient x1="100%" y1="0%" x2="0%" y2="35.5412183%" id="linearGradient-1">
            <stop stop-color="#8697F3" offset="0%"></stop>
            <stop stop-color="#4E5EE4" offset="100%"></stop>
        </linearGradient>
        <linearGradient x1="100%" y1="0%" x2="0%" y2="100%" id="linearGradient-2">
            <stop stop-color="#A134D1" offset="0%"></stop>
            <stop stop-color="#6746D6" offset="100%"></stop>
        </linearGradient>
        <linearGradient x1="100%" y1="0%" x2="50%" y2="100%" id="linearGradient-3">
            <stop stop-color="#8697F3" offset="0%"></stop>
            <stop stop-color="#4E5EE4" offset="100%"></stop>
        </linearGradient>
        <linearGradient x1="-1.11022302e-14%" y1="1.72254642e-14%" x2="100%" y2="100%" id="linearGradient-4">
            <stop stop-color="#3677FF" offset="0%"></stop>
            <stop stop-color="#1ECFF7" offset="100%"></stop>
        </linearGradient>
        <linearGradient x1="100%" y1="0%" x2="-9.81285548%" y2="100%" id="linearGradient-5">
            <stop stop-color="#8697F3" offset="0%"></stop>
            <stop stop-color="#4E5EE4" offset="100%"></stop>
        </linearGradient>
        <linearGradient x1="-36.9725676%" y1="38.9735931%" x2="100%" y2="100%" id="linearGradient-6">
            <stop stop-color="#00F1D9" offset="0%"></stop>
            <stop stop-color="#00D4F6" offset="100%"></stop>
        </linearGradient>
        <linearGradient x1="45.7652794%" y1="100%" x2="100%" y2="0%" id="linearGradient-7">
            <stop stop-color="#00F1D9" offset="0%"></stop>
            <stop stop-color="#00D4F6" offset="100%"></stop>
        </linearGradient>
        <linearGradient x1="0%" y1="100%" x2="90.3104483%" y2="100%" id="linearGradient-8">
            <stop stop-color="#00F1D9" offset="0%"></stop>
            <stop stop-color="#00D4F6" offset="100%"></stop>
        </linearGradient>
        <path d="M0.132946384,292.1425 L-1,296.603227 L207.416813,296.361201 C210.187374,296.357984 212.595472,294.458191 213.243443,291.764468 L213.745373,289.677859 C214.444095,286.773155 212.655793,283.852002 209.75109,283.15328 C209.335922,283.053412 208.910389,283.003053 208.483378,283.003256 L11.7579882,283.096503 C6.27044362,283.099104 1.48379778,286.823821 0.132946384,292.1425 Z" id="path-9"></path>
        <linearGradient x1="127.64727%" y1="111.325661%" x2="0%" y2="66.7393882%" id="linearGradient-10">
            <stop stop-color="#4E5EE4" offset="0%"></stop>
            <stop stop-color="#8697F3" offset="100%"></stop>
        </linearGradient>
    </defs>
    <g id="OZ-desktop" stroke="none" stroke-width="1" fill="none" fill-rule="evenodd">
        <g id="Group-19" transform="translate(-100.258819, -76.541477)">
            <path d="M258.258819,476.866149 L258.258819,509.212674 C258.258819,512.526383 260.945111,515.212674 264.258819,515.212674 C264.7752,515.212674 265.289421,515.146013 265.788733,515.014343 L360.458248,490.049761 C378.021086,485.418397 390.258819,469.535195 390.258819,451.371968 L390.258819,418.804877 C390.258819,415.491169 387.572528,412.804877 384.258819,412.804877 C383.738067,412.804877 383.219531,412.872672 382.716282,413.006552 L287.975241,438.210645 C270.453811,442.871896 258.258819,458.735299 258.258819,476.866149 Z" id="Fill-1-Copy-34" stroke="url(#linearGradient-4)" stroke-width="2" transform="translate(324.258819, 464.000000) rotate(180.000000) translate(-324.258819, -464.000000) "></path>
            <path d="M1183.23675,165.811227 L1280.35612,165.597699 C1283.06124,165.591751 1285.42785,163.776379 1286.13456,161.165198 L1286.50572,159.793813 C1287.16692,157.350763 1285.72245,154.834269 1283.2794,154.173066 C1282.88566,154.066502 1282.47945,154.012984 1282.07155,154.01393 L1184.889,154.239475 C1182.15977,154.245809 1179.77867,156.093284 1179.09451,158.735376 L1178.75737,160.037299 C1178.11821,162.505586 1179.60101,165.024669 1182.0693,165.663829 C1182.45057,165.762558 1182.84291,165.812093 1183.23675,165.811227 Z" id="Fill-1-Copy-37" fill="url(#linearGradient-5)" transform="translate(1232.666306, 159.912185) scale(-1, 1) rotate(-15.000000) translate(-1232.666306, -159.912185) "></path>
            <path d="M170.28276,151.290298 L227.115245,151.132051 C229.044757,151.126678 230.60458,149.558144 230.599208,147.628633 C230.598322,147.310396 230.553959,146.993773 230.46735,146.687548 L230.452862,146.63632 C229.720404,144.046536 227.353057,142.261338 224.661698,142.269248 L167.850681,142.436229 C165.913428,142.441923 164.34759,144.016993 164.353284,145.954246 C164.3542,146.265868 164.396638,146.57598 164.479477,146.876392 L164.481933,146.885298 C165.201173,149.493593 167.577126,151.297831 170.28276,151.290298 Z" id="Fill-1-Copy-38" fill="url(#linearGradient-2)" transform="translate(197.489781, 146.779463) scale(-1, 1) rotate(15.000000) translate(-197.489781, -146.779463) "></path>
            <path d="M1434.79972,311.987201 L1511.69566,311.772571 C1514.06843,311.765948 1515.98658,309.837063 1515.97996,307.464285 C1515.97893,307.097763 1515.93101,306.732878 1515.83736,306.378521 L1515.60005,305.480562 C1514.90254,302.841328 1512.51137,301.005611 1509.78153,301.013654 L1432.82993,301.240379 C1430.47802,301.247309 1428.57704,303.159527 1428.58397,305.511438 C1428.58508,305.888871 1428.63636,306.264481 1428.73647,306.628397 L1428.99787,307.578626 C1429.71586,310.188708 1432.09269,311.994757 1434.79972,311.987201 Z" id="Fill-1-Copy-39" fill="url(#linearGradient-6)" transform="translate(1472.258819, 306.500000) rotate(15.000000) translate(-1472.258819, -306.500000) "></path>
            <path d="M1431.36465,328.081974 L1428.25882,339.673084 L1533.87488,339.549801 L1637.02074,339.429403 C1639.80111,339.426157 1642.21502,337.513165 1642.85343,334.807077 L1643.11179,333.711933 C1643.70063,331.215928 1642.15457,328.715164 1639.65857,328.12632 C1639.30858,328.043752 1638.95018,328.002119 1638.59059,328.002258 L1491.16165,328.058971 L1431.36465,328.081974 Z" id="Fill-1-Copy-40" fill="url(#linearGradient-7)" opacity="0" transform="translate(1536.359068, 333.836542) scale(-1, 1) rotate(-15.000000) translate(-1536.359068, -333.836542) "></path>
            <path d="M296.328869,37 L271.315652,130.266093 C269.5989,136.667297 273.3964,143.248201 279.797604,144.964953 C280.815881,145.238047 281.865707,145.375761 282.919969,145.374539 L497.574377,145.125707 C519.269148,145.100558 538.250174,130.52654 543.876479,109.574012 L563.258819,37.3935928 L296.328869,37 Z" id="Fill-1-Copy-41" stroke="url(#linearGradient-8)" stroke-width="2" transform="translate(415.258819, 91.196347) rotate(-15.000000) translate(-415.258819, -91.196347) "></path>
            <g id="Fill-1-Copy-25" transform="translate(107.175861, 289.801613) rotate(-15.000000) translate(-107.175861, -289.801613) ">
                <use fill="url(#linearGradient-2)" xlink:href="#path-9"></use>
                <use fill="url(#linearGradient-3)" xlink:href="#path-9"></use>
            </g>
            <path d="M1540.21918,14.0497309 L1540.25882,205 L1360.54913,156.613857 C1325.58481,147.19985 1301.27988,115.454668 1301.27235,79.191216 L1301.25882,14 L1540.21918,14.0497309 Z" id="Fill-1-Copy-42" fill="url(#linearGradient-10)" opacity="0.4"></path>
        </g>
    </g>
</svg>