<?xml version="1.0" encoding="UTF-8"?>
<svg width="1440px" height="500px" viewBox="0 0 1440 500" version="1.1" xmlns="http://www.w3.org/2000/svg" xmlns:xlink="http://www.w3.org/1999/xlink">
    <!-- Generator: Sketch 51.3 (57544) - http://www.bohemiancoding.com/sketch -->
    <title>bg_starterkits_full</title>
    <desc>Created with Sketch.</desc>
    <defs>
        <linearGradient x1="100%" y1="0%" x2="16.2214949%" y2="83.7785051%" id="linearGradient-1">
            <stop stop-color="#00D4F6" stop-opacity="0.3" offset="0%"></stop>
            <stop stop-color="#00EBDF" stop-opacity="0" offset="100%"></stop>
        </linearGradient>
        <linearGradient x1="0%" y1="0%" x2="100%" y2="100%" id="linearGradient-2">
            <stop stop-color="#00D4F6" offset="0%"></stop>
            <stop stop-color="#00F1D9" offset="100%"></stop>
        </linearGradient>
        <linearGradient x1="100%" y1="0%" x2="0%" y2="100%" id="linearGradient-3">
            <stop stop-color="#00D4F6" offset="0%"></stop>
            <stop stop-color="#00F1D9" offset="100%"></stop>
        </linearGradient>
        <linearGradient x1="100%" y1="0%" x2="0%" y2="100%" id="linearGradient-4">
            <stop stop-color="#00EBDF" stop-opacity="0.5" offset="0%"></stop>
            <stop stop-color="#00D8F2" stop-opacity="0" offset="100%"></stop>
        </linearGradient>
        <linearGradient x1="-36.9725676%" y1="38.9735931%" x2="100%" y2="100%" id="linearGradient-5">
            <stop stop-color="#00F1D9" offset="0%"></stop>
            <stop stop-color="#00D4F6" offset="100%"></stop>
        </linearGradient>
        <linearGradient x1="0%" y1="0%" x2="95.0808759%" y2="100%" id="linearGradient-6">
            <stop stop-color="#00F1D9" offset="0%"></stop>
            <stop stop-color="#00D4F6" offset="100%"></stop>
        </linearGradient>
        <linearGradient x1="100%" y1="0%" x2="50%" y2="100%" id="linearGradient-7">
            <stop stop-color="#8697F3" offset="0%"></stop>
            <stop stop-color="#4E5EE4" offset="100%"></stop>
        </linearGradient>
        <linearGradient x1="100%" y1="0%" x2="0%" y2="100%" id="linearGradient-8">
            <stop stop-color="#8697F3" offset="0%"></stop>
            <stop stop-color="#F8F8FA" offset="100%"></stop>
        </linearGradient>
    </defs>
    <g id="OZ-desktop" stroke="none" stroke-width="1" fill="none" fill-rule="evenodd">
        <g id="Group-26" transform="translate(-1.000000, 94.000000)">
            <polygon id="Rectangle" fill="#F8F8FA" points="0 272.911765 496 405.911765 0 405.911765"></polygon>
            <polygon id="Rectangle" fill="#F8F8FA" transform="translate(1192.000000, 339.411765) scale(-1, 1) translate(-1192.000000, -339.411765) " points="944 272.911765 1440 405.911765 944 405.911765"></polygon>
            <path d="M919.000435,133.611442 L919.002862,235.928759 C919.002941,239.242468 921.689296,241.928695 925.003005,241.928617 C925.537176,241.928604 926.068954,241.857258 926.584239,241.71647 L1120.16275,188.826307 C1125.38085,187.400602 1129,182.659955 1129,177.2506 L1129,65.7710271 C1129,62.4573186 1126.31371,59.7710271 1123,59.7710271 C1122.46578,59.7710271 1121.93395,59.8423732 1121.41862,59.9831735 L936.674929,110.459458 C926.23854,113.310923 919.000178,122.792521 919.000435,133.611442 Z" id="Fill-1-Copy-10" fill-opacity="0.5" fill="url(#linearGradient-1)"></path>
            <path d="M997.957719,240.932092 L997.689335,329.368974 L854.47626,291.815058 C846.54161,289.734402 841.017276,282.552317 841.042013,274.34944 L841.285332,193.663734 C841.295325,190.35004 843.989705,187.671862 847.303399,187.681855 C847.810945,187.683385 848.316246,187.74931 848.807196,187.878049 L984.523475,223.46613 C992.458248,225.546819 997.982614,232.729087 997.957719,240.932092 Z" id="Fill-1-Copy-9" stroke="url(#linearGradient-2)" transform="translate(919.500000, 257.640369) scale(-1, 1) translate(-919.500000, -257.640369) "></path>
            <path d="M1144.00019,304.45673 L1144.00113,351.442443 C1144.0012,354.756151 1146.68755,357.442389 1150.00126,357.442322 C1150.52854,357.442311 1151.05353,357.372794 1151.56265,357.235566 L1224.12303,337.677612 C1229.36075,336.265835 1233,331.515773 1233,326.091124 L1233,279.105034 C1233,275.791326 1230.31371,273.105034 1227,273.105034 C1226.47267,273.105034 1225.94764,273.174552 1225.43849,273.31179 L1152.87716,292.87 C1147.63935,294.2818 1144.00008,299.031991 1144.00019,304.45673 Z" id="Fill-1-Copy-10" fill-opacity="0.5" fill="url(#linearGradient-3)"></path>
            <path d="M248.028218,211.503628 L248.400624,333.411765 L413.616638,289.143655 C421.50563,287.029873 426.982736,279.869554 426.957949,271.702324 L426.649283,170.00123 C426.629169,163.373843 421.240305,158.017591 414.612918,158.037705 C413.576451,158.040851 412.544758,158.178265 411.543601,158.446516 L256.922424,199.875836 C251.663011,201.285047 248.011584,206.058719 248.028218,211.503628 Z" id="Fill-1-Copy-23" fill-opacity="0.6" fill="url(#linearGradient-4)"></path>
            <path d="M179.028218,299.715933 L179.331242,398.911765 L313.616638,362.93123 C321.50563,360.817447 326.982736,353.657129 326.957949,345.489898 L326.718216,266.50123 C326.698102,259.873843 321.309238,254.517591 314.681851,254.537705 C313.645384,254.540851 312.613691,254.678265 311.612534,254.946516 L187.922424,288.088141 C182.663011,289.497353 179.011584,294.271025 179.028218,299.715933 Z" id="Fill-1-Copy-22" stroke="url(#linearGradient-3)" fill-opacity="0.4" fill="#FFFFFF" transform="translate(253.000000, 324.911765) scale(-1, 1) translate(-253.000000, -324.911765) "></path>
            <path d="M1.70530257e-12,66.7558955 L119.79226,34.9117647 L119.958131,89.9133246 C119.982801,98.0936336 114.488302,105.261886 106.582518,107.363464 L1.71240799e-12,135.696076 L1.71240799e-12,66.7558955 Z" id="Combined-Shape" fill="url(#linearGradient-5)" opacity="0.6"></path>
            <path d="M1408.95759,38.7344745 L1408.89022,60.8235294 L1328.43962,39.5457264 C1320.52296,37.4519067 1315.01732,30.2783418 1315.04214,22.0895131 L1315.10909,7.9847893e-14 L1395.56012,21.2779152 C1403.4769,23.3717679 1408.98257,30.5455175 1408.95759,38.7344745 Z" id="Fill-1-Copy-9" stroke="url(#linearGradient-2)" transform="translate(1362.000000, 30.411765) scale(-1, 1) translate(-1362.000000, -30.411765) "></path>
            <path d="M286.268662,62.522049 L286.22939,62.6686117 C285.709069,64.6104768 286.861458,66.6064732 288.803323,67.1267944 C289.112067,67.209522 289.430362,67.251224 289.749996,67.2508247 L347.756016,67.1783509 C350.485927,67.1749401 352.869415,65.3291217 353.555782,62.6869016 L353.58192,62.5862802 C354.090185,60.6296771 352.916074,58.6315069 350.959471,58.1232423 C350.657518,58.0448042 350.346776,58.0052912 350.034801,58.0056641 L292.057045,58.0749675 C289.344078,58.0782104 286.97083,59.9015229 286.268662,62.522049 Z" id="Fill-1-Copy-20" fill="url(#linearGradient-6)" opacity="0.4" transform="translate(319.886646, 62.628380) rotate(-15.000000) translate(-319.886646, -62.628380) "></path>
            <path d="M313,40.7641735 L313,86.0525024 C313,89.3662109 315.686292,92.0525024 319,92.0525024 C319.534219,92.0525024 320.066046,91.9811562 320.581377,91.8403559 L381.998998,75.0596296 L381.999852,29.7711806 C381.999914,26.4574721 379.313673,23.77113 375.999965,23.7710675 C375.465708,23.7710575 374.933842,23.8424037 374.418475,23.983214 L313,40.7641735 Z" id="Fill-1-Copy-12" fill-opacity="0.05" fill="url(#linearGradient-7)"></path>
            <path d="M1094.88202,109.393669 L1094.84274,109.540232 C1094.32242,111.482097 1095.47481,113.478094 1097.41668,113.998415 C1097.72542,114.081142 1098.04372,114.122844 1098.36335,114.122445 L1156.36937,114.049971 C1159.09928,114.04656 1161.48277,112.200742 1162.16914,109.558522 L1162.19527,109.457901 C1162.70354,107.501297 1161.52943,105.503127 1159.57282,104.994863 C1159.27087,104.916425 1158.96013,104.876912 1158.64815,104.877284 L1100.6704,104.946588 C1097.95743,104.949831 1095.58418,106.773143 1094.88202,109.393669 Z" id="Fill-1-Copy-20" fill="url(#linearGradient-6)" transform="translate(1128.500000, 109.500000) rotate(-15.000000) translate(-1128.500000, -109.500000) "></path>
            <path d="M1199,326.96351 L1199,394.109952 C1199,397.423661 1201.68629,400.109952 1205,400.109952 C1205.53862,400.109952 1206.07478,400.037426 1206.59405,399.894329 L1382.18809,351.504514 C1387.39364,350.06998 1391,345.335358 1391,339.93576 L1391,272.78891 C1391,269.475201 1388.31371,266.78891 1385,266.78891 C1384.46138,266.78891 1383.92521,266.861437 1383.40594,267.004536 L1207.81188,315.394763 C1202.60634,316.829306 1199,321.563922 1199,326.96351 Z" id="Fill-1-Copy-14" fill-opacity="0.11" fill="url(#linearGradient-8)"></path>
            <path d="M52.2686618,297.522049 L52.2293905,297.668612 C51.7090693,299.610477 52.8614583,301.606473 54.8033234,302.126794 C55.1120669,302.209522 55.4303618,302.251224 55.7499963,302.250825 L113.756016,302.178351 C116.485927,302.17494 118.869415,300.329122 119.555782,297.686902 L119.58192,297.58628 C120.090185,295.629677 118.916074,293.631507 116.959471,293.123242 C116.657518,293.044804 116.346776,293.005291 116.034801,293.005664 L58.0570447,293.074968 C55.3440785,293.07821 52.9708297,294.901523 52.2686618,297.522049 Z" id="Fill-1-Copy-20" fill="url(#linearGradient-6)" transform="translate(85.886646, 297.628380) rotate(-15.000000) translate(-85.886646, -297.628380) "></path>
        </g>
    </g>
</svg>