<?xml version="1.0" encoding="UTF-8"?>
<svg width="36px" height="36px" viewBox="0 0 36 36" version="1.1" xmlns="http://www.w3.org/2000/svg" xmlns:xlink="http://www.w3.org/1999/xlink">
    <!-- Generator: Sketch 51.3 (57544) - http://www.bohemiancoding.com/sketch -->
    <title>ic_TPL</title>
    <desc>Created with Sketch.</desc>
    <defs>
        <linearGradient x1="100%" y1="100%" x2="0%" y2="0%" id="linearGradient-1">
            <stop stop-color="#9166E5" offset="0%"></stop>
            <stop stop-color="#8061D8" offset="100%"></stop>
        </linearGradient>
    </defs>
    <g id="Zeppelin-Desktop" stroke="none" stroke-width="1" fill="none" fill-rule="evenodd">
        <g id="Data" transform="translate(-813.000000, -335.000000)">
            <g id="Group-20" transform="translate(786.000000, 170.000000)">
                <g id="Group-13" transform="translate(1.000000, 37.000000)">
                    <g id="Group-12" transform="translate(26.000000, 128.000000)">
                        <g id="ic_TPL">
                            <rect id="Rectangle-path" fill="url(#linearGradient-1)" fill-rule="nonzero" x="0" y="0" width="35.9113196" height="35.9113196" rx="17.9556598"></rect>
                            <path d="M13.9915966,16.2 L12.2184874,16.2 L12.2184874,21 L10.7731092,21 L10.7731092,16.2 L9,16.2 L9,15 L13.9915966,15 L13.9915966,16.2 Z M15.5042017,15 L18.0504202,15 C19.5546218,15 20.4117647,15.7542857 20.4117647,17.0914286 C20.4117647,18.4885714 19.5546218,19.3028571 18.0504202,19.3028571 L16.9495798,19.3028571 L16.9495798,21 L15.5042017,21 L15.5042017,15 Z M16.9495798,16.1657143 L16.9495798,18.1285714 L17.9747899,18.1285714 C18.6554622,18.1285714 19.0420168,17.7942857 19.0420168,17.1342857 C19.0420168,16.4914286 18.6554622,16.1657143 17.9747899,16.1657143 L16.9495798,16.1657143 Z M23.4957983,19.7571429 L26,19.7571429 L26,21 L22.0504202,21 L22.0504202,15 L23.4957983,15 L23.4957983,19.7571429 Z" id="Title-Copy" fill="#FFFFFF"></path>
                        </g>
                    </g>
                </g>
            </g>
        </g>
    </g>
</svg>