<?xml version="1.0" encoding="UTF-8"?>
<svg width="36px" height="36px" viewBox="0 0 36 36" version="1.1" xmlns="http://www.w3.org/2000/svg" xmlns:xlink="http://www.w3.org/1999/xlink">
    <!-- Generator: Sketch 51.3 (57544) - http://www.bohemiancoding.com/sketch -->
    <title>ic_zOS</title>
    <desc>Created with Sketch.</desc>
    <defs>
        <linearGradient x1="0.522038907%" y1="0.981240075%" x2="97.597976%" y2="99.463899%" id="linearGradient-1">
            <stop stop-color="#000000" offset="0%"></stop>
            <stop stop-color="#3B3D43" offset="100%"></stop>
        </linearGradient>
    </defs>
    <g id="Zeppelin-Desktop" stroke="none" stroke-width="1" fill="none" fill-rule="evenodd">
        <g id="Data" transform="translate(-813.000000, -271.000000)" fill-rule="nonzero">
            <g id="Group-20" transform="translate(786.000000, 170.000000)">
                <g id="Group-13" transform="translate(1.000000, 37.000000)">
                    <g id="Group-11" transform="translate(26.000000, 64.000000)">
                        <g id="ic_zOS">
                            <rect id="Rectangle-path" fill="url(#linearGradient-1)" x="0" y="0" width="35.9113196" height="35.9113196" rx="17.9556598"></rect>
                            <polygon id="Shape" fill="#FFFFFF" points="8.76246334 22.0465689 8.76246334 21.5788856 11.2022287 18.2470381 8.76246334 18.2470381 8.76246334 17.7793548 11.7965982 17.7793548 11.7965982 18.2470381 9.37794721 21.5788856 11.7997654 21.5788856 11.7997654 22.0465689"></polygon>
                            <path d="M16.7859238,13.6884457 C16.0025806,13.6884457 15.3248094,13.8890323 14.7747801,14.2849267 C14.2330654,14.6698528 13.8163943,15.2054678 13.5765396,15.8252199 C13.0850376,17.2029913 13.0850376,18.7083283 13.5765396,20.0860997 C13.8179473,20.7061796 14.23651,21.2414993 14.7800587,21.6253372 C15.3311437,22.0212317 16.0078592,22.2218182 16.7912023,22.2218182 C17.9598827,22.2218182 18.8604106,21.8143109 19.4674487,21.0109091 C20.0744868,20.2075073 20.3753666,19.181349 20.3753666,17.9556598 C20.3753666,16.7299707 20.0681525,15.7017009 19.4621701,14.9004106 C18.8561877,14.0991202 17.958827,13.6884457 16.7859238,13.6884457 Z M19.5497947,17.9556598 C19.5561348,18.5360865 19.465138,19.1134705 19.2805865,19.6638123 C19.1023966,20.1757656 18.7841868,20.6274773 18.3621114,20.9676246 C17.9156199,21.3243435 17.3571952,21.5113578 16.7859238,21.4954839 C16.351303,21.5034579 15.92194,21.39948 15.5391202,21.1935484 C15.1871433,21.000608 14.8894248,20.7221324 14.6734311,20.3838123 C14.4533871,20.0355317 14.2888406,19.6551514 14.1856891,19.256305 C13.9685574,18.4010143 13.9685574,17.5050268 14.1856891,16.6497361 C14.2894561,16.2515884 14.4543486,15.8719439 14.6744868,15.5243402 C14.8905157,15.1860494 15.1882258,14.9075815 15.540176,14.7146041 C15.9226824,14.5088486 16.3516591,14.4048763 16.7859238,14.4126686 C17.3571816,14.3968864 17.9155755,14.5838904 18.3621114,14.9405279 C18.7843057,15.2810013 19.10252,15.733085 19.2805865,16.2453959 C19.4668251,16.7961583 19.559254,17.3742851 19.5540176,17.9556598 L19.5497947,17.9556598 Z" id="Shape" fill="#67EAEC"></path>
                            <path d="M26.8933724,18.9533138 C26.7343934,18.6773137 26.5085897,18.4457016 26.2367155,18.2797654 C25.9551617,18.1109389 25.6595109,17.9668224 25.3530792,17.8490323 C25.0363636,17.7244575 24.7101466,17.6072727 24.3923754,17.4985337 C24.0917624,17.3974311 23.7986093,17.2753722 23.5150733,17.1332551 C23.2621852,17.0084377 23.0425529,16.8253504 22.8742522,16.5990616 C22.7097069,16.3699319 22.6241147,16.0935174 22.6303812,15.8114956 C22.6303812,15.3248094 22.7940176,14.9595308 23.1170674,14.7251613 C23.4401173,14.4907918 23.8634604,14.3683284 24.3670381,14.3683284 C25.4913783,14.3683284 26.1015836,14.801173 26.1828739,15.656305 L26.1828739,15.6774194 L26.9524927,15.6774194 L26.9524927,15.6520821 C26.8469208,14.3493255 25.9653959,13.6895015 24.3332551,13.6895015 C23.6090323,13.6895015 22.9998827,13.8805865 22.5248094,14.2585337 C22.0497361,14.6364809 21.8048094,15.1865103 21.8048094,15.8906745 C21.7963435,16.2438985 21.8831347,16.5928865 22.0560704,16.9009971 C22.2149083,17.1773832 22.4407235,17.4093702 22.7127273,17.5756012 C22.9941921,17.7445917 23.2898575,17.8887153 23.5963636,18.0063343 C23.9130792,18.1309091 24.2403519,18.2470381 24.5570674,18.3504985 C24.8565871,18.4479237 25.1496118,18.5642873 25.4343695,18.6988856 C25.6848525,18.8150596 25.9044033,18.9886747 26.0751906,19.2056305 C26.2381542,19.420242 26.3237304,19.6836679 26.3180059,19.9530792 C26.3180059,21.0003519 25.7035777,21.5366569 24.4905572,21.5366569 C23.2775367,21.5366569 22.5902639,20.988739 22.4371848,19.9097947 L22.4371848,19.8897361 L21.6211144,19.8897361 L21.6211144,19.916129 C21.810088,21.450088 22.7824047,22.2281525 24.5222287,22.2281525 C25.3214076,22.2281525 25.9643402,22.0465689 26.4320235,21.6876246 C26.8997067,21.3286804 27.1414663,20.7459238 27.1414663,19.9594135 C27.1511299,19.6077976 27.0653979,19.260127 26.8933724,18.9533138 Z" id="Shape" fill="#67EAEC"></path>
                        </g>
                    </g>
                </g>
            </g>
        </g>
    </g>
</svg>