<?xml version="1.0" encoding="UTF-8"?>
<svg width="40px" height="40px" viewBox="0 0 40 40" version="1.1" xmlns="http://www.w3.org/2000/svg" xmlns:xlink="http://www.w3.org/1999/xlink">
    <!-- Generator: Sketch 49.3 (51167) - http://www.bohemiancoding.com/sketch -->
    <title>Blog</title>
    <desc>Created with Sketch.</desc>
    <defs></defs>
    <g id="Blog" stroke="none" stroke-width="1" fill="none" fill-rule="evenodd">
        <path d="M15.8,13 L29.8,13 L29.8,10.2 L15.8,10.2 L15.8,13 Z M15.8,24.2 L24.2,24.2 L24.2,21.4 L15.8,21.4 L15.8,24.2 Z M15.8,18.6 L29.8,18.6 L29.8,15.8 L15.8,15.8 L15.8,18.6 Z M14.4,6 C12.86,6 11.6,7.26 11.6,8.8 L11.6,25.6 C11.6,27.14 12.86,28.4 14.4,28.4 L31.2,28.4 C32.74,28.4 34,27.14 34,25.6 L34,8.8 C34,7.26 32.74,6 31.2,6 L14.4,6 Z M8.8,11.6 L6,11.6 L6,31.2 C6,32.74 7.26,34 8.8,34 L28.4,34 L28.4,31.2 L8.8,31.2 L8.8,11.6 Z" id="Page-1-Copy" fill="#273B5A"></path>
    </g>
</svg>