<svg xmlns="http://www.w3.org/2000/svg" viewBox="0 0 82.57 90.02" class="jsx-3444408384"><metadata class="jsx-3444408384">Lorem ipsum dolor sit amet consectetur adipiscing elit gravida ultrices enim non dictumst, rutrum elementum dignissim est a ridiculus habitasse condimentum porttitor cum porta. Dictumst auctor ante litora mattis orci porttitor netus nulla nunc ad, phasellus habitant feugiat per facilisis pretium fames non nibh neque, proin lacus nascetur pharetra ac suscipit tempor viverra lacinia. EthHunt Password: meta-hunt. Felis phasellus potenti vulputate tristique conubia leo nisl molestie, magna interdum purus sed libero tincidunt fermentum vivamus natoque, taciti urna mollis cubilia lobortis congue quisque.</metadata><defs class="jsx-3444408384"></defs><g id="TOP" class="jsx-3444408384"><polygon points="17.49 39.37 39.49 1.85 39.49 47.38 17.49 39.37" class="jsx-3444408384 cls-1"></polygon></g><g id="TOP-2" data-name="TOP" class="jsx-3444408384"><polygon points="65.76 39.37 43.76 1.84 43.76 47.38 65.76 39.37" class="jsx-3444408384 cls-2"></polygon></g><g id="BOT" class="jsx-3444408384"><polygon points="66.71 41.49 44.21 49.85 81.36 67.18 66.71 41.49" class="jsx-3444408384 cls-1"></polygon></g><g id="BOT-2" data-name="BOT" class="jsx-3444408384"><polygon points="16.27 41.98 37.92 50.01 2.17 66.7 16.27 41.98" class="jsx-3444408384 cls-2"></polygon></g><g id="_5" data-name="5" class="jsx-3444408384"><polygon points="78.45 68.25 43.27 51.89 43.27 68.25 78.45 68.25" class="jsx-3444408384 cls-1"></polygon></g><g id="_6" data-name="6" class="jsx-3444408384"><polygon points="39.59 71 39.59 89.21 2.17 71 39.59 71" class="jsx-3444408384 cls-2"></polygon></g><g id="Capa_8" data-name="Capa 8" class="jsx-3444408384"><polygon points="79.7 71 43.27 89.21 43.27 71 79.7 71" class="jsx-3444408384 cls-1"></polygon></g><g id="Capa_9" data-name="Capa 9" class="jsx-3444408384"><polygon points="39.59 68.17 39.59 51.89 4.57 68.17 39.59 68.17" class="jsx-3444408384 cls-1"></polygon></g></svg>