<?xml version="1.0" standalone="no"?>
<!DOCTYPE svg PUBLIC "-//W3C//DTD SVG 20010904//EN"
 "http://www.w3.org/TR/2001/REC-SVG-20010904/DTD/svg10.dtd">
<svg version="1.0" xmlns="http://www.w3.org/2000/svg"
 width="980.000000pt" height="826.000000pt" viewBox="0 0 980.000000 826.000000"
 preserveAspectRatio="xMidYMid meet">
<metadata>
Created by potrace 1.15, written by Peter Selinger 2001-2017
</metadata>
<g transform="translate(0.000000,826.000000) scale(0.100000,-0.100000)"
fill="#000000" stroke="none">
<path d="M1225 8235 c-250 -40 -491 -148 -692 -309 -209 -169 -378 -416 -461
-676 -71 -223 -67 -102 -67 -1830 0 -1478 1 -1560 19 -1655 55 -297 187 -547
401 -760 163 -164 328 -268 545 -346 69 -25 104 -42 102 -51 -22 -88 -134
-293 -235 -428 -84 -115 -313 -345 -457 -461 -88 -71 -106 -90 -108 -116 -4
-40 28 -66 117 -94 83 -27 351 -38 499 -19 525 64 1097 322 1597 721 113 90
321 274 374 333 l24 26 1746 0 c1068 0 1793 4 1866 10 353 30 654 169 906 420
218 217 349 464 405 765 18 95 19 177 19 1655 0 1465 -1 1560 -18 1645 -61
299 -195 553 -401 759 -206 206 -430 328 -736 402 -71 18 -206 18 -2720 20
-2111 2 -2661 0 -2725 -11z m1224 -2444 c123 -38 229 -132 284 -251 40 -85 49
-217 22 -316 -64 -238 -317 -382 -560 -318 -222 57 -375 292 -337 516 31 177
150 314 320 369 77 24 193 24 271 0z m1600 0 c84 -26 137 -60 199 -125 176
-186 168 -477 -18 -649 -273 -253 -705 -106 -770 262 -39 215 102 443 318 512
77 24 193 24 271 0z m1604 -1 c168 -52 288 -191 319 -368 38 -226 -113 -458
-337 -517 -295 -76 -575 141 -575 448 0 311 296 529 593 437z"/>
<path d="M8496 6773 c-3 -4 -6 -662 -6 -1464 0 -1611 2 -1550 -64 -1813 -186
-733 -777 -1321 -1514 -1506 -268 -68 -150 -64 -2039 -67 l-1711 -4 -59 -52
c-145 -129 -309 -256 -480 -374 l-102 -70 22 -21 c79 -74 311 -190 472 -237
199 -57 114 -55 2078 -55 l1809 0 133 -123 c73 -68 180 -163 237 -210 581
-478 1284 -767 1861 -767 236 0 397 48 397 119 0 36 -8 44 -125 136 -55 44
-159 138 -231 210 -198 198 -336 394 -419 597 l-34 82 86 28 c496 162 862 582
970 1113 17 85 18 180 18 1650 0 1720 4 1610 -62 1819 -157 503 -586 893
-1088 989 -127 24 -142 26 -149 20z"/>
</g>
</svg>
