<?xml version="1.0" encoding="UTF-8"?>
<svg width="600px" height="500px" viewBox="0 0 600 500" version="1.1" xmlns="http://www.w3.org/2000/svg" xmlns:xlink="http://www.w3.org/1999/xlink">
    <!-- Generator: Sketch 55.2 (78181) - https://sketchapp.com -->
    <title>bg_contracts_right</title>
    <desc>Created with Sketch.</desc>
    <defs>
        <linearGradient x1="100%" y1="25.9266972%" x2="0%" y2="74.0733028%" id="linearGradient-1">
            <stop stop-color="#A134D1" offset="0%"></stop>
            <stop stop-color="#6746D6" offset="100%"></stop>
        </linearGradient>
        <linearGradient x1="89.1891937%" y1="0%" x2="10.8108063%" y2="100%" id="linearGradient-2">
            <stop stop-color="#A134D1" offset="0%"></stop>
            <stop stop-color="#6746D6" offset="100%"></stop>
        </linearGradient>
        <linearGradient x1="78.5411802%" y1="74.0733028%" x2="19.4222168%" y2="25.9266972%" id="linearGradient-3">
            <stop stop-color="#A134D1" offset="0%"></stop>
            <stop stop-color="#6746D6" offset="100%"></stop>
        </linearGradient>
        <linearGradient x1="100%" y1="29.18339%" x2="0%" y2="70.81661%" id="linearGradient-4">
            <stop stop-color="#6746D6" stop-opacity="0" offset="0%"></stop>
            <stop stop-color="#6746D6" offset="100%"></stop>
        </linearGradient>
        <linearGradient x1="66.7729762%" y1="0%" x2="50%" y2="100%" id="linearGradient-5">
            <stop stop-color="#FFFFFF" offset="0%"></stop>
            <stop stop-color="#4E5EE4" offset="100%"></stop>
        </linearGradient>
        <linearGradient x1="100%" y1="18.9921875%" x2="0%" y2="81.0078125%" id="linearGradient-6">
            <stop stop-color="#A134D1" offset="0%"></stop>
            <stop stop-color="#6746D6" offset="100%"></stop>
        </linearGradient>
    </defs>
    <g id="OZ-desktop" stroke="none" stroke-width="1" fill="none" fill-rule="evenodd">
        <path d="M129.55666,413.761806 L124.549956,432.693788 C122.855537,439.100941 126.675962,445.668562 133.083114,447.362981 C134.084293,447.62775 135.115534,447.761806 136.151131,447.761806 L160.572694,447.761806 L165.579804,428.830097 C167.274374,422.422985 163.454104,415.855273 157.046992,414.160703 C156.045728,413.895886 155.014393,413.761806 153.978701,413.761806 L129.55666,413.761806 Z" id="Fill-1-Copy-12" fill-opacity="0.2" fill="url(#linearGradient-1)" transform="translate(145.065107, 430.761806) rotate(-15.000000) translate(-145.065107, -430.761806) "></path>
        <g id="Group-10" transform="translate(-840.000000, 367.000000)" fill="#F8F8FA">
            <polygon id="Rectangle" transform="translate(1192.000000, 66.500000) scale(-1, 1) translate(-1192.000000, -66.500000) " points="944 0 1440 133 944 133"></polygon>
        </g>
        <path d="M175,489.694866 L174.68017,400.591602 C174.656382,393.964228 169.264549,388.610964 162.637174,388.63421 C161.600169,388.638475 160.568021,388.776602 159.566528,389.045682 L85.5294157,408.937904" id="Fill-1-Copy-23" stroke="url(#linearGradient-2)" opacity="0.5"></path>
        <path d="M159.55666,419.761806 L154.549956,438.693788 C152.855537,445.100941 156.675962,451.668562 163.083114,453.362981 C164.084293,453.62775 165.115534,453.761806 166.151131,453.761806 L190.572694,453.761806 L195.579804,434.830097 C197.274374,428.422985 193.454104,421.855273 187.046992,420.160703 C186.045728,419.895886 185.014393,419.761806 183.978701,419.761806 L159.55666,419.761806 Z" id="Fill-1-Copy-11" fill-opacity="0.5" fill="url(#linearGradient-3)" transform="translate(175.065107, 436.761806) rotate(-15.000000) translate(-175.065107, -436.761806) "></path>
        <path d="M390.000285,292.692978 L390.002587,348.289545 C390.002861,354.916962 395.375667,360.289323 402.003084,360.289048 C403.069532,360.289004 404.131216,360.146799 405.160084,359.86619 L599.93978,306.742855 L600,228.5 L396.630408,284.010228 C392.715623,285.078778 390.000117,288.634981 390.000285,292.692978 Z" id="Fill-1-Copy-10" fill-opacity="0.5" fill="url(#linearGradient-4)" opacity="0.866001674"></path>
        <path d="M447.028218,326.132896 L447.407339,450.238998 L599.955993,409.364991 L599.629936,276 L455.922424,314.505104 C450.663011,315.914316 447.011584,320.687988 447.028218,326.132896 Z" id="Fill-1-Copy-22" fill-opacity="0.5" fill="#FFFFFF"></path>
        <path d="M175.000092,195.646533 L175.00117,303.625557 C175.001203,306.939266 177.687522,309.62553 181.00123,309.625497 C181.53514,309.625492 182.066661,309.554223 182.581714,309.413578 L252.161087,290.41363 C257.380004,288.988508 261,284.247465 261,278.837468 L261,170.85809 C261,167.544382 258.313708,164.85809 255,164.85809 C254.46607,164.85809 253.934528,164.929359 253.419456,165.070009 L183.839004,184.070251 C178.620045,185.495386 175.000037,190.236492 175.000092,195.646533 Z" id="Fill-1-Copy-14" fill-opacity="0.2" fill="url(#linearGradient-5)" opacity="0.5"></path>
        <path d="M203.000259,217.118926 L203.000939,241.130351 C203.001033,244.444059 205.6874,247.130275 209.001109,247.130181 C209.537887,247.130166 210.072236,247.058119 210.58985,246.91597 L274.177824,229.45324 C279.388459,228.022279 283,223.285213 283,217.881662 L283,193.86988 C283,190.556172 280.313708,187.86988 277,187.86988 C276.463165,187.86988 275.928758,187.941927 275.411088,188.084091 L211.822435,205.547007 C206.611678,206.978002 203.000106,211.715248 203.000259,217.118926 Z" id="Fill-1-Copy-10" fill="url(#linearGradient-6)" opacity="0.6"></path>
    </g>
</svg>