<?xml version="1.0" encoding="UTF-8"?>
<svg width="600px" height="500px" viewBox="0 0 600 500" version="1.1" xmlns="http://www.w3.org/2000/svg" xmlns:xlink="http://www.w3.org/1999/xlink">
    <!-- Generator: Sketch 55.2 (78181) - https://sketchapp.com -->
    <title>bg_contracts_left</title>
    <desc>Created with Sketch.</desc>
    <defs>
        <linearGradient x1="100%" y1="3.40969683%" x2="0%" y2="96.5903032%" id="linearGradient-1">
            <stop stop-color="#F8F8FA" offset="0%"></stop>
            <stop stop-color="#6746D6" offset="100%"></stop>
        </linearGradient>
        <linearGradient x1="100%" y1="36.4239112%" x2="0%" y2="63.5760888%" id="linearGradient-2">
            <stop stop-color="#A134D1" offset="0%"></stop>
            <stop stop-color="#6746D6" offset="100%"></stop>
        </linearGradient>
        <path d="M31.3763245,20.865252 L10.443534,100.242459 C9.59855449,103.446624 11.5110522,106.729104 14.7152173,107.574084 C15.2177531,107.706609 15.7353778,107.77328 16.2550935,107.772422 L143.566273,107.562241 C149.007721,107.553258 153.762038,103.884003 155.149701,98.6224606 L171.741278,35.7128961 C173.431382,29.3046041 169.606534,22.7395574 163.198242,21.049454 C162.193089,20.7843579 161.15775,20.6509932 160.118228,20.6527094 L31.3763245,20.865252 Z" id="path-3"></path>
        <filter x="-8.9%" y="-26.7%" width="117.9%" height="153.5%" filterUnits="objectBoundingBox" id="filter-5">
            <feGaussianBlur stdDeviation="5" in="SourceGraphic"></feGaussianBlur>
        </filter>
        <linearGradient x1="100%" y1="43.9661669%" x2="0%" y2="50%" id="linearGradient-6">
            <stop stop-color="#F8F8FA" offset="0%"></stop>
            <stop stop-color="#F8F8FA" offset="100%"></stop>
        </linearGradient>
        <linearGradient x1="100%" y1="40.3933848%" x2="0%" y2="59.6066152%" id="linearGradient-7">
            <stop stop-color="#A134D1" offset="0%"></stop>
            <stop stop-color="#6746D6" offset="100%"></stop>
        </linearGradient>
        <linearGradient x1="100%" y1="37.2652633%" x2="0%" y2="62.7347367%" id="linearGradient-8">
            <stop stop-color="#A134D1" stop-opacity="0" offset="0%"></stop>
            <stop stop-color="#6746D6" offset="100%"></stop>
        </linearGradient>
    </defs>
    <g id="OZ-desktop" stroke="none" stroke-width="1" fill="none" fill-rule="evenodd">
        <g id="Group-10" transform="translate(-1.000000, 367.000000)" fill="#F8F8FA">
            <polygon id="Rectangle" points="0 0 496 133 0 133"></polygon>
        </g>
        <path d="M418.157896,429.999647 L582.276969,385.251768 C592.718965,382.404707 599.963402,372.920867 599.96371,362.097696 L599.96663,259.710373 C599.966819,253.082956 594.59439,247.71022 587.966973,247.710031 C586.900545,247.71 585.838871,247.852126 584.810001,248.132652 L409.642974,295.89281 C405.727394,296.960412 403.010774,300.516603 403.010447,304.575118 L403.001267,418.421301 C403.000732,425.048718 408.372882,430.421734 415.000299,430.422268 C416.066937,430.422354 417.128824,430.280228 418.157896,429.999647 Z" id="Fill-1-Copy-19" fill-opacity="0.5" fill="url(#linearGradient-1)" opacity="0.866001674" transform="translate(501.483539, 339.066261) scale(-1, 1) translate(-501.483539, -339.066261) "></path>
        <g id="Group-4" transform="translate(31.000000, 293.000000)">
            <g id="Fill-1-Copy-13" transform="translate(92.500000, 64.000000) scale(1, -1) translate(-92.500000, -64.000000) ">
                <mask id="mask-4" fill="white">
                    <use xlink:href="#path-3"></use>
                </mask>
                <use id="Mask" fill="url(#linearGradient-2)" transform="translate(92.087194, 64.206126) scale(-1, 1) rotate(-15.000000) translate(-92.087194, -64.206126) " xlink:href="#path-3"></use>
                <path d="M69.2466022,38.5192605 L58,81 L197.242909,80.770111 C205.398642,80.756646 212.526188,75.2612637 214.613626,67.3771806 L225.861172,24.8961117 L86.6174062,25.126002 C78.461547,25.1394673 71.3339237,30.6350161 69.2466022,38.5192605 Z" fill="#241068" style="mix-blend-mode: multiply;" opacity="0.2" filter="url(#filter-5)" mask="url(#mask-4)" transform="translate(141.930586, 52.948056) scale(-1, 1) rotate(-15.000000) translate(-141.930586, -52.948056) "></path>
            </g>
            <path d="M241.965262,99.3155682 L241.825981,155 L106.424904,119.129456 C98.515287,117.034035 93.0141811,109.867394 93.0345186,101.684948 L93.1729236,46 L228.574877,81.8707764 C236.484596,83.9662246 241.985729,91.1330168 241.965262,99.3155682 Z" id="Fill-1-Copy-9" fill-opacity="0.5" fill="url(#linearGradient-6)" transform="translate(167.500000, 100.500000) scale(-1, 1) translate(-167.500000, -100.500000) "></path>
        </g>
        <path d="M383.645254,246.046868 L370.388593,296.808123 L490.633731,296.808123 C501.552687,296.808123 511.09543,289.43769 513.854747,278.873137 L527.113064,228.111244 L406.866437,228.111244 C395.947236,228.111244 386.404344,235.482003 383.645254,246.046868 Z" id="Fill-1-Copy-18" stroke="url(#linearGradient-7)" opacity="0.5" transform="translate(448.750829, 262.459684) scale(-1, 1) rotate(-15.000000) translate(-448.750829, -262.459684) "></path>
        <path d="M157.994903,98.9147329 L146,144 L229.407374,144 C234.846451,144 239.605363,140.341737 241.003902,135.085537 L253,90 L169.591503,90 C164.152322,90 159.393347,93.6583994 157.994903,98.9147329 Z" id="Fill-1-Copy-18" stroke="url(#linearGradient-8)" fill-opacity="0.5" fill="url(#linearGradient-8)" opacity="0.2" transform="translate(199.500000, 117.000000) scale(-1, 1) rotate(-15.000000) translate(-199.500000, -117.000000) "></path>
    </g>
</svg>