<?xml version="1.0" encoding="UTF-8"?>
<svg width="445px" height="460px" viewBox="0 0 445 460" version="1.1" xmlns="http://www.w3.org/2000/svg" xmlns:xlink="http://www.w3.org/1999/xlink">
    <!-- Generator: Sketch 55.2 (78181) - https://sketchapp.com -->
    <title>bg_home_right</title>
    <desc>Created with Sketch.</desc>
    <defs>
        <linearGradient x1="100%" y1="18.4271365%" x2="0%" y2="81.5728635%" id="linearGradient-1">
            <stop stop-color="#A134D1" offset="0%"></stop>
            <stop stop-color="#6746D6" offset="100%"></stop>
        </linearGradient>
        <linearGradient x1="100%" y1="17.7571166%" x2="50%" y2="82.2428834%" id="linearGradient-2">
            <stop stop-color="#8697F3" offset="0%"></stop>
            <stop stop-color="#4E5EE4" offset="100%"></stop>
        </linearGradient>
        <linearGradient x1="100%" y1="49.4307158%" x2="-9.81285548%" y2="50.5692842%" id="linearGradient-3">
            <stop stop-color="#8697F3" offset="0%"></stop>
            <stop stop-color="#4E5EE4" offset="100%"></stop>
        </linearGradient>
        <linearGradient x1="-36.9725676%" y1="49.8352845%" x2="100%" y2="50.7469136%" id="linearGradient-4">
            <stop stop-color="#00F1D9" offset="0%"></stop>
            <stop stop-color="#00D4F6" offset="100%"></stop>
        </linearGradient>
        <linearGradient x1="45.7652794%" y1="50.1457565%" x2="100%" y2="49.8542435%" id="linearGradient-5">
            <stop stop-color="#00F1D9" offset="0%"></stop>
            <stop stop-color="#00D4F6" offset="100%"></stop>
        </linearGradient>
        <linearGradient x1="127.64727%" y1="89.1663562%" x2="0%" y2="60.6908076%" id="linearGradient-6">
            <stop stop-color="#4E5EE4" offset="0%"></stop>
            <stop stop-color="#8697F3" offset="100%"></stop>
        </linearGradient>
    </defs>
    <g id="OZ-desktop" stroke="none" stroke-width="1" fill="none" fill-rule="evenodd">
        <g id="Group-5-Copy-2" transform="translate(235.000000, 376.458523) scale(-1, 1) translate(-235.000000, -376.458523) translate(25.000000, 287.458523)">
            <path d="M0,177.780071 L134.127267,178 L164.788516,169.749033 C199.722266,160.348333 224,128.673765 224,92.4972528 L224,15.6920689 C224,9.06465187 218.627417,3.69206886 212,3.69206886 C210.938091,3.69206886 209.880881,3.83302238 208.856065,4.11123666 L0.0936467753,60.7855241 L0,177.780071 Z" id="Fill-1-Copy-19" stroke="url(#linearGradient-1)" stroke-width="2"></path>
            <polygon id="Fill-1-Copy-31" fill="#FFFFFF" transform="translate(210.000000, 117.500000) scale(-1, 1) rotate(180.000000) translate(-210.000000, -117.500000) " points="0 62 0 173 420 62.2053571"></polygon>
            <path d="M186,112.866149 L186,145.212674 C186,148.526383 188.686292,151.212674 192,151.212674 C192.516381,151.212674 193.030602,151.146013 193.529914,151.014343 L288.199429,126.049761 C305.762267,121.418397 318,105.535195 318,87.3719679 L318,54.8048774 C318,51.4911689 315.313708,48.8048774 312,48.8048774 C311.479248,48.8048774 310.960712,48.8726718 310.457463,49.0065517 L215.716422,74.2106449 C198.194992,78.8718955 186,94.7352987 186,112.866149 Z" id="Fill-1-Copy-30" fill="url(#linearGradient-2)" opacity="0.1" transform="translate(252.000000, 100.000000) rotate(180.000000) translate(-252.000000, -100.000000) "></path>
        </g>
        <path d="M87.9779336,89.2697502 L185.0973,89.0562216 C187.802418,89.0502741 190.169032,87.2349017 190.875739,84.6237206 L191.2469,83.2523358 C191.908102,80.8092857 190.46363,78.2927916 188.02058,77.6315888 C187.62684,77.5250245 187.220635,77.4715065 186.812731,77.4724532 L89.6301808,77.6979981 C86.9009516,77.7043322 84.5198531,79.551807 83.8356866,82.1938988 L83.4985551,83.495822 C82.8593953,85.9641086 84.3421955,88.4831917 86.8104821,89.1223515 C87.1917522,89.2210809 87.5840889,89.2706161 87.9779336,89.2697502 Z" id="Fill-1-Copy-37" fill="url(#linearGradient-3)" transform="translate(137.407487, 83.370708) scale(-1, 1) rotate(-15.000000) translate(-137.407487, -83.370708) "></path>
        <path d="M339.5409,235.445724 L416.436837,235.231094 C418.809614,235.224471 420.727762,233.295586 420.721139,230.922808 C420.720116,230.556286 420.672195,230.191401 420.578544,229.837044 L420.341228,228.939085 C419.643722,226.299851 417.25255,224.464134 414.522714,224.472177 L337.571114,224.698902 C335.219203,224.705832 333.31822,226.61805 333.325149,228.969961 C333.326261,229.347394 333.377545,229.723004 333.477653,230.08692 L333.739048,231.037149 C334.457046,233.647231 336.833874,235.45328 339.5409,235.445724 Z" id="Fill-1-Copy-39" fill="url(#linearGradient-4)" transform="translate(377.000000, 229.958523) rotate(15.000000) translate(-377.000000, -229.958523) "></path>
        <path d="M336.105829,251.540497 L333,263.131606 L438.616058,263.008324 L541.761919,262.887926 C544.54229,262.88468 546.956203,260.971688 547.594609,258.2656 L547.852969,257.170456 C548.441814,254.674451 546.895755,252.173687 544.39975,251.584843 C544.049761,251.502275 543.691364,251.460642 543.331767,251.460781 L395.90283,251.517494 L336.105829,251.540497 Z" id="Fill-1-Copy-40" fill="url(#linearGradient-5)" opacity="0" transform="translate(441.100249, 257.295065) scale(-1, 1) rotate(-15.000000) translate(-441.100249, -257.295065) "></path>
        <path d="M444.960359,-62.4917462 L445,128.458523 L265.290308,80.07238 C230.325994,70.6583728 206.021062,38.9131907 206.013534,2.64973899 L206,-62.5414771 L444.960359,-62.4917462 Z" id="Fill-1-Copy-42" fill="url(#linearGradient-6)" opacity="0.4"></path>
    </g>
</svg>