<?xml version="1.0" encoding="UTF-8"?>
<svg width="445px" height="460px" viewBox="0 0 445 460" version="1.1" xmlns="http://www.w3.org/2000/svg" xmlns:xlink="http://www.w3.org/1999/xlink">
    <!-- Generator: Sketch 55.2 (78181) - https://sketchapp.com -->
    <title>bg_home_left</title>
    <desc>Created with Sketch.</desc>
    <defs>
        <linearGradient x1="100%" y1="18.4470259%" x2="0%" y2="40.8756487%" id="linearGradient-1">
            <stop stop-color="#8697F3" offset="0%"></stop>
            <stop stop-color="#4E5EE4" offset="100%"></stop>
        </linearGradient>
        <linearGradient x1="-1.11022302e-14%" y1="17.7571166%" x2="100%" y2="82.2428834%" id="linearGradient-2">
            <stop stop-color="#3677FF" offset="0%"></stop>
            <stop stop-color="#1ECFF7" offset="100%"></stop>
        </linearGradient>
        <linearGradient x1="100%" y1="49.1268292%" x2="0%" y2="50.8731708%" id="linearGradient-3">
            <stop stop-color="#A134D1" offset="0%"></stop>
            <stop stop-color="#6746D6" offset="100%"></stop>
        </linearGradient>
        <linearGradient x1="0%" y1="100%" x2="90.3104483%" y2="100%" id="linearGradient-4">
            <stop stop-color="#00F1D9" offset="0%"></stop>
            <stop stop-color="#00D4F6" offset="100%"></stop>
        </linearGradient>
        <linearGradient x1="100%" y1="49.8023335%" x2="0%" y2="50.1976665%" id="linearGradient-5">
            <stop stop-color="#A134D1" offset="0%"></stop>
            <stop stop-color="#6746D6" offset="100%"></stop>
        </linearGradient>
        <linearGradient x1="100%" y1="49.8023335%" x2="50%" y2="50.1976665%" id="linearGradient-6">
            <stop stop-color="#8697F3" offset="0%"></stop>
            <stop stop-color="#4E5EE4" offset="100%"></stop>
        </linearGradient>
        <path d="M-100.125873,215.601023 L-101.258819,220.06175 L107.157994,219.819724 C109.928555,219.816507 112.336653,217.916714 112.984624,215.222991 L113.486554,213.136382 C114.185276,210.231678 112.396974,207.310525 109.492271,206.611803 C109.077103,206.511935 108.65157,206.461576 108.224559,206.461779 L-88.5008309,206.555026 C-93.9883754,206.557627 -98.7750213,210.282344 -100.125873,215.601023 Z" id="path-7"></path>
    </defs>
    <g id="OZ-desktop" stroke="none" stroke-width="1" fill="none" fill-rule="evenodd">
        <g id="Group-5-Copy" transform="translate(0.000000, 287.458523)">
            <path d="M0,169.789955 L128.139442,170 L154.782409,162.832615 C189.719172,153.434066 214,121.758054 214,85.5791914 L214,15.6907738 C214,9.06335675 208.627417,3.69077375 202,3.69077375 C200.938411,3.69077375 199.881517,3.83164233 198.856988,4.10969116 L0.0894661157,58.0535904 L0,169.789955 Z" id="Fill-1-Copy-19" fill="url(#linearGradient-1)" opacity="0.4"></path>
            <polygon id="Fill-1-Copy-31" fill="#FFFFFF" transform="translate(210.000000, 117.500000) scale(-1, 1) rotate(180.000000) translate(-210.000000, -117.500000) " points="0 62 0 173 420 62.2053571"></polygon>
            <path d="M186,112.866149 L186,145.212674 C186,148.526383 188.686292,151.212674 192,151.212674 C192.516381,151.212674 193.030602,151.146013 193.529914,151.014343 L288.199429,126.049761 C305.762267,121.418397 318,105.535195 318,87.3719679 L318,54.8048774 C318,51.4911689 315.313708,48.8048774 312,48.8048774 C311.479248,48.8048774 310.960712,48.8726718 310.457463,49.0065517 L215.716422,74.2106449 C198.194992,78.8718955 186,94.7352987 186,112.866149 Z" id="Fill-1-Copy-30" transform="translate(252.000000, 100.000000) rotate(180.000000) translate(-252.000000, -100.000000) "></path>
        </g>
        <path d="M158,400.324672 L158,432.671197 C158,435.984906 160.686292,438.671197 164,438.671197 C164.516381,438.671197 165.030602,438.604536 165.529914,438.472866 L260.199429,413.508284 C277.762267,408.87692 290,392.993718 290,374.830491 L290,342.2634 C290,338.949692 287.313708,336.2634 284,336.2634 C283.479248,336.2634 282.960712,336.331195 282.457463,336.465075 L187.716422,361.669168 C170.194992,366.330418 158,382.193822 158,400.324672 Z" id="Fill-1-Copy-34" stroke="url(#linearGradient-2)" stroke-width="2" transform="translate(224.000000, 387.458523) rotate(180.000000) translate(-224.000000, -387.458523) "></path>
        <path d="M70.0239406,74.7488207 L126.856426,74.5905737 C128.785938,74.585201 130.345761,73.0166673 130.340389,71.0871555 C130.339502,70.7689192 130.29514,70.4522961 130.208531,70.1460705 L130.194043,70.0948427 C129.461585,67.5050592 127.094238,65.7198607 124.402879,65.7277712 L67.591862,65.8947518 C65.654609,65.9004459 64.0887711,67.4755156 64.0944652,69.4127686 C64.0953811,69.7243914 64.1378187,70.0345026 64.2206576,70.3349146 L64.2231136,70.3438209 C64.9423537,72.9521164 67.3183066,74.7563544 70.0239406,74.7488207 Z" id="Fill-1-Copy-38" fill="url(#linearGradient-3)" transform="translate(97.230962, 70.237986) scale(-1, 1) rotate(15.000000) translate(-97.230962, -70.237986) "></path>
        <path d="M196.070049,-39.5414771 L171.056833,53.7246159 C169.340081,60.1258204 173.13758,66.7067242 179.538785,68.4234758 C180.557062,68.6965696 181.606888,68.8342837 182.66115,68.8330616 L397.315558,68.5842298 C419.010329,68.5590808 437.991355,53.9850632 443.61766,33.0325352 L463,-39.1478842 L196.070049,-39.5414771 Z" id="Fill-1-Copy-41" stroke="url(#linearGradient-4)" stroke-width="2" transform="translate(315.000000, 14.654870) rotate(-15.000000) translate(-315.000000, -14.654870) "></path>
        <g id="Fill-1-Copy-25" transform="translate(6.917042, 213.260136) rotate(-15.000000) translate(-6.917042, -213.260136) ">
            <use fill="url(#linearGradient-5)" xlink:href="#path-7"></use>
            <use fill="url(#linearGradient-6)" xlink:href="#path-7"></use>
        </g>
    </g>
</svg>