<?xml version="1.0" encoding="UTF-8"?>
<svg width="600px" height="500px" viewBox="0 0 600 500" version="1.1" xmlns="http://www.w3.org/2000/svg" xmlns:xlink="http://www.w3.org/1999/xlink">
    <!-- Generator: Sketch 55.2 (78181) - https://sketchapp.com -->
    <title>bg_sdk_left</title>
    <desc>Created with Sketch.</desc>
    <defs>
        <linearGradient x1="27.9490467%" y1="1.72254642e-14%" x2="72.0509533%" y2="100%" id="linearGradient-1">
            <stop stop-color="#3677FF" offset="0%"></stop>
            <stop stop-color="#1ECFF7" offset="100%"></stop>
        </linearGradient>
        <linearGradient x1="104.123992%" y1="5.95886917%" x2="0%" y2="89.2244898%" id="linearGradient-2">
            <stop stop-color="#3677FF" offset="0%"></stop>
            <stop stop-color="#1ECFF7" offset="100%"></stop>
        </linearGradient>
        <linearGradient x1="3.31397551%" y1="1.72254642e-14%" x2="96.6860245%" y2="100%" id="linearGradient-3">
            <stop stop-color="#3677FF" offset="0%"></stop>
            <stop stop-color="#1ECFF7" offset="100%"></stop>
        </linearGradient>
        <linearGradient x1="-32.1585362%" y1="-19.5314456%" x2="81.9353642%" y2="87.5086459%" id="linearGradient-4">
            <stop stop-color="#3677FF" offset="0%"></stop>
            <stop stop-color="#1ECFF7" offset="100%"></stop>
        </linearGradient>
        <linearGradient x1="-1.11022302e-14%" y1="20.7911111%" x2="100%" y2="79.2088889%" id="linearGradient-5">
            <stop stop-color="#3677FF" offset="0%"></stop>
            <stop stop-color="#1ECFF7" offset="100%"></stop>
        </linearGradient>
    </defs>
    <g id="OZ-desktop" stroke="none" stroke-width="1" fill="none" fill-rule="evenodd">
        <path d="M80,336.646438 L80,425.64191 C80,428.955618 82.6862915,431.64191 86,431.64191 C86.5339303,431.64191 87.0654717,431.570641 87.5805437,431.429991 L157.159947,412.430035 C162.378812,411.004926 165.998796,406.263958 165.998859,400.854014 L165.999907,311.858186 C165.999946,308.544478 163.313687,305.858154 159.999978,305.858115 C159.466024,305.858109 158.934459,305.929378 158.419364,306.070034 L88.8389127,325.070276 C83.6199965,326.495399 80,331.236442 80,336.646438 Z" id="Fill-1-Copy-16" fill-opacity="0.2" fill="url(#linearGradient-1)" opacity="0.6"></path>
        <g id="Group-10-Copy" transform="translate(-1.000000, 367.000000)" fill="#F8F8FA">
            <polygon id="Rectangle" points="0 0 496 133 0 133"></polygon>
        </g>
        <path d="M370.000434,309.326431 L370.001962,373.768121 C370.002041,377.08183 372.688396,379.768057 376.002105,379.767979 C376.536617,379.767966 377.068731,379.696529 377.58432,379.555564 L509.164715,343.580761 C514.381837,342.154372 518,337.41419 518,332.005591 L518,258.403501 C518,255.089792 515.313708,252.403501 512,252.403501 C511.46544,252.403501 510.933278,252.474938 510.417642,252.615915 L387.671004,286.175521 C377.236556,289.028356 370.000178,298.509021 370.000434,309.326431 Z" id="Fill-1-Copy-18" fill-opacity="0.5" fill="url(#linearGradient-2)" opacity="0.866001674"></path>
        <path d="M111,368.688477 L111,406.14191 C111,409.455618 113.686292,412.14191 117,412.14191 C117.53393,412.14191 118.065472,412.070641 118.580544,411.929991 L173.665842,396.887921 C178.884676,395.462821 182.504651,390.721899 182.504754,385.311988 L182.505468,347.858245 C182.505531,344.544537 179.819291,341.858194 176.505583,341.858131 C175.971614,341.858121 175.440033,341.92939 174.924925,342.07005 L119.838913,357.112315 C114.619996,358.537437 111,363.27848 111,368.688477 Z" id="Fill-1-Copy-19" fill="url(#linearGradient-3)"></path>
        <path d="M409.028218,341.804169 L409.331242,441 L557,401.433516 L556.718216,308.589465 C556.698102,301.962079 551.309238,296.605826 544.681851,296.625941 C543.645384,296.629086 542.613691,296.7665 541.612534,297.034751 L417.922424,330.176377 C412.663011,331.585588 409.011584,336.35926 409.028218,341.804169 Z" id="Fill-1-Copy-25" fill-opacity="0.5" fill="#FFFFFF" transform="translate(483.000000, 367.000000) scale(-1, 1) translate(-483.000000, -367.000000) "></path>
        <path d="M166.966364,37.4117254 L167.185305,80.0776037 C167.219314,86.7049334 172.619395,92.0498765 179.246725,92.0158681 C180.284948,92.0105404 181.31809,91.8704975 182.320267,91.5992478 L254.966364,71.9368256 L254.748803,29.2709624 C254.715009,22.6436316 249.3151,17.2985138 242.68777,17.3323078 C241.649416,17.3376026 240.616142,17.4776465 239.613839,17.7489301 L166.966364,37.4117254 Z" id="Fill-1-Copy-21" fill-opacity="0.4" fill="url(#linearGradient-4)"></path>
        <path d="M208.966364,59.2241663 L209.185725,102.109464 C209.219625,108.736795 214.619618,114.081827 221.246948,114.047927 C222.27723,114.042658 223.302543,113.904725 224.297588,113.637534 L296.966364,94.1243807 L296.748386,51.2390986 C296.7147,44.6117672 291.314879,39.2665611 284.687548,39.3002466 C283.657137,39.305484 282.631691,39.4434174 281.636521,39.7106425 L208.966364,59.2241663 Z" id="Fill-1-Copy-27" fill-opacity="0.5" fill="#F8F8FA"></path>
        <path d="M110.912331,180.725101 L111,217.5 L-0.864838198,187.525907 L-0.715581611,153.071782 L-0.624297844,132 L93.1277001,157.120772 C103.771909,159.972879 111.106144,169.707109 110.912331,180.725101 Z" id="Fill-1-Copy-29" stroke="url(#linearGradient-5)" opacity="0.5"></path>
    </g>
</svg>