<?xml version="1.0" encoding="UTF-8"?>
<svg width="600px" height="500px" viewBox="0 0 600 500" version="1.1" xmlns="http://www.w3.org/2000/svg" xmlns:xlink="http://www.w3.org/1999/xlink">
    <!-- Generator: Sketch 55.2 (78181) - https://sketchapp.com -->
    <title>bg_starterkits_left</title>
    <desc>Created with Sketch.</desc>
    <defs>
        <linearGradient x1="100%" y1="0%" x2="0%" y2="100%" id="linearGradient-1">
            <stop stop-color="#00EBDF" stop-opacity="0.5" offset="0%"></stop>
            <stop stop-color="#00D8F2" stop-opacity="0" offset="100%"></stop>
        </linearGradient>
        <linearGradient x1="100%" y1="0%" x2="0%" y2="100%" id="linearGradient-2">
            <stop stop-color="#00D4F6" offset="0%"></stop>
            <stop stop-color="#00F1D9" offset="100%"></stop>
        </linearGradient>
        <linearGradient x1="-36.9725676%" y1="42.2167693%" x2="100%" y2="85.2935944%" id="linearGradient-3">
            <stop stop-color="#00F1D9" offset="0%"></stop>
            <stop stop-color="#00D4F6" offset="100%"></stop>
        </linearGradient>
        <linearGradient x1="0%" y1="49.1199456%" x2="95.0808759%" y2="50.8800544%" id="linearGradient-4">
            <stop stop-color="#00F1D9" offset="0%"></stop>
            <stop stop-color="#00D4F6" offset="100%"></stop>
        </linearGradient>
        <linearGradient x1="95.9201389%" y1="0%" x2="50%" y2="100%" id="linearGradient-5">
            <stop stop-color="#8697F3" offset="0%"></stop>
            <stop stop-color="#4E5EE4" offset="100%"></stop>
        </linearGradient>
    </defs>
    <g id="OZ-desktop" stroke="none" stroke-width="1" fill="none" fill-rule="evenodd">
        <polygon id="Rectangle" fill="#F8F8FA" points="-1 366.911765 495 499.911765 -1 499.911765"></polygon>
        <path d="M247.028218,305.503628 L247.400624,427.411765 L412.616638,383.143655 C420.50563,381.029873 425.982736,373.869554 425.957949,365.702324 L425.649283,264.00123 C425.629169,257.373843 420.240305,252.017591 413.612918,252.037705 C412.576451,252.040851 411.544758,252.178265 410.543601,252.446516 L255.922424,293.875836 C250.663011,295.285047 247.011584,300.058719 247.028218,305.503628 Z" id="Fill-1-Copy-23" fill-opacity="0.6" fill="url(#linearGradient-1)"></path>
        <path d="M178.028218,393.715933 L178.331242,492.911765 L312.616638,456.93123 C320.50563,454.817447 325.982736,447.657129 325.957949,439.489898 L325.718216,360.50123 C325.698102,353.873843 320.309238,348.517591 313.681851,348.537705 C312.645384,348.540851 311.613691,348.678265 310.612534,348.946516 L186.922424,382.088141 C181.663011,383.497353 178.011584,388.271025 178.028218,393.715933 Z" id="Fill-1-Copy-22" stroke="url(#linearGradient-2)" fill-opacity="0.4" fill="#FFFFFF" transform="translate(252.000000, 418.911765) scale(-1, 1) translate(-252.000000, -418.911765) "></path>
        <path d="M-1,160.755895 L118.79226,128.911765 L118.958131,183.913325 C118.982801,192.093634 113.488302,199.261886 105.582518,201.363464 L-1,229.696076 L-1,160.755895 Z" id="Combined-Shape" fill="url(#linearGradient-3)" opacity="0.6"></path>
        <path d="M285.268662,156.522049 L285.22939,156.668612 C284.709069,158.610477 285.861458,160.606473 287.803323,161.126794 C288.112067,161.209522 288.430362,161.251224 288.749996,161.250825 L346.756016,161.178351 C349.485927,161.17494 351.869415,159.329122 352.555782,156.686902 L352.58192,156.58628 C353.090185,154.629677 351.916074,152.631507 349.959471,152.123242 C349.657518,152.044804 349.346776,152.005291 349.034801,152.005664 L291.057045,152.074968 C288.344078,152.07821 285.97083,153.901523 285.268662,156.522049 Z" id="Fill-1-Copy-20" fill="url(#linearGradient-4)" opacity="0.4" transform="translate(318.886646, 156.628380) rotate(-15.000000) translate(-318.886646, -156.628380) "></path>
        <path d="M312,134.764174 L312,180.052502 C312,183.366211 314.686292,186.052502 318,186.052502 C318.534219,186.052502 319.066046,185.981156 319.581377,185.840356 L380.998998,169.05963 L380.999852,123.771181 C380.999914,120.457472 378.313673,117.77113 374.999965,117.771068 C374.465708,117.771057 373.933842,117.842404 373.418475,117.983214 L312,134.764174 Z" id="Fill-1-Copy-12" fill-opacity="0.05" fill="url(#linearGradient-5)"></path>
        <path d="M51.2686618,391.522049 L51.2293905,391.668612 C50.7090693,393.610477 51.8614583,395.606473 53.8033234,396.126794 C54.1120669,396.209522 54.4303618,396.251224 54.7499963,396.250825 L112.756016,396.178351 C115.485927,396.17494 117.869415,394.329122 118.555782,391.686902 L118.58192,391.58628 C119.090185,389.629677 117.916074,387.631507 115.959471,387.123242 C115.657518,387.044804 115.346776,387.005291 115.034801,387.005664 L57.0570447,387.074968 C54.3440785,387.07821 51.9708297,388.901523 51.2686618,391.522049 Z" id="Fill-1-Copy-20" fill="url(#linearGradient-4)" transform="translate(84.886646, 391.628380) rotate(-15.000000) translate(-84.886646, -391.628380) "></path>
    </g>
</svg>