<?xml version="1.0" encoding="UTF-8"?>
<svg width="600px" height="500px" viewBox="0 0 600 500" version="1.1" xmlns="http://www.w3.org/2000/svg" xmlns:xlink="http://www.w3.org/1999/xlink">
    <!-- Generator: Sketch 55.2 (78181) - https://sketchapp.com -->
    <title>bg_starterkits_right</title>
    <desc>Created with Sketch.</desc>
    <defs>
        <linearGradient x1="100%" y1="10.8277654%" x2="16.2214949%" y2="76.4635905%" id="linearGradient-1">
            <stop stop-color="#00D4F6" stop-opacity="0.3" offset="0%"></stop>
            <stop stop-color="#00EBDF" stop-opacity="0" offset="100%"></stop>
        </linearGradient>
        <linearGradient x1="0%" y1="8.25394369%" x2="100%" y2="91.7460563%" id="linearGradient-2">
            <stop stop-color="#00D4F6" offset="0%"></stop>
            <stop stop-color="#00F1D9" offset="100%"></stop>
        </linearGradient>
        <linearGradient x1="100%" y1="1.11728317%" x2="0%" y2="98.8827168%" id="linearGradient-3">
            <stop stop-color="#00D4F6" offset="0%"></stop>
            <stop stop-color="#00F1D9" offset="100%"></stop>
        </linearGradient>
        <linearGradient x1="0%" y1="29.0657439%" x2="100%" y2="70.9342561%" id="linearGradient-4">
            <stop stop-color="#00D4F6" offset="0%"></stop>
            <stop stop-color="#00F1D9" offset="100%"></stop>
        </linearGradient>
        <linearGradient x1="0%" y1="49.1199456%" x2="95.0808759%" y2="50.8800544%" id="linearGradient-5">
            <stop stop-color="#00F1D9" offset="0%"></stop>
            <stop stop-color="#00D4F6" offset="100%"></stop>
        </linearGradient>
        <linearGradient x1="100%" y1="24.5149171%" x2="0%" y2="75.4850829%" id="linearGradient-6">
            <stop stop-color="#8697F3" offset="0%"></stop>
            <stop stop-color="#F8F8FA" offset="100%"></stop>
        </linearGradient>
    </defs>
    <g id="OZ-desktop" stroke="none" stroke-width="1" fill="none" fill-rule="evenodd">
        <polygon id="Rectangle" fill="#F8F8FA" transform="translate(352.000000, 433.411765) scale(-1, 1) translate(-352.000000, -433.411765) " points="104 366.911765 600 499.911765 104 499.911765"></polygon>
        <path d="M79.0004347,227.611442 L79.0028624,329.928759 C79.002941,333.242468 81.6892963,335.928695 85.0030048,335.928617 C85.5371764,335.928604 86.0689544,335.857258 86.5842389,335.71647 L280.162753,282.826307 C285.380845,281.400602 289,276.659955 289,271.2506 L289,159.771027 C289,156.457319 286.313708,153.771027 283,153.771027 C282.465781,153.771027 281.933954,153.842373 281.418623,153.983174 L96.6749286,204.459458 C86.2385399,207.310923 79.000178,216.792521 79.0004347,227.611442 Z" id="Fill-1-Copy-10" fill-opacity="0.5" fill="url(#linearGradient-1)"></path>
        <path d="M157.957719,334.932092 L157.689335,423.368974 L14.4762599,385.815058 C6.5416097,383.734402 1.0172764,376.552317 1.0420133,368.34944 L1.28533208,287.663734 C1.29532497,284.35004 3.9897051,281.671862 7.30339853,281.681855 C7.81094473,281.683385 8.31624569,281.74931 8.80719557,281.878049 L144.523475,317.46613 C152.458248,319.546819 157.982614,326.729087 157.957719,334.932092 Z" id="Fill-1-Copy-9" stroke="url(#linearGradient-2)" transform="translate(79.500000, 351.640369) scale(-1, 1) translate(-79.500000, -351.640369) "></path>
        <path d="M304.000186,398.45673 L304.001134,445.442443 C304.001201,448.756151 306.687547,451.442389 310.001255,451.442322 C310.528543,451.442311 311.053529,451.372794 311.562647,451.235566 L384.123027,431.677612 C389.360746,430.265835 393,425.515773 393,420.091124 L393,373.105034 C393,369.791326 390.313708,367.105034 387,367.105034 C386.472671,367.105034 385.947644,367.174552 385.438487,367.31179 L312.877159,386.87 C307.639353,388.2818 304.000076,393.031991 304.000186,398.45673 Z" id="Fill-1-Copy-10" fill-opacity="0.5" fill="url(#linearGradient-3)"></path>
        <path d="M568.957595,132.734475 L568.890216,154.823529 L488.439616,133.545726 C480.522959,131.451907 475.017316,124.278342 475.042137,116.089513 L475.109093,94 L555.560117,115.277915 C563.476898,117.371768 568.982574,124.545518 568.957595,132.734475 Z" id="Fill-1-Copy-9" stroke="url(#linearGradient-4)" transform="translate(522.000000, 124.411765) scale(-1, 1) translate(-522.000000, -124.411765) "></path>
        <path d="M254.882015,203.393669 L254.842744,203.540232 C254.322423,205.482097 255.474812,207.478094 257.416677,207.998415 C257.72542,208.081142 258.043715,208.122844 258.36335,208.122445 L316.36937,208.049971 C319.099281,208.04656 321.482769,206.200742 322.169135,203.558522 L322.195273,203.457901 C322.703538,201.501297 321.529428,199.503127 319.572825,198.994863 C319.270871,198.916425 318.960129,198.876912 318.648155,198.877284 L260.670398,198.946588 C257.957432,198.949831 255.584183,200.773143 254.882015,203.393669 Z" id="Fill-1-Copy-20" fill="url(#linearGradient-5)" transform="translate(288.500000, 203.500000) rotate(-15.000000) translate(-288.500000, -203.500000) "></path>
        <path d="M359,420.96351 L359,488.109952 C359,491.423661 361.686292,494.109952 365,494.109952 C365.538618,494.109952 366.074784,494.037426 366.594046,493.894329 L542.188091,445.504514 C547.393643,444.06998 551,439.335358 551,433.93576 L551,366.78891 C551,363.475201 548.313708,360.78891 545,360.78891 C544.461377,360.78891 543.925207,360.861437 543.405942,361.004536 L367.811884,409.394763 C362.606345,410.829306 359,415.563922 359,420.96351 Z" id="Fill-1-Copy-14" fill-opacity="0.11" fill="url(#linearGradient-6)"></path>
    </g>
</svg>